<svg width="303" height="686" viewBox="0 0 303 686" fill="none" xmlns="http://www.w3.org/2000/svg">
<g filter="url(#filter0_d_1889_3923)">
<path d="M110.851 27.6796C113.067 38.4023 115.382 49.1138 117.511 59.9402C120.802 76.544 123.994 93.159 127.298 109.855C129.169 119.492 130.929 129.047 132.702 138.694C135.404 153.114 138.019 167.637 140.72 182.057C141.442 186.008 142.163 189.96 142.884 193.911C142.981 194.651 143.177 195.379 143.299 196.303C146.082 194.485 148.55 194.86 151.148 197.003C150.693 191.239 152.998 187.317 158.522 185.656C163.86 184.109 168.47 185.46 171.894 190.041C174.436 185.624 178.743 184.664 183.568 184.583C182.126 181.277 182.701 179.523 185.746 177.393C189.436 174.815 194.956 174.655 198.795 177.031C199.352 177.437 200.008 177.831 200.776 178.306C201.08 176.02 201.742 174.163 204.386 173.58C206.645 173.135 208.703 173.463 210.372 175.43C211.253 170.639 214.608 168.568 218.963 167.978C224.311 167.275 228.36 169.721 230.989 174.393C232.701 169.789 236.805 170.353 240.8 170.085C240.095 169.321 239.501 168.639 238.821 168.06C238.017 167.307 237.808 166.487 238.306 165.679C238.892 164.768 239.441 163.58 240.373 163.005C244.262 160.404 248.232 159.951 252.543 162.086C256.531 164.071 258.853 167.934 258.383 172.021C257.759 178.002 252.463 182.17 246.226 181.474C245.718 181.438 245.011 181.425 244.577 181.193C242.262 179.674 239.88 179.946 237.36 180.702C236.876 180.851 236.367 180.816 235.97 180.861C234.271 180.961 232.721 180.668 231.883 178.888C231.757 179.465 231.643 180.135 231.419 180.723C230.138 186.31 224.361 189.876 218.472 188.765C216.513 188.426 215.065 187.371 213.643 185.751C212.855 188.186 212.018 190.251 209.016 190.406C206.92 190.551 205.694 189.659 203.928 186.952C203.715 187.633 203.478 188.129 203.353 188.707C201.639 194.061 196.086 197.039 190.198 195.928C188.127 195.508 187.052 194.223 186.673 192.109C182.806 195.645 178.536 196.883 173.39 196.062C172.785 199.883 171.101 203.171 167.202 204.929C163.501 206.664 159.644 206.447 156.04 204.325C157.114 210.957 152.544 212.978 148.26 210.277C147.858 211.824 147.358 213.382 146.87 215.032C146.732 215.517 146.706 216.083 146.766 216.545C146.888 217.469 147.022 218.486 147.242 219.399C148.717 224.484 148.182 229.61 146.829 234.643C144.497 243.726 140.356 252.078 135.15 259.988C131.376 265.765 127.28 271.392 122.961 276.856C119.066 281.709 115.827 286.956 113.12 292.424C106.123 306.636 102.151 321.629 100.67 337.182C100.082 343.44 100.015 349.826 99.8367 356.132C99.8062 358.199 100.284 360.302 100.254 362.369C100.217 366.688 98.8296 370.693 97.0327 374.65C93.988 381.376 89.5314 387.325 84.7284 392.938C79.3035 399.184 73.3093 404.933 66.981 410.439C65.8871 411.314 64.9168 412.363 64.0457 413.4C55.25 423.127 45.7493 432.089 34.9867 439.883C30.4755 443.117 25.717 446.005 20.8108 448.534C18.9228 449.5 17.1584 450.639 15.629 452.033C13.4655 453.968 13.5222 455.932 15.5013 457.957C16.5404 458.964 17.6788 459.96 18.9793 460.656C24.874 464.112 31.3804 466.091 38.2738 467.181C42.0801 467.779 45.8033 466.979 49.4516 466.376C60.5706 464.358 71.2339 461.172 81.5407 456.808C89.364 453.477 95.9881 448.688 101.871 442.858C108.985 435.668 115.431 427.992 121.543 420.072C126.099 414.112 132.421 410.859 139.819 408.89C149.947 406.234 159.792 407.551 169.483 410.761C172.333 411.75 175.108 412.934 177.883 414.119C178.527 414.42 179.159 414.63 180.225 415.071C179.955 413.789 179.822 412.772 179.589 411.767C177.602 403.551 175.714 395.323 173.628 387.118C171.75 379.734 169.674 372.373 167.598 365.011C167.241 363.832 166.686 362.676 165.933 361.542C158.399 349.456 151.636 337.094 146.586 323.974C144.591 318.761 142.993 313.502 141.879 308.094C140.226 300.122 141.103 292.236 142.886 284.34C145.197 273.571 148.662 263.138 152.646 252.834C156.568 242.819 160.812 232.955 164.945 223.009C165.17 222.421 165.494 221.821 165.905 221.117C166.426 221.246 166.847 221.385 167.268 221.525C167.59 221.676 168.012 221.815 168.557 222.128C168.17 223.017 167.87 223.801 167.471 224.597C160.32 240.703 153.702 257.029 148.757 273.821C146.528 281.392 144.598 288.929 144.129 296.862C143.83 302.244 144.733 307.581 146.12 312.77C150.37 328.233 157.699 342.594 166.257 356.346C169.196 361.076 171.056 366.024 172.443 371.213C174.934 380.966 177.624 390.697 180.029 400.554C181.979 408.492 183.644 416.558 185.309 424.623C187.794 436.628 189.783 448.69 190.978 460.842C193.054 481.993 191.05 502.766 183.628 522.936C183.415 523.617 183.103 524.309 182.791 525.001C181.154 529.409 178.849 533.33 175.49 536.903C169.308 543.517 163.583 550.548 158.515 557.974C156.647 560.626 154.903 563.451 153.258 566.266C151.451 569.38 150.375 572.692 150.142 576.283C149.869 581.098 149.186 585.866 148.925 590.774C148.856 593.315 149.208 595.995 149.635 598.479C149.905 599.761 150.782 601.069 151.734 602.18C152.81 603.464 153.616 603.466 155.107 602.545C156.784 601.51 158.35 600.393 159.78 599.011C163.71 595.186 167.64 591.361 171.347 587.374C184.82 572.611 197.167 556.945 209.315 541.302C212.24 537.497 215.265 533.682 218.079 529.796C219.274 528.159 220.246 526.36 221.219 524.56C222.104 522.865 222.778 521.099 223.676 519.496C226.032 515.194 227.347 510.635 228.339 505.925C233.793 479.976 239.259 454.119 244.712 428.17C245.642 423.749 246.969 419.282 247.8 414.872C248.278 412.379 248.248 409.85 248.217 407.32C248.094 402.55 247.474 397.837 245.552 393.178C246.409 392.799 247.178 392.524 248.222 392.029C248.529 392.839 248.912 393.452 249.109 394.18C251.373 400.675 251.653 407.398 251.015 414.037C250.721 417.166 249.497 420.12 248.893 423.19C243.742 447.604 238.602 472.111 233.351 496.536C233.112 497.783 232.873 499.03 232.534 500.288C229.457 514.428 229.457 514.428 223.021 527.544C222.709 528.237 222.298 528.94 221.863 529.459C206.564 549.495 191.154 569.45 174.185 588.27C170.403 592.453 166.386 596.382 162.369 600.311C160.677 602.004 158.652 603.455 156.701 604.709C153.918 606.527 151.45 606.152 149.224 603.779C148.161 602.587 147.47 601.165 146.779 599.743C146.348 598.76 146.103 597.662 145.734 596.391C145.386 596.806 145.199 596.921 145.037 597.221C139.132 606.712 134.702 616.691 133.221 627.648C131.865 638.027 133.761 647.848 140.249 656.583C140.743 657.277 141.325 657.868 142.042 658.724C143.559 657.238 144.914 656.051 146.035 654.61C149.482 650.184 152.942 645.849 156.068 641.272C162.731 631.413 169.059 621.311 175.71 611.36C184.801 597.753 194.883 584.784 205.857 572.464C206.989 571.116 208.01 569.686 209.031 568.256C215.992 558.364 222.32 548.262 227.559 537.533C231.6 529.193 234.576 520.411 237.453 511.641C246.948 481.947 256.343 452.265 265.838 422.572C266.126 421.695 266.314 420.829 266.602 419.952C268.091 415.186 267.893 410.612 266.169 405.931C264.789 402.336 263.708 398.707 262.527 395.089C262.343 394.453 262.158 393.818 261.962 393.09C262.831 392.803 263.501 392.539 264.47 392.241C264.729 392.68 264.988 393.12 265.148 393.571C266.686 398.367 268.31 403.06 269.748 407.868C270.793 411.219 270.945 414.673 269.981 418.066C268.34 423.975 266.699 429.885 264.847 435.724C256.313 463.526 247.468 491.269 238.214 518.965C231.774 538.179 221.791 555.733 209.677 572.404C207.972 574.756 205.845 576.968 203.829 579.262C191.847 593.104 181.289 607.816 171.498 623.003C166.379 630.809 161.26 638.616 156.141 646.423C155.817 647.022 155.393 647.634 155.268 648.211C154.409 653.937 154.642 659.539 157.157 664.881C158.428 667.644 160.196 669.6 162.833 671.269C163.182 670.854 163.629 670.428 163.966 669.92C166.83 665.654 169.905 661.457 172.547 657.029C174.615 653.604 176.461 650.016 178.107 646.451C183.897 633.784 189.897 621.187 197.508 609.344C205.281 597.201 212.942 584.977 220.715 572.834C222.459 570.009 224.204 567.183 226.158 564.428C229.296 559.943 231.703 555.259 233.763 550.24C238.108 539.614 243.074 529.104 246.799 518.361C253.788 497.959 261.93 477.894 269.861 457.76C270.31 456.583 270.971 455.476 271.73 454.357C275.454 448.961 278.855 443.414 281.179 437.333C282.441 433.906 283.206 430.535 282.72 426.839C281.392 418.266 280.274 409.763 279.044 401.18C278.034 394.259 276.725 387.373 275.814 380.441C274.307 368.981 272.8 357.521 271.591 346.027C270.817 338.611 270.639 331.126 270.274 323.757C269.934 316.573 269.793 309.366 269.54 302.078C269.254 293.011 268.969 283.945 268.683 274.878C268.442 267.682 268.201 260.487 267.948 253.199C267.776 248.059 267.604 242.919 267.432 237.779C267.434 237.029 267.647 236.348 267.748 235.586C268.301 232.896 268.854 230.207 269.507 227.506C271.014 220.58 270.623 213.776 269.414 206.879C267.899 198.421 266.582 189.941 265.067 181.484C265.019 181.114 264.97 180.744 264.81 180.294C264.277 180.073 263.856 179.933 263.323 179.713C261.403 178.9 260.414 177.511 260.06 175.582C259.596 172.821 259.12 169.967 258.755 167.194C258.34 164.803 259.298 163.661 262.564 162.445C262.602 161.972 262.617 161.313 262.544 160.759C261.314 147.578 260.383 134.364 260.047 121.082C259.674 107.522 259.103 93.9856 258.83 80.4148C258.492 67.8833 258.241 55.2481 258.002 42.7052C257.808 32.0335 257.527 21.4654 257.333 10.7936C258.325 10.6805 259.218 10.5786 260.211 10.4655C260.324 14.3924 260.537 18.3081 260.563 22.3387C260.739 30.5736 260.903 38.7161 261.067 46.8586C261.231 55.001 261.407 63.2359 261.571 71.3784C261.735 79.5208 261.986 87.5596 262.15 95.702C262.373 105.057 262.607 114.505 263.128 123.826C263.658 133.991 264.4 144.225 265.029 154.378C265.135 156.711 265.438 159.022 265.631 161.251C265.764 162.268 265.799 163.296 266.901 164.014C267.334 164.246 267.705 164.767 267.865 165.218C269.121 168.639 270.389 172.153 269.374 175.927C269.236 176.412 269.222 177.07 268.861 177.393C267.605 178.568 267.887 179.943 268.081 181.422C268.41 183.917 268.738 186.412 269.463 188.862C269.951 187.212 270.451 185.654 270.94 184.004C271.539 182.434 272.028 180.784 274.088 180.362C269.872 175.12 269.439 170.291 272.725 166.165C275.488 162.66 280.738 161.217 285.46 162.649C289.872 164.022 292.913 167.991 292.789 172.414C292.625 178.061 289.876 180.907 282.391 182.98C283.671 186.586 282.992 189.853 280.454 192.769C277.916 195.685 274.798 197.26 270.634 196.233C270.901 198.267 270.97 200.323 271.423 202.241C274.012 212.733 273.984 223.243 271.115 233.607C270.301 236.608 270.392 239.6 270.495 242.683C270.768 251.658 271.129 260.528 271.402 269.502C271.782 280.059 272.064 290.627 272.345 301.195C272.618 310.169 272.979 319.04 273.252 328.014C274.107 351.368 277.74 374.406 281.275 397.454C282.64 406.304 283.906 415.165 285.37 424.004C286.346 429.896 285.352 435.356 282.943 440.79C280.585 445.843 277.806 450.757 274.581 455.346C273.809 456.372 273.533 457.341 273.604 458.646C275.901 480.71 278.706 502.81 281.995 524.761C282.323 527.257 282.751 529.741 283.289 532.306C284.416 537.806 284.351 543.442 284.373 548.974C284.375 557.416 284.464 565.755 284.565 574.186C284.629 582.34 284.781 590.39 285.044 598.521C285.225 605.254 285.393 611.895 285.771 618.606C286.269 626.992 287.065 635.344 287.675 643.811C287.843 645.855 288.222 647.97 288.513 650.188C288.414 650.199 288.054 650.522 287.756 650.556C282.27 651.744 276.837 651.8 271.522 649.686C265.897 647.513 262.05 643.543 259.769 638.456C258.327 635.149 257.27 631.705 256.51 628.227C253.865 615.771 252.808 603.134 251.75 590.497C251.234 584.27 250.817 578.033 250.4 571.795C249.841 562.948 249.58 554.066 248.921 545.229C248.695 541.972 247.674 538.805 246.951 535.604C246.657 534.137 246.177 532.784 245.76 531.143C244.828 531.719 244.726 532.481 244.502 533.069C241.106 540.961 237.711 548.852 234.304 556.651C233.593 558.14 232.782 559.639 231.96 561.046C220.774 578.644 209.488 596.252 198.314 613.942C192.559 623.041 187.671 632.604 183.526 642.457C178.683 653.89 171.684 664.256 164.561 674.449C164.387 674.656 164.201 674.772 163.939 675.083C154.34 670.267 152.34 661.959 152.006 652.522C151.297 653.26 150.937 653.582 150.489 654.009C148.909 655.784 147.329 657.558 145.637 659.252C145.016 659.886 144.183 660.45 143.438 660.91C141.935 661.738 140.806 661.585 139.718 660.208C135.91 655.764 133.245 650.815 131.622 645.372C128.869 635.93 129.739 626.45 132.443 617.136C135.01 608.307 139.175 600.14 144.517 592.496C145.363 591.274 145.702 590.016 145.817 588.595C146.228 583.295 146.628 577.903 147.436 572.558C147.74 570.272 148.639 567.918 149.873 565.807C152.677 561.079 155.492 556.443 158.853 552.12C164.019 545.433 169.531 539.083 174.931 532.651C176.151 531.199 177.259 529.665 178.033 527.889C182.7 517.413 185.508 506.587 187.151 495.33C189.035 482.076 188.811 468.875 187.271 455.636C185.791 443.61 183.628 431.756 181.167 419.936C180.946 419.023 180.65 418.306 179.684 417.853C171.038 413.398 161.955 410.212 152.033 409.842C145.46 409.654 139.168 410.84 133.294 413.667C129.692 415.391 126.672 417.705 124.257 420.795C118.806 427.607 113.12 434.165 107.346 440.827C98.8604 450.612 88.0756 457.47 75.4494 461.817C65.2317 465.327 54.8298 468.202 44.0105 469.435C40.8343 469.797 37.8079 469.767 34.6843 468.997C28.7592 467.609 22.9961 465.921 17.7578 462.859C16.1231 461.92 14.4519 460.703 13.1656 459.349C10.1474 456.316 10.1819 452.748 13.2164 449.775C14.6466 448.393 16.2874 447.08 18.0883 446.218C30.9556 439.873 41.7831 431.041 51.7942 421.363C55.4628 417.849 58.785 414 62.3422 410.405C63.2375 409.552 64.1329 408.7 65.0283 407.847C72.6247 401.259 79.8626 394.243 85.9864 386.415C89.6956 381.677 92.9591 376.615 95.2563 371.1C96.6298 367.754 97.4827 364.28 97.4058 360.63C97.2802 356.611 96.9562 352.614 97.0292 348.572C97.4692 328.166 101.74 308.543 110.882 289.959C113.588 284.491 116.828 279.244 120.835 274.472C127.181 266.806 132.859 258.655 137.448 249.877C140.677 243.786 143.274 237.487 144.607 230.768C145.5 226.07 145.373 222.801 143.947 218.086C143.003 218.569 141.947 218.97 140.718 219.58C143.679 220.649 143.872 222.879 143.878 225.223C143.861 226.632 143.746 228.052 143.63 229.473C143.578 230.604 142.832 231.064 141.74 231.189C140.847 231.291 139.743 231.323 138.9 231.044C135.505 229.742 132.4 226.813 133.405 222.196C133.605 221.422 134.327 220.777 134.75 220.166C127.699 217.874 124.202 212.738 126.141 206.795C127.918 201.152 133.693 198.336 140.635 199.796C140.38 197.855 140.236 195.995 139.894 194.158C138.391 185.793 136.888 177.428 135.286 169.074C132.744 155.106 130.103 141.148 127.573 127.272C125.849 117.994 124.138 108.808 122.315 99.5417C120.004 87.3289 117.605 75.2199 115.195 63.0184C113.666 55.2192 112.05 47.5237 110.52 39.7245C109.688 35.6919 108.855 31.6593 108.023 27.6267C108.965 27.8946 109.858 27.7928 110.851 27.6796ZM285.455 648.379C285.102 645.699 284.663 643.122 284.422 640.523C283.812 632.056 283.203 623.589 282.891 615.089C282.472 605.005 282.14 594.818 282.018 584.701C281.85 573.463 281.782 562.214 281.713 550.965C281.695 543.932 281.268 536.852 280.245 529.839C277.116 508.339 274.57 486.678 271.738 465.144C271.678 464.682 271.617 464.22 271.457 463.769C270.922 464.299 270.598 464.899 270.46 465.384C267.138 473.83 263.716 482.287 260.493 490.722C256.332 501.984 252.271 513.235 248.221 524.578C247.909 525.27 247.931 526.206 248.028 526.945C248.543 529.325 249.169 531.787 249.783 534.156C251.158 539.252 252.223 544.29 252.408 549.522C252.776 559.986 253.454 570.509 254.22 580.928C254.902 589.95 255.597 599.064 256.677 608.04C257.586 615.722 258.992 623.348 260.397 630.973C261.045 634.37 262.463 637.492 264.465 640.453C269.01 647.439 277.5 649.942 285.455 648.379ZM282.92 180.105C287.585 179.573 290.546 176.046 290.075 171.691C289.503 167.348 285.728 164.682 280.963 165.225C276.497 165.735 273.535 169.262 274.007 173.617C274.442 177.695 278.453 180.614 282.92 180.105ZM160.661 188.132C158.676 188.359 156.887 189.313 155.593 190.962C153.689 193.336 153.523 195.137 155.177 197.763C155.931 198.897 156.498 200.145 157.438 201.164C158.044 201.939 158.848 202.692 159.79 202.959C162.306 203.704 164.886 203.41 167.099 201.845C170.131 199.623 171.158 195.941 169.605 192.554C168.162 189.247 164.917 187.553 160.661 188.132ZM137.647 217.678C140.625 217.339 142.873 216.051 144.257 213.548C144.905 212.348 145.045 211.113 144.192 209.991C142.821 207.989 141.35 205.999 139.979 203.998C139.102 202.691 137.75 202.376 136.249 202.453C131.945 202.663 128.238 206.65 128.574 210.739C129.022 214.909 133.081 218.199 137.647 217.678ZM221.555 186.162C224.93 185.778 227.815 183.198 228.419 180.127C229.073 176.675 227.42 173.299 224.088 171.709C220.756 170.119 217.107 170.722 214.595 173.073C213.526 174.133 213.262 175.194 213.743 176.547C214.518 178.616 215.207 180.789 215.983 182.858C216.955 185.655 218.478 186.513 221.555 186.162ZM190.094 192.845C193.935 194.47 198.791 192.322 200.29 188.399C201.714 184.672 199.852 180.475 196.012 178.849C192.072 177.235 187.504 178.506 185.808 181.701C187.143 183.425 188.95 184.908 189.59 186.711C190.354 188.687 190.038 190.881 190.094 192.845ZM243.83 177.807C247.509 179.733 251.803 178.681 253.995 175.429C256.436 171.774 255.444 167.29 251.716 164.995C248.745 163.082 244.069 162.771 241.381 166.079C242.53 167.918 243.952 169.538 244.803 171.411C245.69 173.562 244.655 175.65 243.83 177.807ZM274.811 183.562C273.338 186.92 272.262 190.232 272.836 193.825C276.656 193.765 279.889 190.769 280.246 187.352C280.525 184.881 279.82 184.117 277.254 183.753C276.435 183.659 275.728 183.645 274.811 183.562ZM153.255 206.894C152.866 203.936 150.31 199.819 148.341 198.636C147.573 198.161 146.706 197.697 145.687 198.376C144.767 199.043 144.48 199.921 145.023 200.984C146.268 203.563 147.8 206.015 150.152 207.81C150.721 208.308 151.513 208.968 152.246 208.416C152.892 207.967 153.093 207.194 153.255 206.894ZM210.473 183.861C210.216 182.671 210.118 181.932 209.823 181.215C209.132 179.793 208.441 178.371 207.564 177.063C206.946 176.196 205.719 176.054 204.763 176.445C203.719 176.939 203.928 177.759 204.236 178.569C204.716 179.921 205.196 181.273 205.664 182.533C206.144 183.886 206.624 185.238 207.291 186.475C207.55 186.915 208.318 187.39 208.925 187.415C209.334 187.462 210.043 186.724 210.193 186.332C210.481 185.455 210.447 184.427 210.473 183.861ZM262.307 165.851C262.244 166.14 262.057 166.255 262.082 166.44C262.471 169.397 262.859 172.355 263.335 175.208C263.408 175.763 263.779 176.284 264.15 176.804C264.743 177.487 265.637 177.385 266.147 176.67C266.396 176.267 266.522 175.69 266.66 175.205C267.423 172.585 266.488 170.065 265.663 167.626C265.209 165.708 264.689 165.58 262.307 165.851ZM176.399 193.655C177.776 193.404 179.079 193.35 180.122 192.856C181.451 192.235 182.755 191.43 183.837 190.462C184.285 190.036 184.449 188.985 184.177 188.453C183.906 187.922 182.94 187.469 182.245 187.548C180.942 187.603 179.565 187.854 178.311 188.278C175.058 189.587 174.845 190.268 176.399 193.655ZM237.455 172.999C236.586 173.286 235.804 173.469 235.134 173.733C234.078 174.135 234.089 174.978 234.297 175.798C234.518 176.711 234.465 177.843 235.705 178.077C236.746 178.333 240.346 177.36 241.28 176.034C242.114 174.72 241.77 173.633 240.22 173.341C239.278 173.073 238.274 173.094 237.455 172.999ZM140.361 222.997C138.872 223.167 137.582 223.314 136.292 223.461C136.283 226.464 137.618 228.188 140.519 228.795C141.169 226.845 140.839 225.1 140.361 222.997Z" fill="white"/>
<path d="M110.851 27.6796C113.067 38.4023 115.382 49.1138 117.511 59.9402C120.802 76.544 123.994 93.159 127.298 109.855C129.169 119.492 130.929 129.047 132.702 138.694C135.404 153.114 138.019 167.637 140.72 182.057C141.442 186.008 142.163 189.96 142.884 193.911C142.981 194.651 143.177 195.379 143.299 196.303C146.082 194.485 148.55 194.86 151.148 197.003C150.693 191.239 152.998 187.317 158.522 185.656C163.86 184.109 168.47 185.46 171.894 190.041C174.436 185.624 178.743 184.664 183.568 184.583C182.126 181.277 182.701 179.523 185.746 177.393C189.436 174.815 194.956 174.655 198.795 177.031C199.352 177.437 200.008 177.831 200.776 178.306C201.08 176.02 201.742 174.163 204.386 173.58C206.645 173.135 208.703 173.463 210.372 175.43C211.253 170.639 214.608 168.568 218.963 167.978C224.311 167.275 228.36 169.721 230.989 174.393C232.701 169.789 236.805 170.353 240.8 170.085C240.095 169.321 239.501 168.639 238.821 168.06C238.017 167.307 237.808 166.487 238.306 165.679C238.892 164.768 239.441 163.58 240.373 163.005C244.262 160.404 248.232 159.951 252.543 162.086C256.531 164.071 258.853 167.934 258.383 172.021C257.759 178.002 252.463 182.17 246.226 181.474C245.718 181.438 245.011 181.425 244.577 181.193C242.262 179.674 239.88 179.946 237.36 180.702C236.876 180.851 236.367 180.816 235.97 180.861C234.271 180.961 232.721 180.668 231.883 178.888C231.757 179.465 231.643 180.135 231.419 180.723C230.138 186.31 224.361 189.876 218.472 188.765C216.513 188.426 215.065 187.371 213.643 185.751C212.855 188.186 212.018 190.251 209.016 190.406C206.92 190.551 205.694 189.659 203.928 186.952C203.715 187.633 203.478 188.129 203.353 188.707C201.639 194.061 196.086 197.039 190.198 195.928C188.127 195.508 187.052 194.223 186.673 192.109C182.806 195.645 178.536 196.883 173.39 196.062C172.785 199.883 171.101 203.171 167.202 204.929C163.501 206.664 159.644 206.447 156.04 204.325C157.114 210.957 152.544 212.978 148.26 210.277C147.858 211.824 147.358 213.382 146.87 215.032C146.732 215.517 146.706 216.083 146.766 216.545C146.888 217.469 147.022 218.486 147.242 219.399C148.717 224.484 148.182 229.61 146.829 234.643C144.497 243.726 140.356 252.078 135.15 259.988C131.376 265.765 127.28 271.392 122.961 276.856C119.066 281.709 115.827 286.956 113.12 292.424C106.123 306.636 102.151 321.629 100.67 337.182C100.082 343.44 100.015 349.826 99.8367 356.132C99.8062 358.199 100.284 360.302 100.254 362.369C100.217 366.688 98.8296 370.693 97.0327 374.65C93.988 381.376 89.5314 387.325 84.7284 392.938C79.3035 399.184 73.3093 404.933 66.981 410.439C65.8871 411.314 64.9168 412.363 64.0457 413.4C55.25 423.127 45.7493 432.089 34.9867 439.883C30.4755 443.117 25.717 446.005 20.8108 448.534C18.9228 449.5 17.1584 450.639 15.629 452.033C13.4655 453.968 13.5222 455.932 15.5013 457.957C16.5404 458.964 17.6788 459.96 18.9793 460.656C24.874 464.112 31.3804 466.091 38.2738 467.181C42.0801 467.779 45.8033 466.979 49.4516 466.376C60.5706 464.358 71.2339 461.172 81.5407 456.808C89.364 453.477 95.9881 448.688 101.871 442.858C108.985 435.668 115.431 427.992 121.543 420.072C126.099 414.112 132.421 410.859 139.819 408.89C149.947 406.234 159.792 407.551 169.483 410.761C172.333 411.75 175.108 412.934 177.883 414.119C178.527 414.42 179.159 414.63 180.225 415.071C179.955 413.789 179.822 412.772 179.589 411.767C177.602 403.551 175.714 395.323 173.628 387.118C171.75 379.734 169.674 372.373 167.598 365.011C167.241 363.832 166.686 362.676 165.933 361.542C158.399 349.456 151.636 337.094 146.586 323.974C144.591 318.761 142.993 313.502 141.879 308.094C140.226 300.122 141.103 292.236 142.886 284.34C145.197 273.571 148.662 263.138 152.646 252.834C156.568 242.819 160.812 232.955 164.945 223.009C165.17 222.421 165.494 221.821 165.905 221.117C166.426 221.246 166.847 221.385 167.268 221.525C167.59 221.676 168.012 221.815 168.557 222.128C168.17 223.017 167.87 223.801 167.471 224.597C160.32 240.703 153.702 257.029 148.757 273.821C146.528 281.392 144.598 288.929 144.129 296.862C143.83 302.244 144.733 307.581 146.12 312.77C150.37 328.233 157.699 342.594 166.257 356.346C169.196 361.076 171.056 366.024 172.443 371.213C174.934 380.966 177.624 390.697 180.029 400.554C181.979 408.492 183.644 416.558 185.309 424.623C187.794 436.628 189.783 448.69 190.978 460.842C193.054 481.993 191.05 502.766 183.628 522.936C183.415 523.617 183.103 524.309 182.791 525.001C181.154 529.409 178.849 533.33 175.49 536.903C169.308 543.517 163.583 550.548 158.515 557.974C156.647 560.626 154.903 563.451 153.258 566.266C151.451 569.38 150.375 572.692 150.142 576.283C149.869 581.098 149.186 585.866 148.925 590.774C148.856 593.315 149.208 595.995 149.635 598.479C149.905 599.761 150.782 601.069 151.734 602.18C152.81 603.464 153.616 603.466 155.107 602.545C156.784 601.51 158.35 600.393 159.78 599.011C163.71 595.186 167.64 591.361 171.347 587.374C184.82 572.611 197.167 556.945 209.315 541.302C212.24 537.497 215.265 533.682 218.079 529.796C219.274 528.159 220.246 526.36 221.219 524.56C222.104 522.865 222.778 521.099 223.676 519.496C226.032 515.194 227.347 510.635 228.339 505.925C233.793 479.976 239.259 454.119 244.712 428.17C245.642 423.749 246.969 419.282 247.8 414.872C248.278 412.379 248.248 409.85 248.217 407.32C248.094 402.55 247.474 397.837 245.552 393.178C246.409 392.799 247.178 392.524 248.222 392.029C248.529 392.839 248.912 393.452 249.109 394.18C251.373 400.675 251.653 407.398 251.015 414.037C250.721 417.166 249.497 420.12 248.893 423.19C243.742 447.604 238.602 472.111 233.351 496.536C233.112 497.783 232.873 499.03 232.534 500.288C229.457 514.428 229.457 514.428 223.021 527.544C222.709 528.237 222.298 528.94 221.863 529.459C206.564 549.495 191.154 569.45 174.185 588.27C170.403 592.453 166.386 596.382 162.369 600.311C160.677 602.004 158.652 603.455 156.701 604.709C153.918 606.527 151.45 606.152 149.224 603.779C148.161 602.587 147.47 601.165 146.779 599.743C146.348 598.76 146.103 597.662 145.734 596.391C145.386 596.806 145.199 596.921 145.037 597.221C139.132 606.712 134.702 616.691 133.221 627.648C131.865 638.027 133.761 647.848 140.249 656.583C140.743 657.277 141.325 657.868 142.042 658.724C143.559 657.238 144.914 656.051 146.035 654.61C149.482 650.184 152.942 645.849 156.068 641.272C162.731 631.413 169.059 621.311 175.71 611.36C184.801 597.753 194.883 584.784 205.857 572.464C206.989 571.116 208.01 569.686 209.031 568.256C215.992 558.364 222.32 548.262 227.559 537.533C231.6 529.193 234.576 520.411 237.453 511.641C246.948 481.947 256.343 452.265 265.838 422.572C266.126 421.695 266.314 420.829 266.602 419.952C268.091 415.186 267.893 410.612 266.169 405.931C264.789 402.336 263.708 398.707 262.527 395.089C262.343 394.453 262.158 393.818 261.962 393.09C262.831 392.803 263.501 392.539 264.47 392.241C264.729 392.68 264.988 393.12 265.148 393.571C266.686 398.367 268.31 403.06 269.748 407.868C270.793 411.219 270.945 414.673 269.981 418.066C268.34 423.975 266.699 429.885 264.847 435.724C256.313 463.526 247.468 491.269 238.214 518.965C231.774 538.179 221.791 555.733 209.677 572.404C207.972 574.756 205.845 576.968 203.829 579.262C191.847 593.104 181.289 607.816 171.498 623.003C166.379 630.809 161.26 638.616 156.141 646.423C155.817 647.022 155.393 647.634 155.268 648.211C154.409 653.937 154.642 659.539 157.157 664.881C158.428 667.644 160.196 669.6 162.833 671.269C163.182 670.854 163.629 670.428 163.966 669.92C166.83 665.654 169.905 661.457 172.547 657.029C174.615 653.604 176.461 650.016 178.107 646.451C183.897 633.784 189.897 621.187 197.508 609.344C205.281 597.201 212.942 584.977 220.715 572.834C222.459 570.009 224.204 567.183 226.158 564.428C229.296 559.943 231.703 555.259 233.763 550.24C238.108 539.614 243.074 529.104 246.799 518.361C253.788 497.959 261.93 477.894 269.861 457.76C270.31 456.583 270.971 455.476 271.73 454.357C275.454 448.961 278.855 443.414 281.179 437.333C282.441 433.906 283.206 430.535 282.72 426.839C281.392 418.266 280.274 409.763 279.044 401.18C278.034 394.259 276.725 387.373 275.814 380.441C274.307 368.981 272.8 357.521 271.591 346.027C270.817 338.611 270.639 331.126 270.274 323.757C269.934 316.573 269.793 309.366 269.54 302.078C269.254 293.011 268.969 283.945 268.683 274.878C268.442 267.682 268.201 260.487 267.948 253.199C267.776 248.059 267.604 242.919 267.432 237.779C267.434 237.029 267.647 236.348 267.748 235.586C268.301 232.896 268.854 230.207 269.507 227.506C271.014 220.58 270.623 213.776 269.414 206.879C267.899 198.421 266.582 189.941 265.067 181.484C265.019 181.114 264.97 180.744 264.81 180.294C264.277 180.073 263.856 179.933 263.323 179.713C261.403 178.9 260.414 177.511 260.06 175.582C259.596 172.821 259.12 169.967 258.755 167.194C258.34 164.803 259.298 163.661 262.564 162.445C262.602 161.972 262.617 161.313 262.544 160.759C261.314 147.578 260.383 134.364 260.047 121.082C259.674 107.522 259.103 93.9856 258.83 80.4148C258.492 67.8833 258.241 55.2481 258.002 42.7052C257.808 32.0335 257.527 21.4654 257.333 10.7936C258.325 10.6805 259.218 10.5786 260.211 10.4655C260.324 14.3924 260.537 18.3081 260.563 22.3387C260.739 30.5736 260.903 38.7161 261.067 46.8586C261.231 55.001 261.407 63.2359 261.571 71.3784C261.735 79.5208 261.986 87.5596 262.15 95.702C262.373 105.057 262.607 114.505 263.128 123.826C263.658 133.991 264.4 144.225 265.029 154.378C265.135 156.711 265.438 159.022 265.631 161.251C265.764 162.268 265.799 163.296 266.901 164.014C267.334 164.246 267.705 164.767 267.865 165.218C269.121 168.639 270.389 172.153 269.374 175.927C269.236 176.412 269.222 177.07 268.861 177.393C267.605 178.568 267.887 179.943 268.081 181.422C268.41 183.917 268.738 186.412 269.463 188.862C269.951 187.212 270.451 185.654 270.94 184.004C271.539 182.434 272.028 180.784 274.088 180.362C269.872 175.12 269.439 170.291 272.725 166.165C275.488 162.66 280.738 161.217 285.46 162.649C289.872 164.022 292.913 167.991 292.789 172.414C292.625 178.061 289.876 180.907 282.391 182.98C283.671 186.586 282.992 189.853 280.454 192.769C277.916 195.685 274.798 197.26 270.634 196.233C270.901 198.267 270.97 200.323 271.423 202.241C274.012 212.733 273.984 223.243 271.115 233.607C270.301 236.608 270.392 239.6 270.495 242.683C270.768 251.658 271.129 260.528 271.402 269.502C271.782 280.059 272.064 290.627 272.345 301.195C272.618 310.169 272.979 319.04 273.252 328.014C274.107 351.368 277.74 374.406 281.275 397.454C282.64 406.304 283.906 415.165 285.37 424.004C286.346 429.896 285.352 435.356 282.943 440.79C280.585 445.843 277.806 450.757 274.581 455.346C273.809 456.372 273.533 457.341 273.604 458.646C275.901 480.71 278.706 502.81 281.995 524.761C282.323 527.257 282.751 529.741 283.289 532.306C284.416 537.806 284.351 543.442 284.373 548.974C284.375 557.416 284.464 565.755 284.565 574.186C284.629 582.34 284.781 590.39 285.044 598.521C285.225 605.254 285.393 611.895 285.771 618.606C286.269 626.992 287.065 635.344 287.675 643.811C287.843 645.855 288.222 647.97 288.513 650.188C288.414 650.199 288.054 650.522 287.756 650.556C282.27 651.744 276.837 651.8 271.522 649.686C265.897 647.513 262.05 643.543 259.769 638.456C258.327 635.149 257.27 631.705 256.51 628.227C253.865 615.771 252.808 603.134 251.75 590.497C251.234 584.27 250.817 578.033 250.4 571.795C249.841 562.948 249.58 554.066 248.921 545.229C248.695 541.972 247.674 538.805 246.951 535.604C246.657 534.137 246.177 532.784 245.76 531.143C244.828 531.719 244.726 532.481 244.502 533.069C241.106 540.961 237.711 548.852 234.304 556.651C233.593 558.14 232.782 559.639 231.96 561.046C220.774 578.644 209.488 596.252 198.314 613.942C192.559 623.041 187.671 632.604 183.526 642.457C178.683 653.89 171.684 664.256 164.561 674.449C164.387 674.656 164.201 674.772 163.939 675.083C154.34 670.267 152.34 661.959 152.006 652.522C151.297 653.26 150.937 653.582 150.489 654.009C148.909 655.784 147.329 657.558 145.637 659.252C145.016 659.886 144.183 660.45 143.438 660.91C141.935 661.738 140.806 661.585 139.718 660.208C135.91 655.764 133.245 650.815 131.622 645.372C128.869 635.93 129.739 626.45 132.443 617.136C135.01 608.307 139.175 600.14 144.517 592.496C145.363 591.274 145.702 590.016 145.817 588.595C146.228 583.295 146.628 577.903 147.436 572.558C147.74 570.272 148.639 567.918 149.873 565.807C152.677 561.079 155.492 556.443 158.853 552.12C164.019 545.433 169.531 539.083 174.931 532.651C176.151 531.199 177.259 529.665 178.033 527.889C182.7 517.413 185.508 506.587 187.151 495.33C189.035 482.076 188.811 468.875 187.271 455.636C185.791 443.61 183.628 431.756 181.167 419.936C180.946 419.023 180.65 418.306 179.684 417.853C171.038 413.398 161.955 410.212 152.033 409.842C145.46 409.654 139.168 410.84 133.294 413.667C129.692 415.391 126.672 417.705 124.257 420.795C118.806 427.607 113.12 434.165 107.346 440.827C98.8604 450.612 88.0756 457.47 75.4494 461.817C65.2317 465.327 54.8298 468.202 44.0105 469.435C40.8343 469.797 37.8079 469.767 34.6843 468.997C28.7592 467.609 22.9961 465.921 17.7578 462.859C16.1231 461.92 14.4519 460.703 13.1656 459.349C10.1474 456.316 10.1819 452.748 13.2164 449.775C14.6466 448.393 16.2874 447.08 18.0883 446.218C30.9556 439.873 41.7831 431.041 51.7942 421.363C55.4628 417.849 58.785 414 62.3422 410.405C63.2375 409.552 64.1329 408.7 65.0283 407.847C72.6247 401.259 79.8626 394.243 85.9864 386.415C89.6956 381.677 92.9591 376.615 95.2563 371.1C96.6298 367.754 97.4827 364.28 97.4058 360.63C97.2802 356.611 96.9562 352.614 97.0292 348.572C97.4692 328.166 101.74 308.543 110.882 289.959C113.588 284.491 116.828 279.244 120.835 274.472C127.181 266.806 132.859 258.655 137.448 249.877C140.677 243.786 143.274 237.487 144.607 230.768C145.5 226.07 145.373 222.801 143.947 218.086C143.003 218.569 141.947 218.97 140.718 219.58C143.679 220.649 143.872 222.879 143.878 225.223C143.861 226.632 143.746 228.052 143.63 229.473C143.578 230.604 142.832 231.064 141.74 231.189C140.847 231.291 139.743 231.323 138.9 231.044C135.505 229.742 132.4 226.813 133.405 222.196C133.605 221.422 134.327 220.777 134.75 220.166C127.699 217.874 124.202 212.738 126.141 206.795C127.918 201.152 133.693 198.336 140.635 199.796C140.38 197.855 140.236 195.995 139.894 194.158C138.391 185.793 136.888 177.428 135.286 169.074C132.744 155.106 130.103 141.148 127.573 127.272C125.849 117.994 124.138 108.808 122.315 99.5417C120.004 87.3289 117.605 75.2199 115.195 63.0184C113.666 55.2192 112.05 47.5237 110.52 39.7245C109.688 35.6919 108.855 31.6593 108.023 27.6267C108.965 27.8946 109.858 27.7928 110.851 27.6796ZM285.455 648.379C285.102 645.699 284.663 643.122 284.422 640.523C283.812 632.056 283.203 623.589 282.891 615.089C282.472 605.005 282.14 594.818 282.018 584.701C281.85 573.463 281.782 562.214 281.713 550.965C281.695 543.932 281.268 536.852 280.245 529.839C277.116 508.339 274.57 486.678 271.738 465.144C271.678 464.682 271.617 464.22 271.457 463.769C270.922 464.299 270.598 464.899 270.46 465.384C267.138 473.83 263.716 482.287 260.493 490.722C256.332 501.984 252.271 513.235 248.221 524.578C247.909 525.27 247.931 526.206 248.028 526.945C248.543 529.325 249.169 531.787 249.783 534.156C251.158 539.252 252.223 544.29 252.408 549.522C252.776 559.986 253.454 570.509 254.22 580.928C254.902 589.95 255.597 599.064 256.677 608.04C257.586 615.722 258.992 623.348 260.397 630.973C261.045 634.37 262.463 637.492 264.465 640.453C269.01 647.439 277.5 649.942 285.455 648.379ZM282.92 180.105C287.585 179.573 290.546 176.046 290.075 171.691C289.503 167.348 285.728 164.682 280.963 165.225C276.497 165.735 273.535 169.262 274.007 173.617C274.442 177.695 278.453 180.614 282.92 180.105ZM160.661 188.132C158.676 188.359 156.887 189.313 155.593 190.962C153.689 193.336 153.523 195.137 155.177 197.763C155.931 198.897 156.498 200.145 157.438 201.164C158.044 201.939 158.848 202.692 159.79 202.959C162.306 203.704 164.886 203.41 167.099 201.845C170.131 199.623 171.158 195.941 169.605 192.554C168.162 189.247 164.917 187.553 160.661 188.132ZM137.647 217.678C140.625 217.339 142.873 216.051 144.257 213.548C144.905 212.348 145.045 211.113 144.192 209.991C142.821 207.989 141.35 205.999 139.979 203.998C139.102 202.691 137.75 202.376 136.249 202.453C131.945 202.663 128.238 206.65 128.574 210.739C129.022 214.909 133.081 218.199 137.647 217.678ZM221.555 186.162C224.93 185.778 227.815 183.198 228.419 180.127C229.073 176.675 227.42 173.299 224.088 171.709C220.756 170.119 217.107 170.722 214.595 173.073C213.526 174.133 213.262 175.194 213.743 176.547C214.518 178.616 215.207 180.789 215.983 182.858C216.955 185.655 218.478 186.513 221.555 186.162ZM190.094 192.845C193.935 194.47 198.791 192.322 200.29 188.399C201.714 184.672 199.852 180.475 196.012 178.849C192.072 177.235 187.504 178.506 185.808 181.701C187.143 183.425 188.95 184.908 189.59 186.711C190.354 188.687 190.038 190.881 190.094 192.845ZM243.83 177.807C247.509 179.733 251.803 178.681 253.995 175.429C256.436 171.774 255.444 167.29 251.716 164.995C248.745 163.082 244.069 162.771 241.381 166.079C242.53 167.918 243.952 169.538 244.803 171.411C245.69 173.562 244.655 175.65 243.83 177.807ZM274.811 183.562C273.338 186.92 272.262 190.232 272.836 193.825C276.656 193.765 279.889 190.769 280.246 187.352C280.525 184.881 279.82 184.117 277.254 183.753C276.435 183.659 275.728 183.645 274.811 183.562ZM153.255 206.894C152.866 203.936 150.31 199.819 148.341 198.636C147.573 198.161 146.706 197.697 145.687 198.376C144.767 199.043 144.48 199.921 145.023 200.984C146.268 203.563 147.8 206.015 150.152 207.81C150.721 208.308 151.513 208.968 152.246 208.416C152.892 207.967 153.093 207.194 153.255 206.894ZM210.473 183.861C210.216 182.671 210.118 181.932 209.823 181.215C209.132 179.793 208.441 178.371 207.564 177.063C206.946 176.196 205.719 176.054 204.763 176.445C203.719 176.939 203.928 177.759 204.236 178.569C204.716 179.921 205.196 181.273 205.664 182.533C206.144 183.886 206.624 185.238 207.291 186.475C207.55 186.915 208.318 187.39 208.925 187.415C209.334 187.462 210.043 186.724 210.193 186.332C210.481 185.455 210.447 184.427 210.473 183.861ZM262.307 165.851C262.244 166.14 262.057 166.255 262.082 166.44C262.471 169.397 262.859 172.355 263.335 175.208C263.408 175.763 263.779 176.284 264.15 176.804C264.743 177.487 265.637 177.385 266.147 176.67C266.396 176.267 266.522 175.69 266.66 175.205C267.423 172.585 266.488 170.065 265.663 167.626C265.209 165.708 264.689 165.58 262.307 165.851ZM176.399 193.655C177.776 193.404 179.079 193.35 180.122 192.856C181.451 192.235 182.755 191.43 183.837 190.462C184.285 190.036 184.449 188.985 184.177 188.453C183.906 187.922 182.94 187.469 182.245 187.548C180.942 187.603 179.565 187.854 178.311 188.278C175.058 189.587 174.845 190.268 176.399 193.655ZM237.455 172.999C236.586 173.286 235.804 173.469 235.134 173.733C234.078 174.135 234.089 174.978 234.297 175.798C234.518 176.711 234.465 177.843 235.705 178.077C236.746 178.333 240.346 177.36 241.28 176.034C242.114 174.72 241.77 173.633 240.22 173.341C239.278 173.073 238.274 173.094 237.455 172.999ZM140.361 222.997C138.872 223.167 137.582 223.314 136.292 223.461C136.283 226.464 137.618 228.188 140.519 228.795C141.169 226.845 140.839 225.1 140.361 222.997Z" stroke="white" stroke-width="0.3"/>
</g>
<defs>
<filter id="filter0_d_1889_3923" x="0.770508" y="0.297852" width="302.173" height="684.972" filterUnits="userSpaceOnUse" color-interpolation-filters="sRGB">
<feFlood flood-opacity="0" result="BackgroundImageFix"/>
<feColorMatrix in="SourceAlpha" type="matrix" values="0 0 0 0 0 0 0 0 0 0 0 0 0 0 0 0 0 0 127 0" result="hardAlpha"/>
<feOffset/>
<feGaussianBlur stdDeviation="5"/>
<feComposite in2="hardAlpha" operator="out"/>
<feColorMatrix type="matrix" values="0 0 0 0 0.69902 0 0 0 0 0.627451 0 0 0 0 0.913725 0 0 0 0.5 0"/>
<feBlend mode="normal" in2="BackgroundImageFix" result="effect1_dropShadow_1889_3923"/>
<feBlend mode="normal" in="SourceGraphic" in2="effect1_dropShadow_1889_3923" result="shape"/>
</filter>
</defs>
</svg>
