<svg width="400" height="690" viewBox="0 0 400 690" fill="none" xmlns="http://www.w3.org/2000/svg">
<mask id="mask0_2219_4125" style="mask-type:alpha" maskUnits="userSpaceOnUse" x="53" y="10" width="283" height="666">
<path d="M153.851 27.6795C156.067 38.4022 158.382 49.1136 160.511 59.9401C163.802 76.5439 166.994 93.1589 170.298 109.855C172.169 119.491 173.929 129.047 175.702 138.694C178.404 153.114 181.019 167.637 183.72 182.057C184.442 186.008 185.163 189.96 185.884 193.911C185.981 194.651 186.177 195.379 186.299 196.303C189.082 194.485 191.55 194.86 194.148 197.003C193.693 191.239 195.998 187.317 201.522 185.656C206.86 184.109 211.47 185.46 214.894 190.041C217.436 185.624 221.743 184.664 226.568 184.583C225.126 181.277 225.701 179.522 228.746 177.393C232.436 174.815 237.956 174.655 241.795 177.031C242.352 177.437 243.008 177.831 243.776 178.306C244.08 176.02 244.742 174.162 247.386 173.58C249.645 173.135 251.703 173.463 253.372 175.43C254.253 170.639 257.608 168.568 261.963 167.978C267.311 167.275 271.36 169.721 273.989 174.393C275.701 169.789 279.805 170.353 283.8 170.085C283.095 169.321 282.501 168.639 281.821 168.059C281.017 167.307 280.808 166.486 281.306 165.679C281.892 164.768 282.441 163.58 283.373 163.005C287.262 160.404 291.232 159.951 295.543 162.086C299.531 164.071 301.853 167.933 301.383 172.021C300.759 178.002 295.463 182.17 289.226 181.474C288.718 181.438 288.011 181.425 287.577 181.193C285.262 179.674 282.88 179.946 280.36 180.702C279.876 180.851 279.367 180.815 278.97 180.861C277.271 180.961 275.721 180.668 274.883 178.888C274.757 179.465 274.643 180.134 274.419 180.723C273.138 186.31 267.361 189.876 261.472 188.765C259.513 188.426 258.065 187.371 256.643 185.751C255.855 188.186 255.018 190.251 252.016 190.406C249.92 190.551 248.694 189.659 246.928 186.952C246.715 187.633 246.478 188.129 246.353 188.706C244.639 194.061 239.086 197.039 233.198 195.928C231.127 195.508 230.052 194.223 229.673 192.109C225.806 195.645 221.536 196.882 216.39 196.062C215.785 199.883 214.101 203.171 210.202 204.929C206.501 206.664 202.644 206.447 199.04 204.325C200.114 210.956 195.544 212.978 191.26 210.277C190.858 211.824 190.358 213.382 189.87 215.032C189.732 215.517 189.706 216.083 189.766 216.545C189.888 217.469 190.022 218.486 190.242 219.399C191.717 224.484 191.182 229.61 189.829 234.642C187.497 243.726 183.356 252.078 178.15 259.988C174.376 265.765 170.28 271.392 165.961 276.856C162.066 281.709 158.827 286.956 156.12 292.424C149.123 306.636 145.151 321.628 143.67 337.182C143.082 343.44 143.015 349.826 142.837 356.132C142.806 358.199 143.284 360.302 143.254 362.369C143.217 366.688 141.83 370.693 140.033 374.65C136.988 381.376 132.531 387.324 127.728 392.937C122.303 399.184 116.309 404.933 109.981 410.439C108.887 411.314 107.917 412.362 107.046 413.4C98.25 423.126 88.7494 432.089 77.9867 439.883C73.4755 443.117 68.717 446.005 63.8108 448.534C61.9228 449.5 60.1584 450.639 58.629 452.033C56.4655 453.968 56.5222 455.931 58.5013 457.957C59.5404 458.964 60.6788 459.96 61.9793 460.656C67.874 464.112 74.3804 466.09 81.2738 467.181C85.0801 467.779 88.8033 466.979 92.4516 466.376C103.571 464.358 114.234 461.172 124.541 456.808C132.364 453.477 138.988 448.688 144.871 442.858C151.985 435.668 158.431 427.992 164.543 420.072C169.099 414.112 175.421 410.858 182.819 408.889C192.947 406.234 202.792 407.551 212.483 410.761C215.333 411.749 218.108 412.934 220.883 414.119C221.527 414.42 222.159 414.63 223.225 415.071C222.955 413.788 222.822 412.772 222.589 411.767C220.602 403.55 218.714 395.323 216.628 387.118C214.75 379.734 212.674 372.372 210.598 365.011C210.241 363.832 209.686 362.676 208.933 361.542C201.399 349.456 194.636 337.094 189.586 323.974C187.591 318.76 185.993 313.502 184.879 308.094C183.226 300.121 184.103 292.236 185.886 284.34C188.197 273.57 191.662 263.138 195.646 252.834C199.568 242.819 203.812 232.955 207.945 223.009C208.17 222.421 208.494 221.821 208.905 221.117C209.426 221.245 209.847 221.385 210.268 221.525C210.59 221.676 211.012 221.815 211.557 222.128C211.17 223.017 210.87 223.801 210.471 224.597C203.32 240.703 196.702 257.029 191.757 273.821C189.528 281.392 187.598 288.929 187.129 296.862C186.83 302.243 187.733 307.581 189.12 312.77C193.37 328.233 200.699 342.594 209.257 356.346C212.196 361.076 214.056 366.024 215.443 371.213C217.934 380.966 220.624 390.696 223.029 400.553C224.979 408.492 226.644 416.557 228.309 424.623C230.794 436.628 232.783 448.69 233.978 460.842C236.054 481.993 234.05 502.765 226.628 522.936C226.415 523.617 226.103 524.309 225.791 525.001C224.154 529.409 221.849 533.33 218.49 536.902C212.308 543.517 206.583 550.548 201.515 557.974C199.647 560.626 197.903 563.451 196.258 566.265C194.451 569.379 193.375 572.691 193.142 576.283C192.869 581.098 192.186 585.866 191.925 590.774C191.856 593.314 192.208 595.995 192.635 598.479C192.905 599.761 193.782 601.068 194.734 602.179C195.81 603.464 196.616 603.466 198.107 602.545C199.784 601.51 201.35 600.393 202.78 599.011C206.71 595.186 210.64 591.361 214.347 587.374C227.82 572.611 240.167 556.945 252.315 541.301C255.24 537.497 258.265 533.681 261.079 529.796C262.274 528.159 263.246 526.36 264.219 524.56C265.104 522.865 265.778 521.099 266.676 519.496C269.032 515.194 270.347 510.635 271.339 505.925C276.793 479.976 282.259 454.119 287.712 428.17C288.642 423.748 289.969 419.282 290.8 414.872C291.278 412.379 291.248 409.849 291.217 407.32C291.094 402.55 290.474 397.837 288.552 393.178C289.409 392.799 290.178 392.523 291.222 392.029C291.529 392.838 291.912 393.451 292.109 394.179C294.373 400.675 294.653 407.398 294.015 414.037C293.721 417.166 292.497 420.12 291.893 423.19C286.742 447.604 281.602 472.111 276.351 496.536C276.112 497.783 275.873 499.03 275.534 500.288C272.457 514.428 272.457 514.428 266.021 527.544C265.709 528.236 265.298 528.94 264.863 529.459C249.564 549.495 234.154 569.45 217.185 588.269C213.403 592.453 209.386 596.382 205.369 600.31C203.677 602.004 201.652 603.455 199.701 604.709C196.918 606.527 194.45 606.152 192.224 603.779C191.161 602.587 190.47 601.165 189.779 599.742C189.348 598.76 189.103 597.662 188.734 596.391C188.386 596.806 188.199 596.921 188.037 597.221C182.132 606.712 177.702 616.691 176.221 627.648C174.865 638.027 176.761 647.848 183.249 656.583C183.743 657.277 184.325 657.867 185.042 658.724C186.559 657.237 187.914 656.051 189.035 654.61C192.482 650.183 195.942 645.849 199.068 641.272C205.731 631.413 212.059 621.311 218.71 611.36C227.801 597.753 237.883 584.784 248.857 572.464C249.989 571.116 251.01 569.686 252.031 568.256C258.992 558.364 265.32 548.262 270.559 537.533C274.6 529.193 277.576 520.411 280.453 511.64C289.948 481.947 299.343 452.265 308.838 422.572C309.126 421.695 309.314 420.829 309.602 419.952C311.091 415.186 310.893 410.612 309.169 405.93C307.789 402.335 306.708 398.706 305.527 395.089C305.343 394.453 305.158 393.818 304.962 393.089C305.831 392.803 306.501 392.539 307.47 392.241C307.729 392.68 307.988 393.12 308.148 393.571C309.686 398.367 311.31 403.06 312.748 407.868C313.793 411.219 313.945 414.673 312.981 418.066C311.34 423.975 309.699 429.884 307.847 435.724C299.313 463.525 290.468 491.268 281.214 518.964C274.774 538.178 264.791 555.733 252.677 572.404C250.972 574.756 248.845 576.968 246.829 579.262C234.847 593.104 224.289 607.816 214.498 623.003C209.379 630.809 204.26 638.616 199.141 646.423C198.817 647.022 198.393 647.634 198.268 648.211C197.409 653.937 197.642 659.539 200.157 664.88C201.428 667.644 203.196 669.6 205.833 671.269C206.182 670.854 206.629 670.428 206.966 669.92C209.83 665.654 212.905 661.457 215.547 657.029C217.615 653.604 219.461 650.016 221.107 646.451C226.897 633.784 232.897 621.187 240.508 609.344C248.281 597.201 255.942 584.977 263.715 572.834C265.459 570.009 267.204 567.183 269.158 564.428C272.296 559.943 274.703 555.259 276.763 550.24C281.108 539.614 286.074 529.104 289.799 518.361C296.788 497.959 304.93 477.894 312.861 457.76C313.31 456.583 313.971 455.476 314.73 454.357C318.454 448.961 321.855 443.414 324.179 437.333C325.441 433.906 326.206 430.535 325.72 426.839C324.392 418.266 323.274 409.763 322.044 401.179C321.034 394.259 319.725 387.373 318.814 380.441C317.307 368.981 315.8 357.521 314.591 346.027C313.817 338.61 313.639 331.126 313.275 323.757C312.934 316.573 312.793 309.366 312.54 302.078C312.254 293.011 311.969 283.944 311.683 274.878C311.442 267.682 311.201 260.486 310.948 253.198C310.776 248.059 310.604 242.919 310.432 237.779C310.434 237.029 310.647 236.348 310.748 235.586C311.301 232.896 311.854 230.206 312.507 227.505C314.014 220.58 313.623 213.776 312.414 206.879C310.899 198.421 309.582 189.941 308.067 181.484C308.019 181.114 307.97 180.744 307.81 180.293C307.277 180.073 306.856 179.933 306.323 179.712C304.403 178.9 303.414 177.511 303.06 175.582C302.596 172.82 302.12 169.967 301.755 167.194C301.34 164.802 302.298 163.661 305.564 162.445C305.602 161.971 305.617 161.313 305.544 160.759C304.314 147.578 303.383 134.364 303.047 121.082C302.674 107.522 302.103 93.9855 301.83 80.4147C301.492 67.8832 301.241 55.2479 301.002 42.7051C300.808 32.0333 300.527 21.4653 300.333 10.7935C301.325 10.6804 302.218 10.5785 303.211 10.4654C303.324 14.3923 303.537 18.3079 303.563 22.3386C303.739 30.5735 303.903 38.716 304.067 46.8584C304.231 55.0009 304.407 63.2358 304.571 71.3783C304.735 79.5207 304.986 87.5595 305.15 95.7019C305.373 105.057 305.607 114.505 306.128 123.826C306.658 133.991 307.4 144.225 308.029 154.378C308.135 156.711 308.438 159.022 308.631 161.251C308.764 162.268 308.799 163.296 309.901 164.014C310.334 164.246 310.705 164.767 310.865 165.218C312.121 168.639 313.389 172.153 312.374 175.927C312.236 176.412 312.222 177.07 311.861 177.393C310.606 178.568 310.887 179.943 311.081 181.421C311.41 183.917 311.738 186.412 312.463 188.862C312.951 187.212 313.451 185.654 313.94 184.004C314.539 182.434 315.028 180.784 317.088 180.361C312.872 175.12 312.439 170.291 315.725 166.165C318.488 162.66 323.738 161.217 328.46 162.649C332.872 164.022 335.913 167.991 335.789 172.414C335.625 178.061 332.876 180.907 325.391 182.98C326.671 186.586 325.992 189.853 323.454 192.769C320.916 195.685 317.798 197.259 313.634 196.233C313.901 198.267 313.97 200.322 314.423 202.241C317.012 212.733 316.984 223.243 314.115 233.607C313.301 236.608 313.392 239.599 313.495 242.683C313.768 251.657 314.129 260.528 314.402 269.502C314.782 280.059 315.064 290.627 315.345 301.195C315.618 310.169 315.979 319.04 316.252 328.014C317.107 351.368 320.74 374.406 324.275 397.454C325.64 406.304 326.906 415.165 328.37 424.004C329.346 429.896 328.352 435.356 325.943 440.79C323.585 445.843 320.806 450.757 317.581 455.345C316.809 456.372 316.533 457.341 316.604 458.646C318.901 480.71 321.706 502.81 324.995 524.761C325.323 527.257 325.751 529.741 326.289 532.306C327.416 537.806 327.351 543.442 327.373 548.974C327.375 557.416 327.464 565.755 327.565 574.186C327.629 582.34 327.781 590.39 328.044 598.521C328.225 605.254 328.393 611.895 328.771 618.606C329.269 626.992 330.065 635.344 330.675 643.811C330.843 645.855 331.222 647.97 331.513 650.188C331.414 650.199 331.054 650.522 330.756 650.555C325.27 651.744 319.837 651.8 314.522 649.686C308.897 647.513 305.05 643.542 302.769 638.455C301.327 635.149 300.27 631.705 299.51 628.227C296.865 615.771 295.808 603.134 294.75 590.496C294.234 584.27 293.817 578.033 293.4 571.795C292.841 562.947 292.58 554.066 291.921 545.229C291.695 541.972 290.674 538.805 289.951 535.604C289.657 534.137 289.177 532.784 288.76 531.143C287.828 531.719 287.726 532.481 287.502 533.069C284.106 540.961 280.711 548.852 277.304 556.651C276.593 558.139 275.782 559.639 274.96 561.046C263.774 578.643 252.488 596.252 241.314 613.942C235.559 623.041 230.671 632.603 226.526 642.457C221.683 653.89 214.684 664.256 207.561 674.449C207.387 674.656 207.201 674.771 206.939 675.083C197.34 670.267 195.34 661.959 195.006 652.522C194.297 653.26 193.937 653.582 193.489 654.009C191.909 655.783 190.329 657.558 188.637 659.252C188.016 659.886 187.183 660.45 186.438 660.91C184.935 661.738 183.806 661.585 182.718 660.208C178.91 655.764 176.245 650.815 174.622 645.372C171.869 635.93 172.739 626.45 175.443 617.136C178.01 608.307 182.175 600.14 187.517 592.496C188.363 591.274 188.702 590.016 188.817 588.595C189.228 583.295 189.628 577.903 190.436 572.557C190.74 570.271 191.639 567.918 192.873 565.807C195.677 561.079 198.492 556.442 201.853 552.119C207.019 545.433 212.531 539.083 217.931 532.651C219.151 531.199 220.259 529.665 221.033 527.889C225.7 517.413 228.508 506.587 230.151 495.33C232.035 482.076 231.811 468.875 230.271 455.636C228.791 443.61 226.628 431.756 224.167 419.935C223.946 419.023 223.65 418.306 222.684 417.853C214.038 413.398 204.955 410.212 195.033 409.842C188.46 409.653 182.168 410.84 176.294 413.667C172.692 415.391 169.672 417.705 167.257 420.795C161.806 427.607 156.12 434.165 150.346 440.827C141.86 450.612 131.076 457.47 118.449 461.817C108.232 465.327 97.8298 468.201 87.0105 469.435C83.8343 469.797 80.8079 469.767 77.6843 468.997C71.7592 467.609 65.9961 465.921 60.7578 462.859C59.1231 461.92 57.4519 460.703 56.1656 459.349C53.1474 456.316 53.1819 452.748 56.2164 449.775C57.6466 448.393 59.2874 447.08 61.0883 446.218C73.9556 439.873 84.7831 431.04 94.7942 421.363C98.4628 417.849 101.785 414 105.342 410.405C106.238 409.552 107.133 408.7 108.028 407.847C115.625 401.259 122.863 394.243 128.986 386.415C132.696 381.677 135.959 376.615 138.256 371.1C139.63 367.754 140.483 364.28 140.406 360.63C140.28 356.611 139.956 352.614 140.029 348.572C140.469 328.166 144.74 308.542 153.882 289.958C156.588 284.491 159.828 279.243 163.835 274.472C170.181 266.806 175.859 258.655 180.448 249.877C183.677 243.786 186.274 237.487 187.607 230.768C188.5 226.07 188.373 222.801 186.947 218.086C186.003 218.569 184.947 218.97 183.718 219.58C186.679 220.649 186.872 222.878 186.878 225.223C186.861 226.632 186.746 228.052 186.63 229.472C186.578 230.604 185.832 231.064 184.74 231.189C183.847 231.291 182.743 231.323 181.9 231.043C178.505 229.742 175.4 226.813 176.405 222.196C176.605 221.422 177.327 220.777 177.75 220.166C170.699 217.874 167.202 212.738 169.141 206.795C170.918 201.152 176.693 198.336 183.635 199.796C183.38 197.855 183.236 195.995 182.894 194.158C181.391 185.793 179.888 177.428 178.286 169.074C175.744 155.106 173.103 141.148 170.573 127.272C168.849 117.994 167.138 108.808 165.315 99.5416C163.004 87.3288 160.605 75.2197 158.195 63.0183C156.666 55.219 155.05 47.5236 153.52 39.7244C152.688 35.6918 151.855 31.6592 151.023 27.6266C151.965 27.8945 152.858 27.7926 153.851 27.6795ZM328.455 648.379C328.102 645.699 327.663 643.122 327.422 640.523C326.812 632.056 326.203 623.589 325.891 615.088C325.472 605.005 325.14 594.818 325.018 584.701C324.85 573.463 324.782 562.214 324.713 550.965C324.695 543.932 324.268 536.851 323.245 529.839C320.116 508.339 317.57 486.678 314.738 465.144C314.678 464.682 314.617 464.22 314.457 463.769C313.922 464.299 313.598 464.899 313.46 465.383C310.138 473.83 306.716 482.287 303.493 490.722C299.332 501.984 295.271 513.235 291.221 524.578C290.909 525.27 290.931 526.205 291.028 526.945C291.543 529.325 292.169 531.787 292.783 534.156C294.158 539.252 295.223 544.29 295.408 549.522C295.776 559.986 296.454 570.509 297.22 580.928C297.902 589.95 298.597 599.063 299.677 608.04C300.586 615.722 301.992 623.347 303.397 630.973C304.045 634.37 305.463 637.492 307.465 640.453C312.01 647.439 320.5 649.942 328.455 648.379ZM325.92 180.105C330.585 179.573 333.546 176.046 333.075 171.691C332.503 167.347 328.728 164.682 323.963 165.225C319.497 165.735 316.535 169.262 317.007 173.617C317.442 177.694 321.453 180.614 325.92 180.105ZM203.661 188.132C201.676 188.359 199.887 189.313 198.593 190.961C196.689 193.336 196.523 195.137 198.177 197.763C198.931 198.896 199.498 200.145 200.438 201.164C201.044 201.939 201.848 202.691 202.79 202.959C205.306 203.704 207.886 203.41 210.099 201.845C213.131 199.623 214.158 195.941 212.605 192.554C211.162 189.247 207.917 187.553 203.661 188.132ZM180.647 217.678C183.625 217.339 185.873 216.051 187.257 213.548C187.905 212.348 188.045 211.113 187.192 209.99C185.821 207.989 184.35 205.999 182.979 203.998C182.102 202.691 180.75 202.376 179.249 202.453C174.945 202.663 171.238 206.65 171.574 210.739C172.022 214.909 176.081 218.199 180.647 217.678ZM264.555 186.162C267.93 185.778 270.815 183.197 271.419 180.127C272.073 176.675 270.42 173.299 267.088 171.709C263.756 170.119 260.107 170.722 257.595 173.072C256.526 174.132 256.262 175.194 256.743 176.547C257.518 178.616 258.207 180.789 258.983 182.858C259.955 185.655 261.478 186.513 264.555 186.162ZM233.094 192.844C236.935 194.47 241.791 192.322 243.29 188.399C244.714 184.672 242.852 180.475 239.012 178.849C235.072 177.235 230.504 178.506 228.808 181.701C230.143 183.425 231.95 184.908 232.59 186.711C233.354 188.687 233.038 190.881 233.094 192.844ZM286.83 177.807C290.509 179.733 294.803 178.681 296.995 175.429C299.436 171.774 298.444 167.29 294.716 164.995C291.745 163.082 287.069 162.771 284.381 166.079C285.53 167.918 286.952 169.538 287.803 171.411C288.69 173.561 287.655 175.649 286.83 177.807ZM317.811 183.562C316.338 186.92 315.262 190.232 315.836 193.825C319.656 193.764 322.889 190.769 323.246 187.352C323.525 184.881 322.82 184.117 320.254 183.753C319.435 183.658 318.728 183.645 317.811 183.562ZM196.255 206.894C195.866 203.936 193.31 199.819 191.341 198.636C190.573 198.161 189.706 197.697 188.687 198.376C187.767 199.043 187.48 199.92 188.023 200.984C189.268 203.563 190.8 206.015 193.152 207.81C193.721 208.308 194.513 208.968 195.246 208.416C195.892 207.967 196.093 207.194 196.255 206.894ZM253.473 183.861C253.216 182.671 253.118 181.932 252.823 181.215C252.132 179.793 251.441 178.37 250.564 177.063C249.946 176.196 248.719 176.054 247.763 176.445C246.719 176.939 246.928 177.759 247.236 178.568C247.716 179.921 248.196 181.273 248.664 182.533C249.144 183.886 249.624 185.238 250.291 186.475C250.55 186.915 251.318 187.39 251.925 187.415C252.334 187.462 253.043 186.724 253.193 186.332C253.481 185.455 253.447 184.427 253.473 183.861ZM305.307 165.851C305.244 166.14 305.057 166.255 305.082 166.44C305.471 169.397 305.859 172.355 306.335 175.208C306.408 175.763 306.779 176.283 307.15 176.804C307.743 177.487 308.637 177.385 309.147 176.67C309.396 176.267 309.522 175.689 309.66 175.205C310.423 172.585 309.488 170.065 308.663 167.626C308.209 165.708 307.689 165.58 305.307 165.851ZM219.399 193.655C220.776 193.404 222.079 193.35 223.122 192.856C224.451 192.235 225.755 191.43 226.837 190.462C227.285 190.036 227.449 188.985 227.177 188.453C226.906 187.921 225.94 187.469 225.245 187.548C223.942 187.603 222.565 187.853 221.311 188.278C218.058 189.587 217.845 190.268 219.399 193.655ZM280.455 172.999C279.586 173.286 278.804 173.469 278.134 173.733C277.078 174.135 277.089 174.978 277.297 175.798C277.518 176.711 277.465 177.843 278.705 178.077C279.746 178.333 283.346 177.36 284.28 176.034C285.114 174.72 284.77 173.633 283.22 173.341C282.278 173.073 281.274 173.094 280.455 172.999ZM183.361 222.997C181.872 223.167 180.582 223.314 179.292 223.461C179.283 226.464 180.618 228.188 183.519 228.795C184.169 226.845 183.839 225.1 183.361 222.997Z" fill="white" stroke="white" stroke-width="0.3"/>
</mask>
<g mask="url(#mask0_2219_4125)">
<rect x="-76.5" y="-14.5" width="619" height="766" fill="url(#paint0_linear_2219_4125)" stroke="white" stroke-width="3"/>
</g>
<defs>
<linearGradient id="paint0_linear_2219_4125" x1="233" y1="-16" x2="233" y2="753" gradientUnits="userSpaceOnUse">
<stop offset="0.00447594" stop-color="#D9D9D9" stop-opacity="0"/>
<stop offset="0.0865385" stop-color="#EDEDED" stop-opacity="0.1"/>
<stop offset="0.192308" stop-color="#F1F1F1" stop-opacity="0.85"/>
<stop offset="1" stop-color="white"/>
</linearGradient>
</defs>
</svg>
