<svg width="50" height="119" viewBox="0 0 50 119" fill="none" xmlns="http://www.w3.org/2000/svg">
<g filter="url(#filter0_d_1805_5690)">
<path d="M25.5 72.7731L11 55.2705M25.5 72.7731L39.5 55.2705M25.5 72.7731L18 57.9257M25.5 72.7731L33 57.8241M11 55.2705L14 44.7705M11 55.2705L18 57.9257M14 44.7705L25.5 40.7705M14 44.7705L19.75 46.2705M25.5 40.7705L35.5 44.7705M25.5 40.7705L19.75 46.2705M25.5 40.7705L30.5 46.2705M35.5 44.7705L39.5 55.2705M35.5 44.7705L30.5 46.2705M39.5 55.2705L33 57.8241M19.75 46.2705H25.5H30.5M19.75 46.2705L18 57.9257M30.5 46.2705L33 57.8241M18 57.9257H25.5L33 57.8241" stroke="white" stroke-width="0.7" stroke-linecap="round" shape-rendering="crispEdges"/>
</g>
<g filter="url(#filter1_d_1805_5690)">
<path d="M25.25 10.9004L25.25 107.996" stroke="white" stroke-linecap="round"/>
</g>
<defs>
<filter id="filter0_d_1805_5690" x="0.612305" y="30.3965" width="49.2861" height="52.9307" filterUnits="userSpaceOnUse" color-interpolation-filters="sRGB">
<feFlood flood-opacity="0" result="BackgroundImageFix"/>
<feColorMatrix in="SourceAlpha" type="matrix" values="0 0 0 0 0 0 0 0 0 0 0 0 0 0 0 0 0 0 127 0" result="hardAlpha"/>
<feOffset/>
<feGaussianBlur stdDeviation="5"/>
<feComposite in2="hardAlpha" operator="out"/>
<feColorMatrix type="matrix" values="0 0 0 0 0.913725 0 0 0 0 0.65098 0 0 0 0 0.627451 0 0 0 0.8 0"/>
<feBlend mode="normal" in2="BackgroundImageFix" result="effect1_dropShadow_1805_5690"/>
<feBlend mode="normal" in="SourceGraphic" in2="effect1_dropShadow_1805_5690" result="shape"/>
</filter>
<filter id="filter1_d_1805_5690" x="14.75" y="0.400391" width="21" height="118.096" filterUnits="userSpaceOnUse" color-interpolation-filters="sRGB">
<feFlood flood-opacity="0" result="BackgroundImageFix"/>
<feColorMatrix in="SourceAlpha" type="matrix" values="0 0 0 0 0 0 0 0 0 0 0 0 0 0 0 0 0 0 127 0" result="hardAlpha"/>
<feOffset/>
<feGaussianBlur stdDeviation="5"/>
<feComposite in2="hardAlpha" operator="out"/>
<feColorMatrix type="matrix" values="0 0 0 0 0.913725 0 0 0 0 0.65098 0 0 0 0 0.627451 0 0 0 0.8 0"/>
<feBlend mode="normal" in2="BackgroundImageFix" result="effect1_dropShadow_1805_5690"/>
<feBlend mode="normal" in="SourceGraphic" in2="effect1_dropShadow_1805_5690" result="shape"/>
</filter>
</defs>
</svg>
