<svg width="12" height="20" viewBox="0 0 12 20" fill="none" xmlns="http://www.w3.org/2000/svg">
<path d="M6.28411 0.42871L11.4736 5.85399M6.28411 0.42871L0.858662 4.43866M6.28411 0.42871L8.81758 5.4569M6.28411 0.42871L3.32771 4.43866M11.4736 5.85399L9.70443 16.4689M11.4736 5.85399L8.81758 5.4569M9.70443 16.4689L6.28411 18.7098M9.70443 16.4689L7.63227 16.0623M6.28411 18.7098L7.63227 16.0623M6.28411 18.7098L6.025 18.4888M2.27398 15.2895L0.858662 4.43866M2.27398 15.2895L4.82494 14.1908M2.27398 15.2895L6.025 18.4888M0.858662 4.43866L3.32771 4.43866M8.81758 5.4569L7.63227 6.7046L4.82494 6.26791M4.82494 6.26791L3.32771 4.43866M4.82494 6.26791L4.82494 14.1908M7.63227 7.01653L7.63227 16.0623M7.63227 16.0623L4.82494 14.1908M4.82494 14.1908L6.025 18.4888" stroke="white" stroke-width="0.534901"/>
</svg>
