<svg width="1148" height="728" viewBox="0 0 1148 728" fill="none" xmlns="http://www.w3.org/2000/svg">
<g filter="url(#filter0_d_2066_4022)">
<path fill-rule="evenodd" clip-rule="evenodd" d="M726.329 19.6632C718.462 24.9788 711.72 29.7769 711.348 30.3261C710.697 31.2859 714.172 32.4571 721.778 33.8423C725.616 34.5405 725.639 34.6522 723.073 40.1038C721.354 43.754 721.299 44.3657 722.645 44.8358C725.45 45.8161 725.991 45.4185 728.186 40.7741C729.891 37.1667 730.929 36.1101 732.993 35.8867C736.249 35.5329 737.155 33.5137 734.479 32.5744C732.614 31.9199 732.822 31.2105 737.891 20.9385C741.379 13.8708 742.819 10 741.961 10C741.231 10 734.196 14.3484 726.329 19.6632ZM731.539 22.7939C727.177 31.7747 727.764 31.2934 722.5 30.1967C719.936 29.6624 717.972 28.8543 718.139 28.401C718.482 27.4635 732.336 17.5853 733.425 17.5015C733.816 17.4717 732.967 19.8531 731.539 22.7939ZM453.125 108.718C448.968 109.848 445.47 113.133 444.761 116.573C444.22 119.197 443.838 119.468 441.18 119.113C431.938 117.878 426.352 124.791 432.408 129.969C435.095 132.268 442.267 133.803 442.267 132.079C442.267 131.499 441.419 131.026 440.381 131.026C439.343 131.026 437.733 130.259 436.802 129.323C431.467 123.955 440.35 119.569 448.309 123.642C452.894 125.988 454.836 125.52 452.069 122.736C447.788 118.429 452.769 112.259 460.679 112.071C466.3 111.936 469.329 114.924 468.356 119.644C467.737 122.647 467.832 122.768 470.581 122.481C472.994 122.229 473.424 121.78 473.268 119.671C472.74 112.499 461.565 106.423 453.125 108.718ZM79.8804 146.717C72.4562 149.869 70.2517 155.534 74.3897 160.826C77.0492 164.226 84.3671 166.816 89.0542 166.016C96.6615 164.716 100.558 158.952 97.4846 153.542C96.0347 150.988 93.0725 149.061 92.0419 150.001C91.7965 150.224 92.3599 151.47 93.2954 152.769C97.0551 157.994 90.8404 162.524 80.7904 161.885C77.5236 161.677 74.9193 157.779 76.3825 155.288C78.3723 151.905 85.3068 149.449 94.2658 148.954C102.184 148.518 102.762 148.628 109.558 151.87C113.443 153.723 116.861 155.021 117.152 154.756C117.958 154.022 114.456 151.831 107.12 148.477C98.6267 144.593 86.6994 143.822 79.8804 146.717ZM1119.9 243.202C1110.3 248.441 1110.43 259.316 1120.11 260.97C1125.2 261.838 1126.64 260.433 1122.49 258.655C1119.59 257.414 1118.96 256.598 1118.7 253.768C1118.45 251.041 1119.04 249.699 1121.66 246.973C1124.31 244.23 1125.55 243.63 1128.09 243.857C1130.45 244.068 1131.48 244.766 1132.2 246.637C1133.52 250.079 1128.07 260.135 1122.54 264.439C1118.69 267.44 1110.2 270.67 1106.17 270.67C1105.15 270.67 1103.98 271.154 1103.58 271.746C1102.33 273.582 1113.83 271.978 1119.83 269.479C1127.23 266.392 1132.68 261.798 1135.52 256.247C1138.74 249.947 1138.61 246.94 1134.94 243.601C1131.09 240.099 1125.84 239.959 1119.9 243.202ZM1042.31 522.806C1042.31 523.309 1043.23 523.939 1044.35 524.207C1045.47 524.474 1046.37 525.047 1046.35 525.479C1046.32 525.911 1041.19 529.937 1034.94 534.426C1024.28 542.09 1023.37 542.551 1019.91 541.995L1016.23 541.402L1021.86 546.126C1024.95 548.724 1027.86 550.869 1028.33 550.892C1028.79 550.916 1028.89 549.738 1028.53 548.276C1027.93 545.784 1028.64 545.073 1039.96 536.809C1046.59 531.964 1053.32 527.225 1054.91 526.278C1058.52 524.131 1057.39 523.451 1048.7 522.553C1044.71 522.14 1042.31 522.235 1042.31 522.806ZM19.6119 375.695C14.2694 378.09 9.94431 380.573 10.0005 381.212C10.0568 381.853 10.1723 384.052 10.2562 386.1C10.4412 390.603 11.6784 390.916 13.0097 386.798C13.7981 384.36 15.1477 383.261 19.9575 381.14C23.2407 379.691 26.1793 378.736 26.4881 379.017C26.7969 379.298 25.8358 387.015 24.3532 396.166C21.1876 415.703 21.2336 414.959 23.1906 414.959C24.0342 414.959 24.7243 414.681 24.7243 414.344C24.7243 412.931 29.9134 376.114 30.4441 373.765C30.7621 372.357 30.6404 371.235 30.1731 371.273C29.7069 371.311 24.9544 373.3 19.6119 375.695ZM246.903 540.863C251.868 543.955 252.613 545.002 253.283 549.829L253.974 554.812L247.438 550.428C234.684 541.872 226.018 539.191 220.11 541.974C216.042 543.889 215.164 546.97 217.442 551.34C219.267 554.842 225.699 559.597 227.352 558.666C227.866 558.378 226.916 557.034 225.24 555.683C219.29 550.881 220.616 545.98 227.841 546.071C232.7 546.131 242.004 550.118 251.31 556.127C258.481 560.757 259.84 561.077 259.764 558.112C259.665 554.286 257.05 542.418 256.126 541.607C255.626 541.168 252.916 540.554 250.104 540.242C245.755 539.759 245.277 539.851 246.903 540.863ZM877.212 532.944C873.837 533.733 870.917 534.5 870.723 534.648C870.107 535.119 867.706 552.243 868.16 552.935C868.398 553.299 869.757 553.195 871.18 552.703C878.238 550.259 881.813 552.498 881.813 559.363C881.813 563.039 881.295 564.465 879.303 566.278C876.377 568.942 873.044 569.21 870.359 566.997C868.613 565.558 868.322 565.552 866.815 566.924C861.972 571.335 873.14 573.328 879.872 569.255C883.687 566.947 887.95 560.209 887.944 556.497C887.939 552.997 884.332 548.227 881.139 547.498C879.609 547.148 876.593 547.291 874.436 547.815C871.02 548.645 870.572 548.574 870.961 547.262C871.208 546.434 871.687 544.251 872.026 542.414C872.609 539.245 872.96 538.991 878.761 537.522C884.149 536.158 884.88 535.695 884.88 533.65C884.88 532.372 884.536 531.368 884.113 531.418C883.691 531.47 880.586 532.156 877.212 532.944ZM179.559 679.796C170.852 683.222 169.437 696.613 177.386 700.355C178.936 701.085 181.262 701.681 182.555 701.68C184.785 701.678 184.889 701.966 184.562 707.227C184.256 712.151 184.511 713.043 186.816 715.142C190.258 718.276 194.043 718.176 197.69 714.854C203.806 709.287 202.258 700.008 194.767 697.33L190.783 695.904L191.237 690.182C191.632 685.194 191.386 684.141 189.32 681.979C186.256 678.772 183.645 678.188 179.559 679.796ZM186.567 686.222C187.758 687.975 188.422 690.397 188.252 692.372C187.992 695.41 187.715 695.65 184.154 695.919C176.675 696.482 172.501 689.153 177.637 684.477C180.732 681.659 183.888 682.276 186.567 686.222ZM194.94 702.845C197.234 704.386 198.637 709.092 197.578 711.698C195.397 717.067 187.463 712.034 187.463 705.28C187.463 701.957 187.682 701.682 190.335 701.682C191.915 701.682 193.986 702.206 194.94 702.845Z" fill="white"/>
</g>
<defs>
<filter id="filter0_d_2066_4022" x="0" y="0" width="1147.82" height="727.421" filterUnits="userSpaceOnUse" color-interpolation-filters="sRGB">
<feFlood flood-opacity="0" result="BackgroundImageFix"/>
<feColorMatrix in="SourceAlpha" type="matrix" values="0 0 0 0 0 0 0 0 0 0 0 0 0 0 0 0 0 0 127 0" result="hardAlpha"/>
<feOffset/>
<feGaussianBlur stdDeviation="5"/>
<feComposite in2="hardAlpha" operator="out"/>
<feColorMatrix type="matrix" values="0 0 0 0 0.913725 0 0 0 0 0.65098 0 0 0 0 0.627451 0 0 0 0.8 0"/>
<feBlend mode="normal" in2="BackgroundImageFix" result="effect1_dropShadow_2066_4022"/>
<feBlend mode="normal" in="SourceGraphic" in2="effect1_dropShadow_2066_4022" result="shape"/>
</filter>
</defs>
</svg>
