<svg width="389" height="679" viewBox="0 0 389 679" fill="none" xmlns="http://www.w3.org/2000/svg">
<mask id="mask0_2219_4121" style="mask-type:alpha" maskUnits="userSpaceOnUse" x="56" y="0" width="279" height="666">
<path d="M87.5998 0.513057C87.3566 11.5545 87.2005 22.6997 86.9573 33.7412C86.7931 41.8836 86.5418 49.9224 86.3777 58.0648C86.0818 67.9746 85.8852 77.8957 85.7008 87.7243C85.5204 94.4579 85.3279 101.284 85.0483 108.006C84.6876 116.877 84.2277 125.736 83.6685 134.584C82.7993 148.086 81.2475 161.418 79.2865 174.796C78.2027 182.271 76.8332 189.619 75.4516 197.06C73.8249 205.599 74.4305 214.016 76.5614 222.327C77.4507 225.524 77.5215 228.815 77.3939 232.084C77.0393 243.206 76.6968 254.236 76.3422 265.359C75.9612 275.916 75.5803 286.472 75.2986 297.04C75.0372 305.922 74.8872 314.723 74.4273 323.582C74.0484 330.293 73.471 336.981 72.5958 343.636C70.8232 357.88 68.8399 372.194 66.7695 386.404C65.6614 394.063 64.3547 401.7 63.1473 409.349C62.6956 412.017 62.6408 414.732 62.2012 417.308C61.8609 419.896 62.2397 422.378 63.0276 424.813C65.2659 431.541 68.8919 437.677 72.9513 443.58C73.8851 444.906 74.6082 446.302 75.2321 447.686C81.8641 464.671 88.9052 481.609 94.9051 498.803C100.455 514.82 107.17 530.407 113.984 546.006C114.458 546.998 115.032 548.001 115.605 549.004C126.367 565.991 137.241 582.897 148.103 599.895C154.53 610.008 160.003 620.482 164.622 631.327C169.015 641.584 175.044 650.902 181.493 660.08C181.667 660.287 181.718 660.668 181.943 661.257C183.181 660.272 184.06 659.716 184.765 658.952C187.202 656.509 188.583 653.665 189.306 650.464C190.226 646.536 190.451 642.528 189.87 638.521C189.768 637.759 189.481 636.882 189.057 636.271C181.846 625.224 174.722 614.281 167.399 603.315C158.134 589.5 147.866 576.416 136.929 563.818C133.334 559.75 130.518 555.114 127.48 550.64C117.355 535.696 110.205 519.59 104.863 502.752C95.3935 472.874 85.9116 443.088 76.4297 413.302C76.2292 412.529 76.0286 411.755 75.7288 410.971C74.1023 405.72 74.076 400.557 75.9599 395.425C77.4002 391.368 78.6542 387.196 80.1066 383.047C80.2424 382.781 80.3781 382.515 80.6252 382.168C81.4942 382.454 82.264 382.73 83.2323 383.028C82.187 386.379 81.0546 389.627 80.0215 392.887C79.3327 395.059 78.6318 397.325 77.943 399.497C77.2664 401.578 77.1854 403.726 77.6999 405.942C78.5648 409.324 79.3183 412.787 80.3939 416.099C89.6166 446.325 99.1613 476.399 109.214 506.438C115.642 525.745 125.314 543.358 137.328 560.018C137.839 560.733 138.361 561.355 138.884 561.978C153.378 578.17 165.902 595.545 177.635 613.581C182.829 621.584 188.035 629.494 193.451 637.335C195.481 640.287 197.845 642.995 200.209 645.704C200.993 646.638 202.087 647.513 203.156 648.573C203.873 647.716 204.355 647.115 204.85 646.421C211.239 637.675 213.21 628.05 211.954 617.682C210.498 606.54 206.092 596.376 200.001 586.77C199.926 586.573 199.64 586.447 199.367 586.228C198.998 587.5 198.753 588.597 198.309 589.672C197.633 591.753 196.409 593.396 194.527 594.682C192.769 595.795 190.946 595.868 189.169 594.821C187.666 593.993 186.175 593.073 184.919 591.898C180.53 587.739 176.128 583.672 172.073 579.27C158.687 564.611 146.416 549.141 134.256 533.589C130.808 529.162 127.46 524.747 124.111 520.332C123.165 519.098 122.343 517.691 121.62 516.295C120.497 514.103 119.598 511.75 118.377 509.547C116.27 505.648 114.994 501.562 114.151 497.245C109.138 473.316 104.137 449.294 99.0241 425.353C97.5171 418.427 95.7993 411.571 94.2923 404.645C93.9034 403.006 93.9358 401.227 93.8568 399.53C93.867 394.09 94.2742 388.696 96.1703 383.471C96.3304 383.02 96.4783 382.662 96.7375 382.222C96.7497 382.13 96.9604 382.06 97.1954 381.806C97.8659 382.07 98.6235 382.438 99.5917 382.736C97.3249 388.481 96.8569 394.337 96.8974 400.158C96.9521 402.04 97.2174 403.853 97.582 405.677C100.635 420.002 103.799 434.246 106.851 448.571C110.418 465.113 113.874 481.735 117.342 498.266C117.957 501.244 119.094 504.094 120.329 506.955C123.35 513.866 127.447 520.243 132.202 526.226C145.755 543.437 159.098 560.718 173.89 576.944C177.585 581.024 181.527 584.757 185.456 588.582C186.799 589.861 188.576 590.908 190.142 592.024C191.248 592.807 192.19 592.539 193.192 591.809C194.43 590.825 195.109 589.495 195.514 587.946C196.448 584.676 196.389 581.292 196.12 577.978C195.771 572.967 195.411 568.048 194.554 563.072C194.163 560.682 193.164 558.317 192.042 556.125C188.925 549.954 184.717 544.409 180.287 539.026C176.218 533.965 171.925 529.067 167.633 524.168C166.239 522.509 165.056 520.779 164.195 518.898C159.354 508.215 156.496 497.008 154.778 485.555C152.769 471.724 153.067 457.968 154.89 444.105C156.821 428.66 159.633 413.408 163.326 398.351C166.65 384.566 170.272 370.814 173.795 357.051C174.654 353.584 176.072 350.463 177.986 347.398C185.384 335.577 191.826 323.366 196.542 310.49C198.414 305.45 199.789 300.354 200.681 295.108C201.864 287.645 200.802 280.395 199.034 273.157C195.809 259.375 191.01 246.071 185.691 232.894C183.106 226.502 180.311 220.179 177.627 213.776C177.315 213.084 177.102 212.403 176.803 211.618C177.757 211.258 178.5 210.967 179.355 210.596C179.691 211.103 179.94 211.507 180.09 211.899C187.877 229.297 195.031 246.904 200.178 265.221C201.694 270.553 202.688 276.013 203.695 281.381C205.105 289.046 204.021 296.521 201.932 303.975C197.435 319.785 189.772 334.389 181.077 348.407C179.151 351.564 177.622 354.767 176.763 358.233C173.657 370.356 170.539 382.57 167.434 394.692C166.832 396.969 166.318 399.349 165.815 401.637C165.607 402.458 165.497 403.289 165.24 404.48C166.417 403.957 167.16 403.667 167.916 403.284C175.634 399.755 183.615 397.288 192.234 396.864C201.97 396.379 210.745 398.599 218.586 404.09C219.879 404.987 221.048 406.059 222.006 407.2C226.622 412.698 231.115 418.37 235.843 423.787C238.817 427.221 242.112 430.505 245.408 433.789C250.57 438.974 256.695 442.956 263.662 445.908C275.88 451.053 288.579 454.846 301.88 456.363C304.659 456.68 307.301 456.512 309.991 455.974C315.483 454.818 320.737 453.166 325.629 450.441C327.264 449.501 328.824 448.366 330.098 447.104C332.065 445.171 331.911 443.277 329.946 441.365C328.69 440.19 327.323 439.096 325.808 438.36C311.624 431.302 299.826 421.42 288.87 410.509C286.109 407.755 283.558 404.931 280.909 402.097C280.113 401.255 279.317 400.414 278.409 399.654C269.458 391.879 261.162 383.71 254.352 374.21C251.127 369.621 248.324 364.892 246.598 359.63C245.298 355.729 245.002 351.849 245.239 347.749C245.583 342.066 245.432 336.327 245.081 330.564C243.969 313.74 239.944 297.615 232.597 282.238C229.753 276.285 226.352 270.738 222.096 265.562C214.966 256.963 208.727 247.715 203.888 237.783C200.708 231.323 198.159 224.653 197.483 217.541C197.254 215.451 197.323 213.395 197.69 211.373C199.081 203.089 200.659 194.92 202.138 186.74C204.938 171.581 207.65 156.319 210.45 141.16C212.32 130.773 214.178 120.478 216.147 110.103C218.47 97.7976 220.893 85.5038 223.217 73.1986C224.734 65.4919 226.152 57.7738 227.757 50.1708C230.009 39.1708 232.373 28.0898 234.626 17.0898C235.619 17.203 236.512 17.3049 237.504 17.4181C236.427 22.5483 235.448 27.69 234.371 32.8202C232.73 40.7005 231.089 48.5808 229.535 56.5648C227.088 69.0435 224.653 81.4297 222.305 93.9197C220.397 103.833 218.588 113.758 216.791 123.591C214.273 137.374 211.655 151.147 209.137 164.931C207.231 175.595 205.225 186.248 203.319 196.912C202.488 201.695 201.757 206.49 200.827 211.262C200.191 214.566 200.373 217.777 201.052 221.043C202.472 227.866 205.168 234.177 208.385 240.359C212.985 249.045 218.576 257.093 224.934 264.666C228.593 269.023 231.595 273.775 234.064 278.746C241.67 293.685 245.942 309.462 247.711 325.892C248.462 333.201 249.114 340.499 248.365 347.73C247.479 355.228 250.064 361.62 253.765 367.952C258.699 376.394 265.404 383.631 272.456 390.533C272.816 390.855 273.078 391.166 273.438 391.489C281.618 398.238 288.201 406.399 295.824 413.553C304.167 421.352 313.005 428.458 323.241 434.127C325.216 435.197 327.216 436.081 328.968 437.313C330.446 438.326 331.802 439.512 332.946 440.769C334.862 443.051 335.031 445.603 333.201 448.021C332.213 449.409 330.926 450.763 329.391 451.714C322.346 456.257 314.439 458.921 305.994 459.552C302.125 459.862 297.993 459.109 294.059 458.379C283.138 456.383 272.574 453.209 262.466 448.867C254.072 445.283 247.087 440.172 240.857 433.927C233.829 426.84 227.471 419.267 221.546 411.463C217.077 405.606 210.917 402.652 203.793 400.902C196.669 399.152 189.55 399.653 182.472 401.379C176.647 402.778 171.121 404.962 165.919 407.746C165.052 408.21 164.395 408.605 164.15 409.702C161.383 423.082 158.913 436.497 157.524 450.128C155.87 467.294 156.76 484.28 161.295 501.12C162.836 507.018 164.787 512.868 167.481 518.429C168.204 519.825 169.027 521.232 170.084 522.384C178.071 531.362 185.935 540.514 192.362 550.627C193.62 552.553 194.667 554.549 195.715 556.544C197.086 559.14 197.85 561.759 198.068 564.692C198.417 569.704 198.877 574.634 199.436 579.576C199.513 580.523 200.086 581.526 200.671 582.437C206.922 591.592 211.675 601.421 214.097 612.11C215.969 620.86 216.03 629.591 212.79 638.133C211.214 642.456 208.881 646.411 205.79 649.999C204.355 651.711 203.116 651.945 201.376 650.621C199.635 649.297 198.13 647.718 196.725 646.151C195.655 645.091 194.82 643.776 193.862 642.635C193.652 642.705 193.552 642.694 193.342 642.763C193.307 643.791 193.186 644.716 193.151 645.743C192.975 649.382 192.215 652.86 190.574 656.144C188.65 660.052 185.632 663.085 181.345 665.035C180.91 664.516 180.474 663.997 180.051 663.386C176.838 658.705 173.526 654.012 170.536 649.168C168.369 645.732 166.512 642.237 164.765 638.661C158.577 625.197 152.178 611.804 144.069 599.153C139.473 591.969 134.976 584.796 130.38 577.612C124.613 568.605 118.747 559.588 112.98 550.581C112.22 549.463 111.572 548.263 111.035 546.983C107.541 539.08 104.158 531.096 100.763 523.204C100.451 522.512 100.139 521.819 99.7644 520.839C99.4687 521.555 99.1223 521.891 99.0615 522.353C98.2755 525.265 97.3903 528.166 96.9142 531.02C96.3044 534.89 96.0795 538.898 95.8668 542.814C95.415 550.079 95.2609 557.379 94.7099 564.633C93.5551 578.009 92.4003 591.386 90.9477 604.728C90.2812 610.562 89.0192 616.328 87.7571 622.094C86.9853 625.664 85.5429 628.971 83.343 631.909C78.536 638.584 71.7094 641.465 63.2866 641.161C60.9793 641.085 58.6842 640.917 56.4864 640.01C56.5471 639.548 56.4965 639.167 56.5451 638.797C58.737 628.26 58.9194 617.68 59.4118 607.042C59.7522 599.858 60.0055 592.57 60.1474 585.363C60.3338 576.285 60.5203 567.207 60.6075 558.118C60.6846 549.872 60.7616 541.625 60.7394 533.368C60.624 527.351 62.0968 521.515 62.974 515.612C66.0188 494.759 68.8773 473.791 70.9295 452.824C71.0977 450.78 71.8735 448.711 71.4097 446.875C71.0451 445.051 69.3172 443.635 68.3327 441.928C66.0518 437.822 63.771 433.716 61.7008 429.54C59.5678 425.075 58.6866 420.284 59.4301 415.397C60.8563 406.086 62.2703 396.866 63.5973 387.543C65.4489 374.996 67.3005 362.45 68.9536 349.881C69.8044 343.411 70.4446 337.011 70.9977 330.508C71.488 323.716 71.6927 316.798 71.9844 309.983C72.2377 302.695 72.491 295.407 72.6451 288.108C72.9551 278.856 73.253 269.697 73.563 260.446C73.8244 251.564 74.1729 242.786 74.4343 233.904C74.5357 230.069 74.637 226.235 73.5351 222.357C71.1671 213.55 70.9201 204.704 72.6947 195.808C73.3186 192.595 74.0418 189.395 74.4673 186.16C76.1953 173.787 77.9112 161.506 79.4407 149.111C80.326 141.613 80.8022 134.163 81.1912 126.609C81.641 118.593 81.8922 110.554 82.1435 102.515C82.3603 95.5046 82.5772 88.4939 82.7818 81.5755C83.0068 72.9709 83.2196 64.4588 83.4323 55.9467C83.6715 48.0003 83.8113 40.0427 83.9512 32.0851C84.1154 23.9426 84.2674 15.8926 84.4315 7.75014C84.4498 5.31325 84.5673 2.88768 84.697 0.369682C85.7139 0.298019 86.7065 0.411197 87.5998 0.513057ZM59.9787 637.969C66.9288 639.512 75.3698 637.379 80.1039 631.259C81.9332 628.841 83.2782 626.274 84.1513 623.465C86.4384 616.034 87.5344 608.467 88.3326 600.866C89.6981 587.419 90.7536 574.031 91.8213 560.551C92.3602 553.39 92.5892 546.286 92.9296 539.102C93.0714 536.492 93.2132 533.881 93.7399 531.409C94.7812 526.556 96.1081 521.829 97.2364 517.08C97.4451 516.259 97.4674 515.324 97.1676 514.539C95.7294 510.154 94.279 505.861 92.7294 501.557C86.8207 485.968 80.8005 470.46 74.7925 454.859C74.6304 454.559 74.4684 454.26 74.0693 453.464C73.8485 454.377 73.6885 454.827 73.6277 455.289C71.6606 471.012 69.7806 486.839 67.7142 502.55C66.7175 510.129 65.4109 517.766 64.2156 525.322C64.0211 526.8 63.6281 528.256 63.6322 529.758C63.5349 535.094 63.6361 540.452 63.6381 545.799C63.5245 554.323 63.5224 562.765 63.3096 571.277C63.1454 579.42 62.9934 587.47 62.73 595.601C62.4078 604.945 61.8993 614.174 61.3786 623.495C61.0686 628.15 60.4365 632.956 59.9787 637.969Z" fill="white" stroke="white" stroke-width="0.3"/>
</mask>
<g mask="url(#mask0_2219_4121)">
<rect x="-283.5" y="1.5" width="909" height="972" fill="url(#paint0_linear_2219_4121)" stroke="white" stroke-width="3"/>
</g>
<defs>
<linearGradient id="paint0_linear_2219_4121" x1="171" y1="0" x2="171" y2="975" gradientUnits="userSpaceOnUse">
<stop offset="0.00447594" stop-color="#D9D9D9" stop-opacity="0"/>
<stop offset="0.0865385" stop-color="#EDEDED" stop-opacity="0.1"/>
<stop offset="0.192308" stop-color="#F1F1F1" stop-opacity="0.85"/>
<stop offset="1" stop-color="white"/>
</linearGradient>
</defs>
</svg>
