<svg width="299" height="686" viewBox="0 0 299 686" fill="none" xmlns="http://www.w3.org/2000/svg">
<g filter="url(#filter0_d_1889_3922)">
<path d="M41.5983 10.5131C41.3551 21.5545 41.199 32.6997 40.9558 43.7412C40.7917 51.8836 40.5404 59.9224 40.3762 68.0648C40.0804 77.9746 39.8838 87.8957 39.6993 97.7243C39.5189 104.458 39.3264 111.284 39.0468 118.006C38.6861 126.877 38.2262 135.736 37.667 144.584C36.7979 158.086 35.246 171.418 33.285 184.796C32.2012 192.271 30.8318 199.619 29.4502 207.06C27.8234 215.599 28.429 224.016 30.56 232.327C31.4492 235.524 31.5201 238.815 31.3924 242.084C31.0378 253.206 30.6953 264.236 30.3407 275.359C29.9598 285.916 29.5788 296.472 29.2971 307.04C29.0357 315.922 28.8857 324.723 28.4258 333.582C28.0469 340.293 27.4695 346.981 26.5944 353.636C24.8217 367.88 22.8384 382.194 20.768 396.404C19.6599 404.063 18.3532 411.7 17.1459 419.349C16.6941 422.017 16.6394 424.732 16.1998 427.308C15.8594 429.896 16.2382 432.378 17.0262 434.813C19.2645 441.541 22.8904 447.677 26.9498 453.58C27.8836 454.906 28.6068 456.302 29.2307 457.686C35.8626 474.671 42.9037 491.609 48.9036 508.803C54.4538 524.82 61.1688 540.407 67.983 556.006C68.457 556.998 69.0303 558.001 69.6035 559.005C80.3658 575.991 91.2395 592.897 102.101 609.895C108.528 620.008 114.002 630.482 118.62 641.327C123.014 651.584 129.042 660.902 135.492 670.08C135.666 670.287 135.717 670.668 135.941 671.257C137.179 670.272 138.058 669.716 138.763 668.952C141.2 666.509 142.582 663.665 143.305 660.464C144.225 656.536 144.45 652.528 143.868 648.521C143.767 647.759 143.479 646.882 143.056 646.271C135.845 635.224 128.72 624.281 121.398 613.315C112.132 599.5 101.864 586.416 90.9278 573.818C87.3322 569.75 84.5166 565.114 81.4781 560.64C71.3539 545.696 64.2034 529.59 58.8618 512.752C49.3921 482.874 39.9101 453.088 30.4282 423.302C30.2277 422.529 30.0272 421.755 29.7274 420.971C28.1008 415.72 28.0745 410.557 29.9585 405.425C31.3988 401.368 32.6527 397.196 34.1052 393.047C34.2409 392.781 34.3766 392.515 34.6238 392.168C35.4928 392.454 36.2625 392.73 37.2308 393.028C36.1855 396.379 35.0531 399.627 34.02 402.887C33.3312 405.059 32.6303 407.325 31.9416 409.497C31.265 411.578 31.1839 413.726 31.6984 415.942C32.5634 419.324 33.3169 422.787 34.3925 426.099C43.6151 456.325 53.1598 486.399 63.2129 516.438C69.6402 535.745 79.3127 553.358 91.3269 570.018C91.8373 570.733 92.3599 571.355 92.8826 571.978C107.376 588.17 119.901 605.545 131.633 623.581C136.827 631.584 142.033 639.494 147.45 647.335C149.479 650.287 151.843 652.995 154.207 655.704C154.991 656.638 156.085 657.513 157.155 658.573C157.872 657.716 158.354 657.115 158.848 656.421C165.237 647.675 167.208 638.05 165.953 627.682C164.496 616.54 160.09 606.376 153.999 596.77C153.924 596.573 153.639 596.447 153.365 596.228C152.997 597.5 152.751 598.597 152.308 599.672C151.631 601.753 150.408 603.396 148.526 604.682C146.767 605.795 144.944 605.868 143.168 604.821C141.665 603.993 140.174 603.073 138.918 601.898C134.528 597.739 130.127 593.672 126.071 589.27C112.686 574.611 100.414 559.141 88.2542 543.589C84.8065 539.162 81.4581 534.747 78.1097 530.332C77.1637 529.098 76.3413 527.691 75.6181 526.295C74.4959 524.103 73.5966 521.75 72.3751 519.547C70.2684 515.648 68.9923 511.562 68.1496 507.245C63.1363 483.316 58.1352 459.294 53.0226 435.353C51.5156 428.427 49.7979 421.571 48.2908 414.645C47.9019 413.006 47.9343 411.227 47.8554 409.53C47.8656 404.09 48.2728 398.696 50.1689 393.471C50.3289 393.02 50.4768 392.662 50.7361 392.222C50.7482 392.13 50.9589 392.06 51.1939 391.806C51.8644 392.07 52.622 392.438 53.5903 392.736C51.3235 398.481 50.8555 404.337 50.8959 410.158C50.9506 412.04 51.2159 413.853 51.5805 415.677C54.6331 430.002 57.7971 444.246 60.8496 458.571C64.4167 475.113 67.8723 491.735 71.3401 508.265C71.9559 511.244 73.0922 514.094 74.3279 516.955C77.3481 523.866 81.446 530.243 86.2002 536.226C99.7539 553.437 113.097 570.718 127.888 586.944C131.583 591.024 135.525 594.757 139.455 598.582C140.798 599.861 142.574 600.908 144.14 602.024C145.246 602.807 146.188 602.539 147.191 601.809C148.429 600.825 149.107 599.495 149.512 597.946C150.446 594.676 150.388 591.292 150.118 587.978C149.77 582.967 149.409 578.048 148.552 573.072C148.162 570.682 147.163 568.317 146.041 566.125C142.923 559.954 138.716 554.409 134.286 549.026C130.216 543.965 125.924 539.067 121.632 534.168C120.238 532.509 119.055 530.779 118.194 528.898C113.353 518.215 110.495 507.008 108.777 495.555C106.768 481.724 107.066 467.968 108.889 454.105C110.819 438.66 113.631 423.408 117.324 408.351C120.649 394.566 124.271 380.814 127.793 367.051C128.652 363.584 130.07 360.463 131.985 357.398C139.383 345.577 145.824 333.366 150.54 320.49C152.412 315.45 153.788 310.354 154.679 305.108C155.862 297.645 154.801 290.395 153.032 283.157C149.808 269.375 145.009 256.071 139.69 242.894C137.105 236.502 134.31 230.179 131.626 223.776C131.314 223.084 131.101 222.403 130.801 221.618C131.755 221.258 132.499 220.967 133.354 220.596C133.69 221.103 133.939 221.507 134.089 221.899C141.875 239.297 149.03 256.904 154.177 275.221C155.692 280.553 156.687 286.013 157.693 291.381C159.103 299.046 158.019 306.521 155.931 313.975C151.434 329.785 143.77 344.389 135.076 358.407C133.149 361.564 131.62 364.767 130.761 368.233C127.656 380.356 124.538 392.57 121.432 404.692C120.831 406.969 120.316 409.349 119.814 411.637C119.605 412.458 119.496 413.289 119.238 414.48C120.415 413.957 121.159 413.667 121.914 413.284C129.632 409.755 137.614 407.288 146.233 406.864C155.968 406.379 164.744 408.599 172.585 414.09C173.877 414.987 175.046 416.059 176.004 417.2C180.621 422.698 185.114 428.37 189.842 433.787C192.815 437.221 196.111 440.505 199.407 443.789C204.568 448.974 210.694 452.956 217.66 455.908C229.879 461.053 242.578 464.846 255.879 466.363C258.658 466.68 261.299 466.512 263.989 465.974C269.481 464.818 274.736 463.166 279.628 460.441C281.263 459.501 282.822 458.366 284.096 457.104C286.063 455.171 285.91 453.277 283.945 451.365C282.689 450.189 281.321 449.096 279.806 448.36C265.622 441.302 253.825 431.42 242.868 420.509C240.107 417.755 237.557 414.931 234.907 412.097C234.111 411.255 233.315 410.414 232.408 409.654C223.456 401.879 215.161 393.71 208.351 384.21C205.126 379.621 202.322 374.892 200.597 369.63C199.296 365.729 199 361.849 199.237 357.749C199.582 352.066 199.43 346.327 199.08 340.564C197.968 323.74 193.943 307.615 186.596 292.238C183.752 286.285 180.351 280.738 176.095 275.562C168.965 266.963 162.726 257.715 157.886 247.783C154.706 241.323 152.158 234.653 151.481 227.541C151.252 225.451 151.321 223.395 151.688 221.373C153.08 213.089 154.658 204.92 156.137 196.74C158.936 181.581 161.649 166.319 164.449 151.16C166.318 140.773 168.176 130.478 170.145 120.103C172.469 107.798 174.892 95.5038 177.215 83.1986C178.733 75.4919 180.151 67.7738 181.755 60.1708C184.008 49.1708 186.372 38.0898 188.624 27.0898C189.617 27.203 190.51 27.3049 191.503 27.4181C190.425 32.5483 189.447 37.6899 188.369 42.8202C186.728 50.7005 185.087 58.5808 183.534 66.5648C181.086 79.0435 178.651 91.4297 176.303 103.92C174.395 113.833 172.586 123.758 170.789 133.591C168.271 147.374 165.654 161.147 163.136 174.931C161.229 185.595 159.224 196.248 157.318 206.912C156.487 211.695 155.756 216.49 154.826 221.262C154.19 224.566 154.372 227.777 155.051 231.043C156.47 237.866 159.167 244.177 162.383 250.359C166.984 259.045 172.574 267.093 178.933 274.666C182.591 279.023 185.593 283.775 188.063 288.746C195.669 303.685 199.941 319.462 201.709 335.892C202.461 343.201 203.113 350.499 202.363 357.73C201.478 365.228 204.063 371.62 207.763 377.952C212.698 386.394 219.403 393.631 226.454 400.533C226.815 400.855 227.076 401.166 227.437 401.489C235.616 408.238 242.2 416.399 249.822 423.553C258.166 431.352 267.004 438.458 277.24 444.127C279.215 445.197 281.214 446.081 282.966 447.313C284.445 448.326 285.8 449.512 286.945 450.769C288.861 453.051 289.029 455.603 287.2 458.021C286.211 459.409 284.925 460.763 283.389 461.714C276.344 466.257 268.438 468.921 259.993 469.552C256.124 469.862 251.991 469.109 248.057 468.379C237.137 466.383 226.573 463.209 216.465 458.867C208.07 455.283 201.086 450.172 194.855 443.927C187.828 436.84 181.469 429.267 175.544 421.463C171.076 415.606 164.916 412.652 157.791 410.902C150.667 409.152 143.549 409.653 136.471 411.379C130.645 412.778 125.119 414.962 119.917 417.746C119.05 418.21 118.394 418.605 118.149 419.702C115.381 433.083 112.912 446.497 111.522 460.128C109.869 477.294 110.758 494.28 115.293 511.12C116.835 517.018 118.786 522.868 121.48 528.429C122.203 529.825 123.025 531.232 124.083 532.384C132.07 541.362 139.933 550.514 146.361 560.627C147.619 562.553 148.666 564.549 149.713 566.544C151.085 569.139 151.848 571.759 152.067 574.692C152.415 579.704 152.875 584.634 153.434 589.576C153.511 590.523 154.084 591.526 154.67 592.437C160.921 601.592 165.673 611.421 168.096 622.11C169.967 630.86 170.028 639.591 166.789 648.133C165.213 652.456 162.879 656.411 159.788 659.999C158.354 661.711 157.114 661.945 155.374 660.621C153.634 659.297 152.129 657.718 150.723 656.151C149.654 655.091 148.819 653.776 147.861 652.635C147.65 652.705 147.551 652.694 147.34 652.763C147.306 653.791 147.184 654.715 147.15 655.743C146.974 659.382 146.214 662.86 144.573 666.144C142.649 670.052 139.63 673.085 135.344 675.035C134.908 674.516 134.473 673.997 134.049 673.386C130.837 668.705 127.525 664.012 124.535 659.168C122.368 655.732 120.51 652.237 118.764 648.661C112.576 635.197 106.177 621.804 98.0679 609.153C93.4717 601.969 88.9748 594.796 84.3786 587.612C78.6115 578.605 72.7452 569.588 66.9782 560.581C66.2186 559.463 65.5704 558.263 65.0336 556.983C61.5394 549.08 58.1566 541.095 54.7616 533.204C54.4497 532.512 54.1377 531.819 53.763 530.839C53.4672 531.555 53.1208 531.891 53.06 532.353C52.274 535.265 51.3888 538.166 50.9127 541.02C50.3029 544.89 50.078 548.898 49.8653 552.814C49.4135 560.079 49.2595 567.379 48.7084 574.633C47.5536 588.009 46.3988 601.386 44.9463 614.728C44.2797 620.562 43.0177 626.328 41.7556 632.094C40.9838 635.664 39.5415 638.971 37.3415 641.909C32.5345 648.584 25.7079 651.465 17.2851 651.161C14.9779 651.085 12.6828 650.917 10.4849 650.01C10.5457 649.548 10.495 649.167 10.5437 648.797C12.7356 638.26 12.918 627.68 13.4103 617.042C13.7507 609.858 14.004 602.57 14.1459 595.363C14.3324 586.285 14.5188 577.207 14.606 568.118C14.6831 559.872 14.7602 551.625 14.738 543.368C14.6226 537.351 16.0953 531.515 16.9725 525.612C20.0173 504.759 22.8758 483.791 24.9281 462.824C25.0962 460.78 25.8721 458.711 25.4082 456.875C25.0436 455.051 23.3157 453.635 22.3312 451.928C20.0504 447.822 17.7695 443.716 15.6993 439.54C13.5663 435.075 12.6852 430.284 13.4286 425.397C14.8548 416.086 16.2689 406.866 17.5958 397.543C19.4474 384.996 21.299 372.45 22.9521 359.881C23.803 353.411 24.4432 347.011 24.9963 340.508C25.4865 333.716 25.6912 326.798 25.983 319.983C26.2363 312.695 26.4896 305.407 26.6436 298.108C26.9536 288.856 27.2515 279.697 27.5615 270.446C27.8229 261.564 28.1715 252.786 28.4329 243.904C28.5342 240.069 28.6355 236.235 27.5336 232.357C25.1657 223.55 24.9186 214.704 26.6932 205.808C27.3172 202.595 28.0404 199.395 28.4658 196.16C30.1938 183.787 31.9097 171.506 33.4393 159.111C34.3246 151.613 34.8007 144.163 35.1897 136.609C35.6395 128.593 35.8908 120.554 36.142 112.515C36.3589 105.505 36.5757 98.4939 36.7804 91.5755C37.0053 82.9709 37.2181 74.4588 37.4309 65.9466C37.67 58.0003 37.8099 50.0427 37.9497 42.0851C38.1139 33.9426 38.2659 25.8926 38.4301 17.7501C38.4483 15.3133 38.5658 12.8877 38.6955 10.3697C39.7124 10.298 40.705 10.4112 41.5983 10.5131ZM13.9772 647.969C20.9273 649.512 29.3684 647.379 34.1025 641.259C35.9317 638.841 37.2768 636.274 38.1499 633.465C40.437 626.034 41.5329 618.467 42.3311 610.866C43.6966 597.419 44.7521 584.031 45.8198 570.551C46.3587 563.39 46.5877 556.286 46.9281 549.102C47.0699 546.492 47.2117 543.881 47.7384 541.409C48.7797 536.555 50.1066 531.829 51.2349 527.08C51.4436 526.259 51.4659 525.324 51.1661 524.539C49.7279 520.154 48.2776 515.861 46.728 511.557C40.8192 495.968 34.799 480.46 28.791 464.859C28.629 464.559 28.4669 464.26 28.0679 463.464C27.8471 464.377 27.687 464.827 27.6262 465.289C25.6591 481.012 23.7791 496.839 21.7128 512.55C20.716 520.129 19.4094 527.766 18.2141 535.322C18.0197 536.8 17.6267 538.256 17.6307 539.758C17.5334 545.094 17.6346 550.452 17.6366 555.799C17.5231 564.323 17.5209 572.765 17.3081 581.277C17.144 589.42 16.992 597.47 16.7285 605.601C16.4064 614.945 15.8978 624.174 15.3771 633.495C15.0671 638.15 14.4351 642.956 13.9772 647.969Z" fill="white"/>
<path d="M41.5983 10.5131C41.3551 21.5545 41.199 32.6997 40.9558 43.7412C40.7917 51.8836 40.5404 59.9224 40.3762 68.0648C40.0804 77.9746 39.8838 87.8957 39.6993 97.7243C39.5189 104.458 39.3264 111.284 39.0468 118.006C38.6861 126.877 38.2262 135.736 37.667 144.584C36.7979 158.086 35.246 171.418 33.285 184.796C32.2012 192.271 30.8318 199.619 29.4502 207.06C27.8234 215.599 28.429 224.016 30.56 232.327C31.4492 235.524 31.5201 238.815 31.3924 242.084C31.0378 253.206 30.6953 264.236 30.3407 275.359C29.9598 285.916 29.5788 296.472 29.2971 307.04C29.0357 315.922 28.8857 324.723 28.4258 333.582C28.0469 340.293 27.4695 346.981 26.5944 353.636C24.8217 367.88 22.8384 382.194 20.768 396.404C19.6599 404.063 18.3532 411.7 17.1459 419.349C16.6941 422.017 16.6394 424.732 16.1998 427.308C15.8594 429.896 16.2382 432.378 17.0262 434.813C19.2645 441.541 22.8904 447.677 26.9498 453.58C27.8836 454.906 28.6068 456.302 29.2307 457.686C35.8626 474.671 42.9037 491.609 48.9036 508.803C54.4538 524.82 61.1688 540.407 67.983 556.006C68.457 556.998 69.0303 558.001 69.6035 559.005C80.3658 575.991 91.2395 592.897 102.101 609.895C108.528 620.008 114.002 630.482 118.62 641.327C123.014 651.584 129.042 660.902 135.492 670.08C135.666 670.287 135.717 670.668 135.941 671.257C137.179 670.272 138.058 669.716 138.763 668.952C141.2 666.509 142.582 663.665 143.305 660.464C144.225 656.536 144.45 652.528 143.868 648.521C143.767 647.759 143.479 646.882 143.056 646.271C135.845 635.224 128.72 624.281 121.398 613.315C112.132 599.5 101.864 586.416 90.9278 573.818C87.3322 569.75 84.5166 565.114 81.4781 560.64C71.3539 545.696 64.2034 529.59 58.8618 512.752C49.3921 482.874 39.9101 453.088 30.4282 423.302C30.2277 422.529 30.0272 421.755 29.7274 420.971C28.1008 415.72 28.0745 410.557 29.9585 405.425C31.3988 401.368 32.6527 397.196 34.1052 393.047C34.2409 392.781 34.3766 392.515 34.6238 392.168C35.4928 392.454 36.2625 392.73 37.2308 393.028C36.1855 396.379 35.0531 399.627 34.02 402.887C33.3312 405.059 32.6303 407.325 31.9416 409.497C31.265 411.578 31.1839 413.726 31.6984 415.942C32.5634 419.324 33.3169 422.787 34.3925 426.099C43.6151 456.325 53.1598 486.399 63.2129 516.438C69.6402 535.745 79.3127 553.358 91.3269 570.018C91.8373 570.733 92.3599 571.355 92.8826 571.978C107.376 588.17 119.901 605.545 131.633 623.581C136.827 631.584 142.033 639.494 147.45 647.335C149.479 650.287 151.843 652.995 154.207 655.704C154.991 656.638 156.085 657.513 157.155 658.573C157.872 657.716 158.354 657.115 158.848 656.421C165.237 647.675 167.208 638.05 165.953 627.682C164.496 616.54 160.09 606.376 153.999 596.77C153.924 596.573 153.639 596.447 153.365 596.228C152.997 597.5 152.751 598.597 152.308 599.672C151.631 601.753 150.408 603.396 148.526 604.682C146.767 605.795 144.944 605.868 143.168 604.821C141.665 603.993 140.174 603.073 138.918 601.898C134.528 597.739 130.127 593.672 126.071 589.27C112.686 574.611 100.414 559.141 88.2542 543.589C84.8065 539.162 81.4581 534.747 78.1097 530.332C77.1637 529.098 76.3413 527.691 75.6181 526.295C74.4959 524.103 73.5966 521.75 72.3751 519.547C70.2684 515.648 68.9923 511.562 68.1496 507.245C63.1363 483.316 58.1352 459.294 53.0226 435.353C51.5156 428.427 49.7979 421.571 48.2908 414.645C47.9019 413.006 47.9343 411.227 47.8554 409.53C47.8656 404.09 48.2728 398.696 50.1689 393.471C50.3289 393.02 50.4768 392.662 50.7361 392.222C50.7482 392.13 50.9589 392.06 51.1939 391.806C51.8644 392.07 52.622 392.438 53.5903 392.736C51.3235 398.481 50.8555 404.337 50.8959 410.158C50.9506 412.04 51.2159 413.853 51.5805 415.677C54.6331 430.002 57.7971 444.246 60.8496 458.571C64.4167 475.113 67.8723 491.735 71.3401 508.265C71.9559 511.244 73.0922 514.094 74.3279 516.955C77.3481 523.866 81.446 530.243 86.2002 536.226C99.7539 553.437 113.097 570.718 127.888 586.944C131.583 591.024 135.525 594.757 139.455 598.582C140.798 599.861 142.574 600.908 144.14 602.024C145.246 602.807 146.188 602.539 147.191 601.809C148.429 600.825 149.107 599.495 149.512 597.946C150.446 594.676 150.388 591.292 150.118 587.978C149.77 582.967 149.409 578.048 148.552 573.072C148.162 570.682 147.163 568.317 146.041 566.125C142.923 559.954 138.716 554.409 134.286 549.026C130.216 543.965 125.924 539.067 121.632 534.168C120.238 532.509 119.055 530.779 118.194 528.898C113.353 518.215 110.495 507.008 108.777 495.555C106.768 481.724 107.066 467.968 108.889 454.105C110.819 438.66 113.631 423.408 117.324 408.351C120.649 394.566 124.271 380.814 127.793 367.051C128.652 363.584 130.07 360.463 131.985 357.398C139.383 345.577 145.824 333.366 150.54 320.49C152.412 315.45 153.788 310.354 154.679 305.108C155.862 297.645 154.801 290.395 153.032 283.157C149.808 269.375 145.009 256.071 139.69 242.894C137.105 236.502 134.31 230.179 131.626 223.776C131.314 223.084 131.101 222.403 130.801 221.618C131.755 221.258 132.499 220.967 133.354 220.596C133.69 221.103 133.939 221.507 134.089 221.899C141.875 239.297 149.03 256.904 154.177 275.221C155.692 280.553 156.687 286.013 157.693 291.381C159.103 299.046 158.019 306.521 155.931 313.975C151.434 329.785 143.77 344.389 135.076 358.407C133.149 361.564 131.62 364.767 130.761 368.233C127.656 380.356 124.538 392.57 121.432 404.692C120.831 406.969 120.316 409.349 119.814 411.637C119.605 412.458 119.496 413.289 119.238 414.48C120.415 413.957 121.159 413.667 121.914 413.284C129.632 409.755 137.614 407.288 146.233 406.864C155.968 406.379 164.744 408.599 172.585 414.09C173.877 414.987 175.046 416.059 176.004 417.2C180.621 422.698 185.114 428.37 189.842 433.787C192.815 437.221 196.111 440.505 199.407 443.789C204.568 448.974 210.694 452.956 217.66 455.908C229.879 461.053 242.578 464.846 255.879 466.363C258.658 466.68 261.299 466.512 263.989 465.974C269.481 464.818 274.736 463.166 279.628 460.441C281.263 459.501 282.822 458.366 284.096 457.104C286.063 455.171 285.91 453.277 283.945 451.365C282.689 450.189 281.321 449.096 279.806 448.36C265.622 441.302 253.825 431.42 242.868 420.509C240.107 417.755 237.557 414.931 234.907 412.097C234.111 411.255 233.315 410.414 232.408 409.654C223.456 401.879 215.161 393.71 208.351 384.21C205.126 379.621 202.322 374.892 200.597 369.63C199.296 365.729 199 361.849 199.237 357.749C199.582 352.066 199.43 346.327 199.08 340.564C197.968 323.74 193.943 307.615 186.596 292.238C183.752 286.285 180.351 280.738 176.095 275.562C168.965 266.963 162.726 257.715 157.886 247.783C154.706 241.323 152.158 234.653 151.481 227.541C151.252 225.451 151.321 223.395 151.688 221.373C153.08 213.089 154.658 204.92 156.137 196.74C158.936 181.581 161.649 166.319 164.449 151.16C166.318 140.773 168.176 130.478 170.145 120.103C172.469 107.798 174.892 95.5038 177.215 83.1986C178.733 75.4919 180.151 67.7738 181.755 60.1708C184.008 49.1708 186.372 38.0898 188.624 27.0898C189.617 27.203 190.51 27.3049 191.503 27.4181C190.425 32.5483 189.447 37.6899 188.369 42.8202C186.728 50.7005 185.087 58.5808 183.534 66.5648C181.086 79.0435 178.651 91.4297 176.303 103.92C174.395 113.833 172.586 123.758 170.789 133.591C168.271 147.374 165.654 161.147 163.136 174.931C161.229 185.595 159.224 196.248 157.318 206.912C156.487 211.695 155.756 216.49 154.826 221.262C154.19 224.566 154.372 227.777 155.051 231.043C156.47 237.866 159.167 244.177 162.383 250.359C166.984 259.045 172.574 267.093 178.933 274.666C182.591 279.023 185.593 283.775 188.063 288.746C195.669 303.685 199.941 319.462 201.709 335.892C202.461 343.201 203.113 350.499 202.363 357.73C201.478 365.228 204.063 371.62 207.763 377.952C212.698 386.394 219.403 393.631 226.454 400.533C226.815 400.855 227.076 401.166 227.437 401.489C235.616 408.238 242.2 416.399 249.822 423.553C258.166 431.352 267.004 438.458 277.24 444.127C279.215 445.197 281.214 446.081 282.966 447.313C284.445 448.326 285.8 449.512 286.945 450.769C288.861 453.051 289.029 455.603 287.2 458.021C286.211 459.409 284.925 460.763 283.389 461.714C276.344 466.257 268.438 468.921 259.993 469.552C256.124 469.862 251.991 469.109 248.057 468.379C237.137 466.383 226.573 463.209 216.465 458.867C208.07 455.283 201.086 450.172 194.855 443.927C187.828 436.84 181.469 429.267 175.544 421.463C171.076 415.606 164.916 412.652 157.791 410.902C150.667 409.152 143.549 409.653 136.471 411.379C130.645 412.778 125.119 414.962 119.917 417.746C119.05 418.21 118.394 418.605 118.149 419.702C115.381 433.083 112.912 446.497 111.522 460.128C109.869 477.294 110.758 494.28 115.293 511.12C116.835 517.018 118.786 522.868 121.48 528.429C122.203 529.825 123.025 531.232 124.083 532.384C132.07 541.362 139.933 550.514 146.361 560.627C147.619 562.553 148.666 564.549 149.713 566.544C151.085 569.139 151.848 571.759 152.067 574.692C152.415 579.704 152.875 584.634 153.434 589.576C153.511 590.523 154.084 591.526 154.67 592.437C160.921 601.592 165.673 611.421 168.096 622.11C169.967 630.86 170.028 639.591 166.789 648.133C165.213 652.456 162.879 656.411 159.788 659.999C158.354 661.711 157.114 661.945 155.374 660.621C153.634 659.297 152.129 657.718 150.723 656.151C149.654 655.091 148.819 653.776 147.861 652.635C147.65 652.705 147.551 652.694 147.34 652.763C147.306 653.791 147.184 654.715 147.15 655.743C146.974 659.382 146.214 662.86 144.573 666.144C142.649 670.052 139.63 673.085 135.344 675.035C134.908 674.516 134.473 673.997 134.049 673.386C130.837 668.705 127.525 664.012 124.535 659.168C122.368 655.732 120.51 652.237 118.764 648.661C112.576 635.197 106.177 621.804 98.0679 609.153C93.4717 601.969 88.9748 594.796 84.3786 587.612C78.6115 578.605 72.7452 569.588 66.9782 560.581C66.2186 559.463 65.5704 558.263 65.0336 556.983C61.5394 549.08 58.1566 541.095 54.7616 533.204C54.4497 532.512 54.1377 531.819 53.763 530.839C53.4672 531.555 53.1208 531.891 53.06 532.353C52.274 535.265 51.3888 538.166 50.9127 541.02C50.3029 544.89 50.078 548.898 49.8653 552.814C49.4135 560.079 49.2595 567.379 48.7084 574.633C47.5536 588.009 46.3988 601.386 44.9463 614.728C44.2797 620.562 43.0177 626.328 41.7556 632.094C40.9838 635.664 39.5415 638.971 37.3415 641.909C32.5345 648.584 25.7079 651.465 17.2851 651.161C14.9779 651.085 12.6828 650.917 10.4849 650.01C10.5457 649.548 10.495 649.167 10.5437 648.797C12.7356 638.26 12.918 627.68 13.4103 617.042C13.7507 609.858 14.004 602.57 14.1459 595.363C14.3324 586.285 14.5188 577.207 14.606 568.118C14.6831 559.872 14.7602 551.625 14.738 543.368C14.6226 537.351 16.0953 531.515 16.9725 525.612C20.0173 504.759 22.8758 483.791 24.9281 462.824C25.0962 460.78 25.8721 458.711 25.4082 456.875C25.0436 455.051 23.3157 453.635 22.3312 451.928C20.0504 447.822 17.7695 443.716 15.6993 439.54C13.5663 435.075 12.6852 430.284 13.4286 425.397C14.8548 416.086 16.2689 406.866 17.5958 397.543C19.4474 384.996 21.299 372.45 22.9521 359.881C23.803 353.411 24.4432 347.011 24.9963 340.508C25.4865 333.716 25.6912 326.798 25.983 319.983C26.2363 312.695 26.4896 305.407 26.6436 298.108C26.9536 288.856 27.2515 279.697 27.5615 270.446C27.8229 261.564 28.1715 252.786 28.4329 243.904C28.5342 240.069 28.6355 236.235 27.5336 232.357C25.1657 223.55 24.9186 214.704 26.6932 205.808C27.3172 202.595 28.0404 199.395 28.4658 196.16C30.1938 183.787 31.9097 171.506 33.4393 159.111C34.3246 151.613 34.8007 144.163 35.1897 136.609C35.6395 128.593 35.8908 120.554 36.142 112.515C36.3589 105.505 36.5757 98.4939 36.7804 91.5755C37.0053 82.9709 37.2181 74.4588 37.4309 65.9466C37.67 58.0003 37.8099 50.0427 37.9497 42.0851C38.1139 33.9426 38.2659 25.8926 38.4301 17.7501C38.4483 15.3133 38.5658 12.8877 38.6955 10.3697C39.7124 10.298 40.705 10.4112 41.5983 10.5131ZM13.9772 647.969C20.9273 649.512 29.3684 647.379 34.1025 641.259C35.9317 638.841 37.2768 636.274 38.1499 633.465C40.437 626.034 41.5329 618.467 42.3311 610.866C43.6966 597.419 44.7521 584.031 45.8198 570.551C46.3587 563.39 46.5877 556.286 46.9281 549.102C47.0699 546.492 47.2117 543.881 47.7384 541.409C48.7797 536.555 50.1066 531.829 51.2349 527.08C51.4436 526.259 51.4659 525.324 51.1661 524.539C49.7279 520.154 48.2776 515.861 46.728 511.557C40.8192 495.968 34.799 480.46 28.791 464.859C28.629 464.559 28.4669 464.26 28.0679 463.464C27.8471 464.377 27.687 464.827 27.6262 465.289C25.6591 481.012 23.7791 496.839 21.7128 512.55C20.716 520.129 19.4094 527.766 18.2141 535.322C18.0197 536.8 17.6267 538.256 17.6307 539.758C17.5334 545.094 17.6346 550.452 17.6366 555.799C17.5231 564.323 17.5209 572.765 17.3081 581.277C17.144 589.42 16.992 597.47 16.7285 605.601C16.4064 614.945 15.8978 624.174 15.3771 633.495C15.0671 638.15 14.4351 642.956 13.9772 647.969Z" stroke="white" stroke-width="0.3"/>
</g>
<defs>
<filter id="filter0_d_1889_3922" x="0.321289" y="0.197266" width="298.311" height="685.021" filterUnits="userSpaceOnUse" color-interpolation-filters="sRGB">
<feFlood flood-opacity="0" result="BackgroundImageFix"/>
<feColorMatrix in="SourceAlpha" type="matrix" values="0 0 0 0 0 0 0 0 0 0 0 0 0 0 0 0 0 0 127 0" result="hardAlpha"/>
<feOffset/>
<feGaussianBlur stdDeviation="5"/>
<feComposite in2="hardAlpha" operator="out"/>
<feColorMatrix type="matrix" values="0 0 0 0 0.69902 0 0 0 0 0.627451 0 0 0 0 0.913725 0 0 0 0.5 0"/>
<feBlend mode="normal" in2="BackgroundImageFix" result="effect1_dropShadow_1889_3922"/>
<feBlend mode="normal" in="SourceGraphic" in2="effect1_dropShadow_1889_3922" result="shape"/>
</filter>
</defs>
</svg>
