<svg width="279" height="587" viewBox="0 0 279 587" fill="none" xmlns="http://www.w3.org/2000/svg">
<path d="M168.986 0C168.024 4.97382 167.069 9.95108 166.13 14.9453V14.9463C164.699 22.3805 163.323 29.821 161.967 37.2246L160.616 44.6152C159.987 48.0612 159.351 51.5064 158.712 54.9512L154.866 75.6191C154.227 79.064 153.591 82.5093 152.962 85.9551C152.485 88.6213 152.003 91.2869 151.517 93.9521L148.589 109.94C148.103 112.605 147.621 115.27 147.145 117.936C146.418 122.117 145.767 126.314 144.992 130.496L144.652 132.288C144.021 135.568 144.2 138.758 144.876 142.011L145.014 142.646C146.462 149.207 149.082 155.305 152.195 161.288L153.068 162.907C157.491 170.966 162.772 178.476 168.728 185.569L169.407 186.393C172.768 190.532 175.556 195.008 177.875 199.677H177.876C185.253 214.165 189.496 229.442 191.363 245.334L191.537 246.874L191.812 249.615C192.409 255.781 192.819 261.944 192.258 268.063L192.191 268.743V268.745L192.119 269.44C191.473 276.592 193.993 282.75 197.572 288.874L198.039 289.66C202.915 297.75 209.411 304.741 216.239 311.425H216.238C216.421 311.588 216.579 311.748 216.732 311.905C216.888 312.064 217.041 312.219 217.217 312.377C221.312 315.756 225.006 319.487 228.626 323.265C232.249 327.045 235.798 330.87 239.605 334.443H239.604C247.943 342.237 256.77 349.334 266.991 354.996L267.729 355.388C269.452 356.287 271.19 357.107 272.73 358.189H272.731C274.033 359.081 275.24 360.107 276.293 361.196L276.735 361.667L276.739 361.671C277.713 362.831 278.251 364.07 278.306 365.335C278.36 366.6 277.93 367.874 277 369.105L277.001 369.106C276.005 370.505 274.704 371.874 273.148 372.838V372.839C266.082 377.396 258.151 380.067 249.681 380.701L249.682 380.702C245.789 381.013 241.636 380.256 237.706 379.526V379.525C226.775 377.528 216.2 374.351 206.082 370.005V370.004C197.668 366.412 190.667 361.289 184.426 355.033V355.032C177.833 348.384 171.828 341.308 166.219 334.016L165.103 332.554C160.662 326.734 154.537 323.793 147.432 322.047C140.337 320.304 133.245 320.803 126.184 322.524H126.183C120.734 323.833 115.547 325.83 110.643 328.363L109.666 328.878C109.231 329.111 108.868 329.316 108.582 329.593C108.302 329.865 108.09 330.211 107.974 330.732C105.207 344.11 102.74 357.517 101.351 371.14L101.203 372.747C99.8045 388.815 100.669 404.724 104.703 420.501L105.117 422.078L105.118 422.079L105.411 423.184C106.903 428.699 108.771 434.157 111.291 439.358H111.292C111.969 440.664 112.728 441.971 113.681 443.066L113.873 443.282L113.874 443.284L116.861 446.66C123.806 454.566 130.535 462.686 136.165 471.544H136.166C137.428 473.476 138.479 475.478 139.525 477.473L139.777 477.963C141 480.417 141.689 482.91 141.896 485.679V485.68L142.031 487.555C142.313 491.297 142.657 495.001 143.058 498.705L143.262 500.557L143.282 500.732C143.406 501.588 143.925 502.498 144.476 503.354C150.538 512.234 155.195 521.751 157.687 532.073L157.922 533.075L157.921 533.077L158.092 533.898C159.798 542.392 159.758 550.873 156.608 559.181L156.609 559.183C155.027 563.523 152.683 567.495 149.58 571.096C148.855 571.961 148.156 572.481 147.395 572.597C146.629 572.712 145.844 572.412 144.961 571.74C143.21 570.407 141.696 568.821 140.289 567.252V567.251C139.75 566.715 139.27 566.118 138.809 565.516C138.363 564.934 137.936 564.351 137.482 563.805C137.415 563.823 137.358 563.837 137.305 563.847C137.257 563.856 137.213 563.864 137.163 563.877C137.144 564.354 137.109 564.81 137.073 565.263C137.054 565.507 137.034 565.75 137.018 565.996L136.979 566.746V566.748L136.938 567.432C136.703 570.839 135.934 574.109 134.386 577.208C132.446 581.147 129.403 584.206 125.084 586.171L124.979 586.219L124.906 586.132C124.471 585.614 124.032 585.09 123.604 584.473L123.604 584.472C120.392 579.793 117.078 575.095 114.086 570.248V570.247C111.915 566.805 110.055 563.307 108.308 559.729L108.306 559.726C102.311 546.683 96.1215 533.713 88.374 521.423L87.6191 520.235C85.3209 516.643 83.0476 513.053 80.7744 509.464C79.638 507.67 78.5018 505.875 77.3623 504.08L73.9297 498.693C71.0465 494.191 68.1377 489.686 65.2295 485.18C62.3212 480.674 59.4139 476.166 56.5303 471.663V471.662C55.7665 470.537 55.1139 469.331 54.5742 468.044V468.045C51.0799 460.142 47.697 452.157 44.3027 444.267L43.8262 443.19C43.6994 442.895 43.5695 442.576 43.4297 442.221C43.3238 442.433 43.2204 442.609 43.1328 442.764C43.002 442.994 42.9139 443.171 42.8877 443.37L42.8867 443.38L42.8838 443.39C42.096 446.308 41.2137 449.198 40.7393 452.042C40.2831 454.938 40.0437 457.912 39.8623 460.87L39.6934 463.819V463.82L39.5371 466.544C39.222 472.448 39.0453 478.384 38.6357 484.281L38.5371 485.643V485.644L37.666 495.675C36.7859 505.706 35.864 515.734 34.7744 525.742L34.6416 526.838C33.9481 532.307 32.7639 537.72 31.5811 543.124C30.8052 546.713 29.3543 550.038 27.1416 552.994L27.1426 552.995C22.4525 559.508 15.8491 562.431 7.74414 562.33L6.95605 562.311C4.64722 562.235 2.32802 562.067 0.103516 561.148L0 561.105L0.0146484 560.993C0.0436357 560.773 0.0468389 560.57 0.0478516 560.371C0.0488477 560.175 0.0474749 559.976 0.0732422 559.78L0.0742188 559.769H0.0751953C2.26384 549.246 2.44682 538.682 2.93945 528.038V528.037C3.23723 521.752 3.46806 515.388 3.61621 509.068L3.6748 506.362C3.83795 498.419 4.00003 490.477 4.09668 482.527L4.13477 479.119C4.21183 470.874 4.28877 462.629 4.2666 454.373L4.25977 453.808C4.24214 447.973 5.65506 442.292 6.50195 436.593L7.63477 428.769C10.2495 410.5 12.6607 392.156 14.4561 373.814L14.4951 373.428C14.5997 372.525 14.8002 371.615 14.9355 370.751C15.0918 369.753 15.1656 368.801 14.9414 367.914L14.9395 367.906V367.905C14.7638 367.029 14.2586 366.242 13.6602 365.449C13.0681 364.665 12.3771 363.869 11.8789 363.005L11.8779 363.002C9.59745 358.897 7.31408 354.788 5.24219 350.608V350.606C3.09816 346.119 2.21045 341.297 2.95898 336.377L4.02441 329.408C5.08596 322.45 6.13087 315.516 7.12598 308.524V308.523L8.51074 299.113C9.8901 289.703 11.2418 280.289 12.4814 270.863C13.3318 264.397 13.9725 258 14.5254 251.499L14.6963 248.948C15.0677 242.984 15.2554 236.945 15.5107 230.98L15.7002 225.514C15.8855 220.048 16.0564 214.58 16.1719 209.106V209.104L17.0898 181.444L17.2998 174.798C17.3733 172.587 17.4501 170.379 17.5264 168.172C17.6026 165.964 17.6775 163.756 17.751 161.546L17.9609 154.902C18.0623 151.065 18.1622 147.252 17.0674 143.399V143.397C14.6936 134.569 14.4447 125.7 16.2236 116.781L16.7051 114.372C17.1916 111.965 17.6776 109.564 17.9961 107.143V107.142L19.2861 97.876C20.5694 88.6218 21.8218 79.3911 22.9688 70.0957L23.1299 68.6914C23.9126 61.6723 24.3541 54.6853 24.7188 47.6045V47.6035C25.056 41.5931 25.2808 35.5694 25.4785 29.542L25.6699 23.5137C25.8867 16.5031 26.1039 9.49222 26.3086 2.57422L26.374 0H29.6982C29.6892 0.445779 29.6788 0.891399 29.6699 1.33691L29.5283 8.72461V8.72559L29.3887 13.791C29.2453 18.8667 29.0857 23.9675 28.876 29.0098L28.7354 32.335C28.398 40.0951 27.9854 47.847 27.4961 55.5898L27.3252 58.1211C26.4906 69.9225 25.1462 81.6023 23.4756 93.3066L23.1123 95.8154C22.2991 101.424 21.3255 106.961 20.3066 112.518L19.2764 118.085C17.6547 126.597 18.2579 134.992 20.3838 143.284L20.542 143.889C21.287 146.917 21.3415 150.018 21.2217 153.086L20.6963 169.724C20.522 175.262 20.3472 180.8 20.1699 186.361V186.362L19.8848 194.279C19.6037 202.197 19.3372 210.117 19.126 218.042V218.043L18.9443 224.689C18.7993 230.221 18.6573 235.737 18.4141 241.268L18.2549 244.588V244.589L18.1025 247.104C17.7261 252.974 17.189 258.825 16.4229 264.651L15.748 269.996C14.3804 280.691 12.9033 291.413 11.3682 302.089L10.5957 307.423C9.48743 315.083 8.1796 322.724 6.97266 330.369V330.371C6.74788 331.699 6.62127 333.04 6.49609 334.375C6.37111 335.708 6.24822 337.036 6.02734 338.331C5.69205 340.889 6.06451 343.346 6.84668 345.764H6.84766C9.07945 352.472 12.6962 358.595 16.752 364.493L17.0957 364.997C17.7627 366.011 18.3178 367.058 18.8076 368.102L19.0469 368.623L19.0498 368.63L21.5527 374.996C27.4248 389.85 33.4736 404.704 38.7246 419.752L39.7783 422.749C45.1122 437.71 51.4115 452.32 57.7998 466.943C58.2698 467.927 58.8383 468.922 59.4102 469.923L63.4502 476.29C72.8896 491.138 82.4032 505.939 91.9072 520.812L93.1016 522.715C99.0198 532.245 104.105 542.092 108.438 552.267H108.437C112.824 562.509 118.846 571.817 125.294 580.993H125.293C125.396 581.121 125.459 581.29 125.52 581.478C125.569 581.632 125.623 581.807 125.694 582.012C126.244 581.58 126.725 581.225 127.141 580.903C127.601 580.548 127.989 580.224 128.332 579.852L128.336 579.847L128.776 579.389C130.918 577.075 132.164 574.413 132.837 571.434V571.433L133.001 570.699C133.778 567.023 133.941 563.282 133.398 559.545L133.397 559.544C133.298 558.799 133.017 557.945 132.61 557.357L132.608 557.354C125.397 546.307 118.273 535.364 110.951 524.398V524.399C101.69 510.592 91.4253 497.513 80.4922 484.919L79.8262 484.146C76.9744 480.778 74.5954 477.063 72.1611 473.407L71.0322 471.725C61.2152 457.234 54.1919 441.654 48.9033 425.377L48.3975 423.8C38.9278 393.922 29.4457 364.135 19.9639 334.35L19.9609 334.342C19.7602 333.568 19.561 332.802 19.2646 332.026L19.2627 332.018C17.6278 326.74 17.5994 321.544 19.4951 316.378L20.0264 314.853C20.5508 313.323 21.0562 311.778 21.5625 310.227C22.2374 308.158 22.9157 306.076 23.6426 303.999L23.6455 303.99L23.6494 303.98C23.7856 303.714 23.9267 303.44 24.1807 303.083L24.2461 302.99L24.3516 303.025C25.2248 303.313 25.9895 303.587 26.9561 303.885L27.0967 303.929L27.0537 304.07C26.2713 306.579 25.4341 309.044 24.6309 311.489L23.8428 313.93L21.7637 320.54V320.542C21.0961 322.595 21.0158 324.715 21.5244 326.906H21.5234C22.2815 329.871 22.9515 332.884 23.8262 335.806L24.2148 337.052L24.2158 337.054L25.9482 342.719C34.6325 371.037 43.6099 399.229 53.0342 427.389L53.6465 429.192C59.856 447.178 68.8911 463.699 80.0098 479.365L81.1289 480.93L81.5107 481.447C81.8939 481.948 82.2837 482.411 82.6748 482.877L84.0273 484.399C97.9563 500.164 110.07 517.023 121.438 534.498L125.339 540.482C129.248 546.45 133.191 552.37 137.253 558.249L137.637 558.799C139.056 560.802 140.624 562.699 142.233 564.569L144 566.604L144.002 566.607L144.306 566.949C144.622 567.29 144.977 567.63 145.355 567.98C145.822 568.412 146.324 568.864 146.823 569.352C147.482 568.563 147.938 567.99 148.404 567.335L148.406 567.334L148.989 566.515C154.888 558.023 156.694 548.715 155.481 538.702V538.701C154.028 527.588 149.634 517.445 143.551 507.852L143.542 507.839L143.537 507.824C143.516 507.771 143.46 507.712 143.346 507.629C143.287 507.587 143.21 507.533 143.129 507.477C142.797 508.646 142.549 509.694 142.129 510.715L142.13 510.716C141.443 512.829 140.198 514.499 138.288 515.805L138.284 515.808C136.481 516.949 134.598 517.025 132.772 515.951V515.952C131.266 515.122 129.762 514.195 128.493 513.008L128.492 513.007C124.379 509.11 120.248 505.288 116.403 501.194L115.639 500.372C102.249 485.708 89.9735 470.234 77.8135 454.683V454.682C74.3653 450.254 71.0161 445.838 67.668 441.423V441.422C66.7152 440.179 65.888 438.764 65.1631 437.365H65.1621C64.5991 436.266 64.0921 435.125 63.5752 433.989C63.0575 432.852 62.5295 431.716 61.9219 430.62L61.9209 430.619C59.8056 426.704 58.5253 422.604 57.6807 418.276V418.275C53.2942 397.338 48.9173 376.329 44.4668 355.367L42.5547 346.387C41.8015 342.925 40.9956 339.481 40.1895 336.035C39.3836 332.591 38.5768 329.145 37.8232 325.682L37.7539 325.369C37.4333 323.8 37.4572 322.117 37.3838 320.539V320.531C37.394 315.086 37.8013 309.672 39.7061 304.423C39.8658 303.973 40.0159 303.609 40.2754 303.166C40.2937 303.11 40.3303 303.069 40.3564 303.045C40.39 303.014 40.4339 302.982 40.4727 302.954C40.5552 302.894 40.6563 302.82 40.7627 302.705L40.834 302.628L40.9297 302.667C41.6132 302.936 42.3542 303.296 43.3154 303.592L43.4668 303.639L43.4092 303.788C41.1528 309.507 40.6852 315.341 40.7256 321.154C40.7801 323.023 41.0431 324.825 41.4062 326.643H41.4072C42.9334 333.805 44.4859 340.948 46.04 348.09C47.5941 355.232 49.1495 362.374 50.6758 369.537L52.0078 375.744C53.3358 381.954 54.6505 388.172 55.958 394.39L61.166 419.232L61.2861 419.787C61.9195 422.55 62.9858 425.212 64.1436 427.894H64.1445C67.1585 434.79 71.2489 441.156 75.9971 447.132H75.998L81.0742 453.587C92.9105 468.647 104.74 483.649 117.679 497.843L117.68 497.844L118.374 498.604C121.862 502.385 125.553 505.886 129.238 509.474L129.493 509.709C130.79 510.872 132.425 511.845 133.907 512.902L134.104 513.03C134.555 513.302 134.969 513.384 135.367 513.336C135.827 513.28 136.287 513.049 136.777 512.692L136.996 512.509C138.062 511.572 138.67 510.344 139.045 508.911L139.047 508.908L139.209 508.298C139.965 505.244 139.9 502.096 139.647 498.993L139.646 498.991C139.298 493.979 138.938 489.068 138.083 484.101V484.099C137.696 481.731 136.705 479.382 135.585 477.195V477.194C132.475 471.038 128.276 465.502 123.848 460.121L123.847 460.12C119.779 455.062 115.489 450.166 111.196 445.268L111.194 445.266C109.883 443.703 108.753 442.076 107.902 440.316L107.735 439.962C103.19 429.932 100.392 419.442 98.6436 408.726L98.3066 406.579C96.2951 392.732 96.5935 378.963 98.418 365.09L98.791 362.194C100.705 347.732 103.393 333.44 106.856 319.318L108.116 314.15C111.085 302.094 114.244 290.059 117.326 278.018L117.495 277.368C118.37 274.141 119.735 271.204 121.536 268.32L122.911 266.101C129.728 254.978 135.661 243.501 140.078 231.441V231.44L140.423 230.495C142.116 225.772 143.375 220.994 144.209 216.086C145.387 208.652 144.332 201.424 142.565 194.195L142.564 194.193C139.544 181.283 135.14 168.789 130.22 156.423L129.229 153.952C126.644 147.561 123.851 141.243 121.165 134.836V134.835C120.852 134.14 120.635 133.445 120.34 132.673L120.285 132.532L120.429 132.479C121.382 132.119 122.122 131.829 122.974 131.459L123.09 131.408L123.158 131.513C123.492 132.016 123.748 132.43 123.904 132.837L125.357 136.102C132.579 152.441 139.173 168.997 144.001 186.178L144.278 187.181C145.642 192.201 146.576 197.321 147.52 202.352L147.521 202.353L147.646 203.073C148.788 210.037 147.912 216.843 146.135 223.613L145.754 225.014C141.251 240.842 133.579 255.459 124.882 269.481L124.883 269.483C122.962 272.632 121.44 275.82 120.586 279.267V279.269C119.033 285.329 117.477 291.413 115.921 297.497C114.365 303.581 112.81 309.666 111.257 315.727L111.256 315.728C110.655 318 110.142 320.377 109.64 322.666L109.638 322.671C109.535 323.076 109.457 323.486 109.371 323.945C109.299 324.33 109.219 324.75 109.12 325.229C110.154 324.774 110.833 324.502 111.527 324.15L111.532 324.148L112.985 323.498C120.265 320.313 127.803 318.113 135.906 317.714L136.819 317.677C146.221 317.371 154.726 319.627 162.351 324.966H162.352C163.654 325.871 164.832 326.952 165.799 328.103L167.526 330.173C171.545 335.018 175.498 339.948 179.634 344.688L179.635 344.688L180.763 345.968C183.427 348.938 186.308 351.809 189.192 354.683H189.193L189.679 355.164C194.723 360.1 200.666 363.916 207.399 366.77L208.545 367.247C220.401 372.145 232.708 375.747 245.576 377.214C248.165 377.509 250.636 377.382 253.14 376.924L253.641 376.827C259.122 375.673 264.361 374.026 269.234 371.311C270.859 370.377 272.407 369.249 273.67 367.999V367.998L273.846 367.82C274.687 366.935 275.057 366.075 275.023 365.234C274.987 364.334 274.487 363.417 273.52 362.475L273.046 362.04C271.928 361.038 270.726 360.131 269.417 359.495L269.416 359.494C255.656 352.647 244.142 343.148 233.47 332.636L232.439 331.615C229.676 328.859 227.122 326.033 224.475 323.2V323.199C223.678 322.358 222.889 321.523 221.989 320.77L221.986 320.768C213.031 312.989 204.726 304.812 197.906 295.298L197.905 295.297C194.879 290.99 192.218 286.553 190.47 281.663L190.133 280.679C188.825 276.756 188.529 272.856 188.767 268.743H188.766C189.11 263.069 188.959 257.336 188.608 251.577L188.495 250.004C187.283 234.289 183.503 219.19 176.817 204.746L176.139 203.304C173.299 197.36 169.905 191.823 165.657 186.658L165.656 186.659C158.52 178.053 152.275 168.795 147.43 158.851V158.85C144.246 152.383 141.69 145.695 141.011 138.557V138.556C140.781 136.453 140.85 134.385 141.219 132.35C142.611 124.065 144.189 115.893 145.667 107.716L147.754 96.3311C148.446 92.5317 149.134 88.7285 149.823 84.9258C151.201 77.3208 152.58 69.7152 153.979 62.1357L155.381 54.3594C156.784 46.5958 158.199 38.8591 159.676 31.0771C160.838 24.9245 162.024 18.7744 163.211 12.625C164.023 8.4172 164.832 4.20869 165.637 0H168.986ZM17.6113 375.582C17.5364 375.866 17.4821 376.086 17.4531 376.307C15.4863 392.028 13.6064 407.856 11.54 423.567C10.543 431.148 9.23583 438.79 8.04102 446.343C7.94339 447.084 7.79547 447.826 7.6748 448.554C7.56844 449.196 7.48154 449.835 7.46289 450.479L7.45996 450.755V450.758L7.43164 452.76C7.39896 456.096 7.42958 459.439 7.4502 462.783L7.46582 466.797V466.799L7.39648 473.178C7.33802 479.547 7.29632 485.894 7.13672 492.278L6.88379 504.444C6.81519 507.48 6.74044 510.515 6.65137 513.558L6.55762 516.604V516.604L6.42773 520.104C6.19892 525.928 5.90664 531.718 5.5918 537.523L5.20508 544.501L5.20605 544.502H5.20508C4.89777 549.117 4.27436 553.892 3.81836 558.849C10.6988 560.328 19.001 558.195 23.6631 552.168C25.4815 549.764 26.8172 547.213 27.6846 544.423C29.8245 537.469 30.921 530.394 31.707 523.276L31.8604 521.853C32.8843 511.769 33.7337 501.719 34.5449 491.637L35.3486 481.542C35.8873 474.383 36.1165 467.285 36.457 460.098V460.097C36.5987 457.489 36.74 454.866 37.2695 452.38V452.379L37.6729 450.564C38.6403 446.341 39.7814 442.195 40.7666 438.048L40.7686 438.045L40.835 437.741C40.9709 437.023 40.955 436.249 40.7051 435.595L40.7012 435.587C39.2636 431.203 37.8142 426.913 36.2656 422.611L34.0449 416.77C28.8532 403.148 23.5882 389.571 18.332 375.923C18.1976 375.674 18.0628 375.42 17.791 374.884C17.7206 375.158 17.6633 375.386 17.6113 375.582Z" fill="url(#paint0_linear_2300_5291)"/>
<defs>
<linearGradient id="paint0_linear_2300_5291" x1="122.676" y1="0" x2="122.676" y2="587" gradientUnits="userSpaceOnUse">
<stop offset="0.00447594" stop-color="#D9D9D9" stop-opacity="0"/>
<stop offset="0.0865385" stop-color="#EDEDED" stop-opacity="0.1"/>
<stop offset="0.192308" stop-color="#F1F1F1" stop-opacity="0.85"/>
<stop offset="1" stop-color="white"/>
</linearGradient>
</defs>
</svg>
