<svg width="283" height="591" viewBox="0 0 283 591" fill="none" xmlns="http://www.w3.org/2000/svg">
<path d="M252.164 4.61035L252.3 10.7012C252.523 20.0565 252.757 29.502 253.277 38.8203V38.8213C253.808 48.9847 254.549 59.2159 255.179 69.3711L255.18 69.374C255.285 71.7036 255.588 74.0014 255.781 76.2402C255.917 77.2739 255.952 78.217 256.982 78.8887C257.453 79.1461 257.838 79.6978 258.006 80.1689L258.473 81.4561C259.545 84.4773 260.42 87.6206 259.52 90.9688V90.9707C259.487 91.0851 259.461 91.2115 259.435 91.3467C259.409 91.4798 259.381 91.6226 259.347 91.7598C259.28 92.0296 259.177 92.31 258.964 92.502L258.965 92.5029C257.774 93.6174 258.034 94.9055 258.231 96.4043C258.537 98.733 258.842 101.05 259.467 103.328C259.664 102.673 259.86 102.029 260.058 101.387C260.305 100.585 260.552 99.7831 260.796 98.959L260.799 98.9482L260.8 98.9473C261.37 97.456 261.865 95.7837 263.825 95.2686C261.798 92.6987 260.667 90.2168 260.444 87.8564C260.216 85.4359 260.943 83.1597 262.607 81.0703C265.324 77.6244 270.399 76.1518 275.053 77.3789L275.502 77.5059L275.503 77.5068L275.918 77.6445C280.164 79.1502 283.061 83.0641 282.94 87.4199V87.4209C282.857 90.2695 282.121 92.4325 280.444 94.1426C278.796 95.824 276.253 97.05 272.583 98.0801C273.812 101.682 273.106 104.954 270.569 107.868C269.29 109.338 267.857 110.478 266.211 111.119C264.617 111.74 262.832 111.887 260.808 111.426C261.056 113.408 261.133 115.364 261.569 117.208L261.805 118.193C264.159 128.382 264.047 138.584 261.261 148.649C260.554 151.253 260.534 153.852 260.609 156.528L260.646 157.681C260.714 159.924 260.788 162.161 260.864 164.395L261.333 177.785L261.553 184.5C261.933 195.057 262.214 205.627 262.495 216.194C262.632 220.681 262.79 225.141 262.948 229.602C263.107 234.062 263.266 238.524 263.402 243.011L263.403 243.012C264.257 266.355 267.888 289.384 271.423 312.435L272.434 319.074C273.434 325.714 274.421 332.354 275.519 338.981C276.501 344.908 275.499 350.398 273.081 355.853L273.079 355.855C270.718 360.915 267.935 365.836 264.704 370.433L264.701 370.437C263.951 371.433 263.686 372.368 263.755 373.641C266.051 395.7 268.855 417.796 272.144 439.742L272.145 439.745L272.272 440.679C272.536 442.546 272.858 444.414 273.24 446.321L273.437 447.277V447.278L273.635 448.314C274.559 453.502 274.503 458.794 274.524 463.976V463.977C274.525 472.418 274.615 480.756 274.716 489.187L274.715 489.188C274.78 497.34 274.932 505.389 275.195 513.519V513.52C275.376 520.253 275.543 526.892 275.921 533.6L275.922 533.601C276.42 541.986 277.214 550.33 277.824 558.803C277.992 560.842 278.37 562.943 278.663 565.171L278.683 565.32L278.541 565.336C278.539 565.337 278.537 565.338 278.534 565.34C278.52 565.347 278.501 565.358 278.476 565.373C278.451 565.388 278.423 565.407 278.392 565.427C278.361 565.447 278.326 565.468 278.29 565.49C278.155 565.574 277.97 565.676 277.789 565.701L277.79 565.702C272.286 566.894 266.821 566.953 261.47 564.824V564.825C255.804 562.637 251.928 558.635 249.632 553.515V553.514C248.185 550.197 247.125 546.743 246.363 543.257L246.362 543.256C243.715 530.789 242.658 518.142 241.601 505.507L241.411 503.171C240.98 497.719 240.615 492.26 240.25 486.803L240.249 486.802L240.053 483.48C239.619 475.728 239.348 467.972 238.772 460.238V460.237L238.721 459.631C238.421 456.602 237.486 453.652 236.804 450.635L236.803 450.631C236.657 449.904 236.466 449.204 236.257 448.479C236.066 447.816 235.862 447.129 235.668 446.387C234.95 446.91 234.86 447.553 234.642 448.125L234.641 448.13L234.502 448.069L234.64 448.13C231.245 456.021 227.849 463.913 224.442 471.713L224.441 471.718C223.727 473.21 222.915 474.713 222.091 476.123L222.087 476.127C212.299 491.525 202.435 506.931 192.637 522.393L188.442 529.023C183.052 537.546 178.422 546.478 174.451 555.674L173.665 557.517C168.815 568.966 161.807 579.344 154.685 589.536L154.679 589.547L154.677 589.546C154.583 589.658 154.485 589.747 154.387 589.838C154.337 589.884 154.285 589.932 154.231 589.987L154.056 590.18L153.981 590.27L153.874 590.217C149.043 587.793 146.117 584.485 144.361 580.595C142.651 576.806 142.054 572.471 141.87 567.877C141.317 568.442 140.99 568.739 140.602 569.108L140.603 569.109C139.023 570.884 137.44 572.661 135.745 574.358C135.111 575.005 134.266 575.576 133.519 576.037L133.513 576.041C132.747 576.463 132.052 576.649 131.399 576.534C130.743 576.419 130.158 576.005 129.601 575.3V575.299C126.02 571.119 123.445 566.492 121.796 561.431L121.478 560.412C118.715 550.934 119.589 541.423 122.298 532.093L122.545 531.265C125.133 522.735 129.211 514.825 134.393 507.409L134.542 507.185C135.261 506.059 135.56 504.895 135.667 503.581C136.078 498.283 136.479 492.884 137.288 487.532C137.596 485.224 138.503 482.853 139.743 480.73V480.729L140.796 478.961C143.26 474.845 145.788 470.817 148.734 467.027L149.707 465.777C154.591 459.544 159.754 453.581 164.816 447.554C166.031 446.106 167.13 444.585 167.896 442.827V442.826L168.327 441.845C172.731 431.69 175.412 421.201 177.002 410.307L177.173 409.066C178.869 396.245 178.612 383.467 177.122 370.651C175.643 358.633 173.481 346.784 171.021 334.968L170.935 334.641C170.844 334.326 170.734 334.047 170.578 333.801C170.372 333.477 170.079 333.203 169.621 332.988L169.616 332.985C160.983 328.537 151.922 325.361 142.03 324.992V324.991C135.479 324.803 129.212 325.986 123.361 328.802L123.36 328.803V328.802C119.777 330.517 116.775 332.818 114.376 335.888L114.375 335.89C110.285 341.001 106.063 345.969 101.773 350.943L97.4611 355.926C89.2223 365.426 78.822 372.172 66.6818 376.543L65.5011 376.959C55.2783 380.471 44.8644 383.348 34.0304 384.583C30.8428 384.946 27.7978 384.916 24.6525 384.142V384.143C18.7242 382.754 12.943 381.062 7.68469 377.989L7.0675 377.621C5.62731 376.736 4.19601 375.65 3.05969 374.454L2.78137 374.163C1.43594 372.704 0.761304 371.121 0.7716 369.535C0.782846 367.844 1.57307 366.174 3.11047 364.668L3.11144 364.667L3.66027 364.15C4.96337 362.955 6.42802 361.845 8.02062 361.083L9.21887 360.482C21.5434 354.196 31.9957 345.625 41.6886 336.255H41.6896L42.3722 335.593C43.9567 334.041 45.4833 332.431 47.0001 330.812C48.7328 328.962 50.4542 327.098 52.2345 325.299L52.2374 325.296L53.5802 324.018C54.0279 323.591 54.4763 323.164 54.9239 322.737L54.9279 322.733L55.0284 322.847L54.9288 322.733C62.5214 316.149 69.7517 309.139 75.8673 301.322L76.5568 300.431C79.9746 295.957 82.9709 291.196 85.1183 286.041C86.4862 282.708 87.3323 279.254 87.256 275.631C87.1308 271.623 86.806 267.613 86.879 263.567V263.566L86.9318 261.653C87.5916 241.914 91.8805 222.914 100.747 204.891L101.262 203.866C103.866 198.759 106.953 193.858 110.718 189.375L111.9 187.934C117.764 180.696 123.017 173.025 127.314 164.807L127.315 164.805L127.912 163.662C130.859 157.936 133.213 152.019 134.459 145.738L134.613 144.878C135.318 140.707 135.136 137.608 133.853 133.3C133.425 133.512 132.976 133.713 132.502 133.923C132.056 134.12 131.588 134.328 131.091 134.566C132.403 135.115 133.14 135.916 133.545 136.867C133.977 137.882 134.025 139.054 134.028 140.225L134.027 140.228C134.011 141.642 133.896 143.068 133.78 144.487C133.751 145.085 133.537 145.523 133.172 145.824C132.812 146.122 132.32 146.274 131.761 146.338C130.864 146.44 129.731 146.476 128.855 146.186L128.849 146.184C127.132 145.526 125.479 144.453 124.382 142.95C123.281 141.443 122.746 139.512 123.258 137.161L123.26 137.156L123.307 137.001C123.43 136.646 123.646 136.323 123.874 136.027C124.005 135.858 124.144 135.693 124.273 135.536C124.356 135.435 124.434 135.336 124.507 135.24C121.057 134.082 118.458 132.236 116.949 129.93C115.41 127.576 115.015 124.759 115.997 121.748L116.179 121.22C118.15 115.896 123.771 113.279 130.461 114.61C130.221 112.733 130.076 110.952 129.746 109.183V109.182C128.243 100.817 126.74 92.4521 125.138 84.0996V84.0986C122.595 70.1238 119.957 56.1807 117.426 42.2969L116.133 35.3525C114.839 28.4209 113.534 21.5166 112.167 14.5674V14.5664C111.246 9.69853 110.31 4.84737 109.365 0H112.578C114.19 8.26305 115.804 16.5373 117.444 24.8281L117.445 24.8291L118.143 28.4395C119.758 36.8561 121.299 45.2277 122.85 53.6689L124.862 64.5C125.53 68.1147 126.195 71.7327 126.859 75.3506C128.189 82.5864 129.517 89.8227 130.868 97.0322L133.031 108.887L133.032 108.895L133.12 109.443C133.154 109.628 133.191 109.816 133.23 110.012C133.293 110.336 133.356 110.678 133.412 111.053C134.754 110.221 136.036 109.886 137.306 110.019C138.545 110.148 139.754 110.72 140.977 111.674C140.808 108.917 141.282 106.576 142.466 104.709C143.699 102.765 145.689 101.351 148.477 100.513H148.479L148.981 100.374C151.483 99.7285 153.83 99.7258 155.97 100.408C158.193 101.118 160.178 102.565 161.876 104.776C164.432 100.518 168.66 99.5448 173.344 99.4395C172.686 97.8695 172.485 96.6218 172.83 95.501C173.189 94.3352 174.128 93.3406 175.658 92.2705L176.014 92.0322C179.624 89.7275 184.759 89.5786 188.503 91.6865L188.873 91.9043L188.882 91.9102L189.315 92.2109C189.714 92.4779 190.161 92.7509 190.659 93.0586C190.814 91.9972 191.061 91.0169 191.577 90.2217C192.134 89.3634 192.995 88.7326 194.351 88.4336L194.355 88.4326L194.782 88.3574C195.774 88.2043 196.732 88.211 197.637 88.4561C198.593 88.715 199.482 89.2386 200.283 90.1064C200.761 87.832 201.809 86.1764 203.27 85.0117C204.79 83.7996 206.746 83.1265 208.941 82.8291L209.444 82.7715C211.94 82.5312 214.153 82.9846 216.067 84.0391C218.028 85.12 219.662 86.8297 220.963 89.0527C221.385 88.0292 221.933 87.2674 222.582 86.7021C223.291 86.0856 224.112 85.7071 224.997 85.4688C225.882 85.2309 226.835 85.1321 227.812 85.0752C228.3 85.0468 228.796 85.0279 229.293 85.0088C229.687 84.9936 230.082 84.9756 230.476 84.9531C229.86 84.2807 229.327 83.6856 228.725 83.1729L228.719 83.168C228.303 82.7784 228.028 82.3595 227.929 81.9209C227.829 81.4783 227.912 81.031 228.179 80.5986V80.5967L228.615 79.8799C228.764 79.6313 228.918 79.3759 229.084 79.1309C229.415 78.6423 229.8 78.1817 230.291 77.8779C232.251 76.5684 234.239 75.7939 236.285 75.6201C238.334 75.4463 240.432 75.874 242.609 76.9521V76.9531L242.983 77.1465C246.792 79.2067 248.994 83.0108 248.531 87.0381L248.532 87.0391C247.899 93.1045 242.528 97.3279 236.212 96.623V96.6221C235.965 96.6048 235.655 96.5928 235.358 96.5557C235.059 96.5183 234.751 96.4537 234.509 96.3242L234.496 96.3184L234.497 96.3174C232.24 94.8371 229.913 95.0925 227.406 95.8447L227.407 95.8457C227.149 95.9252 226.887 95.9541 226.646 95.9697C226.396 95.9859 226.184 95.9866 225.989 96.0088L225.982 96.0098C225.124 96.0602 224.285 96.0141 223.55 95.7188C222.914 95.4631 222.362 95.0242 221.943 94.3213C221.847 94.7889 221.739 95.2997 221.565 95.7617C220.264 101.428 214.41 105.035 208.449 103.912V103.913C206.524 103.579 205.086 102.568 203.704 101.041C203.334 102.166 202.933 103.223 202.277 104.029C201.567 104.903 200.567 105.476 199.026 105.556V105.555C197.952 105.629 197.086 105.438 196.264 104.872C195.501 104.347 194.788 103.506 193.974 102.289C193.896 102.516 193.82 102.724 193.749 102.921C193.648 103.201 193.561 103.462 193.5 103.74L193.498 103.747L193.495 103.755C191.756 109.188 186.126 112.198 180.172 111.075L180.17 111.074C179.109 110.859 178.291 110.42 177.69 109.753C177.14 109.143 176.783 108.352 176.578 107.396C172.765 110.794 168.553 112 163.513 111.231C162.883 115.023 161.175 118.303 157.266 120.065L157.265 120.064C153.609 121.777 149.8 121.608 146.231 119.604C146.673 122.785 145.806 124.918 144.242 125.928C142.676 126.939 140.475 126.78 138.354 125.506C137.96 126.994 137.482 128.498 137.015 130.077L137.014 130.076C136.882 130.539 136.858 131.085 136.916 131.528C137.038 132.452 137.169 133.458 137.387 134.359L137.521 134.84C138.838 139.803 138.288 144.794 136.974 149.682L136.975 149.683C134.638 158.786 130.49 167.153 125.277 175.072L125.276 175.071C121.499 180.852 117.401 186.482 113.08 191.949L113.079 191.95C109.434 196.491 106.365 201.379 103.769 206.471L103.256 207.491C96.2676 221.686 92.299 236.662 90.8195 252.198C90.2325 258.45 90.1659 264.83 89.9874 271.139C89.9726 272.161 90.0825 273.194 90.1945 274.237C90.3062 275.278 90.4198 276.33 90.4044 277.374C90.3697 281.452 89.1396 285.246 87.503 288.97L87.171 289.713C84.1179 296.457 79.6501 302.418 74.8439 308.035L74.8429 308.036C69.4123 314.289 63.4129 320.043 57.0812 325.552L57.0773 325.557L57.0763 325.556C55.9934 326.422 55.0296 327.463 54.1612 328.497L54.1583 328.501C45.3577 338.233 35.8497 347.203 25.0773 355.004L25.0763 355.005C20.559 358.244 15.7942 361.136 10.882 363.668H10.881C9.00169 364.629 7.24886 365.762 5.73156 367.145L5.73058 367.146C4.66645 368.097 4.1707 369.036 4.16223 369.965C4.15395 370.894 4.63222 371.854 5.60461 372.851H5.60558C6.57741 373.793 7.6275 374.717 8.81066 375.394L9.04894 375.525L9.05383 375.527L9.60656 375.846C15.3338 379.093 21.63 380.979 28.295 382.033L28.6486 382.084C32.3009 382.576 35.8774 381.815 39.422 381.229L41.5001 380.837C51.8608 378.81 61.8266 375.757 71.4796 371.67L72.2081 371.354C79.6953 368.048 86.0756 363.389 91.7638 357.752C98.8722 350.568 105.314 342.897 111.423 334.98L111.858 334.426C116.403 328.783 122.593 325.657 129.777 323.745H129.778L130.731 323.507C140.244 321.24 149.507 322.421 158.618 325.323L159.528 325.619L159.53 325.62L160.598 326.001C162.371 326.649 164.119 327.363 165.858 328.096L167.941 328.981L167.945 328.983L168.43 329.196C168.87 329.379 169.352 329.557 170.025 329.83C169.916 329.293 169.828 328.802 169.745 328.339C169.649 327.799 169.559 327.297 169.443 326.8L167.967 320.635C166.744 315.497 165.532 310.36 164.256 305.229L163.483 302.152C161.605 294.77 159.529 287.411 157.453 280.049V280.048C157.101 278.886 156.553 277.744 155.808 276.623L155.806 276.619C148.27 264.528 141.501 252.158 136.446 239.025H136.445C134.448 233.806 132.847 228.539 131.732 223.123L131.584 222.372C130.223 215.125 130.906 207.951 132.415 200.787L132.739 199.305C135.053 188.525 138.521 178.086 142.507 167.778V167.777L143.245 165.902C146.958 156.529 150.931 147.275 154.804 137.954L154.896 137.729C155.118 137.2 155.414 136.657 155.775 136.04L155.831 135.945L155.939 135.972C156.202 136.037 156.442 136.105 156.667 136.174L157.314 136.383L157.322 136.386L157.33 136.39C157.632 136.531 158.08 136.683 158.631 136.999L158.749 137.067L158.695 137.19C158.313 138.068 158.007 138.861 157.608 139.659L157.609 139.66C150.682 155.26 144.257 171.063 139.369 187.294L138.901 188.865C136.742 196.198 134.868 203.488 134.328 211.133L134.279 211.874C133.981 217.233 134.881 222.553 136.266 227.732L136.672 229.177C140.968 244.072 148.097 257.953 156.384 271.269L156.925 272.161C159.389 276.339 161.052 280.682 162.322 285.205L162.588 286.176L162.589 286.178L163.53 289.833C165.747 298.362 168.071 306.895 170.175 315.521L170.895 318.504C172.543 325.479 174 332.538 175.457 339.595L175.916 341.848C178.036 352.362 179.763 362.922 180.895 373.551L181.128 375.83C183.206 396.998 181.2 417.79 173.771 437.981L173.772 437.982C173.556 438.673 173.24 439.374 172.929 440.064C171.286 444.485 168.972 448.421 165.602 452.006L165.6 452.005C159.422 458.614 153.703 465.641 148.64 473.06L148.639 473.062C146.774 475.709 145.033 478.531 143.389 481.343L143.388 481.342C141.591 484.438 140.525 487.729 140.293 491.295C140.156 493.706 139.916 496.105 139.679 498.511C139.441 500.918 139.206 503.335 139.075 505.785L139.074 505.784C139.006 508.307 139.357 510.973 139.783 513.451L139.838 513.685C140.109 514.699 140.753 515.73 141.498 516.661L141.848 517.084L141.85 517.085L142.043 517.306C142.487 517.783 142.872 518.004 143.276 518.04C143.746 518.081 144.284 517.876 145.026 517.418L145.648 517.027C147.085 516.105 148.432 515.103 149.674 513.902L152.618 511.031C155.554 508.156 158.458 505.258 161.235 502.271C173.02 489.358 183.944 475.753 194.629 462.074L199.195 456.209C202.122 452.403 205.144 448.59 207.956 444.707H207.957L208.393 444.09C209.387 442.632 210.235 441.064 211.086 439.488C211.526 438.645 211.914 437.784 212.306 436.93C212.697 436.076 213.093 435.229 213.545 434.422C215.891 430.138 217.201 425.595 218.192 420.893L234.566 343.137L234.744 342.307C235.172 340.367 235.665 338.42 236.148 336.479C236.699 334.258 237.238 332.043 237.652 329.843V329.842L237.735 329.377C238.123 327.052 238.095 324.695 238.067 322.322L238.038 321.43C237.862 316.975 237.205 312.579 235.412 308.233L235.358 308.099L235.488 308.041C236.36 307.655 237.11 307.388 238.155 306.894L238.304 306.823L238.362 306.978C238.514 307.376 238.683 307.726 238.844 308.075C239.001 308.418 239.149 308.76 239.25 309.132L239.458 309.744C241.407 315.668 241.745 321.767 241.274 327.806L241.165 329.054C241.017 330.632 240.634 332.162 240.216 333.677C239.797 335.195 239.342 336.694 239.041 338.222V338.224C233.889 362.637 228.749 387.145 223.498 411.57C223.26 412.813 223.019 414.061 222.681 415.321L222.682 415.322C221.144 422.389 220.372 425.934 219.18 429.352C217.987 432.769 216.374 436.058 213.157 442.612L213.156 442.611C212.841 443.31 212.424 444.026 211.979 444.557C197.16 463.964 182.234 483.3 165.885 501.603L164.297 503.37C160.512 507.557 156.492 511.488 152.476 515.416L152.477 515.417C150.775 517.121 148.738 518.578 146.784 519.834L146.785 519.835C145.373 520.757 144.025 521.133 142.736 520.964C141.448 520.795 140.245 520.084 139.115 518.88L139.112 518.878C138.033 517.668 137.334 516.225 136.645 514.807L136.642 514.801C136.236 513.877 135.989 512.847 135.664 511.696C135.571 511.798 135.493 511.88 135.427 511.951C135.347 512.037 135.282 512.111 135.225 512.199L135.17 512.294L135.165 512.301C129.451 521.485 125.126 531.119 123.518 541.648L123.37 542.67C122.061 552.694 123.794 562.186 129.777 570.677L130.37 571.495L130.371 571.498L130.559 571.751C130.981 572.301 131.462 572.81 132.05 573.505C133.528 572.064 134.831 570.911 135.915 569.517L138.499 566.208C141.073 562.908 143.602 559.615 145.943 556.186C152.609 546.322 158.927 536.236 165.584 526.274L167.301 523.73C175.944 511.044 185.452 498.919 195.743 487.364C196.87 486.022 197.888 484.597 198.908 483.168C205.431 473.898 211.397 464.446 216.43 454.469L217.423 452.466C221.459 444.136 224.433 435.364 227.31 426.594L234.415 404.325L248.59 359.793C250.954 352.371 253.321 344.948 255.694 337.524L255.695 337.523L255.895 336.872C255.957 336.655 256.017 336.439 256.076 336.221C256.195 335.786 256.314 335.346 256.459 334.903C257.937 330.17 257.74 325.631 256.027 320.979L255.523 319.628C254.374 316.472 253.416 313.293 252.385 310.133L252.383 310.128C252.199 309.493 252.013 308.855 251.817 308.126L251.78 307.991L251.912 307.947C252.769 307.665 253.456 307.395 254.423 307.098L254.537 307.062L254.6 307.166C254.825 307.548 255.058 307.942 255.224 308.348L255.29 308.523L255.291 308.527L256.456 312.107C257.629 315.676 258.814 319.22 259.893 322.827H259.892C260.878 325.992 261.076 329.251 260.295 332.466L260.126 333.108C258.485 339.017 256.844 344.929 254.991 350.771C246.99 376.836 238.716 402.849 230.088 428.82L228.357 434.014C222.112 452.644 212.541 469.714 200.93 485.927L199.8 487.493C198.089 489.852 195.952 492.076 193.942 494.362C181.967 508.197 171.413 522.903 161.625 538.085L161.624 538.086C159.065 541.989 156.506 545.893 153.946 549.796C151.389 553.696 148.831 557.595 146.274 561.495L146.017 561.95C145.929 562.101 145.843 562.25 145.763 562.397C145.602 562.694 145.473 562.977 145.415 563.245C144.587 568.772 144.783 574.168 147.067 579.32L147.293 579.819L147.294 579.82L147.536 580.323C148.755 582.759 150.413 584.538 152.806 586.073C152.96 585.896 153.129 585.712 153.291 585.529C153.487 585.309 153.678 585.082 153.84 584.837V584.836L154.925 583.237C157.47 579.513 160.109 575.822 162.418 571.951V571.95L163.182 570.66C164.94 567.635 166.531 564.503 167.971 561.388L170.154 556.642C175.286 545.58 180.716 534.633 187.381 524.262L190.291 519.705C191.26 518.185 192.227 516.664 193.193 515.143L204.776 496.872C206.708 493.829 208.646 490.788 210.589 487.752C212.332 484.928 214.078 482.099 216.035 479.34C218.97 475.145 221.264 470.776 223.234 466.117L223.624 465.182C227.974 454.545 232.934 444.049 236.657 433.311L237.981 429.489C244.664 410.396 252.286 391.577 259.721 372.703C260.176 371.511 260.844 370.393 261.606 369.271L261.607 369.271L262.3 368.258C265.747 363.184 268.866 357.964 271.038 352.278C272.296 348.864 273.053 345.52 272.572 341.859L272.083 338.647C271.282 333.298 270.548 327.968 269.802 322.622L268.896 316.198C267.887 309.291 266.576 302.386 265.665 295.458C264.158 283.998 262.651 272.536 261.442 261.04L261.304 259.647C260.645 252.682 260.466 245.665 260.124 238.762L260.006 236.065C259.747 229.772 259.611 223.455 259.39 217.081V217.08L258.961 203.48C258.818 198.947 258.676 194.413 258.533 189.88C258.292 182.685 258.051 175.489 257.798 168.201V168.2L257.797 168.171L257.794 168.08C257.794 168.07 257.793 168.061 257.793 168.051L257.79 167.96C257.79 167.95 257.79 167.94 257.789 167.931L257.785 167.809C257.785 167.799 257.785 167.789 257.784 167.779L257.781 167.688C257.781 167.679 257.781 167.669 257.78 167.659L257.777 167.568C257.777 167.559 257.777 167.549 257.776 167.539L257.773 167.448L257.769 167.327C257.768 167.317 257.768 167.308 257.768 167.298L257.764 167.177C257.763 167.167 257.763 167.157 257.763 167.147L257.756 166.936C257.756 166.926 257.755 166.916 257.755 166.906L257.752 166.815C257.752 166.806 257.751 166.796 257.751 166.786L257.748 166.695C257.748 166.686 257.748 166.676 257.747 166.666L257.744 166.574C257.744 166.565 257.744 166.555 257.743 166.545L257.738 166.424C257.738 166.414 257.738 166.404 257.737 166.395L257.734 166.304C257.734 166.294 257.734 166.284 257.734 166.274L257.731 166.183C257.73 166.173 257.73 166.163 257.73 166.153L257.727 166.062C257.726 166.053 257.726 166.043 257.726 166.033L257.723 165.942C257.722 165.933 257.722 165.923 257.722 165.913L257.718 165.791C257.718 165.781 257.717 165.771 257.717 165.762L257.714 165.671C257.714 165.661 257.713 165.651 257.713 165.642L257.71 165.551C257.71 165.541 257.709 165.531 257.709 165.521L257.705 165.43C257.705 165.42 257.706 165.41 257.705 165.4L257.701 165.31C257.701 165.3 257.701 165.29 257.7 165.28L257.696 165.159C257.696 165.15 257.696 165.14 257.695 165.13L257.692 165.038C257.692 165.028 257.692 165.018 257.692 165.009L257.689 164.918C257.688 164.908 257.688 164.898 257.688 164.889L257.685 164.798C257.684 164.788 257.684 164.778 257.684 164.769L257.681 164.677C257.68 164.667 257.68 164.657 257.68 164.647L257.676 164.526C257.676 164.517 257.675 164.507 257.675 164.497L257.671 164.406C257.671 164.397 257.67 164.387 257.67 164.377L257.667 164.285C257.667 164.276 257.666 164.266 257.666 164.256L257.663 164.165C257.663 164.155 257.663 164.145 257.662 164.136L257.659 164.045C257.659 164.035 257.659 164.025 257.658 164.016L257.651 163.773C257.65 163.764 257.65 163.754 257.65 163.744L257.647 163.653C257.646 163.644 257.646 163.634 257.646 163.624L257.642 163.503L257.638 163.412C257.637 163.402 257.638 163.393 257.638 163.383L257.634 163.292C257.634 163.282 257.633 163.272 257.633 163.263L257.625 163.021C257.625 163.011 257.624 163.001 257.624 162.991L257.621 162.9C257.621 162.891 257.621 162.881 257.62 162.871L257.617 162.78C257.617 162.771 257.617 162.761 257.616 162.751L257.613 162.659C257.613 162.649 257.613 162.64 257.612 162.63L257.609 162.509C257.608 162.499 257.608 162.489 257.608 162.479L257.604 162.389C257.603 162.379 257.604 162.368 257.604 162.358L257.6 162.268C257.599 162.258 257.599 162.248 257.599 162.238L257.596 162.147C257.595 162.138 257.595 162.128 257.595 162.118L257.592 162.027C257.592 162.018 257.591 162.008 257.591 161.998L257.587 161.876C257.587 161.866 257.586 161.856 257.586 161.847L257.583 161.756C257.583 161.746 257.582 161.736 257.582 161.727L257.579 161.636C257.579 161.626 257.579 161.616 257.578 161.606L257.575 161.515C257.575 161.505 257.575 161.495 257.574 161.485L257.57 161.395C257.57 161.385 257.571 161.375 257.57 161.365L257.566 161.244C257.565 161.234 257.565 161.224 257.565 161.215L257.562 161.123C257.561 161.113 257.561 161.103 257.561 161.094L257.558 161.003C257.557 160.993 257.557 160.983 257.557 160.974L257.554 160.883C257.554 160.873 257.553 160.863 257.553 160.854L257.55 160.762C257.55 160.752 257.548 160.742 257.548 160.732L257.545 160.642C257.545 160.632 257.544 160.622 257.544 160.612L257.54 160.491C257.54 160.482 257.54 160.472 257.539 160.462L257.535 160.371C257.535 160.361 257.536 160.351 257.535 160.341L257.531 160.25C257.531 160.24 257.531 160.23 257.53 160.221L257.527 160.13C257.527 160.12 257.527 160.11 257.526 160.101L257.524 160.01C257.523 160 257.523 159.99 257.523 159.98L257.519 159.858C257.518 159.849 257.518 159.839 257.518 159.829L257.515 159.738C257.514 159.729 257.514 159.719 257.514 159.709L257.511 159.618C257.511 159.609 257.51 159.598 257.51 159.589L257.507 159.497C257.507 159.487 257.506 159.477 257.506 159.468L257.503 159.377C257.503 159.367 257.502 159.357 257.502 159.348L257.497 159.227L257.493 159.105C257.493 159.096 257.493 159.086 257.492 159.076L257.489 158.985C257.489 158.976 257.489 158.966 257.488 158.956L257.485 158.865C257.485 158.856 257.485 158.846 257.484 158.836L257.482 158.744C257.481 158.734 257.481 158.725 257.481 158.715L257.477 158.594C257.476 158.584 257.476 158.574 257.476 158.564L257.473 158.474C257.472 158.464 257.472 158.454 257.472 158.444L257.469 158.353C257.469 158.343 257.468 158.333 257.468 158.323L257.464 158.232C257.464 158.223 257.463 158.213 257.463 158.203L257.46 158.112C257.46 158.103 257.459 158.093 257.459 158.083L257.455 157.961C257.455 157.951 257.455 157.941 257.454 157.932L257.451 157.841C257.451 157.831 257.451 157.821 257.45 157.812L257.447 157.721C257.447 157.711 257.447 157.701 257.446 157.691L257.443 157.6C257.443 157.59 257.443 157.58 257.442 157.57L257.44 157.479C257.439 157.47 257.439 157.46 257.439 157.45L257.436 157.359C257.435 157.35 257.435 157.34 257.435 157.33L257.43 157.208C257.429 157.198 257.429 157.188 257.429 157.179L257.426 157.088C257.426 157.078 257.425 157.068 257.425 157.059L257.422 156.968C257.422 156.958 257.421 156.948 257.421 156.938L257.418 156.847C257.418 156.837 257.417 156.827 257.417 156.817L257.414 156.727C257.414 156.717 257.414 156.707 257.413 156.697L257.409 156.576C257.409 156.566 257.409 156.557 257.408 156.547L257.405 156.455C257.405 156.445 257.405 156.435 257.404 156.426L257.401 156.335C257.401 156.325 257.401 156.315 257.401 156.306L257.397 156.215C257.396 156.205 257.396 156.195 257.396 156.186L257.388 155.943C257.387 155.934 257.387 155.924 257.387 155.914L257.384 155.823C257.384 155.814 257.383 155.804 257.383 155.794L257.376 155.582C257.376 155.572 257.375 155.562 257.375 155.553L257.372 155.462C257.372 155.452 257.372 155.442 257.371 155.433L257.366 155.281L257.362 155.19C257.362 155.181 257.362 155.171 257.361 155.161L257.359 155.07C257.358 155.061 257.358 155.051 257.358 155.041L257.355 154.95C257.354 154.941 257.354 154.931 257.354 154.921L257.351 154.829C257.35 154.819 257.35 154.809 257.35 154.8L257.346 154.679C257.345 154.669 257.345 154.659 257.345 154.649L257.342 154.559C257.342 154.549 257.341 154.539 257.341 154.529L257.338 154.438C257.338 154.428 257.337 154.418 257.337 154.408L257.334 154.317C257.334 154.308 257.333 154.298 257.333 154.288L257.329 154.197C257.329 154.188 257.33 154.178 257.329 154.168L257.325 154.076C257.325 154.067 257.325 154.057 257.324 154.047L257.32 153.926C257.32 153.916 257.32 153.906 257.319 153.896L257.317 153.806C257.316 153.796 257.316 153.786 257.316 153.776L257.313 153.685C257.312 153.675 257.312 153.665 257.312 153.655L257.309 153.564C257.308 153.555 257.308 153.545 257.308 153.535L257.305 153.444C257.304 153.435 257.304 153.425 257.304 153.415L257.3 153.293C257.3 153.283 257.299 153.273 257.299 153.264L257.295 153.173C257.295 153.163 257.294 153.153 257.294 153.144L257.291 153.053C257.291 153.043 257.29 153.033 257.29 153.023L257.287 152.932C257.287 152.922 257.287 152.912 257.286 152.902L257.283 152.812C257.283 152.802 257.283 152.792 257.282 152.782L257.281 152.776L257.292 152.488C257.311 152.204 257.356 151.929 257.405 151.658C257.473 151.293 257.55 150.94 257.6 150.563L257.601 150.554L258.017 148.535C258.436 146.517 258.871 144.496 259.36 142.469C260.768 136.001 260.514 129.635 259.483 123.191L259.266 121.902C258.508 117.673 257.801 113.437 257.093 109.203C256.385 104.969 255.676 100.735 254.919 96.5078L254.918 96.501L254.88 96.2256C254.842 95.9675 254.788 95.7053 254.688 95.4062C254.45 95.3091 254.233 95.2251 254.015 95.1426C253.777 95.0527 253.536 94.9618 253.268 94.8506H253.267C252.286 94.4353 251.535 93.8697 250.985 93.1562C250.505 92.5324 250.183 91.8003 249.988 90.9688L249.912 90.6064L249.911 90.6045C249.448 87.8457 248.972 84.9914 248.608 82.2178L248.544 81.7725C248.437 80.7661 248.61 79.9672 249.162 79.2842C249.773 78.5294 250.834 77.9376 252.419 77.3398C252.452 76.8814 252.462 76.2813 252.396 75.7754L252.395 75.7695L251.948 70.8252C250.942 59.2823 250.191 47.7088 249.897 36.083L249.749 31.001C249.433 20.6687 249.039 10.3413 248.784 0H252.048C252.087 1.5358 252.127 3.07241 252.164 4.61035ZM261.391 379.058C260.976 379.522 260.721 380.021 260.606 380.427L260.6 380.44C257.277 388.888 253.858 397.344 250.635 405.777L250.634 405.776C246.473 417.037 242.412 428.288 238.362 439.631L238.359 439.642L238.357 439.641C238.063 440.293 238.081 441.194 238.178 441.928C238.691 444.301 239.315 446.755 239.928 449.119L240.182 450.075C241.434 454.852 242.384 459.599 242.558 464.52C242.926 474.981 243.605 485.502 244.37 495.92C245.01 504.378 245.66 512.914 246.628 521.341L246.826 523.024C247.735 530.701 249.139 538.322 250.545 545.948L250.675 546.577C251.321 549.499 252.543 552.22 254.222 554.816L254.59 555.37L254.591 555.373L254.805 555.695C259.331 562.333 267.54 564.732 275.286 563.256C274.938 560.633 274.509 558.091 274.272 555.534V555.531L273.819 549.181C273.376 542.828 272.974 536.47 272.74 530.092L272.588 526.307C272.242 517.463 271.974 508.554 271.868 499.7C271.7 488.462 271.631 477.212 271.563 465.964L271.555 464.645C271.494 458.491 271.111 452.308 270.281 446.172L270.097 444.857C266.967 423.356 264.421 401.692 261.59 380.161C261.54 379.782 261.49 379.415 261.391 379.058ZM126.443 138.595C126.459 140.012 126.785 141.114 127.433 141.936C128.078 142.755 129.058 143.312 130.415 143.618C130.983 141.802 130.695 140.158 130.244 138.161L126.443 138.595ZM126.26 117.604V117.603C124.152 117.705 122.184 118.735 120.783 120.244C119.383 121.754 118.56 123.734 118.724 125.729C119.164 129.81 123.144 133.041 127.628 132.529C130.567 132.194 132.769 130.928 134.125 128.475C134.757 127.305 134.876 126.138 134.072 125.08L134.067 125.073V125.072C133.383 124.073 132.674 123.077 131.964 122.079C131.254 121.082 130.541 120.083 129.855 119.081V119.079C129.021 117.837 127.737 117.527 126.26 117.604ZM137.081 113.219C136.68 113.136 136.248 113.184 135.773 113.501C135.334 113.821 135.059 114.18 134.951 114.573C134.858 114.916 134.888 115.302 135.069 115.731L135.156 115.918L135.158 115.921L135.395 116.401C136.513 118.633 137.869 120.73 139.816 122.352L140.242 122.692L140.25 122.698H140.249C140.536 122.949 140.861 123.223 141.196 123.37C141.523 123.513 141.843 123.531 142.154 123.296L142.158 123.292L142.246 123.416L142.159 123.292C142.455 123.086 142.654 122.803 142.799 122.527C142.871 122.39 142.93 122.255 142.982 122.134C143.022 122.038 143.063 121.946 143.1 121.87C142.901 120.428 142.182 118.697 141.263 117.175C140.334 115.636 139.218 114.337 138.266 113.765L138.263 113.763C137.879 113.525 137.491 113.303 137.081 113.219ZM156.122 104.021C154.631 103.272 152.787 102.995 150.684 103.281H150.682C148.735 103.503 146.982 104.438 145.712 106.055L145.711 106.056C144.768 107.232 144.271 108.248 144.201 109.28C144.132 110.311 144.486 111.386 145.305 112.685H145.304C145.682 113.254 146.018 113.858 146.366 114.431C146.674 114.936 146.996 115.426 147.379 115.874L147.548 116.063L147.557 116.073L147.789 116.358C148.351 117.013 149.046 117.593 149.829 117.815H149.831L150.296 117.941C152.467 118.47 154.661 118.205 156.599 116.996L157.01 116.722C159.988 114.539 160.99 110.932 159.468 107.613L159.467 107.611C158.759 105.99 157.612 104.768 156.122 104.021ZM264.908 98.7197C263.478 101.996 262.451 105.206 262.964 108.669C266.654 108.543 269.752 105.635 270.097 102.334L270.096 102.333L270.137 101.893C270.202 100.919 270.069 100.29 269.703 99.8584C269.282 99.3614 268.519 99.0832 267.239 98.9014L266.647 98.8447C266.452 98.829 266.258 98.8155 266.062 98.8027C265.7 98.7794 265.325 98.7557 264.908 98.7197ZM172.265 102.696L172.254 102.698C170.968 102.752 169.606 102.998 168.367 103.417C167.556 103.743 166.945 104.028 166.506 104.319C166.068 104.61 165.813 104.901 165.694 105.238C165.575 105.577 165.586 105.988 165.73 106.534C165.868 107.058 166.124 107.693 166.486 108.488C166.793 108.435 167.096 108.388 167.391 108.346C167.724 108.297 168.047 108.252 168.359 108.199C168.982 108.093 169.553 107.959 170.056 107.721L170.057 107.72L170.55 107.48C171.694 106.903 172.798 106.188 173.733 105.353L173.803 105.278C173.96 105.087 174.076 104.791 174.129 104.471C174.189 104.105 174.159 103.745 174.044 103.52C173.93 103.297 173.655 103.07 173.308 102.907C172.963 102.746 172.577 102.661 172.265 102.696ZM185.954 93.9854C182.104 92.4092 177.676 93.6393 175.989 96.6895C176.64 97.5177 177.387 98.2816 178.073 99.0791C178.773 99.8922 179.399 100.731 179.73 101.659H179.731C180.122 102.671 180.234 103.734 180.258 104.782C180.27 105.306 180.259 105.83 180.249 106.342C180.24 106.819 180.233 107.287 180.243 107.742C183.987 109.261 188.69 107.162 190.15 103.344C191.544 99.6949 189.722 95.5815 185.954 93.9863V93.9854ZM197.33 92.0078C196.74 91.3439 195.687 91.2329 194.829 91.5801L194.662 91.668C194.306 91.8806 194.172 92.1362 194.143 92.4062C194.116 92.6524 194.174 92.9263 194.27 93.2188L194.376 93.5176L194.378 93.5205L195.096 95.5371L195.805 97.4834L195.806 97.4854L196.168 98.498C196.535 99.502 196.926 100.484 197.42 101.401L197.468 101.473C197.591 101.642 197.801 101.823 198.053 101.972C198.304 102.119 198.579 102.226 198.825 102.257L198.929 102.266H198.988C199.042 102.26 199.114 102.237 199.201 102.189C199.314 102.128 199.436 102.036 199.554 101.928C199.793 101.707 199.989 101.442 200.053 101.276C200.327 100.435 200.297 99.4557 200.322 98.8711C200.065 97.6769 199.971 96.9667 199.684 96.2705H199.683C198.993 94.8508 198.31 93.4417 197.442 92.1484L197.33 92.0078ZM214.026 86.8438C210.751 85.2811 207.169 85.8725 204.701 88.1787L204.702 88.1797C204.181 88.6968 203.866 89.2051 203.734 89.7383C203.604 90.27 203.652 90.8426 203.884 91.4971L204.171 92.2783C204.455 93.0642 204.731 93.8612 205.005 94.6562C205.28 95.4518 205.554 96.2464 205.837 97.0293L206.124 97.8076L206.125 97.8105L206.312 98.3057C206.761 99.4055 207.318 100.129 208.055 100.562C208.9 101.057 210.01 101.187 211.535 101.014C214.85 100.636 217.68 98.0994 218.271 95.0967L218.324 94.7803C218.81 91.5069 217.192 88.3549 214.026 86.8438ZM277.006 81.7471C275.43 80.6304 273.333 80.1071 270.983 80.375C266.729 80.8601 263.877 84.1215 264.123 88.2061L264.156 88.6025C264.581 92.5836 268.504 95.4571 272.901 94.9561C277.491 94.4326 280.386 90.973 279.926 86.708L279.863 86.3135C279.51 84.3652 278.482 82.7932 277.006 81.7471ZM241.636 80.1201C238.73 78.2504 234.204 77.9506 231.568 81.0928C232.125 81.9733 232.738 82.8039 233.326 83.6484C233.857 84.4101 234.363 85.1813 234.771 85.998L234.94 86.3516L234.942 86.3564L235.022 86.5654C235.395 87.607 235.344 88.6311 235.105 89.6426C234.861 90.6731 234.416 91.7079 234.02 92.7354C237.605 94.5413 241.745 93.4965 243.87 90.3447L244.084 90.0059C246.201 86.4856 245.177 82.3011 241.64 80.1221L241.636 80.1201ZM227.475 88.1514C227.049 88.2911 226.643 88.4062 226.266 88.5176C225.878 88.6321 225.52 88.7427 225.192 88.8721L225.191 88.873C224.7 89.0596 224.476 89.3384 224.387 89.6514C224.318 89.8949 224.326 90.1724 224.378 90.4658L224.443 90.7637V90.7656L224.518 91.124C224.54 91.2447 224.562 91.3649 224.584 91.4805C224.629 91.7166 224.68 91.9396 224.759 92.1387C224.838 92.3365 224.943 92.5066 225.093 92.6396C225.205 92.7387 225.347 92.8217 225.531 92.8799L225.738 92.9316L225.833 92.9502C226.069 92.9854 226.426 92.9711 226.859 92.9053C227.348 92.8308 227.917 92.693 228.484 92.5068C229.05 92.3206 229.611 92.0862 230.086 91.8184C230.563 91.5492 230.941 91.2527 231.156 90.9473C231.559 90.3104 231.654 89.7625 231.503 89.3545C231.353 88.9518 230.941 88.6281 230.194 88.4873L230.182 88.4854C229.725 88.3554 229.249 88.2947 228.781 88.2549C228.334 88.2168 227.877 88.1959 227.475 88.1514ZM253.774 80.8936C253.414 80.8901 252.973 80.9288 252.423 80.9902C252.384 81.1061 252.331 81.1941 252.292 81.2607C252.238 81.3531 252.226 81.3876 252.231 81.4229C252.619 84.3806 253.008 87.336 253.484 90.1865L253.485 90.1924H253.484C253.551 90.6995 253.892 91.1855 254.267 91.7119C254.533 92.0162 254.857 92.1373 255.165 92.1123C255.475 92.0869 255.787 91.9103 256.021 91.5859C256.134 91.4004 256.224 91.1704 256.302 90.9209C256.381 90.6673 256.445 90.4117 256.516 90.1621V90.1611L256.58 89.9209C257.206 87.4404 256.323 85.0468 255.521 82.6719L255.516 82.6582V82.6572C255.289 81.6971 255.057 81.255 254.644 81.0518C254.431 80.9475 254.154 80.8973 253.774 80.8936Z" fill="url(#paint0_linear_2300_5287)"/>
<defs>
<linearGradient id="paint0_linear_2300_5287" x1="146.5" y1="0" x2="146.5" y2="592" gradientUnits="userSpaceOnUse">
<stop offset="0.00447594" stop-color="#D9D9D9" stop-opacity="0"/>
<stop offset="0.0865385" stop-color="#EDEDED" stop-opacity="0.1"/>
<stop offset="0.192308" stop-color="#F1F1F1" stop-opacity="0.85"/>
<stop offset="1" stop-color="white"/>
</linearGradient>
</defs>
</svg>
