<svg width="48" height="49" viewBox="0 0 48 49" fill="none" xmlns="http://www.w3.org/2000/svg">
<path d="M38 40.7119H10V18.7119H38M32 4.71191V8.71191H16V4.71191H12V8.71191H10C7.78 8.71191 6 10.4919 6 12.7119V40.7119C6 41.7728 6.42143 42.7902 7.17157 43.5403C7.92172 44.2905 8.93913 44.7119 10 44.7119H38C39.0609 44.7119 40.0783 44.2905 40.8284 43.5403C41.5786 42.7902 42 41.7728 42 40.7119V12.7119C42 11.651 41.5786 10.6336 40.8284 9.88349C40.0783 9.13334 39.0609 8.71191 38 8.71191H36V4.71191M34 26.7119H24V36.7119H34V26.7119Z" fill="#8750BF" fill-opacity="0.8"/>
</svg>
