<svg width="40" height="40" viewBox="0 0 40 40" fill="none" xmlns="http://www.w3.org/2000/svg">
<g clip-path="url(#clip0_367_330)">
<path d="M18.1546 7.3374C18.9244 6.00407 20.8489 6.00407 21.6187 7.3374L34.8672 30.2844C35.637 31.6177 34.6747 33.2844 33.1351 33.2844H6.63824C5.09864 33.2844 4.13639 31.6177 4.90619 30.2844L18.1546 7.3374Z" stroke="#8284A2" stroke-width="2"/>
<path d="M17.9596 14.6651L19.8603 13.9232L21.703 14.6651L22.5733 16.4936L21.911 22.4347L20.9066 24.8825L19.9604 25.6108L18.9391 24.8825L17.862 22.4347L17.1997 16.4936L17.9596 14.6651Z" fill="#8284A2" fill-opacity="0.19"/>
<path d="M17.862 22.4347L17.1997 16.4936M17.862 22.4347L18.9391 23.28M17.862 22.4347L18.9391 24.8825L19.9604 25.6108M17.9596 14.6651L19.8603 13.9232L21.703 14.6651M17.9596 14.6651L19.8603 15.2709M17.9596 14.6651L17.1997 16.4936M21.703 14.6651L19.8603 15.2709M21.703 14.6651L22.5733 16.4936M21.911 22.4347L22.5733 16.4936M21.911 22.4347L20.9066 23.28M21.911 22.4347L20.9066 24.8825L19.9604 25.6108M19.8603 15.2709L18.5301 16.4936M19.8603 15.2709L21.2271 16.4936M19.9604 25.6108L18.9391 23.28M19.9604 25.6108L20.9066 23.28M19.9604 23.28H20.9066M22.5733 16.4936H21.2271M17.1997 16.4936H18.5301M18.5301 16.4936L18.9391 23.28M21.2271 16.4936L20.9066 23.28" stroke="#8284A2" stroke-width="0.5"/>
<path d="M18.3047 28.1628L18.9308 26.6993H20.6727M18.3047 28.1628L18.9308 29.2361M18.3047 28.1628L19.7972 28.0318M20.6727 26.6993L21.2998 28.0318L20.6727 29.2361M20.6727 26.6993L19.7972 28.0318M20.6727 29.2361L19.7972 28.0318M20.6727 29.2361H19.8018H18.9308M18.9308 29.2361L19.7972 28.0318" stroke="#8284A2" stroke-width="0.5"/>
</g>
<defs>
<clipPath id="clip0_367_330">
<path d="M0 16C0 7.16344 7.16344 0 16 0H24C32.8366 0 40 7.16344 40 16V24C40 32.8366 32.8366 40 24 40H16C7.16344 40 0 32.8366 0 24V16Z" fill="white"/>
</clipPath>
</defs>
</svg>
