<svg width="40" height="40" viewBox="0 0 40 40" fill="none" xmlns="http://www.w3.org/2000/svg">
<path d="M23.5982 11.4258H25.7257C26.2899 11.4258 26.8311 11.6499 27.2301 12.0489C27.6291 12.4479 27.8532 12.9891 27.8532 13.5533V28.446C27.8532 29.0102 27.6291 29.5514 27.2301 29.9504C26.8311 30.3494 26.2899 30.5735 25.7257 30.5735H12.9605C12.3963 30.5735 11.8551 30.3494 11.4561 29.9504C11.0572 29.5514 10.833 29.0102 10.833 28.446V13.5533C10.833 12.9891 11.0572 12.4479 11.4561 12.0489C11.8551 11.6499 12.3963 11.4258 12.9605 11.4258H15.0881" stroke="#7E7F9D" stroke-width="2" stroke-linecap="round" stroke-linejoin="round"/>
<path d="M22.5337 9.29822H16.1512C15.5637 9.29822 15.0874 9.77448 15.0874 10.362V12.4895C15.0874 13.077 15.5637 13.5533 16.1512 13.5533H22.5337C23.1212 13.5533 23.5975 13.077 23.5975 12.4895V10.362C23.5975 9.77448 23.1212 9.29822 22.5337 9.29822Z" stroke="#7E7F9D" stroke-width="2" stroke-linecap="round" stroke-linejoin="round"/>
<line x1="13.9077" y1="17.2705" x2="24.7772" y2="17.2705" stroke="#7A7B99" stroke-width="2"/>
<line x1="13.9077" y1="20.8909" x2="24.7772" y2="20.8909" stroke="#7A7B99" stroke-width="2"/>
<line x1="13.9077" y1="24.4751" x2="24.7772" y2="24.4751" stroke="#7A7B99" stroke-width="2"/>
</svg>
