<svg width="40" height="40" viewBox="0 0 40 40" fill="none" xmlns="http://www.w3.org/2000/svg">
<circle cx="16.4985" cy="17.4753" r="9.5" stroke="#8284A2" stroke-width="2"/>
<path d="M29.6617 34.2446L22.7008 26.2332C22.3078 25.7809 22.3397 25.0996 22.7734 24.6861C23.1948 24.2841 23.8539 24.2718 24.2902 24.6576L32.3235 31.7617C32.7527 32.1414 33.0448 32.7034 32.8596 33.2457C32.5734 34.0839 31.8902 34.5495 31.2414 34.7817C30.6658 34.9878 30.0627 34.7062 29.6617 34.2446Z" fill="#8284A2"/>
<path d="M11.9985 8.42011L18.1694 3.46343L18.6849 2.97534L24.9985 8.8135V16.7599L18.7454 22.9753L11.9985 16.7599V8.42011Z" fill="#F5DEFF"/>
<path d="M18.7153 2.78491L21.8804 5.73608L25.0454 8.68628L25.2046 8.83472V17.7458L25.0454 17.8943L18.7153 23.7957L18.3735 24.113L18.0327 23.7957L11.7026 17.8943L11.5435 17.7458V8.83472L11.7026 8.68628L14.8677 5.73608L18.0327 2.78491L18.3735 2.46753L18.7153 2.78491ZM18.3706 22.4011L21.1128 17.9675H15.6284L18.3706 22.4011ZM22.2896 17.9675L20.6401 20.6326L23.4995 17.9675H22.2896ZM16.0923 20.6189L14.4517 17.9675H13.2485L16.0923 20.6189ZM22.5386 9.55151V16.9675H24.2046V9.55151H22.5386ZM12.5435 16.9675H14.2026V12.3142H15.2026V16.9675H21.5386V9.55151H15.2026V10.0662H14.2026V9.55151H12.5435V16.9675ZM22.3267 8.55151H23.4341L21.1987 6.46753L20.8022 6.09839L22.3267 8.55151ZM15.5493 6.46753L13.314 8.55151H14.4146L15.9282 6.11304L15.5493 6.46753ZM16.9458 6.3728L15.5923 8.55151H21.1489L19.7954 6.3728L18.3706 4.07788L16.9458 6.3728Z" fill="#8284A2"/>
<path d="M27.9985 5.97534C27.9985 8.83988 26.8924 8.97534 25.9985 8.97534C27.7018 8.97534 27.9985 10.8725 27.9985 11.9753C27.9985 9.22694 29.3136 8.97534 29.9985 8.97534C28.3211 8.97534 27.9985 6.98659 27.9985 5.97534Z" fill="#8284A2"/>
</svg>
