<svg width="40" height="40" viewBox="0 0 40 40" fill="none" xmlns="http://www.w3.org/2000/svg">
<g clip-path="url(#clip0_367_319)">
<path d="M31.6895 5.0708C32.1935 5.12221 32.5869 5.5483 32.5869 6.06592V27.2896C32.5869 27.5603 32.4767 27.8199 32.2822 28.0083C30.9597 29.2892 30.7612 30.4792 30.9268 31.4253C31.1049 32.4432 31.7335 33.3155 32.2568 33.7876C32.5644 34.0652 32.6688 34.5037 32.5195 34.8901C32.3701 35.2768 31.9975 35.5313 31.583 35.5298C26.1809 35.5099 13.5839 35.4826 11.7451 35.5298C9.70051 35.5822 8.32114 34.8368 7.74902 34.2261V34.2271C6.89365 33.3715 6.41312 32.2113 6.41309 31.0015V9.62842C6.41309 8.41845 6.89344 7.25743 7.74902 6.40186C8.6046 5.54628 9.76561 5.06592 10.9756 5.06592H31.5869L31.6895 5.0708ZM10.9756 28.4233C10.2961 28.4233 9.64359 28.6928 9.16309 29.1733C8.68259 29.6538 8.41309 30.3063 8.41309 30.9858V31.0015C8.41312 31.5961 8.61956 32.1696 8.99316 32.6255L9.16309 32.813L9.20703 32.8599L9.25293 32.9009C9.2842 32.9271 9.32798 32.9606 9.38574 32.9985C9.50159 33.0745 9.66445 33.1629 9.875 33.2456C10.2938 33.4101 10.8981 33.5502 11.6943 33.5298C13.3653 33.487 23.5558 33.5066 29.5703 33.5249C29.2937 33.0044 29.0698 32.414 28.957 31.77C28.7721 30.7131 28.8938 29.5665 29.4834 28.4233H10.9756ZM10.9756 7.06592C10.296 7.06592 9.64359 7.33541 9.16309 7.81592C8.68258 8.29642 8.41309 8.94888 8.41309 9.62842V27.2114C9.16387 26.7019 10.0553 26.4233 10.9756 26.4233H30.2109L30.3135 26.4282C30.4092 26.4379 30.5011 26.4608 30.5869 26.4956V7.06592H10.9756Z" fill="#8284A2"/>
<path d="M29.3613 29.7706H13.4933M29.3613 30.9509H13.0264M29.3613 32.0507H13.4933" stroke="#8284A2" stroke-width="0.565066"/>
<path d="M17.9735 10.0534L22.875 12.271L23.0247 12.339L24.8136 17.642L24.7354 17.7859L22.1791 22.5204L22.0122 22.8292L21.6924 22.6846L16.7905 20.4661L16.6411 20.399L14.8522 15.0959L14.9301 14.9511L17.4868 10.2176L17.6536 9.90877L17.9735 10.0534ZM21.6002 21.617L22.2835 18.6811L19.2781 19.6949L21.6002 21.617ZM23.1237 18.3976L22.8008 19.7804L23.6428 18.2225L23.1237 18.3976ZM19.5201 20.8737L18.4379 19.9784L17.9243 20.1516L19.5201 20.8737ZM21.6264 13.3816L23.0576 17.6243L23.9145 17.3352L22.4833 13.0926L21.6264 13.3816ZM17.1707 19.6102L18.022 19.323L17.1183 16.6442L17.8327 16.4032L18.7364 19.082L22.3433 17.8653L20.9121 13.6226L17.3051 14.8394L17.386 15.079L16.6716 15.32L16.5908 15.0804L15.7395 15.3675L17.1707 19.6102ZM21.2337 12.7185L21.6936 12.5633L20.2546 11.912L21.2337 12.7185ZM16.0472 14.4681L16.5016 14.3148L16.7872 13.0961L16.0472 14.4681ZM17.68 12.5929L17.3427 14.0311L20.3926 13.0022L19.253 12.0623L18.0392 11.0608L17.68 12.5929Z" fill="#8284A2"/>
</g>
<defs>
<clipPath id="clip0_367_319">
<path d="M0 16C0 7.16344 7.16344 0 16 0H24C32.8366 0 40 7.16344 40 16V24C40 32.8366 32.8366 40 24 40H16C7.16344 40 0 32.8366 0 24V16Z" fill="white"/>
</clipPath>
</defs>
</svg>
