<svg width="40" height="40" viewBox="0 0 40 40" fill="none" xmlns="http://www.w3.org/2000/svg">
<path d="M18.524 10.8699C19.1398 9.80328 20.6794 9.80328 21.2953 10.8699L31.894 29.2275C32.5099 30.2942 31.7401 31.6275 30.5084 31.6275H9.31088C8.0792 31.6275 7.3094 30.2942 7.92524 29.2275L18.524 10.8699Z" stroke="#8284A2" stroke-width="2"/>
<path d="M18.3676 16.7321L19.8882 16.1385L21.3624 16.7321L22.0586 18.1949L21.5288 22.9478L20.7252 24.906L19.9683 25.4886L19.1513 24.906L18.2896 22.9478L17.7598 18.1949L18.3676 16.7321Z" fill="#8284A2" fill-opacity="0.19"/>
<path d="M18.2896 22.9478L17.7598 18.1949M18.2896 22.9478L19.1513 23.624M18.2896 22.9478L19.1513 24.906L19.9683 25.4886M18.3676 16.7321L19.8882 16.1385L21.3624 16.7321M18.3676 16.7321L19.8882 17.2167M18.3676 16.7321L17.7598 18.1949M21.3624 16.7321L19.8882 17.2167M21.3624 16.7321L22.0586 18.1949M21.5288 22.9478L22.0586 18.1949M21.5288 22.9478L20.7252 23.624M21.5288 22.9478L20.7252 24.906L19.9683 25.4886M19.8882 17.2167L18.8241 18.1949M19.8882 17.2167L20.9817 18.1949M19.9683 25.4886L19.1513 23.624M19.9683 25.4886L20.7252 23.624M19.9683 23.624H20.7252M22.0586 18.1949H20.9817M17.7598 18.1949H18.8241M18.8241 18.1949L19.1513 23.624M20.9817 18.1949L20.7252 23.624" stroke="#8284A2" stroke-width="0.5"/>
<path d="M18.6436 27.5303L19.1444 26.3595H20.538M18.6436 27.5303L19.1444 28.3889M18.6436 27.5303L19.8375 27.4255M20.538 26.3595L21.0396 27.4255L20.538 28.3889M20.538 26.3595L19.8375 27.4255M20.538 28.3889L19.8375 27.4255M20.538 28.3889H19.8412H19.1444M19.1444 28.3889L19.8375 27.4255" stroke="#8284A2" stroke-width="0.5"/>
</svg>
