<svg width="40" height="40" viewBox="0 0 40 40" fill="none" xmlns="http://www.w3.org/2000/svg">
<circle cx="17.1882" cy="17.3006" r="8.95136" stroke="#8284A2" stroke-width="2"/>
<path d="M29.7841 32.8199L23.4215 25.4155C23.0665 25.0024 23.0955 24.384 23.4876 24.0059C23.875 23.6324 24.4849 23.6209 24.886 23.9796L32.219 30.5367C32.5982 30.8759 32.8541 31.3735 32.6981 31.8578C32.4418 32.6533 31.805 33.091 31.2032 33.3064C30.6852 33.4919 30.1428 33.2373 29.7841 32.8199Z" fill="#8284A2"/>
<path d="M17.4316 11.1696L19.2646 12.8776L21.0967 14.5865L21.2109 14.692V19.9098L21.0967 20.0162L17.4316 23.4323L17.1885 23.6598L16.9443 23.4323L13.2793 20.0162L13.166 19.9098V14.692L13.2793 14.5865L15.1123 12.8776L16.9443 11.1696L17.1885 10.943L17.4316 11.1696ZM17.1855 22.444L18.6504 20.0758H15.7207L17.1855 22.444ZM19.4922 20.0758L18.8223 21.1569L19.9834 20.0758H19.4922ZM15.543 21.1481L14.8799 20.0758H14.3926L15.543 21.1481ZM19.667 15.2047V19.361H20.4951V15.2047H19.667ZM13.8809 19.361H14.7051V16.735H15.4209V19.361H18.9512V15.2047H15.4209V15.4332H14.7051V15.2047H13.8809V19.361ZM19.5137 14.4899H19.9463L18.9209 13.5348L19.5137 14.4899ZM14.4307 14.4899H14.8584L15.4434 13.5455L14.4307 14.4899ZM16.4189 13.3307L15.6992 14.4899H18.6729L17.9531 13.3307L17.1855 12.0953L16.4189 13.3307Z" fill="#8284A2"/>
</svg>
