<svg width="40" height="40" viewBox="0 0 40 40" fill="none" xmlns="http://www.w3.org/2000/svg">
<g clip-path="url(#clip0_367_357)">
<path d="M26.1306 8.56763H28.9673C29.7196 8.56763 30.4411 8.86649 30.9731 9.39848C31.5051 9.93046 31.804 10.652 31.804 11.4043V31.2612C31.804 32.0136 31.5051 32.7351 30.9731 33.2671C30.4411 33.7991 29.7196 34.0979 28.9673 34.0979H11.9471C11.1947 34.0979 10.4732 33.7991 9.9412 33.2671C9.40922 32.7351 9.11035 32.0136 9.11035 31.2612V11.4043C9.11035 10.652 9.40922 9.93046 9.9412 9.39848C10.4732 8.86649 11.1947 8.56763 11.9471 8.56763H14.7838" stroke="#7E7F9D" stroke-width="2" stroke-linecap="round" stroke-linejoin="round"/>
<path d="M24.7117 5.73096H16.2016C15.4182 5.73096 14.7832 6.36597 14.7832 7.14931V9.98601C14.7832 10.7693 15.4182 11.4044 16.2016 11.4044H24.7117C25.495 11.4044 26.13 10.7693 26.13 9.98601V7.14931C26.13 6.36597 25.495 5.73096 24.7117 5.73096Z" stroke="#7E7F9D" stroke-width="2" stroke-linecap="round" stroke-linejoin="round"/>
<line x1="13.2104" y1="16.694" x2="27.7031" y2="16.694" stroke="#7A7B99" stroke-width="2"/>
<line x1="13.2104" y1="21.5211" x2="27.7031" y2="21.5211" stroke="#7A7B99" stroke-width="2"/>
<line x1="13.2104" y1="26.3002" x2="27.7031" y2="26.3002" stroke="#7A7B99" stroke-width="2"/>
</g>
<defs>
<clipPath id="clip0_367_357">
<rect width="40" height="40" fill="white"/>
</clipPath>
</defs>
</svg>
