<svg width="40" height="40" viewBox="0 0 40 40" fill="none" xmlns="http://www.w3.org/2000/svg">
<g clip-path="url(#clip0_373_2)">
<path d="M14.5912 10.1746C14.5912 8.42628 14.2019 5.21655 20.4777 5.21655C26.4042 5.21655 26.1225 8.4789 26.1654 10.1746" stroke="#A67CEB" stroke-width="2" stroke-linecap="round"/>
<path d="M14.5912 14.0621C14.5912 15.8104 14.2019 19.0201 20.4777 19.0201C26.4042 19.0201 26.1225 15.7578 26.1654 14.0621" stroke="#A67CEB" stroke-width="2" stroke-linecap="round"/>
<path d="M9.01904 10.4962H31.3647C32.0237 10.4962 32.3775 10.654 32.6245 10.9288C32.8782 11.2112 33.1373 11.7458 33.2876 12.7618L33.3452 13.2277C33.6289 16.0335 34.7783 25.1665 35.3237 29.4327C35.335 29.8441 35.2185 30.4681 34.854 30.9669C34.5203 31.4233 33.9133 31.8712 32.7104 31.8712H8.55615C7.14584 31.8712 6.42356 31.632 6.04443 31.3116C5.71486 31.0331 5.4557 30.5252 5.44873 29.4142L7.42334 13.2482L7.43115 13.1876V13.1271C7.43115 12.6237 7.55944 11.8852 7.86475 11.3107C8.15618 10.7624 8.51947 10.4963 9.01904 10.4962Z" stroke="#A67CEB" stroke-width="2"/>
</g>
<defs>
<clipPath id="clip0_373_2">
<rect width="40" height="40" fill="white"/>
</clipPath>
</defs>
</svg>
