<svg width="1172" height="433" viewBox="0 0 1172 433" fill="none" xmlns="http://www.w3.org/2000/svg">
<g opacity="0.45" filter="url(#filter0_f_1281_2183)">
<circle cx="19" cy="19" r="19" transform="matrix(-4.37114e-08 1 1 4.37114e-08 191.125 55)" fill="#D5B8DD" style="mix-blend-mode:plus-darker"/>
<circle cx="19" cy="19" r="19" transform="matrix(-4.37114e-08 1 1 4.37114e-08 243.562 75.4434)" fill="#D5B8DD" style="mix-blend-mode:plus-darker"/>
<circle cx="19" cy="19" r="19" transform="matrix(-4.37114e-08 1 1 4.37114e-08 304.828 168.512)" fill="#D5B8DD" style="mix-blend-mode:plus-darker"/>
<circle cx="19" cy="19" r="19" transform="matrix(-4.37114e-08 1 1 4.37114e-08 283.137 115.88)" fill="#D5B8DD" style="mix-blend-mode:plus-darker"/>
<circle cx="181.656" cy="71.3943" r="8.5" fill="#D5B8DD" style="mix-blend-mode:plus-darker"/>
<circle cx="237.059" cy="82.5" r="8.5" fill="#D5B8DD" style="mix-blend-mode:plus-darker"/>
<circle cx="315.328" cy="160.012" r="8.5" fill="#D5B8DD" style="mix-blend-mode:plus-darker"/>
<circle cx="283.816" cy="113.443" r="8.5" fill="#D5B8DD" style="mix-blend-mode:plus-darker"/>
<circle cx="153.188" cy="74" r="19" fill="#D5B8DD" style="mix-blend-mode:plus-darker"/>
<circle cx="19" cy="19" r="19" transform="matrix(-4.37114e-08 1 1 4.37114e-08 81.75 75.4434)" fill="#D5B8DD" style="mix-blend-mode:plus-darker"/>
<circle cx="19" cy="19" r="19" transform="matrix(-4.37114e-08 1 1 4.37114e-08 20.4844 168.512)" fill="#D5B8DD" style="mix-blend-mode:plus-darker"/>
<circle cx="61.1758" cy="134.88" r="19" fill="#D5B8DD" style="mix-blend-mode:plus-darker"/>
<circle cx="8.5" cy="8.5" r="8.5" transform="matrix(-4.37114e-08 1 1 4.37114e-08 117.754 74)" fill="#D5B8DD" style="mix-blend-mode:plus-darker"/>
<circle cx="8.5" cy="8.5" r="8.5" transform="matrix(-4.37114e-08 1 1 4.37114e-08 39.4844 151.512)" fill="#D5B8DD" style="mix-blend-mode:plus-darker"/>
<circle cx="8.5" cy="8.5" r="8.5" transform="matrix(-4.37114e-08 1 1 4.37114e-08 70.9961 104.943)" fill="#D5B8DD" style="mix-blend-mode:plus-darker"/>
<circle cx="210.125" cy="358.593" r="19" fill="#D5B8DD" style="mix-blend-mode:plus-darker"/>
<circle cx="19" cy="19" r="19" transform="matrix(-4.37114e-08 1 1 4.37114e-08 243.562 319.15)" fill="#D5B8DD" style="mix-blend-mode:plus-darker"/>
<circle cx="19" cy="19" r="19" transform="matrix(-4.37114e-08 1 1 4.37114e-08 304.828 226.082)" fill="#D5B8DD" style="mix-blend-mode:plus-darker"/>
<circle cx="302.137" cy="297.714" r="19" fill="#D5B8DD" style="mix-blend-mode:plus-darker"/>
<circle cx="8.5" cy="8.5" r="8.5" transform="matrix(0 1 1 0 173.156 352.699)" fill="#D5B8DD" style="mix-blend-mode:plus-darker"/>
<circle cx="8.5" cy="8.5" r="8.5" transform="matrix(0 1 1 0 228.559 341.593)" fill="#D5B8DD" style="mix-blend-mode:plus-darker"/>
<circle cx="8.5" cy="8.5" r="8.5" transform="matrix(-4.37114e-08 1 1 4.37114e-08 306.828 264.082)" fill="#D5B8DD" style="mix-blend-mode:plus-darker"/>
<circle cx="8.5" cy="8.5" r="8.5" transform="matrix(0 1 1 0 275.316 310.65)" fill="#D5B8DD" style="mix-blend-mode:plus-darker"/>
<circle cx="19" cy="19" r="19" transform="matrix(0 1 1 0 134.188 339.593)" fill="#D5B8DD" style="mix-blend-mode:plus-darker"/>
<circle cx="19" cy="19" r="19" transform="matrix(-4.37114e-08 1 1 4.37114e-08 81.75 319.15)" fill="#D5B8DD" style="mix-blend-mode:plus-darker"/>
<circle cx="19" cy="19" r="19" transform="matrix(-4.37114e-08 1 1 4.37114e-08 20.4844 226.082)" fill="#D5B8DD" style="mix-blend-mode:plus-darker"/>
<circle cx="19" cy="19" r="19" transform="matrix(-4.37114e-08 1 1 4.37114e-08 42.1758 278.713)" fill="#D5B8DD" style="mix-blend-mode:plus-darker"/>
<circle cx="126.254" cy="350.093" r="8.5" fill="#D5B8DD" style="mix-blend-mode:plus-darker"/>
<circle cx="47.9844" cy="272.582" r="8.5" fill="#D5B8DD" style="mix-blend-mode:plus-darker"/>
<circle cx="79.4961" cy="319.15" r="8.5" fill="#D5B8DD" style="mix-blend-mode:plus-darker"/>
<circle cx="326.445" cy="216.296" r="8.5" fill="#D5B8DD" style="mix-blend-mode:plus-darker"/>
<circle cx="36.1855" cy="216.296" r="8.5" fill="#D5B8DD" style="mix-blend-mode:plus-darker"/>
<g filter="url(#filter1_f_1281_2183)">
<rect x="423" y="70.5615" width="291.47" height="291.47" rx="145.735" stroke="#E9A6A0" stroke-opacity="0.3" stroke-width="40"/>
</g>
<circle cx="19" cy="19" r="19" transform="matrix(-4.37114e-08 1 1 4.37114e-08 578.469 55)" fill="#D5B8DD"/>
<circle cx="19" cy="19" r="19" transform="matrix(-4.37114e-08 1 1 4.37114e-08 630.906 75.4434)" fill="#D5B8DD"/>
<circle cx="19" cy="19" r="19" transform="matrix(-4.37114e-08 1 1 4.37114e-08 692.172 168.512)" fill="#D5B8DD"/>
<circle cx="19" cy="19" r="19" transform="matrix(-4.37114e-08 1 1 4.37114e-08 670.48 115.88)" fill="#D5B8DD"/>
<circle cx="569" cy="71.3943" r="8.5" fill="#D5B8DD"/>
<circle cx="624.402" cy="82.5" r="8.5" fill="#D5B8DD"/>
<circle cx="702.672" cy="160.012" r="8.5" fill="#D5B8DD"/>
<circle cx="671.16" cy="113.443" r="8.5" fill="#D5B8DD"/>
<circle cx="540.531" cy="74" r="19" fill="#D5B8DD"/>
<circle cx="19" cy="19" r="19" transform="matrix(-4.37114e-08 1 1 4.37114e-08 469.094 75.4434)" fill="#D5B8DD"/>
<circle cx="19" cy="19" r="19" transform="matrix(-4.37114e-08 1 1 4.37114e-08 407.828 168.512)" fill="#D5B8DD"/>
<circle cx="448.52" cy="134.88" r="19" fill="#D5B8DD"/>
<circle cx="8.5" cy="8.5" r="8.5" transform="matrix(-4.37114e-08 1 1 4.37114e-08 505.098 74)" fill="#D5B8DD"/>
<circle cx="8.5" cy="8.5" r="8.5" transform="matrix(-4.37114e-08 1 1 4.37114e-08 426.828 151.512)" fill="#D5B8DD"/>
<circle cx="8.5" cy="8.5" r="8.5" transform="matrix(-4.37114e-08 1 1 4.37114e-08 458.34 104.943)" fill="#D5B8DD"/>
<circle cx="597.469" cy="358.593" r="19" fill="#D5B8DD"/>
<circle cx="19" cy="19" r="19" transform="matrix(-4.37114e-08 1 1 4.37114e-08 630.906 319.15)" fill="#D5B8DD"/>
<circle cx="19" cy="19" r="19" transform="matrix(-4.37114e-08 1 1 4.37114e-08 692.172 226.082)" fill="#D5B8DD"/>
<circle cx="689.48" cy="297.714" r="19" fill="#D5B8DD"/>
<circle cx="8.5" cy="8.5" r="8.5" transform="matrix(0 1 1 0 560.5 352.699)" fill="#D5B8DD"/>
<circle cx="8.5" cy="8.5" r="8.5" transform="matrix(0 1 1 0 615.902 341.593)" fill="#D5B8DD"/>
<circle cx="8.5" cy="8.5" r="8.5" transform="matrix(-4.37114e-08 1 1 4.37114e-08 694.172 264.082)" fill="#D5B8DD"/>
<circle cx="8.5" cy="8.5" r="8.5" transform="matrix(0 1 1 0 662.66 310.65)" fill="#D5B8DD"/>
<circle cx="19" cy="19" r="19" transform="matrix(0 1 1 0 521.531 339.593)" fill="#D5B8DD"/>
<circle cx="19" cy="19" r="19" transform="matrix(-4.37114e-08 1 1 4.37114e-08 469.094 319.15)" fill="#D5B8DD"/>
<circle cx="19" cy="19" r="19" transform="matrix(-4.37114e-08 1 1 4.37114e-08 407.828 226.082)" fill="#D5B8DD"/>
<circle cx="19" cy="19" r="19" transform="matrix(-4.37114e-08 1 1 4.37114e-08 429.52 278.713)" fill="#D5B8DD"/>
<circle cx="513.598" cy="350.093" r="8.5" fill="#D5B8DD"/>
<circle cx="435.328" cy="272.582" r="8.5" fill="#D5B8DD"/>
<circle cx="466.84" cy="319.15" r="8.5" fill="#D5B8DD"/>
<circle cx="713.789" cy="216.296" r="8.5" fill="#D5B8DD"/>
<circle cx="423.529" cy="216.296" r="8.5" fill="#D5B8DD"/>
<g filter="url(#filter2_f_1281_2183)">
<rect x="810.344" y="70.5615" width="291.47" height="291.47" rx="145.735" stroke="#E9A6A0" stroke-opacity="0.3" stroke-width="40"/>
</g>
<circle cx="19" cy="19" r="19" transform="matrix(-4.37114e-08 1 1 4.37114e-08 965.812 55)" fill="#D5B8DD"/>
<circle cx="19" cy="19" r="19" transform="matrix(-4.37114e-08 1 1 4.37114e-08 1018.25 75.4434)" fill="#D5B8DD"/>
<circle cx="19" cy="19" r="19" transform="matrix(-4.37114e-08 1 1 4.37114e-08 1079.52 168.512)" fill="#D5B8DD"/>
<circle cx="19" cy="19" r="19" transform="matrix(-4.37114e-08 1 1 4.37114e-08 1057.82 115.88)" fill="#D5B8DD"/>
<circle cx="956.344" cy="71.3943" r="8.5" fill="#D5B8DD"/>
<circle cx="1011.75" cy="82.5" r="8.5" fill="#D5B8DD"/>
<circle cx="1090.02" cy="160.012" r="8.5" fill="#D5B8DD"/>
<circle cx="1058.5" cy="113.443" r="8.5" fill="#D5B8DD"/>
<circle cx="927.875" cy="74" r="19" fill="#D5B8DD"/>
<circle cx="19" cy="19" r="19" transform="matrix(-4.37114e-08 1 1 4.37114e-08 856.438 75.4434)" fill="#D5B8DD"/>
<circle cx="19" cy="19" r="19" transform="matrix(-4.37114e-08 1 1 4.37114e-08 795.172 168.512)" fill="#D5B8DD"/>
<circle cx="835.863" cy="134.88" r="19" fill="#D5B8DD"/>
<circle cx="8.5" cy="8.5" r="8.5" transform="matrix(-4.37114e-08 1 1 4.37114e-08 892.441 74)" fill="#D5B8DD"/>
<circle cx="8.5" cy="8.5" r="8.5" transform="matrix(-4.37114e-08 1 1 4.37114e-08 814.172 151.512)" fill="#D5B8DD"/>
<circle cx="8.5" cy="8.5" r="8.5" transform="matrix(-4.37114e-08 1 1 4.37114e-08 845.684 104.943)" fill="#D5B8DD"/>
<circle cx="984.812" cy="358.593" r="19" fill="#D5B8DD"/>
<circle cx="19" cy="19" r="19" transform="matrix(-4.37114e-08 1 1 4.37114e-08 1018.25 319.15)" fill="#D5B8DD"/>
<circle cx="19" cy="19" r="19" transform="matrix(-4.37114e-08 1 1 4.37114e-08 1079.52 226.082)" fill="#D5B8DD"/>
<circle cx="1076.82" cy="297.714" r="19" fill="#D5B8DD"/>
<circle cx="8.5" cy="8.5" r="8.5" transform="matrix(0 1 1 0 947.844 352.699)" fill="#D5B8DD"/>
<circle cx="8.5" cy="8.5" r="8.5" transform="matrix(0 1 1 0 1003.25 341.593)" fill="#D5B8DD"/>
<circle cx="8.5" cy="8.5" r="8.5" transform="matrix(-4.37114e-08 1 1 4.37114e-08 1081.52 264.082)" fill="#D5B8DD"/>
<circle cx="8.5" cy="8.5" r="8.5" transform="matrix(0 1 1 0 1050 310.65)" fill="#D5B8DD"/>
<circle cx="19" cy="19" r="19" transform="matrix(0 1 1 0 908.875 339.593)" fill="#D5B8DD"/>
<circle cx="19" cy="19" r="19" transform="matrix(-4.37114e-08 1 1 4.37114e-08 856.438 319.15)" fill="#D5B8DD"/>
<circle cx="19" cy="19" r="19" transform="matrix(-4.37114e-08 1 1 4.37114e-08 795.172 226.082)" fill="#D5B8DD"/>
<circle cx="19" cy="19" r="19" transform="matrix(-4.37114e-08 1 1 4.37114e-08 816.863 278.713)" fill="#D5B8DD"/>
<circle cx="900.941" cy="350.093" r="8.5" fill="#D5B8DD"/>
<circle cx="822.672" cy="272.582" r="8.5" fill="#D5B8DD"/>
<circle cx="854.184" cy="319.15" r="8.5" fill="#D5B8DD"/>
<circle cx="1101.13" cy="216.296" r="8.5" fill="#D5B8DD"/>
<circle cx="810.873" cy="216.296" r="8.5" fill="#D5B8DD"/>
</g>
<defs>
<filter id="filter0_f_1281_2183" x="0.484375" y="30.5615" width="1141.33" height="371.47" filterUnits="userSpaceOnUse" color-interpolation-filters="sRGB">
<feFlood flood-opacity="0" result="BackgroundImageFix"/>
<feBlend mode="normal" in="SourceGraphic" in2="BackgroundImageFix" result="shape"/>
<feGaussianBlur stdDeviation="10" result="effect1_foregroundBlur_1281_2183"/>
</filter>
<filter id="filter1_f_1281_2183" x="353" y="0.561523" width="431.471" height="431.47" filterUnits="userSpaceOnUse" color-interpolation-filters="sRGB">
<feFlood flood-opacity="0" result="BackgroundImageFix"/>
<feBlend mode="normal" in="SourceGraphic" in2="BackgroundImageFix" result="shape"/>
<feGaussianBlur stdDeviation="25" result="effect1_foregroundBlur_1281_2183"/>
</filter>
<filter id="filter2_f_1281_2183" x="740.344" y="0.561523" width="431.471" height="431.47" filterUnits="userSpaceOnUse" color-interpolation-filters="sRGB">
<feFlood flood-opacity="0" result="BackgroundImageFix"/>
<feBlend mode="normal" in="SourceGraphic" in2="BackgroundImageFix" result="shape"/>
<feGaussianBlur stdDeviation="25" result="effect1_foregroundBlur_1281_2183"/>
</filter>
</defs>
</svg>
