<svg width="468" height="424" viewBox="0 0 468 424" fill="none" xmlns="http://www.w3.org/2000/svg">
<g filter="url(#filter0_d_1805_5658)">
<path fill-rule="evenodd" clip-rule="evenodd" d="M176.678 395.757C176.487 390.315 176.463 390.276 174.432 391.949C171.793 394.124 170.468 392.997 172.849 390.602C174.621 388.821 174.537 388.777 168.665 388.445L162.674 388.106L168.556 387.93C174.559 387.75 175.629 387.019 172.904 384.96C172.06 384.323 171.369 383.361 171.369 382.822C171.369 382.284 172.52 382.826 173.927 384.029L176.485 386.217L176.657 380.7L176.828 375.184L177.424 380.646C178.018 386.098 178.022 386.105 179.968 384.137C181.04 383.054 182.387 382.167 182.959 382.167C183.533 382.167 182.933 383.203 181.625 384.471C178.889 387.122 179.432 387.501 186.715 388.027C190.785 388.321 190.616 388.379 185.258 388.522L179.197 388.685L181.6 391.013C182.922 392.293 183.518 393.34 182.927 393.34C182.334 393.34 181.278 392.712 180.577 391.944C178.362 389.515 177.62 390.395 177.241 395.901L176.871 401.255L176.678 395.757ZM85.5763 382.167C85.254 380.887 84.7302 378.358 84.4141 376.549C83.5598 371.666 81.2467 369.314 75.8737 367.868L71.0603 366.572L75.4041 365.489C80.3638 364.253 83.524 361.597 84.2402 358.065C84.5113 356.726 85.0576 353.954 85.4535 351.906L86.1727 348.182L87.9191 354.527C89.8127 361.41 92.2465 364.343 97.4303 365.989L100.729 367.037L96.9587 367.711C91.8496 368.625 89.9283 370.854 87.8914 378.235C86.5124 383.232 86.0448 384.026 85.5763 382.167ZM92.0624 368.186L94.2865 367.103L91.7114 364.626C90.2956 363.263 88.4787 360.682 87.6735 358.889L86.2106 355.63L85.4586 358.659C85.0453 360.326 83.4319 362.849 81.8728 364.268L79.039 366.848L81.3593 368.441C82.635 369.317 84.2504 371.608 84.9481 373.532L86.2167 377.031L88.0275 373.15C89.024 371.015 90.8388 368.782 92.0624 368.186ZM318.47 408.819C317.608 403.708 314.214 399.88 310.496 399.822C308.531 399.791 308.715 399.561 311.628 398.411C316.122 396.636 317.613 394.742 318.468 389.722C319.226 385.275 320.224 385.932 321.344 391.618C322.049 395.192 323.598 396.825 327.991 398.619C330.42 399.611 330.462 399.714 328.467 399.783C324.832 399.909 322.122 402.836 320.641 408.238L319.236 413.359L318.47 408.819ZM320.937 403.115C320.937 402.406 321.868 401.233 323.005 400.507C324.897 399.301 324.931 399.082 323.41 397.933C322.495 397.241 321.286 395.611 320.725 394.31L319.703 391.944L318.746 394.272C318.22 395.552 317.102 397.074 316.262 397.654C314.931 398.573 315.036 399.13 317.068 401.964C319.367 405.172 320.937 405.639 320.937 403.115ZM436.551 363.079C435.74 361.158 436.84 358.889 438.581 358.889C440.675 358.889 442.457 361.204 441.716 362.961C440.914 364.863 437.338 364.945 436.551 363.079ZM440.273 361.683C440.273 359.719 438.785 359.177 437.716 360.752C436.97 361.85 437.938 363.545 439.311 363.545C439.841 363.545 440.273 362.707 440.273 361.683ZM49.4627 309.14C48.4438 306.724 49.8709 304.728 52.3855 305.053C54.0756 305.271 54.6915 305.972 54.6915 307.678C54.6915 309.385 54.0756 310.085 52.3855 310.304C51.0014 310.483 49.832 310.017 49.4627 309.14ZM367.504 315.127C367.308 311.916 365.107 308.571 362.286 307.196L359.919 306.044L362.154 305.398C364.49 304.724 367.377 300.587 367.515 297.715C367.578 296.421 367.722 296.357 368.151 297.436C369.972 302.016 371.966 304.886 373.669 305.378C375.442 305.891 375.352 306.141 372.647 308.212C371.015 309.461 369.223 312.053 368.663 313.97C367.843 316.779 367.619 317.003 367.504 315.127ZM123.03 295.388C120.16 292.776 122.322 288.125 126.406 288.125C129.148 288.125 131.01 289.82 131.01 292.315C131.01 294.81 129.148 296.505 126.406 296.505C125.224 296.505 123.705 296.002 123.03 295.388ZM129.348 293.497C130.207 292.256 130.073 291.529 128.77 290.343C125.705 287.553 121.132 291.199 123.895 294.229C125.486 295.973 127.855 295.655 129.348 293.497ZM93.0879 242.035C93.0879 241.181 93.583 240.634 94.1876 240.817C94.7923 241 95.2874 241.549 95.2874 242.035C95.2874 242.521 94.7923 243.069 94.1876 243.253C93.583 243.436 93.0879 242.889 93.0879 242.035ZM364.045 216.668C362.742 214.452 364.095 212.423 366.585 212.859C367.848 213.08 368.508 213.985 368.508 215.498C368.508 218.334 365.49 219.126 364.045 216.668ZM20.9652 203.441C20.2429 198.481 16.9896 195.093 12.7952 194.93C11.2954 194.871 11.6647 194.574 13.9952 193.963C18.1631 192.869 21.3642 188.374 21.3693 183.608C21.3713 181.687 21.8338 180.116 22.3964 180.116C22.9591 180.116 23.4297 181.269 23.442 182.677C23.4543 184.084 24.332 186.976 25.3919 189.101C26.9193 192.162 28.0314 193.11 30.7404 193.661L34.1615 194.356L30.5808 195.444C26.6165 196.647 23.4236 201.126 23.4216 205.489C23.4185 209.789 21.6793 208.339 20.9652 203.441ZM23.4195 199.627C23.4195 199.092 24.5407 197.633 25.9106 196.386C27.3746 195.054 27.9731 193.877 27.3623 193.533C26.7904 193.211 25.5168 191.743 24.5326 190.269L22.7422 187.59L20.1151 191.242C17.5431 194.817 17.5288 194.929 19.4307 196.495C20.4987 197.375 21.3734 198.659 21.3734 199.348C21.3734 200.037 21.8338 200.6 22.3964 200.6C22.9591 200.6 23.4195 200.163 23.4195 199.627ZM446.13 200.833C445.944 196.751 445.208 196.062 443.086 197.993C442.202 198.798 441.858 198.814 441.858 198.048C441.858 197.464 442.434 196.647 443.137 196.233C443.937 195.761 442.694 195.271 439.812 194.921L435.209 194.362L439.557 194.222C444.089 194.077 444.778 193.434 442.626 191.362C441.57 190.345 441.749 190.318 443.649 191.208C445.853 192.241 445.957 192.118 446.104 188.296L446.257 184.306L446.871 188.496C447.256 191.119 447.795 192.25 448.313 191.522C448.768 190.882 449.665 190.358 450.308 190.358C451.149 190.358 451.131 190.671 450.247 191.476C448.124 193.409 448.885 194.078 453.368 194.222L457.716 194.362L453.112 194.921C450.23 195.271 448.987 195.761 449.787 196.233C450.491 196.647 451.066 197.464 451.066 198.048C451.066 198.814 450.722 198.798 449.838 197.993C447.771 196.112 447.108 196.712 446.699 200.833L446.308 204.79L446.13 200.833ZM116.865 109.086C116.155 107.148 114.422 104.875 113.014 104.035L110.455 102.509L113.08 101.257C114.846 100.416 116.193 98.5619 117.195 95.6C118.111 92.8877 118.71 92.018 118.754 93.3365C118.849 96.1754 121.456 100.655 123.669 101.784C125.274 102.6 125.175 102.879 122.659 104.681C121.127 105.778 119.487 108.011 119.016 109.643L118.157 112.611L116.865 109.086ZM341.307 83.0692C341.092 81.0477 340.222 79.719 338.647 79.0085L336.308 77.9536L338.903 76.4052C340.72 75.3223 341.499 74.0252 341.499 72.0858C341.499 70.5615 341.959 69.3138 342.522 69.3138C343.084 69.3138 343.545 70.3809 343.545 71.6863C343.545 73.055 344.69 75.0234 346.252 76.3419C348.268 78.0421 348.538 78.6249 347.311 78.6249C345.408 78.6249 343.545 81.3587 343.545 84.1501C343.545 87.2628 341.658 86.3504 341.307 83.0692ZM343.775 76.2385C342.963 74.9182 342.756 74.9182 341.552 76.2385C340.464 77.4313 340.464 77.9564 341.552 79.1491C342.756 80.4695 342.963 80.4695 343.775 79.1491C344.285 78.3177 344.285 77.07 343.775 76.2385ZM168.856 12.5803C168.157 11.5514 169.77 10.4397 170.716 11.3C171.688 12.1855 171.507 13.4472 170.407 13.4472C169.877 13.4472 169.179 13.057 168.856 12.5803Z" fill="white"/>
<path fill-rule="evenodd" clip-rule="evenodd" d="M176.678 395.757C176.487 390.315 176.463 390.276 174.432 391.949C171.793 394.124 170.468 392.997 172.849 390.602C174.621 388.821 174.537 388.777 168.665 388.445L162.674 388.106L168.556 387.93C174.559 387.75 175.629 387.019 172.904 384.96C172.06 384.323 171.369 383.361 171.369 382.822C171.369 382.284 172.52 382.826 173.927 384.029L176.485 386.217L176.657 380.7L176.828 375.184L177.424 380.646C178.018 386.098 178.022 386.105 179.968 384.137C181.04 383.054 182.387 382.167 182.959 382.167C183.533 382.167 182.933 383.203 181.625 384.471C178.889 387.122 179.432 387.501 186.715 388.027C190.785 388.321 190.616 388.379 185.258 388.522L179.197 388.685L181.6 391.013C182.922 392.293 183.518 393.34 182.927 393.34C182.334 393.34 181.278 392.712 180.577 391.944C178.362 389.515 177.62 390.395 177.241 395.901L176.871 401.255L176.678 395.757ZM85.5763 382.167C85.254 380.887 84.7302 378.358 84.4141 376.549C83.5598 371.666 81.2467 369.314 75.8737 367.868L71.0603 366.572L75.4041 365.489C80.3638 364.253 83.524 361.597 84.2402 358.065C84.5113 356.726 85.0576 353.954 85.4535 351.906L86.1727 348.182L87.9191 354.527C89.8127 361.41 92.2465 364.343 97.4303 365.989L100.729 367.037L96.9587 367.711C91.8496 368.625 89.9283 370.854 87.8914 378.235C86.5124 383.232 86.0448 384.026 85.5763 382.167ZM92.0624 368.186L94.2865 367.103L91.7114 364.626C90.2956 363.263 88.4787 360.682 87.6735 358.889L86.2106 355.63L85.4586 358.659C85.0453 360.326 83.4319 362.849 81.8728 364.268L79.039 366.848L81.3593 368.441C82.635 369.317 84.2504 371.608 84.9481 373.532L86.2167 377.031L88.0275 373.15C89.024 371.015 90.8388 368.782 92.0624 368.186ZM318.47 408.819C317.608 403.708 314.214 399.88 310.496 399.822C308.531 399.791 308.715 399.561 311.628 398.411C316.122 396.636 317.613 394.742 318.468 389.722C319.226 385.275 320.224 385.932 321.344 391.618C322.049 395.192 323.598 396.825 327.991 398.619C330.42 399.611 330.462 399.714 328.467 399.783C324.832 399.909 322.122 402.836 320.641 408.238L319.236 413.359L318.47 408.819ZM320.937 403.115C320.937 402.406 321.868 401.233 323.005 400.507C324.897 399.301 324.931 399.082 323.41 397.933C322.495 397.241 321.286 395.611 320.725 394.31L319.703 391.944L318.746 394.272C318.22 395.552 317.102 397.074 316.262 397.654C314.931 398.573 315.036 399.13 317.068 401.964C319.367 405.172 320.937 405.639 320.937 403.115ZM436.551 363.079C435.74 361.158 436.84 358.889 438.581 358.889C440.675 358.889 442.457 361.204 441.716 362.961C440.914 364.863 437.338 364.945 436.551 363.079ZM440.273 361.683C440.273 359.719 438.785 359.177 437.716 360.752C436.97 361.85 437.938 363.545 439.311 363.545C439.841 363.545 440.273 362.707 440.273 361.683ZM49.4627 309.14C48.4438 306.724 49.8709 304.728 52.3855 305.053C54.0756 305.271 54.6915 305.972 54.6915 307.678C54.6915 309.385 54.0756 310.085 52.3855 310.304C51.0014 310.483 49.832 310.017 49.4627 309.14ZM367.504 315.127C367.308 311.916 365.107 308.571 362.286 307.196L359.919 306.044L362.154 305.398C364.49 304.724 367.377 300.587 367.515 297.715C367.578 296.421 367.722 296.357 368.151 297.436C369.972 302.016 371.966 304.886 373.669 305.378C375.442 305.891 375.352 306.141 372.647 308.212C371.015 309.461 369.223 312.053 368.663 313.97C367.843 316.779 367.619 317.003 367.504 315.127ZM123.03 295.388C120.16 292.776 122.322 288.125 126.406 288.125C129.148 288.125 131.01 289.82 131.01 292.315C131.01 294.81 129.148 296.505 126.406 296.505C125.224 296.505 123.705 296.002 123.03 295.388ZM129.348 293.497C130.207 292.256 130.073 291.529 128.77 290.343C125.705 287.553 121.132 291.199 123.895 294.229C125.486 295.973 127.855 295.655 129.348 293.497ZM93.0879 242.035C93.0879 241.181 93.583 240.634 94.1876 240.817C94.7923 241 95.2874 241.549 95.2874 242.035C95.2874 242.521 94.7923 243.069 94.1876 243.253C93.583 243.436 93.0879 242.889 93.0879 242.035ZM364.045 216.668C362.742 214.452 364.095 212.423 366.585 212.859C367.848 213.08 368.508 213.985 368.508 215.498C368.508 218.334 365.49 219.126 364.045 216.668ZM20.9652 203.441C20.2429 198.481 16.9896 195.093 12.7952 194.93C11.2954 194.871 11.6647 194.574 13.9952 193.963C18.1631 192.869 21.3642 188.374 21.3693 183.608C21.3713 181.687 21.8338 180.116 22.3964 180.116C22.9591 180.116 23.4297 181.269 23.442 182.677C23.4543 184.084 24.332 186.976 25.3919 189.101C26.9193 192.162 28.0314 193.11 30.7404 193.661L34.1615 194.356L30.5808 195.444C26.6165 196.647 23.4236 201.126 23.4216 205.489C23.4185 209.789 21.6793 208.339 20.9652 203.441ZM23.4195 199.627C23.4195 199.092 24.5407 197.633 25.9106 196.386C27.3746 195.054 27.9731 193.877 27.3623 193.533C26.7904 193.211 25.5168 191.743 24.5326 190.269L22.7422 187.59L20.1151 191.242C17.5431 194.817 17.5288 194.929 19.4307 196.495C20.4987 197.375 21.3734 198.659 21.3734 199.348C21.3734 200.037 21.8338 200.6 22.3964 200.6C22.9591 200.6 23.4195 200.163 23.4195 199.627ZM446.13 200.833C445.944 196.751 445.208 196.062 443.086 197.993C442.202 198.798 441.858 198.814 441.858 198.048C441.858 197.464 442.434 196.647 443.137 196.233C443.937 195.761 442.694 195.271 439.812 194.921L435.209 194.362L439.557 194.222C444.089 194.077 444.778 193.434 442.626 191.362C441.57 190.345 441.749 190.318 443.649 191.208C445.853 192.241 445.957 192.118 446.104 188.296L446.257 184.306L446.871 188.496C447.256 191.119 447.795 192.25 448.313 191.522C448.768 190.882 449.665 190.358 450.308 190.358C451.149 190.358 451.131 190.671 450.247 191.476C448.124 193.409 448.885 194.078 453.368 194.222L457.716 194.362L453.112 194.921C450.23 195.271 448.987 195.761 449.787 196.233C450.491 196.647 451.066 197.464 451.066 198.048C451.066 198.814 450.722 198.798 449.838 197.993C447.771 196.112 447.108 196.712 446.699 200.833L446.308 204.79L446.13 200.833ZM116.865 109.086C116.155 107.148 114.422 104.875 113.014 104.035L110.455 102.509L113.08 101.257C114.846 100.416 116.193 98.5619 117.195 95.6C118.111 92.8877 118.71 92.018 118.754 93.3365C118.849 96.1754 121.456 100.655 123.669 101.784C125.274 102.6 125.175 102.879 122.659 104.681C121.127 105.778 119.487 108.011 119.016 109.643L118.157 112.611L116.865 109.086ZM341.307 83.0692C341.092 81.0477 340.222 79.719 338.647 79.0085L336.308 77.9536L338.903 76.4052C340.72 75.3223 341.499 74.0252 341.499 72.0858C341.499 70.5615 341.959 69.3138 342.522 69.3138C343.084 69.3138 343.545 70.3809 343.545 71.6863C343.545 73.055 344.69 75.0234 346.252 76.3419C348.268 78.0421 348.538 78.6249 347.311 78.6249C345.408 78.6249 343.545 81.3587 343.545 84.1501C343.545 87.2628 341.658 86.3504 341.307 83.0692ZM343.775 76.2385C342.963 74.9182 342.756 74.9182 341.552 76.2385C340.464 77.4313 340.464 77.9564 341.552 79.1491C342.756 80.4695 342.963 80.4695 343.775 79.1491C344.285 78.3177 344.285 77.07 343.775 76.2385ZM168.856 12.5803C168.157 11.5514 169.77 10.4397 170.716 11.3C171.688 12.1855 171.507 13.4472 170.407 13.4472C169.877 13.4472 169.179 13.057 168.856 12.5803Z" stroke="white" stroke-width="2"/>
</g>
<defs>
<filter id="filter0_d_1805_5658" x="0.898438" y="-0.0078125" width="466.938" height="423.632" filterUnits="userSpaceOnUse" color-interpolation-filters="sRGB">
<feFlood flood-opacity="0" result="BackgroundImageFix"/>
<feColorMatrix in="SourceAlpha" type="matrix" values="0 0 0 0 0 0 0 0 0 0 0 0 0 0 0 0 0 0 127 0" result="hardAlpha"/>
<feOffset/>
<feGaussianBlur stdDeviation="5"/>
<feComposite in2="hardAlpha" operator="out"/>
<feColorMatrix type="matrix" values="0 0 0 0 0.913725 0 0 0 0 0.65098 0 0 0 0 0.627451 0 0 0 0.8 0"/>
<feBlend mode="normal" in2="BackgroundImageFix" result="effect1_dropShadow_1805_5658"/>
<feBlend mode="normal" in="SourceGraphic" in2="effect1_dropShadow_1805_5658" result="shape"/>
</filter>
</defs>
</svg>
