<svg width="48" height="48" viewBox="0 0 48 48" fill="none" xmlns="http://www.w3.org/2000/svg">
<g clip-path="url(#clip0_1039_1828)">
<path fill-rule="evenodd" clip-rule="evenodd" d="M43.8335 23.9989C43.8335 34.9533 34.9532 43.8336 23.9988 43.8336C13.0444 43.8336 4.16406 34.9533 4.16406 23.9989C4.16406 13.0445 13.0444 4.16415 23.9988 4.16415C34.9532 4.16415 43.8335 13.0445 43.8335 23.9989ZM12.31 17.9387C14.0978 14.7959 17.7428 12.4434 24.0352 12.5281C30.0206 12.6087 33.6505 14.6048 35.5203 17.4236C37.3621 20.2 37.3398 23.5465 36.5085 26.0402C36.1172 27.2142 35.3057 28.4323 34.5186 29.4325C33.7191 30.4485 32.8778 31.3231 32.3451 31.8196C29.5278 34.4459 25.2848 36.659 23.3048 37.4073L21.9513 37.9188V36.4719V33.8311C15.385 32.55 12.5492 29.6117 11.545 26.8785C10.7076 24.5989 10.572 20.9937 12.31 17.9387ZM14.0483 18.9276C12.6468 21.3913 12.7541 24.3699 13.4224 26.1888C14.1483 28.1649 16.4287 30.9003 23.1149 32.0087L23.9513 32.1474V32.9953V34.9495C25.9802 33.9845 28.9292 32.2697 30.9814 30.3567C31.444 29.9255 32.2149 29.1259 32.9469 28.1957C33.6913 27.2498 34.3305 26.2496 34.6112 25.4077C35.2981 23.347 35.2759 20.6731 33.8537 18.5291C32.4595 16.4274 29.5613 14.6027 24.0083 14.5279C18.2769 14.4507 15.4 16.5517 14.0483 18.9276ZM15.7398 26.0627V20.2119H17.4932V24.5747H19.3791V26.0627H15.7398ZM22.812 26.0483V20.2263H24.5396L26.079 23.0596V20.2263H27.7382V26.0483H26.079L24.5396 23.1632V26.0483H22.812ZM28.5721 26.0483V20.2263H32.2578V21.3471H29.7611V22.3363H32.2578V23.5603H29.7611V24.7173H32.2578V26.0483H28.5721ZM20.2318 20.2263V26.0483H21.9594V20.2263H20.2318Z" fill="#F9EBFF"/>
</g>
<defs>
<clipPath id="clip0_1039_1828">
<rect width="39.9981" height="39.9981" fill="white" transform="translate(3.99976 3.99982)"/>
</clipPath>
</defs>
</svg>
