<svg width="48" height="48" viewBox="0 0 48 48" fill="none" xmlns="http://www.w3.org/2000/svg">
<g clip-path="url(#clip0_1162_3088)">
<rect width="48" height="48" rx="24" fill="#E9D5F3"/>
<path d="M49.5 21.1628L24 7L20.5 39.7209L38 49L47.5 45.5814L49.5 21.1628Z" fill="#D4B7E2"/>
<path d="M13 24.1268L24 7L35 24.1268V33.1408L27.6667 39H20.3333L13 33.1408V24.1268Z" fill="#9999EB"/>
<path d="M24 7L13 24.1268M24 7L35 24.1268V33.1408M24 7L18.0417 23.2254M24 7L29.9583 23.6761L29.5 28.6338L35 33.1408M13 24.1268V33.1408M13 24.1268L18.5 30.4366M13 24.1268L18.0417 23.2254M13 33.1408L20.3333 39M13 33.1408L18.5 30.4366M20.3333 39H27.6667L35 33.1408M20.3333 39L22.1667 32.2394M18.5 30.4366L22.1667 32.2394M18.5 30.4366L18.0417 23.2254M22.1667 32.2394H25.375L26.75 36.7465" stroke="white"/>
</g>
<defs>
<clipPath id="clip0_1162_3088">
<rect width="48" height="48" rx="24" fill="white"/>
</clipPath>
</defs>
</svg>
