<svg width="62" height="63" viewBox="0 0 62 63" fill="none" xmlns="http://www.w3.org/2000/svg">
<path d="M31 1.8454C47.611 1.8454 61.0769 15.3113 61.0769 31.9223C61.0769 48.5334 47.611 61.9993 31 61.9993C14.3889 61.9993 0.923033 48.5334 0.923033 31.9223C0.923034 15.3113 14.3889 1.8454 31 1.8454Z" fill="#5B5566"/>
<path d="M33.9587 39.0322V42.4983M32.8365 41.142H35.1196M39.0668 36.9977H40.5761M39.8795 35.7921V37.3745V38.6178M38.6025 22.0407V22.7565M29.3149 28.7469H30.205" stroke="white" stroke-width="0.698131" stroke-linecap="round"/>
<path d="M31.1345 23.619H33.5826" stroke="white" stroke-width="0.698131" stroke-linecap="round"/>
<path d="M10.4552 26.6295C10.0592 26.3136 9.06798 25.9927 8.2709 27.2359C7.27455 28.79 5.05192 34.0587 6.66141 35.8023C7.949 37.1972 10.3913 34.0335 11.4515 32.2772C11.5793 31.8224 11.4975 31.0036 10.1486 31.3675C8.46248 31.8224 11.5282 31.2538 11.6431 31.178C11.7581 31.1022 11.3366 34.5136 12.2946 33.7176C13.061 33.0808 13.5337 31.7592 13.6742 31.178C13.6103 31.7971 13.6818 32.9822 14.4789 32.77C15.276 32.5577 15.8329 30.9632 16.0118 30.1925C16.0629 33.7808 15.9964 41.1317 15.322 41.8291C14.6475 42.5266 13.9424 41.9428 13.6742 41.5638C13.3931 41.0205 13.222 39.3729 14.7855 37.129C16.349 34.885 18.3494 32.5299 19.1541 31.6328M20.8402 29.5481C20.4442 29.5986 19.5833 29.9954 19.3074 31.178C19.0315 32.3606 19.6778 32.5299 20.0355 32.4667C20.5337 32.353 21.5224 32.2848 21.4917 32.9216C21.461 33.5584 20.2271 34.7789 19.614 35.3096C19.2563 35.4865 18.6253 35.6204 18.9625 34.741C19.384 33.6418 24.3658 32.4667 25.707 27.2359C24.864 29.8008 23.4308 35.2868 24.4424 36.712C24.8384 36.8889 26.1286 36.5377 28.1213 33.7176M30.957 31.3675C30.7527 30.8495 30.1216 30.1773 29.2326 31.6328C28.3435 33.0884 28.4023 34.0335 28.5428 34.3241C28.6067 34.5641 28.9567 34.832 29.8457 33.9829C30.7348 33.1339 31.2125 31.8855 31.3403 31.3675C30.6377 32.8331 29.5775 35.5597 30.957 34.741C32.6815 33.7176 36.8202 24.8858 36.6286 23.1043C36.437 21.3228 30.5355 33.9829 33.103 34.741C33.78 34.7915 35.4023 34.4075 36.4753 32.4667M37.2417 29.5481C38.6979 29.1059 41.687 27.3117 41.9935 23.6729C41.9041 23.3949 41.5873 23.0892 41.0355 24.0899C40.3457 25.3407 37.9315 30.4199 37.5866 33.9829C38.0337 31.9361 39.1195 28.2518 39.8859 29.8892C40.1158 29.8892 39.3494 32.7321 39.8859 33.2248C40.3151 33.619 42.7217 31.3675 43.8713 30.1925C43.5647 29.7203 42.76 29.173 41.9935 30.761C41.2271 32.3491 42.1085 32.8631 42.645 32.9216C43.0921 32.7321 44.0092 31.9209 44.1012 30.1925C44.0629 30.5715 44.1549 31.2159 44.8293 30.761C45.6724 30.1925 49.0063 27.3496 49.3129 23.4834C49.3129 23.2307 49.2286 22.8769 48.8914 23.4834C48.4698 24.2415 45.6724 29.2828 46.0556 32.6184C46.4388 35.954 49.3512 31.9361 49.9644 30.1925C49.4534 31.3043 48.6461 33.4674 49.5045 33.2248C50.3629 32.9822 51.4461 30.6726 51.8804 29.5481C51.1651 30.8495 50.179 33.3689 51.9571 33.0353C53.7352 32.7018 55.7892 29.3333 56.5939 27.6908M49.9644 28.7142L50.6925 29.5481M22.3348 30.1925C23.5099 30.2556 26.1286 30.2152 27.2016 29.5481" stroke="white" stroke-width="0.961813" stroke-linecap="round"/>
<path d="M25.6345 36.6835C26.093 40.4002 28.2918 44.9832 38.4792 44.3441C33.9993 46.185 23.8401 47.4772 19.0427 37.9181" stroke="white" stroke-width="1.44272" stroke-linecap="round"/>
<path d="M18.0164 29.1443C19.2246 24.0776 24.9702 15.1215 38.2867 19.8304C35.1195 18.8609 29.0972 18.5604 25.6343 28.3382" stroke="white" stroke-width="1.44272" stroke-linecap="round"/>
<path d="M32.5056 21.8753V25.3504" stroke="white" stroke-width="0.692934" stroke-linecap="round"/>
<path d="M41.7065 20.3819L47.9611 14.3113M43.5481 22.2235L52.4087 15.198M35.8689 16.9032L37.0851 13.9362M37.4673 13.0154L38.9267 9.26392M39.2047 8.54773L40.0734 6.36507M32.2204 16.1871L32.7764 8.99108M33.0891 4.9668L32.8806 8.03617M21.8656 18.8131L17.7654 13.9362M17.1052 13.0154L15.9064 11.4295L14.7076 9.84369M28.7456 16.1871L28.3982 13.4587M28.2592 12.6061L27.5295 6.91073M27.3905 6.09223L27.2515 5.10321M14.4296 13.4587L20.6494 19.7339M49.8374 13.9362L46.6928 16.835L43.5481 19.7339M44.7295 24.0651L52.4087 20.0067M55.814 20.6888L50.0807 23.1102M49.5594 26.5547L57.2039 24.4744M49.7679 35.3536L57.8294 36.6836M45.355 38.5935L55.4665 43.8455M42.8879 45.653L48.8645 52.3033M38.0927 46.1305L41.4285 52.3033M41.8455 53.2582L43.3396 56.0548M40.6988 46.1305L45.355 52.7808M36.6681 48.2108L39.5174 55.7819M35.5909 50.5299L37.6063 58.1351M32.8459 47.6993L33.8883 54.827M34.0273 55.7819L34.5485 58.749M28.2592 47.6993L27.2515 54.827M27.1125 55.9525L26.7303 58.749M25.7921 48.4837L23.0818 56.771M18.9121 56.3958L24.1242 46.1305M17.6959 49.7796L21.5876 44.9027M17.001 50.5299L14.4991 53.9062M7.8293 47.4377C8.38426 47.0633 13.2864 43.6817 14.4991 42.7542M16.723 41.1854L17.4179 40.6056M6.02071 43.9478L12.6575 40.8784M4.17909 39.2414L13.5609 37.4339M10.2947 35.6264L14.9508 35.1489M3.58838 27.7825L6.78516 28.294M8.83527 28.7033L14.9508 29.5559M6.78516 18.8131L15.1941 23.383M13.005 16.9032L18.5298 21.5755M15.1941 27.0663L11.2676 26.1114M8.83527 25.4975L4.38757 24.3379" stroke="white" stroke-width="0.238907" stroke-linecap="round" stroke-dasharray="0.42 0.42"/>
<path d="M38.9383 18.2601L45.6794 9.15429M40.5715 19.2832L48.4592 11.1323M42.8995 7.48319L37.5137 17.5098M36.0543 5.26642L35.2898 9.80227M35.1508 10.6549L34.1084 16.5549M22.5896 6.15841L26.2225 16.5549M11.8004 12.3942L17.8813 18.2601M18.5067 18.8058L20.0009 20.204M17.8813 22.4549L13.2598 19.2832M12.5301 18.8058L8.46466 16.1456M15.9701 25.5243L5.61536 21.4822M44.1852 23.2052L53.706 16.7595M45.6794 26.0699L46.8608 25.5243M50.1618 24.1942C50.4398 24.1396 54.3778 22.6254 56.3121 21.8751M46.8608 30.5376L48.7371 30.2647M46.4438 35.5168L57.563 37.9041M43.5945 41.3486L48.7371 46.1232M49.5363 46.9758L51.9339 49.0902M32.3363 49.0902L32.9617 58.8781M18.1592 41.6896L9.68083 49.0902M50.9262 27.6387L57.563 26.3769M52.5246 33.5728L58.0843 33.8457M44.5327 40.0867L53.706 46.8052M41.9961 43.1561L48.7371 49.7041M40.0155 46.8052L45.0886 55.0584M37.4789 53.2168L38.9036 57.7527M30.2514 47.6578L29.7997 58.8781M25.2478 46.8052L22.0162 54.8197M21.634 55.7746L21.0433 57.2752M22.6417 45.3047L17.0473 53.5579M12.0784 51.8868L19.6735 43.5541M4.68288 40.7798L12.0784 38.7605M48.9804 38.1087L55.7214 40.4619M55.7214 30.9468H58.397M3.21777 30.1283H6.27556M8.04769 30.1283L14.0938 30.333M7.21375 33.4364L9.57659 33.2659M12.5301 34.3913L14.9277 34.2549M3.46101 35.4486C3.71119 35.4486 5.00148 35.2667 5.61536 35.1757" stroke="white" stroke-width="0.716722" stroke-linecap="round"/>
<path d="M25.9773 10.8256L27.3325 16.521" stroke="white" stroke-width="0.238907" stroke-linecap="round" stroke-dasharray="0.42 0.42"/>
<path d="M18.4031 7.75549L23.9478 17.5564M17.1174 10.8249L22.5381 18.3619" stroke="white" stroke-width="0.238907" stroke-linecap="round" stroke-dasharray="0.42 0.42"/>
<line x1="30.1692" y1="4.98528" x2="30.1692" y2="15.9913" stroke="white" stroke-width="0.597269" stroke-linecap="round"/>
<path d="M56.3699 29.4722L58.7041 29.1285" stroke="white" stroke-width="0.232984" stroke-linecap="round" stroke-dasharray="0.47 0.47"/>
</svg>
