<svg width="14" height="8" viewBox="0 0 14 8" fill="none" xmlns="http://www.w3.org/2000/svg">
<path id="Vector" fill-rule="evenodd" clip-rule="evenodd" d="M0.822111 0.733242C0.573926 0.990972 0.573926 1.40779 0.822111 1.66489L6.08107 7.11412C6.19699 7.2361 6.33652 7.33323 6.49115 7.3996C6.64579 7.46597 6.8123 7.50019 6.98058 7.50019C7.14886 7.50019 7.31538 7.46597 7.47001 7.3996C7.62465 7.33323 7.76417 7.2361 7.88009 7.11412L13.1779 1.62543C13.2963 1.50087 13.3628 1.3359 13.364 1.16405C13.3652 0.992196 13.3009 0.826335 13.1842 0.700151C13.1266 0.637641 13.0568 0.587625 12.979 0.553201C12.9013 0.518776 12.8173 0.500675 12.7323 0.500019C12.6473 0.499362 12.5631 0.516165 12.4848 0.549386C12.4066 0.582606 12.336 0.631538 12.2774 0.693151L7.43018 5.71665C7.37221 5.77769 7.30243 5.8263 7.22508 5.85951C7.14774 5.89273 7.06444 5.90986 6.98026 5.90986C6.89609 5.90986 6.81279 5.89273 6.73544 5.85951C6.65809 5.8263 6.58831 5.77769 6.53035 5.71665L1.7213 0.733242C1.66339 0.672221 1.59367 0.623626 1.51637 0.590419C1.43908 0.557212 1.35583 0.540086 1.27171 0.540086C1.18758 0.540086 1.10433 0.557212 1.02704 0.590419C0.949746 0.623626 0.88002 0.672221 0.822111 0.733242Z" fill="#8750BF" stroke="#8750BF"/>
</svg>
