<svg width="20" height="20" viewBox="0 0 20 20" fill="none" xmlns="http://www.w3.org/2000/svg">
<path fill-rule="evenodd" clip-rule="evenodd" d="M3.82236 13.2668C3.57417 13.009 3.57417 12.5922 3.82236 12.3351L9.08132 6.88588C9.19724 6.7639 9.33676 6.66677 9.4914 6.6004C9.64603 6.53403 9.81255 6.49981 9.98083 6.49981C10.1491 6.49981 10.3156 6.53403 10.4703 6.6004C10.6249 6.66677 10.7644 6.7639 10.8803 6.88588L16.1781 12.3746C16.2965 12.4991 16.3631 12.6641 16.3642 12.836C16.3654 13.0078 16.3012 13.1737 16.1845 13.2998C16.1269 13.3624 16.057 13.4124 15.9793 13.4468C15.9016 13.4812 15.8176 13.4993 15.7326 13.5C15.6476 13.5006 15.5633 13.4838 15.4851 13.4506C15.4068 13.4174 15.3362 13.3685 15.2777 13.3068L10.4304 8.28335C10.3725 8.22231 10.3027 8.1737 10.2253 8.14049C10.148 8.10727 10.0647 8.09014 9.98051 8.09014C9.89633 8.09014 9.81303 8.10727 9.73569 8.14049C9.65834 8.1737 9.58856 8.22231 9.53059 8.28335L4.72155 13.2668C4.66364 13.3278 4.59391 13.3764 4.51662 13.4096C4.43932 13.4428 4.35608 13.4599 4.27195 13.4599C4.18783 13.4599 4.10458 13.4428 4.02729 13.4096C3.94999 13.3764 3.88026 13.3278 3.82236 13.2668Z" fill="#8750BF"/>
</svg>
