<svg width="44" height="44" viewBox="0 0 44 44" fill="none" xmlns="http://www.w3.org/2000/svg">
<rect width="44" height="44" rx="22" fill="white"/>
<rect x="0.5" y="0.5" width="43" height="43" rx="21.5" stroke="black" stroke-opacity="0.2"/>
<path fill-rule="evenodd" clip-rule="evenodd" d="M22 8C14.268 8 8 14.268 8 22C8 29.732 14.268 36 22 36C29.732 36 36 29.732 36 22C36 14.268 29.732 8 22 8ZM31.0998 20.9051C31.0998 22.6273 30.3758 24.2121 29.1615 25.4702C27.8566 27.0421 24.4934 29.3007 22.968 30.2376C22.2971 30.6682 20.9957 31.3137 21.1572 30.4507C21.1771 30.3331 21.1951 30.2266 21.2114 30.13C21.3337 29.4075 21.3626 29.2364 21.3528 29.0676C21.3498 29.0152 21.343 28.963 21.3341 28.8947C21.3298 28.8612 21.3249 28.8239 21.3198 28.7808C21.2815 28.4609 20.8235 28.2862 20.5201 28.2202C16.1696 27.6555 12.8453 24.5954 12.8453 20.9051C12.8453 16.8136 16.9317 13.4968 21.9725 13.4968C27.0134 13.4968 31.0998 16.8136 31.0998 20.9051Z" fill="#1FC81F"/>
<rect x="19.2002" y="18.5391" width="1.4" height="4.9" rx="0.12" fill="#1FC81F"/>
<path fill-rule="evenodd" clip-rule="evenodd" d="M20.9004 18.9999C20.9004 18.9336 20.9541 18.8799 21.0204 18.8799H21.7682C21.827 18.8799 21.8759 18.9221 21.8862 18.9779L23.6909 21.4147V18.9999C23.6909 18.9336 23.7446 18.8799 23.8109 18.8799H24.5588C24.625 18.8799 24.6788 18.9336 24.6788 18.9999V23.0669C24.6788 23.1332 24.625 23.1869 24.5588 23.1869H23.8109C23.7473 23.1869 23.6953 23.1375 23.6912 23.0749L21.8882 20.6404V23.0669C21.8882 23.1332 21.8345 23.1869 21.7682 23.1869H21.0204C20.9541 23.1869 20.9004 23.1332 20.9004 23.0669V18.9999Z" fill="#1FC81F"/>
<path fill-rule="evenodd" clip-rule="evenodd" d="M15.953 18.8799C15.8867 18.8799 15.833 18.9336 15.833 18.9999V23.0669C15.833 23.1332 15.8867 23.1869 15.953 23.1869H16.7009C16.704 23.1869 16.7072 23.1868 16.7103 23.1865L18.6209 23.1865C18.6872 23.1865 18.7409 23.1328 18.7409 23.0665V22.3187C18.7409 22.2524 18.6872 22.1987 18.6209 22.1987L16.8209 22.1987V18.9999C16.8209 18.9336 16.7671 18.8799 16.7009 18.8799H15.953Z" fill="#1FC81F"/>
<path fill-rule="evenodd" clip-rule="evenodd" d="M25.4218 18.8799C25.3555 18.8799 25.3018 18.9336 25.3018 18.9999V23.0669C25.3018 23.1332 25.3555 23.1869 25.4218 23.1869H26.1696C26.1728 23.1869 26.1759 23.1868 26.179 23.1865H28.0897C28.1559 23.1865 28.2097 23.1328 28.2097 23.0665V22.3187C28.2097 22.2524 28.1559 22.1987 28.0897 22.1987L26.2896 22.1987V21.5388H28.0897C28.1559 21.5388 28.2097 21.4851 28.2097 21.4188V20.671C28.2097 20.6047 28.1559 20.551 28.0897 20.551L26.2896 20.551V19.8677L28.0897 19.8677C28.1559 19.8677 28.2097 19.814 28.2097 19.7477V18.9999C28.2097 18.9336 28.1559 18.8799 28.0897 18.8799H26.1696H25.422H25.4218Z" fill="#1FC81F"/>
</svg>
