<svg width="62" height="62" viewBox="0 0 62 62" fill="none" xmlns="http://www.w3.org/2000/svg">
<path d="M31 0.923033C47.611 0.923034 61.0769 14.3889 61.0769 31C61.0769 47.611 47.611 61.0769 31 61.0769C14.3889 61.0769 0.923033 47.611 0.923033 31C0.923034 14.3889 14.3889 0.923033 31 0.923033Z" fill="#8750BF"/>
<path d="M33.1743 37.8299V41.3449M32.0363 39.9695H34.3517M38.3545 35.7668H39.885M39.1786 34.5442V36.1488V37.4096M37.8836 20.5988V21.3247M28.4651 27.3996H29.3677" stroke="white" stroke-width="0.707977" stroke-linecap="round"/>
<path d="M30.3103 22.1993H32.7929" stroke="white" stroke-width="0.707977" stroke-linecap="round"/>
<path d="M9.33948 26.2523C8.93791 25.9319 7.93268 25.6065 7.12436 26.8673C6.11396 28.4433 3.85998 33.7863 5.49217 35.5545C6.79792 36.9691 9.27469 33.7607 10.3499 31.9797C10.4794 31.5184 10.3965 30.6881 9.02856 31.0571C7.31864 31.5184 10.4276 30.9418 10.5442 30.8649C10.6607 30.7881 10.2333 34.2476 11.2048 33.4404C11.982 32.7946 12.4613 31.4543 12.6038 30.8649C12.5391 31.4928 12.6116 32.6946 13.4199 32.4794C14.2282 32.2641 14.793 30.6471 14.9744 29.8655C15.0262 33.5044 14.9588 40.959 14.2749 41.6663C13.5909 42.3736 12.8759 41.7816 12.6038 41.3972C12.3188 40.8463 12.1453 39.1755 13.7308 36.8999C15.3164 34.6243 17.345 32.2359 18.161 31.3262M19.871 29.2121C19.4694 29.2633 18.5963 29.6656 18.3165 30.8649C18.0367 32.0642 18.6922 32.2359 19.0549 32.1719C19.5601 32.0566 20.5627 31.9874 20.5316 32.6331C20.5005 33.2789 19.2492 34.5167 18.6274 35.0548C18.2647 35.2342 17.6248 35.37 17.9667 34.4782C18.3942 33.3635 23.4462 32.1719 24.8064 26.8673C23.9514 29.4683 22.498 35.0317 23.524 36.477C23.9255 36.6564 25.2339 36.3002 27.2547 33.4404M30.1304 31.0571C29.9232 30.5318 29.2833 29.8502 28.3817 31.3262C27.4801 32.8023 27.5397 33.7607 27.6822 34.0554C27.7469 34.2988 28.1019 34.5705 29.0035 33.7094C29.905 32.8484 30.3895 31.5825 30.5191 31.0571C29.8066 32.5435 28.7314 35.3085 30.1304 34.4782C31.8792 33.4404 36.0763 24.4841 35.882 22.6774C35.6877 20.8708 29.703 33.7094 32.3067 34.4782C32.9933 34.5295 34.6384 34.14 35.7265 32.1719M36.5038 29.2121C37.9805 28.7636 41.0117 26.9442 41.3226 23.254C41.2319 22.9721 40.9107 22.6621 40.3511 23.6769C39.6516 24.9453 37.2033 30.0962 36.8535 33.7094C37.3069 31.6337 38.408 27.8975 39.1852 29.558C39.4184 29.558 38.6412 32.441 39.1852 32.9407C39.6205 33.3404 42.061 31.0571 43.2268 29.8655C42.9159 29.3867 42.0998 28.8317 41.3226 30.4421C40.5454 32.0526 41.4392 32.5738 41.9833 32.6331C42.4366 32.4409 43.3667 31.6183 43.46 29.8655C43.4211 30.2499 43.5144 30.9034 44.1984 30.4421C45.0533 29.8655 48.4343 26.9826 48.7452 23.0618C48.7452 22.8056 48.6597 22.4468 48.3177 23.0618C47.8902 23.8306 45.0533 28.943 45.4419 32.3256C45.8306 35.7083 48.7841 31.6337 49.4058 29.8655C48.8877 30.9931 48.069 33.1867 48.9395 32.9407C49.81 32.6946 50.9085 30.3524 51.3489 29.2121C50.6235 30.5318 49.6235 33.0867 51.4266 32.7485C53.2298 32.4102 55.3128 28.9943 56.1289 27.3286M49.4058 28.3664L50.1442 29.2121M21.3866 29.8655C22.5783 29.9296 25.2339 29.8886 26.322 29.2121" stroke="white" stroke-width="0.975378" stroke-linecap="round"/>
<path d="M25.496 38C26.1566 43.3944 29.3241 50.0461 44 49.1185C37.5463 51.7905 22.9111 53.6659 16 39.7918" stroke="white" stroke-linecap="round"/>
<path d="M14 27C15.7882 19.381 24.2917 5.91328 44 12.9943C39.3125 11.5364 30.3995 11.0845 25.2745 25.7879" stroke="white" stroke-linecap="round"/>
<path d="M31.7009 20.4311V23.9552" stroke="white" stroke-width="0.702707" stroke-linecap="round"/>
</svg>
