<svg width="182" height="48" viewBox="0 0 182 48" fill="none" xmlns="http://www.w3.org/2000/svg">
<path d="M65.4387 17.2312C66.1387 17.2312 66.7887 17.325 67.3887 17.5125C68.0012 17.7 68.5825 17.9812 69.1325 18.3562H69.1512L69.1137 17.3437H70.1262L69.9012 21.675H69.2262C69.1637 20.5 68.8012 19.5937 68.1387 18.9562C67.4762 18.3187 66.6012 18 65.5137 18C64.8512 18 64.22 18.1437 63.62 18.4312C63.0325 18.7062 62.5012 19.1062 62.0262 19.6313C61.5637 20.1562 61.1887 20.7875 60.9012 21.525C60.6262 22.2625 60.4637 23.0937 60.4137 24.0187C60.3512 25.1937 60.52 26.2312 60.92 27.1312C61.3325 28.0312 61.9012 28.7312 62.6262 29.2312C63.3637 29.7312 64.195 29.9812 65.12 29.9812C65.9325 29.9812 66.7387 29.8062 67.5387 29.4562C68.3387 29.0937 69.0075 28.5687 69.545 27.8812L70.0137 28.275C69.4387 29 68.8262 29.5562 68.1762 29.9437C67.5262 30.3312 66.8887 30.5937 66.2637 30.7313C65.6512 30.8813 65.0887 30.9563 64.5762 30.9563C63.6387 30.9563 62.795 30.7875 62.045 30.45C61.295 30.1125 60.6575 29.6437 60.1325 29.0437C59.6075 28.4312 59.2137 27.725 58.9512 26.925C58.7012 26.1125 58.6012 25.2375 58.6512 24.3C58.7012 23.4125 58.8762 22.55 59.1762 21.7125C59.4762 20.875 59.9075 20.1187 60.47 19.4437C61.0325 18.7687 61.7262 18.2312 62.5512 17.8312C63.3887 17.4312 64.3512 17.2312 65.4387 17.2312ZM74.3365 30.6562C74.324 30.5687 74.3177 30.4937 74.3177 30.4312C74.3177 30.3562 74.3177 30.2687 74.3177 30.1687C74.3177 29.9562 74.324 29.7062 74.3365 29.4188C74.349 29.1187 74.374 28.725 74.4115 28.2375C74.4615 27.75 74.5302 27.1125 74.6177 26.325C74.7052 25.5125 74.774 24.9 74.824 24.4875C74.874 24.075 74.9115 23.775 74.9365 23.5875C74.9615 23.3875 74.974 23.225 74.974 23.1C74.9865 22.85 74.9677 22.6062 74.9177 22.3687C74.8802 22.1312 74.7302 22.0125 74.4677 22.0125C74.2677 22.0125 74.0365 22.15 73.774 22.425C73.5115 22.7 73.2865 23.1687 73.099 23.8312L72.574 23.7187C72.6115 23.4937 72.6865 23.2375 72.799 22.95C72.924 22.65 73.0865 22.3562 73.2865 22.0687C73.4865 21.7812 73.7302 21.5437 74.0177 21.3562C74.3052 21.1687 74.6365 21.075 75.0115 21.075C75.574 21.075 75.949 21.2687 76.1365 21.6562C76.324 22.0437 76.4052 22.5625 76.3802 23.2125C76.3677 23.4875 76.3302 23.7937 76.2677 24.1312C76.2177 24.4562 76.1615 24.8 76.099 25.1625H76.1552C76.5177 24.075 76.8927 23.2375 77.2802 22.65C77.6802 22.0625 78.0802 21.6562 78.4802 21.4312C78.8927 21.1937 79.299 21.075 79.699 21.075C80.074 21.075 80.3865 21.175 80.6365 21.375C80.8865 21.5625 81.0115 21.825 81.0115 22.1625C81.0115 22.3875 80.9302 22.5937 80.7677 22.7812C80.6177 22.9687 80.4115 23.0625 80.149 23.0625C79.924 23.0625 79.7302 22.9937 79.5677 22.8562C79.4052 22.7187 79.3115 22.525 79.2865 22.275C78.9365 22.2 78.5927 22.3125 78.2552 22.6125C77.9302 22.9125 77.6177 23.3437 77.3177 23.9062C77.0302 24.4562 76.774 25.075 76.549 25.7625C76.3365 26.45 76.1677 27.15 76.0427 27.8625C75.9177 28.575 75.8552 29.2375 75.8552 29.85C75.8552 30.0375 75.8552 30.1812 75.8552 30.2812C75.8677 30.3687 75.8802 30.4937 75.8927 30.6562H74.3365ZM84.2885 35.7375C83.8635 35.7125 83.5198 35.5875 83.2573 35.3625C82.9948 35.15 82.8635 34.8813 82.8635 34.5563C82.8635 34.2688 82.951 34.05 83.126 33.9C83.301 33.7625 83.4698 33.6938 83.6323 33.6938C84.1948 33.6938 84.4635 34.0188 84.4385 34.6688C84.5135 34.7063 84.5823 34.7375 84.6448 34.7625C84.7073 34.7875 84.776 34.8 84.851 34.8C85.126 34.8125 85.4073 34.7125 85.6948 34.5C85.9948 34.2875 86.276 34.0188 86.5385 33.6938C86.8135 33.3813 87.051 33.0688 87.251 32.7563C87.4635 32.4563 87.6198 32.225 87.7198 32.0625C87.6073 31.3375 87.476 30.5937 87.326 29.8312C87.176 29.0562 87.001 28.2875 86.801 27.525C86.6135 26.75 86.401 26.0062 86.1635 25.2937C85.9385 24.5687 85.6948 23.8875 85.4323 23.25C85.3448 23.0375 85.2323 22.8187 85.0948 22.5937C84.9573 22.3687 84.7635 22.2687 84.5135 22.2937C84.276 22.3187 84.0948 22.5062 83.9698 22.8562C83.8573 23.2062 83.826 23.6687 83.876 24.2437L83.276 24.3187C83.2385 23.9812 83.2323 23.625 83.2573 23.25C83.2948 22.875 83.376 22.525 83.501 22.2C83.626 21.8625 83.8073 21.5937 84.0448 21.3937C84.2823 21.1812 84.5948 21.075 84.9823 21.075C85.4073 21.075 85.751 21.1875 86.0135 21.4125C86.2885 21.6375 86.5073 21.9125 86.6698 22.2375C86.8448 22.5625 86.9885 22.8812 87.101 23.1937C87.3385 23.8312 87.5698 24.5625 87.7948 25.3875C88.0198 26.2125 88.2135 27.0562 88.376 27.9187C88.551 28.7687 88.6823 29.5625 88.7698 30.3H88.8073C89.1573 29.6875 89.4948 29.0125 89.8198 28.275C90.1448 27.5375 90.4135 26.7875 90.626 26.025C90.8385 25.25 90.9448 24.525 90.9448 23.85C90.9448 23.5375 90.9135 23.2625 90.851 23.025C90.801 22.7875 90.7385 22.6187 90.6635 22.5187C90.6135 22.5562 90.5448 22.5875 90.4573 22.6125C90.3823 22.625 90.2948 22.6312 90.1948 22.6312C89.9698 22.6312 89.7885 22.5625 89.651 22.425C89.5135 22.275 89.4448 22.1 89.4448 21.9C89.4448 21.625 89.5323 21.4187 89.7073 21.2812C89.8948 21.1437 90.101 21.075 90.326 21.075C90.7135 21.075 91.0135 21.1937 91.226 21.4312C91.4385 21.6687 91.5885 21.9687 91.676 22.3312C91.776 22.6937 91.826 23.075 91.826 23.475C91.826 24.3 91.7073 25.1437 91.4698 26.0062C91.2323 26.8687 90.9198 27.7187 90.5323 28.5562C90.1573 29.3937 89.7573 30.2 89.3323 30.975C88.7073 32.1 88.1073 33.0188 87.5323 33.7313C86.9698 34.4438 86.4198 34.9563 85.8823 35.2688C85.3448 35.5938 84.8135 35.75 84.2885 35.7375ZM98.1573 30.8625C97.6573 30.8625 97.1761 30.7875 96.7136 30.6375C96.2511 30.475 95.8761 30.2437 95.5886 29.9437C95.3011 29.6437 95.1573 29.2812 95.1573 28.8562C95.1573 28.5812 95.2323 28.3625 95.3823 28.2C95.5448 28.025 95.7386 27.9375 95.9636 27.9375C96.2136 27.9375 96.4011 28.0187 96.5261 28.1813C96.6636 28.3437 96.7323 28.525 96.7323 28.725C96.7323 28.8125 96.7198 28.9062 96.6948 29.0062C96.6698 29.1062 96.6261 29.2062 96.5636 29.3062C96.6636 29.5812 96.8636 29.7937 97.1636 29.9437C97.4636 30.0937 97.7823 30.1687 98.1198 30.1687C98.7948 30.1687 99.3011 30.0125 99.6386 29.7C99.9761 29.3875 100.145 28.95 100.145 28.3875C100.145 28.05 100.026 27.75 99.7886 27.4875C99.5511 27.225 99.2511 26.9812 98.8886 26.7562C98.5261 26.5187 98.1511 26.2875 97.7636 26.0625C97.4011 25.8375 97.0511 25.6062 96.7136 25.3687C96.3886 25.1312 96.1198 24.8687 95.9073 24.5812C95.7073 24.2937 95.6073 23.9687 95.6073 23.6062C95.6073 23.1437 95.7448 22.725 96.0198 22.35C96.2948 21.9625 96.6761 21.6562 97.1636 21.4312C97.6511 21.1937 98.2136 21.075 98.8511 21.075C99.3261 21.075 99.7698 21.15 100.182 21.3C100.607 21.45 100.951 21.6625 101.214 21.9375C101.489 22.2125 101.626 22.5375 101.626 22.9125C101.626 23.175 101.551 23.3875 101.401 23.55C101.251 23.7 101.064 23.775 100.839 23.775C100.614 23.775 100.432 23.7 100.295 23.55C100.157 23.4 100.089 23.225 100.089 23.025C100.089 22.925 100.101 22.8312 100.126 22.7437C100.151 22.6437 100.195 22.5437 100.257 22.4437C100.195 22.2312 100.039 22.0562 99.7886 21.9187C99.5511 21.7687 99.2198 21.6937 98.7948 21.6937C98.5198 21.6937 98.2511 21.7562 97.9886 21.8812C97.7261 22.0062 97.5073 22.1812 97.3323 22.4062C97.1573 22.6187 97.0698 22.875 97.0698 23.175C97.0698 23.4125 97.1386 23.6312 97.2761 23.8312C97.4261 24.0312 97.6198 24.2187 97.8573 24.3937C98.0948 24.5687 98.3511 24.7437 98.6261 24.9187C99.0761 25.1812 99.5386 25.4625 100.014 25.7625C100.489 26.05 100.882 26.3812 101.195 26.7562C101.52 27.1312 101.682 27.5875 101.682 28.125C101.682 28.65 101.532 29.1187 101.232 29.5312C100.945 29.9437 100.532 30.2687 99.9948 30.5062C99.4698 30.7438 98.8573 30.8625 98.1573 30.8625ZM108.559 18.6375L108.221 21.2812H111.202L111.146 21.9937L108.146 22.0312C108.096 22.5562 108.034 23.1 107.959 23.6625C107.896 24.2125 107.84 24.7625 107.79 25.3125C107.74 25.8625 107.696 26.3937 107.659 26.9062C107.621 27.4062 107.602 27.8625 107.602 28.275C107.602 28.5125 107.615 28.7625 107.64 29.025C107.677 29.275 107.759 29.4875 107.884 29.6625C108.009 29.825 108.209 29.9062 108.484 29.9062C108.609 29.9062 108.759 29.8812 108.934 29.8312C109.121 29.7812 109.327 29.6625 109.552 29.475C109.777 29.2875 110.009 28.9937 110.246 28.5937L110.734 28.9125C110.371 29.55 109.977 30.0375 109.552 30.375C109.14 30.7 108.634 30.8625 108.034 30.8625C107.546 30.8625 107.159 30.7625 106.871 30.5625C106.596 30.35 106.396 30.075 106.271 29.7375C106.146 29.4 106.084 29.0375 106.084 28.65C106.084 28.175 106.102 27.6 106.14 26.925C106.177 26.2375 106.234 25.4812 106.309 24.6562C106.384 23.8187 106.471 22.95 106.571 22.05L104.902 22.0687L104.959 21.2812C105.821 21.2812 106.459 21.05 106.871 20.5875C107.284 20.125 107.609 19.475 107.846 18.6375H108.559ZM119.363 21.075C119.738 21.075 120.151 21.1062 120.601 21.1687C121.051 21.2187 121.476 21.2937 121.876 21.3937C121.776 22.1437 121.676 22.8937 121.576 23.6437C121.488 24.3812 121.401 25.0875 121.313 25.7625C121.238 26.425 121.176 27.025 121.126 27.5625C121.076 28.0875 121.051 28.5 121.051 28.8C121.051 29.05 121.07 29.3 121.107 29.55C121.145 29.8 121.301 29.925 121.576 29.925C121.788 29.925 122.02 29.7875 122.27 29.5125C122.532 29.2375 122.757 28.7687 122.945 28.1062L123.47 28.2187C123.432 28.4437 123.351 28.7062 123.226 29.0062C123.113 29.2937 122.957 29.5812 122.757 29.8687C122.557 30.1562 122.313 30.3937 122.026 30.5812C121.738 30.7688 121.407 30.8625 121.032 30.8625C120.532 30.8625 120.176 30.7063 119.963 30.3937C119.751 30.0812 119.645 29.675 119.645 29.175C119.645 28.8125 119.676 28.4187 119.738 27.9937C119.813 27.5687 119.895 27.125 119.982 26.6625H119.926C119.626 27.5875 119.313 28.3312 118.988 28.8937C118.676 29.4437 118.357 29.8625 118.032 30.15C117.72 30.4375 117.413 30.625 117.113 30.7125C116.813 30.8125 116.532 30.8625 116.27 30.8625C115.595 30.8625 115.026 30.6125 114.563 30.1125C114.113 29.6125 113.888 28.775 113.888 27.6C113.888 26.725 114.001 25.8937 114.226 25.1062C114.451 24.3187 114.788 23.625 115.238 23.025C115.701 22.4125 116.276 21.9375 116.963 21.6C117.651 21.25 118.451 21.075 119.363 21.075ZM118.782 21.75C118.22 21.75 117.726 21.9062 117.301 22.2187C116.888 22.5312 116.545 22.9562 116.27 23.4937C115.995 24.0187 115.788 24.6125 115.651 25.275C115.526 25.925 115.463 26.5937 115.463 27.2812C115.463 28.0812 115.551 28.7437 115.726 29.2687C115.901 29.7812 116.22 30.0375 116.682 30.0375C117.02 30.0375 117.357 29.8687 117.695 29.5312C118.045 29.1937 118.37 28.7437 118.67 28.1813C118.97 27.6062 119.238 26.9687 119.476 26.2687C119.713 25.5562 119.901 24.8312 120.038 24.0937C120.176 23.3562 120.245 22.65 120.245 21.975C120.057 21.9 119.838 21.8437 119.588 21.8062C119.338 21.7687 119.07 21.75 118.782 21.75ZM129.354 16.5C129.317 16.8125 129.261 17.1625 129.186 17.55C129.123 17.9375 129.061 18.3187 128.998 18.6937C128.948 19.0687 128.904 19.4 128.867 19.6875C128.792 20.2125 128.717 20.8125 128.642 21.4875C128.567 22.15 128.492 22.8437 128.417 23.5687C128.342 24.2812 128.273 24.9812 128.211 25.6687C128.161 26.3562 128.117 26.9875 128.079 27.5625C128.042 28.125 128.023 28.5875 128.023 28.95C128.023 29.1875 128.048 29.4125 128.098 29.625C128.148 29.825 128.292 29.925 128.529 29.925C128.742 29.925 128.973 29.7937 129.223 29.5312C129.486 29.2562 129.711 28.7812 129.898 28.1062L130.423 28.2375C130.386 28.45 130.304 28.7062 130.179 29.0062C130.067 29.3062 129.911 29.6 129.711 29.8875C129.511 30.1625 129.267 30.3937 128.979 30.5812C128.704 30.7688 128.379 30.8625 128.004 30.8625C127.492 30.8625 127.117 30.7375 126.879 30.4875C126.642 30.225 126.517 29.8437 126.504 29.3437C126.492 29.0312 126.504 28.5687 126.542 27.9562C126.592 27.3437 126.648 26.65 126.711 25.875C126.786 25.0875 126.867 24.2687 126.954 23.4187C127.042 22.5562 127.136 21.7187 127.236 20.9062C127.336 20.0937 127.429 19.3562 127.517 18.6937C127.579 18.3562 127.617 18.1375 127.629 18.0375C127.654 17.925 127.673 17.8062 127.686 17.6812C127.461 17.6937 127.236 17.7062 127.011 17.7187C126.798 17.7312 126.579 17.7437 126.354 17.7562L126.448 17.0062C126.998 17.0062 127.423 16.9812 127.723 16.9312C128.036 16.8812 128.273 16.8187 128.436 16.7437C128.598 16.6687 128.729 16.5875 128.829 16.5H129.354ZM140.627 30.8625C140.039 30.8625 139.639 30.7063 139.427 30.3937C139.214 30.0812 139.108 29.6375 139.108 29.0625C139.108 28.7125 139.133 28.3 139.183 27.825C139.246 27.3375 139.308 26.825 139.371 26.2875C139.446 25.75 139.508 25.2062 139.558 24.6562C139.621 24.1062 139.652 23.5875 139.652 23.1C139.652 22.95 139.627 22.7875 139.577 22.6125C139.527 22.4375 139.439 22.2875 139.314 22.1625C139.189 22.025 139.002 21.9562 138.752 21.9562C138.414 21.9562 138.077 22.1125 137.739 22.425C137.402 22.725 137.077 23.1375 136.764 23.6625C136.464 24.1875 136.189 24.7875 135.939 25.4625C135.702 26.125 135.514 26.8187 135.377 27.5437C135.239 28.2562 135.171 28.9625 135.171 29.6625C135.171 29.85 135.171 30.025 135.171 30.1875C135.183 30.3375 135.196 30.4937 135.208 30.6562H133.671C133.658 30.5687 133.652 30.4937 133.652 30.4312C133.652 30.3562 133.652 30.2687 133.652 30.1687C133.652 29.8312 133.671 29.3125 133.708 28.6125C133.746 27.9125 133.796 27.1187 133.858 26.2312C133.921 25.3312 133.989 24.4125 134.064 23.475C134.152 22.5375 134.239 21.65 134.327 20.8125C134.414 19.9625 134.502 19.25 134.589 18.675C134.639 18.35 134.671 18.1437 134.683 18.0562C134.708 17.9687 134.733 17.8437 134.758 17.6812L133.446 17.7562L133.521 17.0062C134.071 17.0062 134.496 16.9812 134.796 16.9312C135.108 16.8812 135.346 16.8187 135.508 16.7437C135.671 16.6687 135.802 16.5875 135.902 16.5H136.446C136.396 16.8125 136.339 17.1625 136.277 17.55C136.214 17.9375 136.152 18.3187 136.089 18.6937C136.027 19.0687 135.977 19.4 135.939 19.6875C135.902 20 135.852 20.4062 135.789 20.9062C135.739 21.3937 135.683 21.9125 135.621 22.4625C135.571 23 135.521 23.5187 135.471 24.0187C135.433 24.5187 135.402 24.9312 135.377 25.2562H135.433C135.858 24.1187 136.277 23.25 136.689 22.65C137.102 22.05 137.508 21.6375 137.908 21.4125C138.321 21.1875 138.727 21.075 139.127 21.075C139.877 21.075 140.408 21.3187 140.721 21.8062C141.033 22.2812 141.189 22.85 141.189 23.5125C141.189 24.2 141.146 24.9062 141.058 25.6312C140.971 26.3437 140.883 27.0062 140.796 27.6187C140.708 28.2187 140.664 28.7 140.664 29.0625C140.664 29.2875 140.689 29.4875 140.739 29.6625C140.802 29.8375 140.946 29.925 141.171 29.925C141.383 29.925 141.614 29.7937 141.864 29.5312C142.127 29.2562 142.352 28.7812 142.539 28.1062L143.008 28.2375C142.971 28.45 142.896 28.7062 142.783 29.0062C142.671 29.3062 142.514 29.6 142.314 29.8875C142.127 30.1625 141.889 30.3937 141.602 30.5812C141.327 30.7688 141.002 30.8625 140.627 30.8625ZM150.494 21.075C151.169 21.075 151.776 21.2375 152.313 21.5625C152.851 21.875 153.276 22.3375 153.588 22.95C153.901 23.5625 154.057 24.3062 154.057 25.1812C154.057 26.1812 153.876 27.1187 153.513 27.9937C153.151 28.8562 152.626 29.55 151.938 30.075C151.263 30.6 150.438 30.8625 149.463 30.8625C148.638 30.8625 147.957 30.675 147.419 30.3C146.894 29.925 146.501 29.4187 146.238 28.7812C145.988 28.1437 145.863 27.4375 145.863 26.6625C145.863 25.65 146.044 24.7187 146.407 23.8687C146.782 23.0187 147.313 22.3437 148.001 21.8437C148.701 21.3312 149.532 21.075 150.494 21.075ZM150.213 21.7687C149.663 21.7562 149.188 21.9437 148.788 22.3312C148.388 22.7062 148.076 23.2187 147.851 23.8687C147.638 24.5187 147.526 25.2437 147.513 26.0437C147.501 26.4687 147.526 26.9187 147.588 27.3937C147.651 27.8687 147.757 28.3125 147.907 28.725C148.069 29.1375 148.288 29.475 148.563 29.7375C148.851 30 149.207 30.1375 149.632 30.15C150.132 30.1625 150.557 30.0312 150.907 29.7562C151.257 29.4687 151.538 29.1 151.751 28.65C151.963 28.2 152.119 27.7187 152.219 27.2062C152.332 26.6937 152.394 26.2125 152.407 25.7625C152.419 25.325 152.394 24.875 152.332 24.4125C152.282 23.95 152.176 23.5187 152.013 23.1187C151.851 22.7187 151.626 22.4 151.338 22.1625C151.051 21.9125 150.676 21.7812 150.213 21.7687ZM160.797 16.5C160.76 16.8125 160.704 17.1625 160.629 17.55C160.566 17.9375 160.504 18.3187 160.441 18.6937C160.391 19.0687 160.347 19.4 160.31 19.6875C160.235 20.2125 160.16 20.8125 160.085 21.4875C160.01 22.15 159.935 22.8437 159.86 23.5687C159.785 24.2812 159.716 24.9812 159.654 25.6687C159.604 26.3562 159.56 26.9875 159.522 27.5625C159.485 28.125 159.466 28.5875 159.466 28.95C159.466 29.1875 159.491 29.4125 159.541 29.625C159.591 29.825 159.735 29.925 159.972 29.925C160.185 29.925 160.416 29.7937 160.666 29.5312C160.929 29.2562 161.154 28.7812 161.341 28.1062L161.866 28.2375C161.829 28.45 161.747 28.7062 161.622 29.0062C161.51 29.3062 161.354 29.6 161.154 29.8875C160.954 30.1625 160.71 30.3937 160.422 30.5812C160.147 30.7688 159.822 30.8625 159.447 30.8625C158.935 30.8625 158.56 30.7375 158.322 30.4875C158.085 30.225 157.96 29.8437 157.947 29.3437C157.935 29.0312 157.947 28.5687 157.985 27.9562C158.035 27.3437 158.091 26.65 158.154 25.875C158.229 25.0875 158.31 24.2687 158.397 23.4187C158.485 22.5562 158.579 21.7187 158.679 20.9062C158.779 20.0937 158.872 19.3562 158.96 18.6937C159.022 18.3562 159.06 18.1375 159.072 18.0375C159.097 17.925 159.116 17.8062 159.129 17.6812C158.904 17.6937 158.679 17.7062 158.454 17.7187C158.241 17.7312 158.022 17.7437 157.797 17.7562L157.891 17.0062C158.441 17.0062 158.866 16.9812 159.166 16.9312C159.479 16.8812 159.716 16.8187 159.879 16.7437C160.041 16.6687 160.172 16.5875 160.272 16.5H160.797ZM166.464 21.075C166.989 21.075 167.382 21.2562 167.645 21.6187C167.907 21.9687 168.039 22.4375 168.039 23.025C168.039 23.4 168.001 23.8312 167.926 24.3187C167.864 24.7937 167.782 25.3062 167.682 25.8562C167.582 26.4062 167.495 26.9625 167.42 27.525C167.357 28.075 167.326 28.6125 167.326 29.1375C167.326 29.3875 167.37 29.5812 167.457 29.7187C167.557 29.8562 167.707 29.925 167.907 29.925C168.12 29.925 168.351 29.7875 168.601 29.5125C168.864 29.2375 169.089 28.7687 169.276 28.1062L169.801 28.2187C169.751 28.4812 169.664 28.7687 169.539 29.0812C169.426 29.3812 169.276 29.6687 169.089 29.9437C168.901 30.2062 168.67 30.425 168.395 30.6C168.132 30.775 167.826 30.8625 167.476 30.8625C166.901 30.8625 166.476 30.7125 166.201 30.4125C165.926 30.1125 165.789 29.675 165.789 29.1C165.789 28.55 165.826 28.0187 165.901 27.5062C165.976 26.9812 166.057 26.4687 166.145 25.9688C166.245 25.4562 166.332 24.9437 166.407 24.4312C166.482 23.9187 166.52 23.3937 166.52 22.8562C166.52 22.6937 166.482 22.5125 166.407 22.3125C166.345 22.1125 166.207 22.0125 165.995 22.0125C165.795 22.0125 165.564 22.15 165.301 22.425C165.039 22.7 164.814 23.1687 164.626 23.8312L164.101 23.7187C164.139 23.4937 164.214 23.2375 164.326 22.95C164.439 22.65 164.589 22.3562 164.776 22.0687C164.976 21.7812 165.214 21.5437 165.489 21.3562C165.764 21.1687 166.089 21.075 166.464 21.075ZM167.532 17.025C167.82 17.025 168.057 17.125 168.245 17.325C168.432 17.5125 168.526 17.7687 168.526 18.0937C168.526 18.4062 168.426 18.6625 168.226 18.8625C168.026 19.05 167.789 19.1437 167.514 19.1437C167.239 19.1437 167.001 19.05 166.801 18.8625C166.614 18.6625 166.52 18.4062 166.52 18.0937C166.52 17.7687 166.62 17.5125 166.82 17.325C167.02 17.125 167.257 17.025 167.532 17.025ZM177.136 21.075C177.674 21.075 178.155 21.175 178.58 21.375C179.005 21.5625 179.336 21.825 179.574 22.1625C179.824 22.4875 179.949 22.8562 179.949 23.2687C179.949 23.5437 179.88 23.7687 179.743 23.9437C179.605 24.1062 179.411 24.1875 179.161 24.1875C178.861 24.2 178.649 24.1125 178.524 23.925C178.411 23.7375 178.355 23.575 178.355 23.4375C178.355 23.325 178.368 23.2062 178.393 23.0812C178.43 22.9562 178.499 22.8375 178.599 22.725C178.536 22.375 178.361 22.125 178.074 21.975C177.799 21.8125 177.48 21.7312 177.118 21.7312C176.58 21.7312 176.13 21.875 175.768 22.1625C175.405 22.45 175.118 22.825 174.905 23.2875C174.693 23.75 174.536 24.25 174.436 24.7875C174.349 25.3125 174.305 25.825 174.305 26.325C174.305 27.2 174.399 27.9062 174.586 28.4437C174.786 28.9687 175.061 29.35 175.411 29.5875C175.761 29.825 176.155 29.9437 176.593 29.9437C176.918 29.9437 177.255 29.875 177.605 29.7375C177.955 29.5875 178.293 29.3437 178.618 29.0062C178.943 28.6562 179.224 28.1812 179.461 27.5812L180.118 27.9C179.805 28.625 179.443 29.2062 179.03 29.6437C178.618 30.0687 178.174 30.3812 177.699 30.5812C177.236 30.7688 176.761 30.8625 176.274 30.8625C175.174 30.8625 174.293 30.5312 173.63 29.8687C172.98 29.1937 172.655 28.1562 172.655 26.7562C172.655 26.1437 172.743 25.5062 172.918 24.8437C173.093 24.1812 173.361 23.5687 173.724 23.0062C174.086 22.4312 174.549 21.9687 175.111 21.6187C175.686 21.2562 176.361 21.075 177.136 21.075Z" fill="white"/>
<path d="M26.0915 30.4587V33.1128M25.2481 32.0743H26.964M29.9305 28.9009H31.0648M30.5413 27.9778V29.1894V30.1414M29.5815 17.448V17.9961M22.6016 22.5831H23.2705" stroke="white" stroke-width="0.525665" stroke-linecap="round"/>
<path d="M23.969 18.6565H25.8088" stroke="white" stroke-width="0.525665" stroke-linecap="round"/>
<path d="M8.42785 20.9616C8.13025 20.7198 7.38529 20.474 6.78625 21.426C6.03745 22.616 4.36704 26.6504 5.57664 27.9855C6.54433 29.0536 8.37983 26.631 9.17663 25.2863C9.27263 24.938 9.21119 24.311 8.19743 24.5897C6.93023 24.938 9.23423 24.5026 9.32063 24.4445C9.40703 24.3865 9.09023 26.9987 9.81023 26.3892C10.3862 25.9016 10.7414 24.8896 10.847 24.4445C10.799 24.9186 10.8528 25.8261 11.4518 25.6636C12.0509 25.501 12.4694 24.2801 12.6038 23.6899C12.6422 26.4376 12.5923 32.0663 12.0854 32.6004C11.5785 33.1344 11.0486 32.6874 10.847 32.3972C10.6358 31.9812 10.5072 30.7196 11.6822 29.0014C12.8573 27.2831 14.3606 25.4797 14.9654 24.7928M16.2326 23.1965C15.935 23.2352 15.288 23.539 15.0806 24.4445C14.8733 25.3501 15.359 25.4797 15.6278 25.4314C16.0022 25.3443 16.7453 25.2921 16.7222 25.7797C16.6992 26.2673 15.7718 27.2019 15.311 27.6082C15.0422 27.7436 14.568 27.8462 14.8214 27.1728C15.1382 26.3311 18.8822 25.4314 19.8902 21.426C19.2566 23.39 18.1795 27.5908 18.9398 28.6821C19.2374 28.8175 20.207 28.5486 21.7046 26.3892M23.8358 24.5897C23.6822 24.193 23.208 23.6783 22.5398 24.7928C21.8717 25.9074 21.9158 26.631 22.0214 26.8536C22.0694 27.0374 22.3325 27.2425 23.0006 26.5923C23.6688 25.9422 24.0278 24.9863 24.1238 24.5897C23.5958 25.7119 22.799 27.7998 23.8358 27.1728C25.1318 26.3892 28.2422 19.6265 28.0982 18.2624C27.9542 16.8982 23.519 26.5923 25.4486 27.1728C25.9574 27.2115 27.1766 26.9174 27.983 25.4314M28.559 23.1965C29.6534 22.8579 31.8998 21.4841 32.1302 18.6977C32.063 18.4849 31.825 18.2508 31.4102 19.017C30.8918 19.9748 29.0774 23.8641 28.8182 26.5923C29.1542 25.025 29.9702 22.2039 30.5462 23.4577C30.719 23.4577 30.143 25.6346 30.5462 26.0119C30.8688 26.3137 32.6774 24.5897 33.5414 23.6899C33.311 23.3284 32.7062 22.9093 32.1302 24.1253C31.5542 25.3413 32.2166 25.7349 32.6198 25.7797C32.9558 25.6345 33.6451 25.0134 33.7142 23.6899C33.6854 23.9802 33.7546 24.4736 34.2614 24.1253C34.895 23.6899 37.4006 21.5131 37.631 18.5526C37.631 18.3591 37.5677 18.0882 37.3142 18.5526C36.9974 19.1331 34.895 22.9933 35.183 25.5475C35.471 28.1016 37.6598 25.025 38.1206 23.6899C37.7366 24.5413 37.1299 26.1976 37.775 26.0119C38.4202 25.8261 39.2342 24.0576 39.5606 23.1965C39.023 24.193 38.2819 26.1222 39.6182 25.8667C40.9546 25.6113 42.4982 23.032 43.103 21.7743M38.1206 22.558L38.6678 23.1965M17.3558 23.6899C18.239 23.7383 20.207 23.7073 21.0134 23.1965" stroke="white" stroke-width="0.724207" stroke-linecap="round"/>
<path d="M19.8357 28.6603C20.1803 31.5062 21.8328 35.0155 29.489 34.5261C26.1222 35.9358 18.4872 36.9252 14.8817 29.6056" stroke="white" stroke-width="1.08631" stroke-linecap="round"/>
<path d="M14.1105 22.8873C15.0185 19.0077 19.3366 12.1498 29.3445 15.7555C26.9642 15.0131 22.4382 14.783 19.8357 22.2701" stroke="white" stroke-width="1.08631" stroke-linecap="round"/>
<path d="M24.9996 17.3214V19.9823" stroke="white" stroke-width="0.521752" stroke-linecap="round"/>
<path d="M31.9145 16.1777L36.615 11.5294M33.2985 17.5879L39.9577 12.2084M27.5273 13.5141L28.4413 11.2421M28.7285 10.5371L29.8253 7.66448M30.0342 7.11608L30.6871 5.44477M24.7853 12.9657L25.2031 7.45557M25.4381 4.37408L25.2814 6.72437M17.0032 14.9765L13.9217 11.2421M13.4255 10.5371L12.5246 9.32274L11.6237 8.10843M22.1738 12.9657L21.9127 10.8765M21.8082 10.2237L21.2598 5.8626M21.1554 5.23586L21.0509 4.47854M11.4147 10.8765L16.0892 15.6816M38.0252 11.2421L35.6619 13.4619L33.2985 15.6816M34.1864 18.9981L39.9577 15.8905M42.5169 16.4128L38.208 18.2669M37.8163 20.9044L43.5614 19.3115M37.973 27.6419L44.0315 28.6604M34.6565 30.1228L42.2557 34.1444M32.8023 35.5284L37.294 40.6207M29.1986 35.894L31.7055 40.6207M32.0189 41.3519L33.1418 43.4933M31.1571 35.894L34.6565 40.9863M28.1279 37.487L30.2693 43.2844M27.3183 39.2628L28.833 45.0863M25.2553 37.0953L26.0387 42.5532M26.1432 43.2844L26.5349 45.5563M21.8082 37.0953L21.0509 42.5532M20.9465 43.4149L20.6592 45.5563M19.9541 37.6959L17.9172 44.0417M14.7835 43.7544L18.7006 35.894M13.8695 38.6883L16.7943 34.9539M13.3472 39.2628L11.467 41.8481M6.45432 36.895C6.8714 36.6083 10.5556 34.0189 11.467 33.3087M13.1383 32.1075L13.6606 31.6635M5.09509 34.2227L10.0829 31.8724M3.71103 30.6189L10.7619 29.2349M8.30715 27.8508L11.8065 27.4852M3.26709 21.8445L5.6696 22.2363M7.21035 22.5496L11.8065 23.2025M5.6696 14.9765L11.9893 18.4758M10.3441 13.5141L14.4962 17.0917M11.9893 21.2961L9.03835 20.5649M7.21035 20.0949L3.86772 19.207" stroke="white" stroke-width="0.179888" stroke-linecap="round" stroke-dasharray="0.31 0.31"/>
<path d="M29.834 14.5531L34.9002 7.58054M31.0614 15.3365L36.9893 9.09517M32.8111 6.30094L28.7633 13.9785M27.6665 4.60352L27.092 8.07672M26.9876 8.72957L26.2041 13.2473M17.5472 5.28653L20.2776 13.2473M9.43876 10.0614L14.0088 14.5531M14.4788 14.9709L15.6017 16.0416M14.0088 17.7651L10.5356 15.3365M9.98716 14.9709L6.93178 12.934M12.5725 20.1154L4.79041 17.0203M33.7773 18.3396L40.9326 13.404M34.9002 20.5332L35.7881 20.1154M38.2689 19.0969C38.4779 19.0552 41.4375 17.8957 42.8912 17.3212M35.7881 23.9542L37.1982 23.7453M35.4747 27.7669L43.8313 29.5949M33.3333 32.2324L37.1982 35.8884M37.7989 36.5413L39.6008 38.1604M24.8723 38.1604L25.3424 45.6552M14.2177 32.4936L7.84578 38.1604M38.8435 21.7345L43.8313 20.7683M40.0447 26.2784L44.223 26.4873M34.0384 31.2662L40.9326 36.4107M32.1321 33.6165L37.1982 38.6304M30.6436 36.4107L34.4562 42.7304M28.7372 41.3202L29.8079 44.7934M23.3054 37.0636L22.966 45.6552M19.545 36.4107L17.1164 42.5476M16.8291 43.2788L16.3852 44.4278M17.5864 35.2617L13.382 41.5813M9.64767 40.3017L15.3557 33.9213M4.08961 31.7969L9.64767 30.2506M37.381 29.7516L42.4472 31.5535M42.4472 24.2676H44.458M2.98853 23.6408H5.28658M6.61841 23.6408L11.1623 23.7975M5.99167 26.1739L7.76744 26.0433M9.98716 26.9051L11.789 26.8007M3.17133 27.7147C3.35935 27.7147 4.32906 27.5754 4.79041 27.5057" stroke="white" stroke-width="0.539663" stroke-linecap="round"/>
<path d="M20.0933 8.86035L21.1117 13.2214" stroke="white" stroke-width="0.179888" stroke-linecap="round" stroke-dasharray="0.31 0.31"/>
<path d="M14.4009 6.5094L18.568 14.0142M13.4347 8.85969L17.5085 14.6309" stroke="white" stroke-width="0.179888" stroke-linecap="round" stroke-dasharray="0.31 0.31"/>
<line x1="23.2441" y1="4.38441" x2="23.2441" y2="12.8196" stroke="white" stroke-width="0.44972" stroke-linecap="round"/>
<path d="M42.9346 23.1384L44.6889 22.8753" stroke="white" stroke-width="0.175428" stroke-linecap="round" stroke-dasharray="0.35 0.35"/>
</svg>
