<svg width="207" height="69" viewBox="0 0 207 69" fill="none" xmlns="http://www.w3.org/2000/svg">
<path d="M76.8311 27.049C77.5777 27.049 78.2711 27.149 78.9111 27.349C79.5644 27.549 80.1844 27.849 80.7711 28.249H80.7911L80.7511 27.169H81.8311L81.5911 31.789H80.8711C80.8044 30.5357 80.4177 29.569 79.7111 28.889C79.0044 28.209 78.0711 27.869 76.9111 27.869C76.2044 27.869 75.5311 28.0224 74.8911 28.329C74.2644 28.6224 73.6977 29.049 73.1911 29.609C72.6977 30.169 72.2977 30.8424 71.9911 31.629C71.6977 32.4157 71.5244 33.3024 71.4711 34.289C71.4044 35.5424 71.5844 36.649 72.0111 37.609C72.4511 38.569 73.0577 39.3157 73.8311 39.849C74.6177 40.3824 75.5044 40.649 76.4911 40.649C77.3577 40.649 78.2177 40.4624 79.0711 40.089C79.9244 39.7024 80.6377 39.1424 81.2111 38.409L81.7111 38.829C81.0977 39.6024 80.4444 40.1957 79.7511 40.609C79.0577 41.0224 78.3777 41.3024 77.7111 41.449C77.0577 41.609 76.4577 41.689 75.9111 41.689C74.9111 41.689 74.0111 41.509 73.2111 41.149C72.4111 40.789 71.7311 40.289 71.1711 39.649C70.6111 38.9957 70.1911 38.2424 69.9111 37.389C69.6444 36.5224 69.5377 35.589 69.5911 34.589C69.6444 33.6424 69.8311 32.7224 70.1511 31.829C70.4711 30.9357 70.9311 30.129 71.5311 29.409C72.1311 28.689 72.8711 28.1157 73.7511 27.689C74.6444 27.2624 75.6711 27.049 76.8311 27.049ZM86.322 41.369C86.3087 41.2757 86.302 41.1957 86.302 41.129C86.302 41.049 86.302 40.9557 86.302 40.849C86.302 40.6224 86.3087 40.3557 86.322 40.049C86.3353 39.729 86.362 39.309 86.402 38.789C86.4553 38.269 86.5287 37.589 86.622 36.749C86.7153 35.8824 86.7887 35.229 86.842 34.789C86.8953 34.349 86.9353 34.029 86.962 33.829C86.9887 33.6157 87.002 33.4424 87.002 33.309C87.0153 33.0424 86.9953 32.7824 86.942 32.529C86.902 32.2757 86.742 32.149 86.462 32.149C86.2487 32.149 86.002 32.2957 85.722 32.589C85.442 32.8824 85.202 33.3824 85.002 34.089L84.442 33.969C84.482 33.729 84.562 33.4557 84.682 33.149C84.8153 32.829 84.9887 32.5157 85.202 32.209C85.4153 31.9024 85.6753 31.649 85.982 31.449C86.2887 31.249 86.642 31.149 87.042 31.149C87.642 31.149 88.042 31.3557 88.242 31.769C88.442 32.1824 88.5287 32.7357 88.502 33.429C88.4887 33.7224 88.4487 34.049 88.382 34.409C88.3287 34.7557 88.2687 35.1224 88.202 35.509H88.262C88.6487 34.349 89.0487 33.4557 89.462 32.829C89.8887 32.2024 90.3153 31.769 90.742 31.529C91.182 31.2757 91.6153 31.149 92.042 31.149C92.442 31.149 92.7753 31.2557 93.042 31.469C93.3087 31.669 93.442 31.949 93.442 32.309C93.442 32.549 93.3553 32.769 93.182 32.969C93.022 33.169 92.802 33.269 92.522 33.269C92.282 33.269 92.0753 33.1957 91.902 33.049C91.7287 32.9024 91.6287 32.6957 91.602 32.429C91.2287 32.349 90.862 32.469 90.502 32.789C90.1553 33.109 89.822 33.569 89.502 34.169C89.1953 34.7557 88.922 35.4157 88.682 36.149C88.4553 36.8824 88.2753 37.629 88.142 38.389C88.0087 39.149 87.942 39.8557 87.942 40.509C87.942 40.709 87.942 40.8624 87.942 40.969C87.9553 41.0624 87.9687 41.1957 87.982 41.369H86.322ZM96.9375 46.789C96.4841 46.7624 96.1175 46.629 95.8375 46.389C95.5575 46.1624 95.4175 45.8757 95.4175 45.529C95.4175 45.2224 95.5108 44.989 95.6975 44.829C95.8841 44.6824 96.0641 44.609 96.2375 44.609C96.8375 44.609 97.1241 44.9557 97.0975 45.649C97.1775 45.689 97.2508 45.7224 97.3175 45.749C97.3841 45.7757 97.4575 45.789 97.5375 45.789C97.8308 45.8024 98.1308 45.6957 98.4375 45.469C98.7575 45.2424 99.0575 44.9557 99.3375 44.609C99.6308 44.2757 99.8841 43.9424 100.097 43.609C100.324 43.289 100.491 43.0424 100.597 42.869C100.477 42.0957 100.337 41.3024 100.177 40.489C100.017 39.6624 99.8308 38.8424 99.6175 38.029C99.4175 37.2024 99.1908 36.409 98.9375 35.649C98.6975 34.8757 98.4375 34.149 98.1575 33.469C98.0641 33.2424 97.9441 33.009 97.7975 32.769C97.6508 32.529 97.4441 32.4224 97.1775 32.449C96.9241 32.4757 96.7308 32.6757 96.5975 33.049C96.4775 33.4224 96.4441 33.9157 96.4975 34.529L95.8575 34.609C95.8175 34.249 95.8108 33.869 95.8375 33.469C95.8775 33.069 95.9641 32.6957 96.0975 32.349C96.2308 31.989 96.4241 31.7024 96.6775 31.489C96.9308 31.2624 97.2641 31.149 97.6775 31.149C98.1308 31.149 98.4975 31.269 98.7775 31.509C99.0708 31.749 99.3041 32.0424 99.4775 32.389C99.6641 32.7357 99.8175 33.0757 99.9375 33.409C100.191 34.089 100.437 34.869 100.677 35.749C100.917 36.629 101.124 37.529 101.297 38.449C101.484 39.3557 101.624 40.2024 101.717 40.989H101.757C102.131 40.3357 102.491 39.6157 102.837 38.829C103.184 38.0424 103.471 37.2424 103.697 36.429C103.924 35.6024 104.037 34.829 104.037 34.109C104.037 33.7757 104.004 33.4824 103.937 33.229C103.884 32.9757 103.817 32.7957 103.737 32.689C103.684 32.729 103.611 32.7624 103.517 32.789C103.437 32.8024 103.344 32.809 103.237 32.809C102.997 32.809 102.804 32.7357 102.657 32.589C102.511 32.429 102.437 32.2424 102.437 32.029C102.437 31.7357 102.531 31.5157 102.717 31.369C102.917 31.2224 103.137 31.149 103.377 31.149C103.791 31.149 104.111 31.2757 104.337 31.529C104.564 31.7824 104.724 32.1024 104.817 32.489C104.924 32.8757 104.977 33.2824 104.977 33.709C104.977 34.589 104.851 35.489 104.597 36.409C104.344 37.329 104.011 38.2357 103.597 39.129C103.197 40.0224 102.771 40.8824 102.317 41.709C101.651 42.909 101.011 43.889 100.397 44.649C99.7975 45.409 99.2108 45.9557 98.6375 46.289C98.0641 46.6357 97.4975 46.8024 96.9375 46.789ZM111.731 41.589C111.198 41.589 110.684 41.509 110.191 41.349C109.698 41.1757 109.298 40.929 108.991 40.609C108.684 40.289 108.531 39.9024 108.531 39.449C108.531 39.1557 108.611 38.9224 108.771 38.749C108.944 38.5624 109.151 38.469 109.391 38.469C109.658 38.469 109.858 38.5557 109.991 38.729C110.138 38.9024 110.211 39.0957 110.211 39.309C110.211 39.4024 110.198 39.5024 110.171 39.609C110.144 39.7157 110.098 39.8224 110.031 39.929C110.138 40.2224 110.351 40.449 110.671 40.609C110.991 40.769 111.331 40.849 111.691 40.849C112.411 40.849 112.951 40.6824 113.311 40.349C113.671 40.0157 113.851 39.549 113.851 38.949C113.851 38.589 113.724 38.269 113.471 37.989C113.218 37.709 112.898 37.449 112.511 37.209C112.124 36.9557 111.724 36.709 111.311 36.469C110.924 36.229 110.551 35.9824 110.191 35.729C109.844 35.4757 109.558 35.1957 109.331 34.889C109.118 34.5824 109.011 34.2357 109.011 33.849C109.011 33.3557 109.158 32.909 109.451 32.509C109.744 32.0957 110.151 31.769 110.671 31.529C111.191 31.2757 111.791 31.149 112.471 31.149C112.978 31.149 113.451 31.229 113.891 31.389C114.344 31.549 114.711 31.7757 114.991 32.069C115.284 32.3624 115.431 32.709 115.431 33.109C115.431 33.389 115.351 33.6157 115.191 33.789C115.031 33.949 114.831 34.029 114.591 34.029C114.351 34.029 114.158 33.949 114.011 33.789C113.864 33.629 113.791 33.4424 113.791 33.229C113.791 33.1224 113.804 33.0224 113.831 32.929C113.858 32.8224 113.904 32.7157 113.971 32.609C113.904 32.3824 113.738 32.1957 113.471 32.049C113.218 31.889 112.864 31.809 112.411 31.809C112.118 31.809 111.831 31.8757 111.551 32.009C111.271 32.1424 111.038 32.329 110.851 32.569C110.664 32.7957 110.571 33.069 110.571 33.389C110.571 33.6424 110.644 33.8757 110.791 34.089C110.951 34.3024 111.158 34.5024 111.411 34.689C111.664 34.8757 111.938 35.0624 112.231 35.249C112.711 35.529 113.204 35.829 113.711 36.149C114.218 36.4557 114.638 36.809 114.971 37.209C115.318 37.609 115.491 38.0957 115.491 38.669C115.491 39.229 115.331 39.729 115.011 40.169C114.704 40.609 114.264 40.9557 113.691 41.209C113.131 41.4624 112.478 41.589 111.731 41.589ZM122.826 28.549L122.466 31.369H125.646L125.586 32.129L122.386 32.169C122.332 32.729 122.266 33.309 122.186 33.909C122.119 34.4957 122.059 35.0824 122.006 35.669C121.952 36.2557 121.906 36.8224 121.866 37.369C121.826 37.9024 121.806 38.389 121.806 38.829C121.806 39.0824 121.819 39.349 121.846 39.629C121.886 39.8957 121.972 40.1224 122.106 40.309C122.239 40.4824 122.452 40.569 122.746 40.569C122.879 40.569 123.039 40.5424 123.226 40.489C123.426 40.4357 123.646 40.309 123.886 40.109C124.126 39.909 124.372 39.5957 124.626 39.169L125.146 39.509C124.759 40.189 124.339 40.709 123.886 41.069C123.446 41.4157 122.906 41.589 122.266 41.589C121.746 41.589 121.332 41.4824 121.026 41.269C120.732 41.0424 120.519 40.749 120.386 40.389C120.252 40.029 120.186 39.6424 120.186 39.229C120.186 38.7224 120.206 38.109 120.246 37.389C120.286 36.6557 120.346 35.849 120.426 34.969C120.506 34.0757 120.599 33.149 120.706 32.189L118.926 32.209L118.986 31.369C119.906 31.369 120.586 31.1224 121.026 30.629C121.466 30.1357 121.812 29.4424 122.066 28.549H122.826ZM134.351 31.149C134.751 31.149 135.191 31.1824 135.671 31.249C136.151 31.3024 136.604 31.3824 137.031 31.489C136.924 32.289 136.817 33.089 136.711 33.889C136.617 34.6757 136.524 35.429 136.431 36.149C136.351 36.8557 136.284 37.4957 136.231 38.069C136.177 38.629 136.151 39.069 136.151 39.389C136.151 39.6557 136.171 39.9224 136.211 40.189C136.251 40.4557 136.417 40.589 136.711 40.589C136.937 40.589 137.184 40.4424 137.451 40.149C137.731 39.8557 137.971 39.3557 138.171 38.649L138.731 38.769C138.691 39.009 138.604 39.289 138.471 39.609C138.351 39.9157 138.184 40.2224 137.971 40.529C137.757 40.8357 137.497 41.089 137.191 41.289C136.884 41.489 136.531 41.589 136.131 41.589C135.597 41.589 135.217 41.4224 134.991 41.089C134.764 40.7557 134.651 40.3224 134.651 39.789C134.651 39.4024 134.684 38.9824 134.751 38.529C134.831 38.0757 134.917 37.6024 135.011 37.109H134.951C134.631 38.0957 134.297 38.889 133.951 39.489C133.617 40.0757 133.277 40.5224 132.931 40.829C132.597 41.1357 132.271 41.3357 131.951 41.429C131.631 41.5357 131.331 41.589 131.051 41.589C130.331 41.589 129.724 41.3224 129.231 40.789C128.751 40.2557 128.511 39.3624 128.511 38.109C128.511 37.1757 128.631 36.289 128.871 35.449C129.111 34.609 129.471 33.869 129.951 33.229C130.444 32.5757 131.057 32.069 131.791 31.709C132.524 31.3357 133.377 31.149 134.351 31.149ZM133.731 31.869C133.131 31.869 132.604 32.0357 132.151 32.369C131.711 32.7024 131.344 33.1557 131.051 33.729C130.757 34.289 130.537 34.9224 130.391 35.629C130.257 36.3224 130.191 37.0357 130.191 37.769C130.191 38.6224 130.284 39.329 130.471 39.889C130.657 40.4357 130.997 40.709 131.491 40.709C131.851 40.709 132.211 40.529 132.571 40.169C132.944 39.809 133.291 39.329 133.611 38.729C133.931 38.1157 134.217 37.4357 134.471 36.689C134.724 35.929 134.924 35.1557 135.071 34.369C135.217 33.5824 135.291 32.829 135.291 32.109C135.091 32.029 134.857 31.969 134.591 31.929C134.324 31.889 134.037 31.869 133.731 31.869ZM145.008 26.269C144.968 26.6024 144.908 26.9757 144.828 27.389C144.761 27.8024 144.694 28.209 144.628 28.609C144.574 29.009 144.528 29.3624 144.488 29.669C144.408 30.229 144.328 30.869 144.248 31.589C144.168 32.2957 144.088 33.0357 144.008 33.809C143.928 34.569 143.854 35.3157 143.788 36.049C143.734 36.7824 143.688 37.4557 143.648 38.069C143.608 38.669 143.588 39.1624 143.588 39.549C143.588 39.8024 143.614 40.0424 143.668 40.269C143.721 40.4824 143.874 40.589 144.128 40.589C144.354 40.589 144.601 40.449 144.868 40.169C145.148 39.8757 145.388 39.369 145.588 38.649L146.148 38.789C146.108 39.0157 146.021 39.289 145.888 39.609C145.768 39.929 145.601 40.2424 145.388 40.549C145.174 40.8424 144.914 41.089 144.608 41.289C144.314 41.489 143.968 41.589 143.568 41.589C143.021 41.589 142.621 41.4557 142.368 41.189C142.114 40.909 141.981 40.5024 141.968 39.969C141.954 39.6357 141.968 39.1424 142.008 38.489C142.061 37.8357 142.121 37.0957 142.188 36.269C142.268 35.429 142.354 34.5557 142.448 33.649C142.541 32.729 142.641 31.8357 142.748 30.969C142.854 30.1024 142.954 29.3157 143.048 28.609C143.114 28.249 143.154 28.0157 143.168 27.909C143.194 27.789 143.214 27.6624 143.228 27.529C142.988 27.5424 142.748 27.5557 142.508 27.569C142.281 27.5824 142.048 27.5957 141.808 27.609L141.908 26.809C142.494 26.809 142.948 26.7824 143.268 26.729C143.601 26.6757 143.854 26.609 144.028 26.529C144.201 26.449 144.341 26.3624 144.448 26.269H145.008ZM157.032 41.589C156.405 41.589 155.979 41.4224 155.752 41.089C155.525 40.7557 155.412 40.2824 155.412 39.669C155.412 39.2957 155.439 38.8557 155.492 38.349C155.559 37.829 155.625 37.2824 155.692 36.709C155.772 36.1357 155.839 35.5557 155.892 34.969C155.959 34.3824 155.992 33.829 155.992 33.309C155.992 33.149 155.965 32.9757 155.912 32.789C155.859 32.6024 155.765 32.4424 155.632 32.309C155.499 32.1624 155.299 32.089 155.032 32.089C154.672 32.089 154.312 32.2557 153.952 32.589C153.592 32.909 153.245 33.349 152.912 33.909C152.592 34.469 152.299 35.109 152.032 35.829C151.779 36.5357 151.579 37.2757 151.432 38.049C151.285 38.809 151.212 39.5624 151.212 40.309C151.212 40.509 151.212 40.6957 151.212 40.869C151.225 41.029 151.239 41.1957 151.252 41.369H149.612C149.599 41.2757 149.592 41.1957 149.592 41.129C149.592 41.049 149.592 40.9557 149.592 40.849C149.592 40.489 149.612 39.9357 149.652 39.189C149.692 38.4424 149.745 37.5957 149.812 36.649C149.879 35.689 149.952 34.709 150.032 33.709C150.125 32.709 150.219 31.7624 150.312 30.869C150.405 29.9624 150.499 29.2024 150.592 28.589C150.645 28.2424 150.679 28.0224 150.692 27.929C150.719 27.8357 150.745 27.7024 150.772 27.529L149.372 27.609L149.452 26.809C150.039 26.809 150.492 26.7824 150.812 26.729C151.145 26.6757 151.399 26.609 151.572 26.529C151.745 26.449 151.885 26.3624 151.992 26.269H152.572C152.519 26.6024 152.459 26.9757 152.392 27.389C152.325 27.8024 152.259 28.209 152.192 28.609C152.125 29.009 152.072 29.3624 152.032 29.669C151.992 30.0024 151.939 30.4357 151.872 30.969C151.819 31.489 151.759 32.0424 151.692 32.629C151.639 33.2024 151.585 33.7557 151.532 34.289C151.492 34.8224 151.459 35.2624 151.432 35.609H151.492C151.945 34.3957 152.392 33.469 152.832 32.829C153.272 32.189 153.705 31.749 154.132 31.509C154.572 31.269 155.005 31.149 155.432 31.149C156.232 31.149 156.799 31.409 157.132 31.929C157.465 32.4357 157.632 33.0424 157.632 33.749C157.632 34.4824 157.585 35.2357 157.492 36.009C157.399 36.769 157.305 37.4757 157.212 38.129C157.119 38.769 157.072 39.2824 157.072 39.669C157.072 39.909 157.099 40.1224 157.152 40.309C157.219 40.4957 157.372 40.589 157.612 40.589C157.839 40.589 158.085 40.449 158.352 40.169C158.632 39.8757 158.872 39.369 159.072 38.649L159.572 38.789C159.532 39.0157 159.452 39.289 159.332 39.609C159.212 39.929 159.045 40.2424 158.832 40.549C158.632 40.8424 158.379 41.089 158.072 41.289C157.779 41.489 157.432 41.589 157.032 41.589ZM167.557 31.149C168.277 31.149 168.924 31.3224 169.497 31.669C170.07 32.0024 170.524 32.4957 170.857 33.149C171.19 33.8024 171.357 34.5957 171.357 35.529C171.357 36.5957 171.164 37.5957 170.777 38.529C170.39 39.449 169.83 40.189 169.097 40.749C168.377 41.309 167.497 41.589 166.457 41.589C165.577 41.589 164.85 41.389 164.277 40.989C163.717 40.589 163.297 40.049 163.017 39.369C162.75 38.689 162.617 37.9357 162.617 37.109C162.617 36.029 162.81 35.0357 163.197 34.129C163.597 33.2224 164.164 32.5024 164.897 31.969C165.644 31.4224 166.53 31.149 167.557 31.149ZM167.257 31.889C166.67 31.8757 166.164 32.0757 165.737 32.489C165.31 32.889 164.977 33.4357 164.737 34.129C164.51 34.8224 164.39 35.5957 164.377 36.449C164.364 36.9024 164.39 37.3824 164.457 37.889C164.524 38.3957 164.637 38.869 164.797 39.309C164.97 39.749 165.204 40.109 165.497 40.389C165.804 40.669 166.184 40.8157 166.637 40.829C167.17 40.8424 167.624 40.7024 167.997 40.409C168.37 40.1024 168.67 39.709 168.897 39.229C169.124 38.749 169.29 38.2357 169.397 37.689C169.517 37.1424 169.584 36.629 169.597 36.149C169.61 35.6824 169.584 35.2024 169.517 34.709C169.464 34.2157 169.35 33.7557 169.177 33.329C169.004 32.9024 168.764 32.5624 168.457 32.309C168.15 32.0424 167.75 31.9024 167.257 31.889ZM178.547 26.269C178.507 26.6024 178.447 26.9757 178.367 27.389C178.3 27.8024 178.234 28.209 178.167 28.609C178.114 29.009 178.067 29.3624 178.027 29.669C177.947 30.229 177.867 30.869 177.787 31.589C177.707 32.2957 177.627 33.0357 177.547 33.809C177.467 34.569 177.394 35.3157 177.327 36.049C177.274 36.7824 177.227 37.4557 177.187 38.069C177.147 38.669 177.127 39.1624 177.127 39.549C177.127 39.8024 177.154 40.0424 177.207 40.269C177.26 40.4824 177.414 40.589 177.667 40.589C177.894 40.589 178.14 40.449 178.407 40.169C178.687 39.8757 178.927 39.369 179.127 38.649L179.687 38.789C179.647 39.0157 179.56 39.289 179.427 39.609C179.307 39.929 179.14 40.2424 178.927 40.549C178.714 40.8424 178.454 41.089 178.147 41.289C177.854 41.489 177.507 41.589 177.107 41.589C176.56 41.589 176.16 41.4557 175.907 41.189C175.654 40.909 175.52 40.5024 175.507 39.969C175.494 39.6357 175.507 39.1424 175.547 38.489C175.6 37.8357 175.66 37.0957 175.727 36.269C175.807 35.429 175.894 34.5557 175.987 33.649C176.08 32.729 176.18 31.8357 176.287 30.969C176.394 30.1024 176.494 29.3157 176.587 28.609C176.654 28.249 176.694 28.0157 176.707 27.909C176.734 27.789 176.754 27.6624 176.767 27.529C176.527 27.5424 176.287 27.5557 176.047 27.569C175.82 27.5824 175.587 27.5957 175.347 27.609L175.447 26.809C176.034 26.809 176.487 26.7824 176.807 26.729C177.14 26.6757 177.394 26.609 177.567 26.529C177.74 26.449 177.88 26.3624 177.987 26.269H178.547ZM184.591 31.149C185.151 31.149 185.571 31.3424 185.851 31.729C186.131 32.1024 186.271 32.6024 186.271 33.229C186.271 33.629 186.231 34.089 186.151 34.609C186.084 35.1157 185.998 35.6624 185.891 36.249C185.784 36.8357 185.691 37.429 185.611 38.029C185.544 38.6157 185.511 39.189 185.511 39.749C185.511 40.0157 185.558 40.2224 185.651 40.369C185.758 40.5157 185.918 40.589 186.131 40.589C186.358 40.589 186.604 40.4424 186.871 40.149C187.151 39.8557 187.391 39.3557 187.591 38.649L188.151 38.769C188.098 39.049 188.004 39.3557 187.871 39.689C187.751 40.009 187.591 40.3157 187.391 40.609C187.191 40.889 186.944 41.1224 186.651 41.309C186.371 41.4957 186.044 41.589 185.671 41.589C185.058 41.589 184.604 41.429 184.311 41.109C184.018 40.789 183.871 40.3224 183.871 39.709C183.871 39.1224 183.911 38.5557 183.991 38.009C184.071 37.449 184.158 36.9024 184.251 36.369C184.358 35.8224 184.451 35.2757 184.531 34.729C184.611 34.1824 184.651 33.6224 184.651 33.049C184.651 32.8757 184.611 32.6824 184.531 32.469C184.464 32.2557 184.318 32.149 184.091 32.149C183.878 32.149 183.631 32.2957 183.351 32.589C183.071 32.8824 182.831 33.3824 182.631 34.089L182.071 33.969C182.111 33.729 182.191 33.4557 182.311 33.149C182.431 32.829 182.591 32.5157 182.791 32.209C183.004 31.9024 183.258 31.649 183.551 31.449C183.844 31.249 184.191 31.149 184.591 31.149ZM185.731 26.829C186.038 26.829 186.291 26.9357 186.491 27.149C186.691 27.349 186.791 27.6224 186.791 27.969C186.791 28.3024 186.684 28.5757 186.471 28.789C186.258 28.989 186.004 29.089 185.711 29.089C185.418 29.089 185.164 28.989 184.951 28.789C184.751 28.5757 184.651 28.3024 184.651 27.969C184.651 27.6224 184.758 27.349 184.971 27.149C185.184 26.9357 185.438 26.829 185.731 26.829ZM195.975 31.149C196.549 31.149 197.062 31.2557 197.515 31.469C197.969 31.669 198.322 31.949 198.575 32.309C198.842 32.6557 198.975 33.049 198.975 33.489C198.975 33.7824 198.902 34.0224 198.755 34.209C198.609 34.3824 198.402 34.469 198.135 34.469C197.815 34.4824 197.589 34.389 197.455 34.189C197.335 33.989 197.275 33.8157 197.275 33.669C197.275 33.549 197.289 33.4224 197.315 33.289C197.355 33.1557 197.429 33.029 197.535 32.909C197.469 32.5357 197.282 32.269 196.975 32.109C196.682 31.9357 196.342 31.849 195.955 31.849C195.382 31.849 194.902 32.0024 194.515 32.309C194.129 32.6157 193.822 33.0157 193.595 33.509C193.369 34.0024 193.202 34.5357 193.095 35.109C193.002 35.669 192.955 36.2157 192.955 36.749C192.955 37.6824 193.055 38.4357 193.255 39.009C193.469 39.569 193.762 39.9757 194.135 40.229C194.509 40.4824 194.929 40.609 195.395 40.609C195.742 40.609 196.102 40.5357 196.475 40.389C196.849 40.229 197.209 39.969 197.555 39.609C197.902 39.2357 198.202 38.729 198.455 38.089L199.155 38.429C198.822 39.2024 198.435 39.8224 197.995 40.289C197.555 40.7424 197.082 41.0757 196.575 41.289C196.082 41.489 195.575 41.589 195.055 41.589C193.882 41.589 192.942 41.2357 192.235 40.529C191.542 39.809 191.195 38.7024 191.195 37.209C191.195 36.5557 191.289 35.8757 191.475 35.169C191.662 34.4624 191.949 33.809 192.335 33.209C192.722 32.5957 193.215 32.1024 193.815 31.729C194.429 31.3424 195.149 31.149 195.975 31.149Z" fill="white"/>
<path d="M34.7627 42.9251V46.5944M33.5967 45.1586H35.969M40.0702 40.7714H41.6384M40.9146 39.4951V41.1702V42.4864M39.5877 24.9374V25.6952M29.9377 32.0367H30.8625" stroke="white" stroke-width="0.726747" stroke-linecap="round"/>
<path d="M31.8284 26.6081H34.372" stroke="white" stroke-width="0.726747" stroke-linecap="round"/>
<path d="M10.342 29.7951C9.93054 29.4607 8.90061 29.1209 8.07242 30.4371C7.03719 32.0823 4.72781 37.6599 6.40012 39.5058C7.73796 40.9824 10.2756 37.6332 11.3772 35.774C11.5099 35.2924 11.425 34.4257 10.0234 34.8109C8.27148 35.2924 11.4568 34.6905 11.5763 34.6103C11.6957 34.53 11.2577 38.1414 12.2532 37.2988C13.0495 36.6246 13.5406 35.2256 13.6866 34.6103C13.6202 35.2657 13.6945 36.5203 14.5227 36.2956C15.3509 36.0709 15.9296 34.3829 16.1154 33.567C16.1685 37.3657 16.0995 45.1476 15.3987 45.8859C14.6979 46.6243 13.9653 46.0063 13.6866 45.605C13.3946 45.0299 13.2167 43.2857 14.8413 40.9102C16.4658 38.5347 18.5442 36.0415 19.3804 35.0918M21.1323 32.8848C20.7209 32.9383 19.8263 33.3583 19.5396 34.6103C19.253 35.8622 19.9245 36.0415 20.2962 35.9746C20.8138 35.8542 21.8411 35.782 21.8092 36.4561C21.7773 37.1302 20.4952 38.4223 19.8582 38.9841C19.4866 39.1714 18.8309 39.3131 19.1813 38.3822C19.6193 37.2185 24.7955 35.9746 26.189 30.4371C25.3131 33.1523 23.8239 38.96 24.8751 40.4688C25.2865 40.6561 26.627 40.2842 28.6975 37.2988M31.644 34.8109C31.4316 34.2625 30.7759 33.5509 29.8522 35.0918C28.9284 36.6327 28.9895 37.6332 29.1355 37.9408C29.2019 38.1949 29.5655 38.4785 30.4893 37.5797C31.413 36.6808 31.9094 35.3593 32.0421 34.8109C31.3121 36.3625 30.2105 39.2489 31.644 38.3822C33.4357 37.2988 37.7359 27.9492 37.5368 26.0632C37.3378 24.1773 31.206 37.5797 33.8737 38.3822C34.5771 38.4357 36.2627 38.0291 37.3776 35.9746M38.1739 32.8848C39.6869 32.4167 42.7927 30.5173 43.1112 26.6652C43.0183 26.3709 42.6891 26.0472 42.1158 27.1066C41.3991 28.4307 38.8906 33.8077 38.5323 37.5797C38.9968 35.4128 40.1249 31.5125 40.9213 33.246C41.1602 33.246 40.3638 36.2555 40.9213 36.7771C41.3672 37.1944 43.8677 34.8109 45.0622 33.567C44.7437 33.0671 43.9075 32.4877 43.1112 34.1689C42.3149 35.8501 43.2306 36.3942 43.7881 36.4561C44.2526 36.2555 45.2056 35.3968 45.3011 33.567C45.2613 33.9683 45.3569 34.6504 46.0576 34.1689C46.9336 33.567 50.3977 30.5575 50.7162 26.4645C50.7162 26.197 50.6286 25.8225 50.2782 26.4645C49.8402 27.2671 46.9336 32.6039 47.3318 36.1351C47.7299 39.6663 50.756 35.4128 51.3931 33.567C50.8622 34.744 50.0234 37.034 50.9153 36.7771C51.8072 36.5203 52.9327 34.0753 53.3839 32.8848C52.6407 34.2625 51.6161 36.9296 53.4636 36.5765C55.3111 36.2234 57.4452 32.6574 58.2814 30.9186M51.3931 32.002L52.1496 32.8848M22.6852 33.567C23.9062 33.6339 26.627 33.591 27.7419 32.8848" stroke="white" stroke-width="1.00124" stroke-linecap="round"/>
<path d="M26.1136 40.4387C26.5901 44.3732 28.8747 49.2249 39.4597 48.5483C34.8049 50.4972 24.2493 51.8651 19.2646 41.7456" stroke="white" stroke-width="1.50185" stroke-linecap="round"/>
<path d="M18.1985 32.4574C19.4539 27.0937 25.4237 17.6125 39.26 22.5974C35.9691 21.5711 29.7118 21.253 26.1137 31.6041" stroke="white" stroke-width="1.50185" stroke-linecap="round"/>
<path d="M33.2532 24.7623V28.4411" stroke="white" stroke-width="0.721336" stroke-linecap="round"/>
<path d="M42.8131 23.1812L49.3117 16.7547M44.7266 25.1308L53.933 17.6934M36.7476 19.4986L38.0113 16.3576M38.4084 15.3828L39.9248 11.4114M40.2136 10.6532L41.1162 8.34256M32.9567 18.7404L33.5344 11.1225M33.8593 6.8623L33.6427 10.1116M22.1978 21.5204L17.9376 16.3576M17.2516 15.3828L16.006 13.704L14.7605 12.0251M29.3464 18.7404L28.9853 15.8521M28.8409 14.9495L28.0827 8.92022M27.9383 8.05373L27.7939 7.00672M14.4716 15.8521L20.9342 22.4952M51.2613 16.3576L47.9939 19.4264L44.7266 22.4952M45.9541 27.0804L53.933 22.784M57.4712 23.5061L51.5141 26.0695M50.9725 29.716L58.9153 27.5136M51.1891 39.0307L59.5652 40.4388M46.6039 42.4606L57.1101 48.0206M44.0406 49.934L50.2504 56.9743M39.0583 50.4395L42.5242 56.9743M42.9575 57.9852L44.5099 60.9457M41.766 50.4395L46.6039 57.4797M37.578 52.6418L40.5385 60.6569M36.4588 55.0969L38.5528 63.148M33.6066 52.1003L34.6897 59.646M34.8341 60.6569L35.3757 63.7979M28.8409 52.1003L27.7939 59.646M27.6495 60.8374L27.2524 63.7979M26.2776 52.9307L23.4615 61.7039M19.129 61.3067L24.5446 50.4395M17.8654 54.3026L21.909 49.1398M17.1433 55.0969L14.5438 58.6712M7.61371 51.8234C8.19033 51.427 13.2838 47.8471 14.5438 46.8652M16.8545 45.2045L17.5766 44.5907M5.73454 48.1289L12.6303 44.8795M3.82104 43.1465L13.569 41.2331M10.1753 39.3196L15.0132 38.8141M3.20728 31.0157L6.52882 31.5573M8.65894 31.9905L15.0132 32.8931M6.52882 21.5204L15.2659 26.3583M12.9914 19.4986L18.7319 24.4448M15.2659 30.2575L11.1862 29.2466M8.65894 28.5967L4.03766 27.3692" stroke="white" stroke-width="0.2487" stroke-linecap="round" stroke-dasharray="0.43 0.43"/>
<path d="M39.9369 20.935L46.941 11.2953M41.6338 22.0181L49.8293 13.3893M44.0527 9.52625L38.4567 20.1407M36.9403 7.1795L36.146 11.9813M36.0016 12.8839L34.9185 19.1298M22.9501 8.12379L26.7248 19.1298M11.7399 14.7252L18.058 20.935M18.7079 21.5127L20.2604 22.9929M18.058 25.3758L13.2562 22.0181M12.4981 21.5127L8.27393 18.6966M16.0723 28.6251L5.31342 24.346M45.3886 26.1701L55.281 19.3465M46.941 29.2028L48.1685 28.6251M51.5984 27.2171C51.8872 27.1593 55.979 25.5563 57.9888 24.762M48.1685 33.9324L50.1182 33.6435M47.7353 39.2035L59.2885 41.7308M44.7748 45.3772L50.1182 50.4318M50.9485 51.3344L53.4397 53.5728M33.0772 53.5728L33.7271 63.9346M18.3469 45.7383L9.53756 53.5728M52.3927 30.8635L59.2885 29.5277M54.0535 37.1456L59.8301 37.4344M45.7496 44.0414L55.281 51.1538M43.114 47.2907L50.1182 54.2227M41.0561 51.1538L46.3273 59.8909M38.4205 57.9413L39.9008 62.7431M30.911 52.0564L30.4416 63.9346M25.712 51.1538L22.3544 59.6382M21.9572 60.6491L21.3435 62.2377M23.0043 49.5653L17.1916 58.3024M12.0287 56.5333L19.9202 47.7121M4.34455 44.7751L12.0287 42.6374M50.3709 41.9474L57.375 44.4385M57.375 34.3656H60.155M2.82227 33.4991H5.99939M7.84068 33.4991L14.1227 33.7157M6.9742 37.0012L9.42925 36.8207M12.4981 38.0121L14.9892 37.8677M3.07499 39.1313C3.33494 39.1313 4.67559 38.9387 5.31342 38.8425" stroke="white" stroke-width="0.7461" stroke-linecap="round"/>
<path d="M26.47 13.0646L27.878 19.094" stroke="white" stroke-width="0.2487" stroke-linecap="round" stroke-dasharray="0.43 0.43"/>
<path d="M18.6 9.81451L24.3611 20.1901M17.2642 13.0638L22.8963 21.0428" stroke="white" stroke-width="0.2487" stroke-linecap="round" stroke-dasharray="0.43 0.43"/>
<line x1="30.826" y1="6.87661" x2="30.826" y2="18.5385" stroke="white" stroke-width="0.62175" stroke-linecap="round"/>
<path d="M58.0488 32.8045L60.4742 32.4407" stroke="white" stroke-width="0.242534" stroke-linecap="round" stroke-dasharray="0.49 0.49"/>
</svg>
