<svg width="30" height="30" viewBox="0 0 30 30" fill="none" xmlns="http://www.w3.org/2000/svg">
<path d="M10.4569 7.90305C10.4569 6.513 10.1474 3.96106 15.1371 3.96106C19.849 3.96106 19.625 6.55483 19.6591 7.90305" stroke="white" stroke-width="1.24938" stroke-linecap="round"/>
<path d="M10.4569 10.9938C10.4569 12.3839 10.1474 14.9358 15.1371 14.9358C19.849 14.9358 19.625 12.342 19.6591 10.9938" stroke="white" stroke-width="1.24938" stroke-linecap="round"/>
<path d="M23.5351 7.90308H6.29305C4.76265 7.90308 4.29602 9.73858 4.29602 10.7057L2.76562 23.2439C2.76562 25.2107 3.66631 25.9482 5.93569 25.9482H24.5735C26.891 25.9482 27.3974 24.1453 27.361 23.2439C26.942 19.9659 26.0493 12.8692 25.8306 10.7057C25.612 8.54228 24.8167 7.90308 23.5351 7.90308Z" stroke="white" stroke-width="1.24938"/>
</svg>
