<svg width="49" height="48" viewBox="0 0 49 48" fill="none" xmlns="http://www.w3.org/2000/svg">
<path d="M17.6242 11.0386C17.6242 8.81342 17.1288 4.7283 25.1162 4.7283C32.659 4.7283 32.3004 8.88039 32.355 11.0386" stroke="white" stroke-width="2" stroke-linecap="round"/>
<path d="M17.6242 15.9862C17.6242 18.2114 17.1288 22.2965 25.1162 22.2965C32.659 22.2965 32.3004 18.1444 32.355 15.9862" stroke="white" stroke-width="2" stroke-linecap="round"/>
<path d="M38.56 11.0386H10.9592C8.50932 11.0386 7.76233 13.9769 7.76233 15.5251L5.3125 35.596C5.3125 38.7444 6.7543 39.925 10.3871 39.925H40.2223C43.9321 39.925 44.7428 37.039 44.6845 35.596C44.0137 30.3487 42.5847 18.9883 42.2347 15.5251C41.8847 12.0618 40.6116 11.0386 38.56 11.0386Z" stroke="white" stroke-width="2"/>
</svg>
