<svg width="49" height="49" viewBox="0 0 49 49" fill="none" xmlns="http://www.w3.org/2000/svg">
<g clip-path="url(#clip0_6_9193)">
<path d="M17.4818 12.5776C17.4818 10.4585 17.01 6.56812 24.6167 6.56812C31.8 6.56812 31.4585 10.5223 31.5105 12.5776" stroke="white" stroke-width="2" stroke-linecap="round"/>
<path d="M17.4818 17.2894C17.4818 19.4085 17.01 23.2989 24.6167 23.2989C31.8 23.2989 31.4585 19.3447 31.5105 17.2894" stroke="white" stroke-width="2" stroke-linecap="round"/>
<path d="M37.4199 12.5776H11.1346C8.80152 12.5776 8.09014 15.3758 8.09014 16.8502L5.75708 35.9645C5.75708 38.9628 7.13016 40.0872 10.5898 40.0872H39.0029C42.5358 40.0872 43.308 37.3387 43.2524 35.9645C42.6136 30.9673 41.2527 20.1484 40.9194 16.8502C40.5861 13.5521 39.3737 12.5776 37.4199 12.5776Z" stroke="white" stroke-width="2"/>
</g>
<defs>
<clipPath id="clip0_6_9193">
<rect width="39.9981" height="39.9981" fill="white" transform="translate(4.50708 4.92218)"/>
</clipPath>
</defs>
</svg>
