<svg width="49" height="49" viewBox="0 0 49 49" fill="none" xmlns="http://www.w3.org/2000/svg">
<circle cx="20.4548" cy="20.5838" r="13.2711" stroke="white" stroke-width="2"/>
<path d="M29.9663 30.6749C30.2975 30.3557 30.8067 30.3268 31.1704 30.5938L31.2417 30.6514L41.6636 39.9708C41.9643 40.2397 42.1129 40.5599 42.0942 40.8428L42.0757 40.961C41.8174 42.0106 41.0099 42.5882 40.1978 42.8672L40.0356 42.919C39.7362 43.0078 39.3833 42.9053 39.0864 42.6299L38.9634 42.501L29.9058 31.961C29.6023 31.6078 29.6065 31.0897 29.9028 30.7422L29.9663 30.6749Z" fill="white" stroke="white"/>
<path d="M25.8122 14.5005C25.8122 22.272 23.0449 22.6395 20.8085 22.6395C25.0697 22.6395 25.8122 27.7865 25.8122 30.7784C25.8122 23.322 29.1024 22.6395 30.8159 22.6395C26.6192 22.6395 25.8122 17.244 25.8122 14.5005Z" fill="white"/>
</svg>
