<svg width="63" height="62" viewBox="0 0 63 62" fill="none" xmlns="http://www.w3.org/2000/svg">
<path d="M31.4985 0.923033C48.1095 0.923034 61.5754 14.3889 61.5754 31C61.5754 47.611 48.1095 61.0769 31.4985 61.0769C14.8875 61.0769 1.42157 47.611 1.42157 31C1.42157 14.3889 14.8875 0.923033 31.4985 0.923033Z" fill="#5B5566"/>
<path d="M34.4526 38.1098V41.5759M33.3325 40.2196H35.6114M39.5512 36.0754H41.0575M40.3623 34.8698V36.4521V37.6954M39.0877 21.1183V21.8342M29.8176 27.8245H30.706" stroke="white" stroke-width="0.698131" stroke-linecap="round"/>
<path d="M31.6338 22.6966H34.0772" stroke="white" stroke-width="0.698131" stroke-linecap="round"/>
<path d="M10.9934 25.7071C10.5981 25.3912 9.60877 25.0703 8.81319 26.3135C7.81871 27.8676 5.60027 33.1363 7.20673 34.8799C8.4919 36.2748 10.9296 33.1111 11.9878 31.3548C12.1153 30.9 12.0337 30.0812 10.6874 30.4451C9.00441 30.9 12.0643 30.3314 12.1791 30.2556C12.2938 30.1798 11.8731 33.5912 12.8293 32.7952C13.5943 32.1584 14.066 30.8368 14.2063 30.2556C14.1425 30.8747 14.2139 32.0598 15.0095 31.8476C15.8051 31.6353 16.361 30.0408 16.5395 29.2701C16.5905 32.8584 16.5242 40.2093 15.851 40.9067C15.1778 41.6042 14.474 41.0205 14.2063 40.6414C13.9258 40.0981 13.7549 38.4505 15.3155 36.2066C16.8761 33.9626 18.8727 31.6075 19.6759 30.7104M21.3588 28.6257C20.9636 28.6762 20.1043 29.073 19.8289 30.2556C19.5535 31.4382 20.1986 31.6075 20.5556 31.5443C21.0529 31.4306 22.0397 31.3624 22.0091 31.9992C21.9785 32.636 20.7469 33.8565 20.1349 34.3872C19.7779 34.5641 19.1481 34.698 19.4846 33.8186C19.9054 32.7194 24.8778 31.5443 26.2165 26.3135C25.375 28.8784 23.9445 34.3644 24.9543 35.7896C25.3495 35.9665 26.6372 35.6153 28.6262 32.7952M31.4566 30.4451C31.2526 29.9271 30.6228 29.2549 29.7354 30.7104C28.848 32.166 28.9067 33.1111 29.0469 33.4017C29.1107 33.6417 29.46 33.9096 30.3474 33.0605C31.2348 32.2115 31.7116 30.9631 31.8391 30.4451C31.1379 31.9108 30.0796 34.6373 31.4566 33.8186C33.1778 32.7952 37.3087 23.9635 37.1175 22.1819C36.9262 20.4004 31.0359 33.0605 33.5985 33.8186C34.2743 33.8692 35.8935 33.4851 36.9645 31.5444M37.7294 28.6257C39.1829 28.1835 42.1663 26.3893 42.4723 22.7505C42.3831 22.4726 42.0669 22.1668 41.5161 23.1675C40.8276 24.4183 38.4179 29.4975 38.0737 33.0605C38.5199 31.0137 39.6036 27.3294 40.3686 28.9669C40.5981 28.9669 39.8331 31.8097 40.3686 32.3024C40.797 32.6966 43.1991 30.4451 44.3465 29.2701C44.0405 28.7979 43.2373 28.2506 42.4723 29.8387C41.7073 31.4267 42.5871 31.9407 43.1226 31.9992C43.5688 31.8097 44.4842 30.9985 44.576 29.2701C44.5378 29.6491 44.6296 30.2935 45.3028 29.8387C46.1442 29.2701 49.4719 26.4272 49.7779 22.561C49.7779 22.3083 49.6937 21.9545 49.3572 22.561C48.9364 23.3191 46.1442 28.3604 46.5267 31.696C46.9092 35.0316 49.8161 31.0137 50.4281 29.2701C49.9181 30.3819 49.1124 32.545 49.9691 32.3024C50.8259 32.0598 51.9071 29.7502 52.3406 28.6257C51.6266 29.9271 50.6423 32.4465 52.4171 32.1129C54.1918 31.7794 56.242 28.4109 57.0452 26.7684M50.4281 27.7918L51.1549 28.6257M22.8506 29.2701C24.0235 29.3332 26.6372 29.2928 27.7082 28.6257" stroke="white" stroke-width="0.961813" stroke-linecap="round"/>
<path d="M26.144 35.7612C26.6017 39.4778 28.7964 44.0608 38.9646 43.4217C34.4931 45.2627 24.353 46.5548 19.5647 36.9957" stroke="white" stroke-width="1.44272" stroke-linecap="round"/>
<path d="M18.5405 28.2219C19.7465 23.1552 25.4813 14.1992 38.7727 18.908C35.6114 17.9386 29.6005 17.638 26.1441 27.4159" stroke="white" stroke-width="1.44272" stroke-linecap="round"/>
<path d="M33.0024 20.9529V24.428" stroke="white" stroke-width="0.692934" stroke-linecap="round"/>
<path d="M42.186 19.4595L48.4288 13.389M44.0241 21.3011L52.8681 14.2757M36.3594 15.9809L37.5732 13.0138M37.9547 12.093L39.4114 8.34155M39.6889 7.62537L40.5559 5.4427M32.7177 15.2647L33.2727 8.06872M33.5848 4.04443L33.3767 7.1138M22.3825 17.8907L18.29 13.0138M17.631 12.093L16.4345 10.5072L15.2379 8.92132M29.2495 15.2647L28.9027 12.5364M28.764 11.6838L28.0357 5.98837M27.8969 5.16987L27.7582 4.18085M14.9605 12.5364L21.1686 18.8115M50.3016 13.0138L47.1629 15.9127L44.0241 18.8115M45.2033 23.1427L52.8681 19.0844M56.2669 19.7664L50.5444 22.1878M50.0241 25.6323L57.6542 23.552M50.2322 34.4312L58.2785 35.7613M45.8276 37.6711L55.9201 42.9231M43.3652 44.7307L49.3305 51.381M38.579 45.2081L41.9085 51.381M42.3247 52.3359L43.816 55.1324M41.1802 45.2081L45.8276 51.8584M37.1571 47.2885L40.001 54.8596M36.0819 49.6075L38.0935 57.2128M33.342 46.7769L34.3825 53.9047M34.5212 54.8596L35.0414 57.8266M28.764 46.7769L27.7582 53.9047M27.6195 55.0301L27.238 57.8266M26.3015 47.5613L23.5963 55.8486M19.4345 55.4735L24.6368 45.2081M18.2206 48.8573L22.105 43.9804M17.527 49.6075L15.0298 52.9839M8.37258 46.5154C8.9265 46.1409 13.8194 42.7593 15.0298 41.8318M17.2495 40.263L17.9431 39.6832M6.5674 43.0254L13.1917 39.9561M4.72925 38.3191L14.0934 36.5116M10.8333 34.704L15.4807 34.2266M4.13965 26.8601L7.33041 27.3717M9.37665 27.7809L15.4807 28.6335M7.33041 17.8907L15.7235 22.4607M13.5385 15.9809L19.053 20.6531M15.7235 26.1439L11.8044 25.189M9.37665 24.5751L4.93734 23.4156" stroke="white" stroke-width="0.238907" stroke-linecap="round" stroke-dasharray="0.42 0.42"/>
<path d="M39.423 17.3377L46.1514 8.23193M41.0531 18.3609L48.926 10.21M43.3768 6.56082L38.0011 16.5874M36.5444 4.34406L35.7814 8.8799M35.6427 9.73251L34.6022 15.6325M23.1051 5.23604L26.7312 15.6325M12.3363 11.4718L18.4056 17.3377M19.0299 17.8834L20.5213 19.2817M18.4056 21.5325L13.7929 18.3609M13.0646 17.8834L9.00678 15.2233M16.4981 24.6019L6.16284 20.5598M44.66 22.2828L54.163 15.8371M46.1514 25.1476L47.3306 24.6019M50.6254 23.2718C50.9028 23.2173 54.8335 21.7031 56.7641 20.9528M47.3306 29.6152L49.2034 29.3424M46.9144 34.5944L58.0127 36.9817M44.0705 40.4262L49.2034 45.2008M50.0011 46.0534L52.3942 48.1679M32.8334 48.1679L33.4577 57.9557M18.6831 40.7673L10.2207 48.1679M51.3884 26.7164L58.0127 25.4545M52.9838 32.6505L58.5329 32.9233M45.0069 39.1644L54.163 45.8829M42.4751 42.2337L49.2034 48.7817M40.4982 45.8829L45.5618 54.1361M37.9664 52.2945L39.3884 56.8303M30.7525 46.7355L30.3016 57.9557M25.7583 45.8829L22.5328 53.8974M22.1513 54.8523L21.5617 56.3528M23.1571 44.3823L17.5733 52.6355M12.6137 50.9644L20.1945 42.6318M5.23212 39.8574L12.6137 37.8381M49.4462 37.1863L56.1745 39.5395M56.1745 30.0245H58.8451M3.76978 29.206H6.82181M8.5906 29.206L14.6253 29.4106M7.75822 32.5141L10.1166 32.3435M13.0646 33.469L15.4577 33.3326M4.01255 34.5262C4.26226 34.5262 5.55013 34.3443 6.16284 34.2534" stroke="white" stroke-width="0.716722" stroke-linecap="round"/>
<path d="M26.4863 9.90326L27.8389 15.5986" stroke="white" stroke-width="0.238907" stroke-linecap="round" stroke-dasharray="0.42 0.42"/>
<path d="M18.9263 6.83313L24.4605 16.634M17.6431 9.9025L23.0535 17.4395" stroke="white" stroke-width="0.238907" stroke-linecap="round" stroke-dasharray="0.42 0.42"/>
<line x1="30.6709" y1="4.06292" x2="30.6709" y2="15.069" stroke="white" stroke-width="0.597269" stroke-linecap="round"/>
<path d="M56.8218 28.5498L59.1516 28.2062" stroke="white" stroke-width="0.232984" stroke-linecap="round" stroke-dasharray="0.47 0.47"/>
</svg>
