<svg width="48" height="49" viewBox="0 0 48 49" fill="none" xmlns="http://www.w3.org/2000/svg">
<g clip-path="url(#clip0_6_9211)">
<path d="M22.7173 10.0222L24.4263 16.6062L26.4771 11.0476L33.9976 7.62863L40.3433 7.62961L43.9116 13.6111V23.1823L37.9292 29.3357L24.4263 42.155L6.6499 24.8923L6.64893 24.8913L4.08643 17.8845L8.18896 7.62863L17.5894 7.62863L22.7173 10.0222ZM25.4263 38.448L28.0718 35.9353L25.4263 34.1325V38.448ZM20.8843 35.9275L23.4263 38.3952V34.157L20.8843 35.9275ZM26.1157 32.1823L29.5562 34.5261L29.894 34.2058L30.9878 28.3474L26.1157 32.1823ZM19.5933 34.3904L22.7759 32.1726L19.8472 29.7478L19.5933 34.3904ZM15.269 30.4753L17.6763 32.8122L17.8687 29.3005L15.269 30.4753ZM32.3677 31.8571L35.4272 28.9509L33.1733 27.5427L32.3677 31.8571ZM14.4868 17.198L14.4868 22.7126L24.4409 30.9558L31.6157 25.3083L34.5698 17.1237L30.4771 15.1999L26.4683 16.8474L24.0933 23.2859L22.4907 17.1091L22.3618 16.6159L18.9565 14.7507L14.4868 17.198ZM13.7573 28.9636L17.0845 27.4597L14.2485 25.112L13.7573 28.9636ZM33.6733 25.4958L36.5806 27.3122L35.4595 20.5486L33.6733 25.4958ZM9.77686 25.1404L11.9595 27.2605L12.3101 24.5075L9.77686 25.1404ZM38.3882 25.9929L41.6528 22.6355L37.2368 19.0476L38.3882 25.9929ZM8.25537 23.4587L10.8091 22.821L7.29834 20.8425L8.25537 23.4587ZM7.17041 18.4743L12.4868 21.4704L12.4868 17.7517L7.17041 18.4743ZM37.8101 16.9353L41.9116 20.2683V15.4167L37.8101 16.9353ZM6.7915 16.5075L11.8608 15.8181L9.00342 10.9763L6.7915 16.5075ZM36.5679 15.2624L41.4829 13.4431L39.2065 9.62863H35.4243L36.5679 15.2624ZM28.0649 12.5222L27.4087 14.2986L30.5327 13.0163L34.4438 14.8552L33.4712 10.0642L28.0649 12.5222ZM13.3735 14.448L15.5767 9.62863H10.5298L13.3735 14.448ZM15.6479 14.282L18.9565 12.4714L21.6724 13.9577L21.0171 11.4343L17.6636 9.86984L15.6479 14.282Z" fill="#C1C0D4"/>
</g>
<defs>
<clipPath id="clip0_6_9211">
<rect width="39.9462" height="39.9462" fill="white" transform="translate(4.02563 4.91876)"/>
</clipPath>
</defs>
</svg>
