<svg width="48" height="48" viewBox="0 0 48 48" fill="none" xmlns="http://www.w3.org/2000/svg">
<path d="M4.13867 17.0279L8.24078 6.75781L17.6416 6.75781L22.7692 9.15412L24.4784 15.7477L26.5295 10.181L34.0501 6.75781L40.3954 6.7584L43.9635 12.7483V22.3328L37.9813 28.4937L30.5576 35.5513L24.4784 41.3307L18.5354 35.5513L12.5923 29.7719L6.70255 24.0444L4.13867 17.0279Z" fill="#FFFDFF"/>
<mask id="path-2-inside-1_217_874" fill="white">
<path d="M4.13867 17.0279L8.24078 6.75781L17.6416 6.75781L22.7692 9.15412L24.4784 15.7477L26.5295 10.181L34.0501 6.75781L40.3954 6.7584L43.9635 12.7483V22.3328L37.9813 28.4937L30.5576 35.5513L24.4784 41.3307L18.5354 35.5513L12.5923 29.7719L6.70255 24.0444L4.13867 17.0279Z"/>
</mask>
<path d="M4.13867 17.0279L4.03747 16.2848L1.82872 16.5856L3.77008 17.6811L4.13867 17.0279ZM24.4784 15.7477L24.1178 16.4053L24.4322 16.5777L24.7638 16.4413L24.4784 15.7477ZM37.9813 28.4937L37.5834 29.1295L38.9926 30.0115L38.7212 28.3713L37.9813 28.4937ZM12.5923 29.7719L11.8483 29.6772L11.6788 31.0085L12.9015 30.4552L12.5923 29.7719ZM19.0089 26.8684L19.4877 26.2911L19.4877 26.2911L19.0089 26.8684ZM18.5354 35.5513L17.7865 35.5105L17.7027 37.047L18.9646 36.1664L18.5354 35.5513ZM30.5576 35.5513L30.1349 36.1709L31.0842 36.8186L31.2949 35.6888L30.5576 35.5513ZM19.0089 12.7483L19.3696 12.0907L19.0089 11.8929L18.6483 12.0907L19.0089 12.7483ZM30.5576 13.2464L30.877 12.5678L30.5779 12.427L30.2722 12.5528L30.5576 13.2464ZM17.6416 6.75781L16.9592 6.44647L12.8571 15.4364L13.5394 15.7477L14.2218 16.0591L18.3239 7.06916L17.6416 6.75781ZM13.5394 15.7477L14.1856 15.3669L8.88691 6.37699L8.24078 6.75781L7.59466 7.13864L12.8933 16.1285L13.5394 15.7477ZM13.5394 15.7477L13.4382 15.0046L4.03747 16.2848L4.13867 17.0279L4.23987 17.7711L13.6406 16.4909L13.5394 15.7477ZM24.4784 41.3307H25.2284L25.2284 31.4039H24.4784H23.7284L23.7284 41.3307H24.4784ZM13.5394 22.3328L13.3573 21.6053L6.52042 23.3168L6.70255 24.0444L6.88468 24.7719L13.7216 23.0604L13.5394 22.3328ZM13.5394 22.3328H14.2894L14.2894 15.7477H13.5394H12.7894L12.7894 22.3328H13.5394ZM34.0501 6.75781L33.315 6.90679L35.1371 15.8967L35.8721 15.7477L36.6072 15.5987L34.7851 6.60883L34.0501 6.75781ZM35.8721 15.7477L36.1328 16.451L44.2242 13.4516L43.9635 12.7483L43.7029 12.0451L35.6114 15.0445L35.8721 15.7477ZM37.9813 28.4937L38.7212 28.3713L36.6121 15.6253L35.8721 15.7477L35.1322 15.8702L37.2413 28.6162L37.9813 28.4937ZM24.4784 31.4039L24.9428 31.9929L32.9761 25.6597L32.5118 25.0707L32.0474 24.4817L24.0141 30.8149L24.4784 31.4039ZM32.5118 25.0707L32.1139 25.7065L37.5834 29.1295L37.9813 28.4937L38.3791 27.858L32.9097 24.4349L32.5118 25.0707ZM32.5118 25.0707L33.2173 25.325L36.5777 16.002L35.8721 15.7477L35.1666 15.4934L31.8062 24.8164L32.5118 25.0707ZM13.5394 22.3328L13.908 21.6797L4.50726 16.3747L4.13867 17.0279L3.77008 17.6811L13.1708 22.986L13.5394 22.3328ZM13.5394 22.3328L12.7954 22.2381L11.8483 29.6772L12.5923 29.7719L13.3363 29.8667L14.2834 22.4276L13.5394 22.3328ZM24.4784 31.4039L24.9572 30.8266L19.4877 26.2911L19.0089 26.8684L18.5302 27.4457L23.9997 31.9812L24.4784 31.4039ZM19.0089 26.8684L19.4877 26.2911L14.0182 21.7555L13.5394 22.3328L13.0607 22.9102L18.5302 27.4457L19.0089 26.8684ZM12.5923 29.7719L12.9015 30.4552L19.3181 27.5517L19.0089 26.8684L18.6997 26.1851L12.2831 29.0886L12.5923 29.7719ZM19.0089 26.8684L18.26 26.8275L17.7865 35.5105L18.5354 35.5513L19.2843 35.5922L19.7578 26.9092L19.0089 26.8684ZM24.4784 31.4039L24.0492 30.7889L18.1062 34.9363L18.5354 35.5513L18.9646 36.1664L24.9076 32.019L24.4784 31.4039ZM24.4784 31.4039L24.0558 32.0235L30.1349 36.1709L30.5576 35.5513L30.9803 34.9318L24.9011 30.7844L24.4784 31.4039ZM32.5118 25.0707L31.7745 24.9332L29.8203 35.4139L30.5576 35.5513L31.2949 35.6888L33.2491 25.2082L32.5118 25.0707ZM24.4784 15.7477L24.8391 15.0901L19.3696 12.0907L19.0089 12.7483L18.6483 13.4059L24.1178 16.4053L24.4784 15.7477ZM19.0089 12.7483L18.6483 12.0907L13.1788 15.0901L13.5394 15.7477L13.9001 16.4053L19.3696 13.4059L19.0089 12.7483ZM24.4784 15.7477L24.7638 16.4413L30.843 13.9399L30.5576 13.2464L30.2722 12.5528L24.1931 15.0541L24.4784 15.7477ZM30.5576 13.2464L30.2382 13.925L35.5527 16.4263L35.8721 15.7477L36.1915 15.0691L30.877 12.5678L30.5576 13.2464ZM35.8721 15.7477L35.3987 16.3294L43.4901 22.9145L43.9635 22.3328L44.4369 21.7511L36.3455 15.166L35.8721 15.7477ZM4.13867 17.0279L2.74568 16.4715L2.53296 17.0041L2.72979 17.5427L4.13867 17.0279ZM8.24078 6.75781V5.25781H7.22469L6.84779 6.20142L8.24078 6.75781ZM17.6416 6.75781L18.2766 5.39888L17.9748 5.25781H17.6416V6.75781ZM6.70255 24.0444L5.29366 24.5592L5.41123 24.8809L5.6568 25.1197L6.70255 24.0444ZM24.4784 41.3307L23.4327 42.4061L24.4667 43.4116L25.512 42.4179L24.4784 41.3307ZM22.7692 9.15412L24.2212 8.77773L24.044 8.09416L23.4043 7.79519L22.7692 9.15412ZM24.4784 15.7477L23.0264 16.1241L24.229 20.7633L25.8859 16.2663L24.4784 15.7477ZM26.5295 10.181L25.9081 8.81581L25.3384 9.07512L25.122 9.66244L26.5295 10.181ZM34.0501 6.75781L34.0502 5.25781L33.7248 5.25778L33.4286 5.39259L34.0501 6.75781ZM43.9635 12.7483H45.4635V12.3354L45.2522 11.9807L43.9635 12.7483ZM40.3954 6.7584L41.6841 5.99074L41.2479 5.25847L40.3956 5.2584L40.3954 6.7584ZM43.9635 22.3328L45.0397 23.3778L45.4635 22.9413V22.3328H43.9635ZM37.9813 28.4937L39.0148 29.5809L39.0365 29.5602L39.0574 29.5387L37.9813 28.4937ZM12.5923 29.7719L11.5466 30.8473L11.5466 30.8473L12.5923 29.7719ZM18.5354 35.5513L19.5811 34.476L19.5811 34.476L18.5354 35.5513ZM30.5576 35.5513L29.5241 34.4642L29.5241 34.4642L30.5576 35.5513ZM4.13867 17.0279L5.53166 17.5843L9.63378 7.31421L8.24078 6.75781L6.84779 6.20142L2.74568 16.4715L4.13867 17.0279ZM8.24078 6.75781V8.25781H17.6416V6.75781V5.25781L8.24078 5.25781V6.75781ZM4.13867 17.0279L2.72979 17.5427L5.29366 24.5592L6.70255 24.0444L8.11144 23.5295L5.54756 16.5131L4.13867 17.0279ZM17.6416 6.75781L17.0065 8.11674L22.1341 10.5131L22.7692 9.15412L23.4043 7.79519L18.2766 5.39888L17.6416 6.75781ZM22.7692 9.15412L21.3172 9.53052L23.0264 16.1241L24.4784 15.7477L25.9304 15.3713L24.2212 8.77773L22.7692 9.15412ZM24.4784 15.7477L25.8859 16.2663L27.937 10.6996L26.5295 10.181L25.122 9.66244L23.0709 15.2291L24.4784 15.7477ZM26.5295 10.181L27.1509 11.5463L34.6715 8.12303L34.0501 6.75781L33.4286 5.39259L25.9081 8.81581L26.5295 10.181ZM43.9635 12.7483L45.2522 11.9807L41.6841 5.99074L40.3954 6.7584L39.1067 7.52605L42.6749 13.516L43.9635 12.7483ZM40.3954 6.7584L40.3956 5.2584L34.0502 5.25781L34.0501 6.75781L34.0499 8.25781L40.3953 8.2584L40.3954 6.7584ZM43.9635 12.7483H42.4635V22.3328H43.9635H45.4635V12.7483H43.9635ZM43.9635 22.3328L42.8874 21.2879L36.9051 27.4488L37.9813 28.4937L39.0574 29.5387L45.0397 23.3778L43.9635 22.3328ZM6.70255 24.0444L5.6568 25.1197L11.5466 30.8473L12.5923 29.7719L13.6381 28.6966L7.7483 22.969L6.70255 24.0444ZM12.5923 29.7719L11.5466 30.8473L17.4896 36.6267L18.5354 35.5513L19.5811 34.476L13.6381 28.6966L12.5923 29.7719ZM18.5354 35.5513L17.4896 36.6267L23.4327 42.4061L24.4784 41.3307L25.5242 40.2554L19.5811 34.476L18.5354 35.5513ZM37.9813 28.4937L36.9477 27.4066L29.5241 34.4642L30.5576 35.5513L31.5911 36.6385L39.0148 29.5809L37.9813 28.4937ZM30.5576 35.5513L29.5241 34.4642L23.4449 40.2436L24.4784 41.3307L25.512 42.4179L31.5911 36.6385L30.5576 35.5513Z" fill="#A5A4B6" mask="url(#path-2-inside-1_217_874)"/>
</svg>
