<svg width="48" height="48" viewBox="0 0 48 48" fill="none" xmlns="http://www.w3.org/2000/svg">
<path d="M4.13965 17.0279L8.24176 6.75781L17.6425 6.75781L22.7702 9.15412L24.4794 15.7477L26.5305 10.181L34.051 6.75781L40.3964 6.7584L43.9645 12.7483V22.3328L37.9822 28.4937L30.5586 35.5513L24.4794 41.3307L18.5363 35.5513L12.5933 29.7719L6.70353 24.0444L4.13965 17.0279Z" fill="#F77C78"/>
<mask id="path-2-inside-1_216_981" fill="white">
<path d="M4.13965 17.0279L8.24176 6.75781L17.6425 6.75781L22.7702 9.15412L24.4794 15.7477L26.5305 10.181L34.051 6.75781L40.3964 6.7584L43.9645 12.7483V22.3328L37.9822 28.4937L30.5586 35.5513L24.4794 41.3307L18.5363 35.5513L12.5933 29.7719L6.70353 24.0444L4.13965 17.0279Z"/>
</mask>
<path d="M4.13965 17.0279L4.03845 16.2848L1.82969 16.5856L3.77106 17.6811L4.13965 17.0279ZM24.4794 15.7477L24.1188 16.4053L24.4332 16.5777L24.7648 16.4413L24.4794 15.7477ZM37.9822 28.4937L37.5844 29.1295L38.9936 30.0115L38.7222 28.3713L37.9822 28.4937ZM12.5933 29.7719L11.8493 29.6772L11.6798 31.0085L12.9025 30.4552L12.5933 29.7719ZM19.0099 26.8684L19.4887 26.2911L19.4887 26.2911L19.0099 26.8684ZM18.5363 35.5513L17.7875 35.5105L17.7037 37.047L18.9656 36.1664L18.5363 35.5513ZM30.5586 35.5513L30.1359 36.1709L31.0852 36.8186L31.2959 35.6888L30.5586 35.5513ZM19.0099 12.7483L19.3705 12.0907L19.0099 11.8929L18.6493 12.0907L19.0099 12.7483ZM30.5586 13.2464L30.878 12.5678L30.5789 12.427L30.2732 12.5528L30.5586 13.2464ZM17.6425 6.75781L16.9602 6.44647L12.8581 15.4364L13.5404 15.7477L14.2227 16.0591L18.3249 7.06916L17.6425 6.75781ZM13.5404 15.7477L14.1865 15.3669L8.88788 6.37699L8.24176 6.75781L7.59564 7.13864L12.8943 16.1285L13.5404 15.7477ZM13.5404 15.7477L13.4392 15.0046L4.03845 16.2848L4.13965 17.0279L4.24085 17.7711L13.6416 16.4909L13.5404 15.7477ZM24.4794 41.3307H25.2294L25.2294 31.4039H24.4794H23.7294L23.7294 41.3307H24.4794ZM13.5404 22.3328L13.3583 21.6053L6.52139 23.3168L6.70353 24.0444L6.88566 24.7719L13.7225 23.0604L13.5404 22.3328ZM13.5404 22.3328H14.2904L14.2904 15.7477H13.5404H12.7904L12.7904 22.3328H13.5404ZM34.051 6.75781L33.316 6.90679L35.138 15.8967L35.8731 15.7477L36.6082 15.5987L34.7861 6.60883L34.051 6.75781ZM35.8731 15.7477L36.1338 16.451L44.2252 13.4516L43.9645 12.7483L43.7038 12.0451L35.6124 15.0445L35.8731 15.7477ZM37.9822 28.4937L38.7222 28.3713L36.613 15.6253L35.8731 15.7477L35.1332 15.8702L37.2423 28.6162L37.9822 28.4937ZM24.4794 31.4039L24.9437 31.9929L32.9771 25.6597L32.5127 25.0707L32.0484 24.4817L24.0151 30.8149L24.4794 31.4039ZM32.5127 25.0707L32.1149 25.7065L37.5844 29.1295L37.9822 28.4937L38.3801 27.858L32.9106 24.4349L32.5127 25.0707ZM32.5127 25.0707L33.2183 25.325L36.5787 16.002L35.8731 15.7477L35.1675 15.4934L31.8072 24.8164L32.5127 25.0707ZM13.5404 22.3328L13.909 21.6797L4.50824 16.3747L4.13965 17.0279L3.77106 17.6811L13.1718 22.986L13.5404 22.3328ZM13.5404 22.3328L12.7964 22.2381L11.8493 29.6772L12.5933 29.7719L13.3373 29.8667L14.2844 22.4276L13.5404 22.3328ZM24.4794 31.4039L24.9582 30.8266L19.4887 26.2911L19.0099 26.8684L18.5312 27.4457L24.0007 31.9812L24.4794 31.4039ZM19.0099 26.8684L19.4887 26.2911L14.0191 21.7555L13.5404 22.3328L13.0617 22.9102L18.5312 27.4457L19.0099 26.8684ZM12.5933 29.7719L12.9025 30.4552L19.3191 27.5517L19.0099 26.8684L18.7007 26.1851L12.2841 29.0886L12.5933 29.7719ZM19.0099 26.8684L18.261 26.8275L17.7875 35.5105L18.5363 35.5513L19.2852 35.5922L19.7588 26.9092L19.0099 26.8684ZM24.4794 31.4039L24.0502 30.7889L18.1071 34.9363L18.5363 35.5513L18.9656 36.1664L24.9086 32.019L24.4794 31.4039ZM24.4794 31.4039L24.0567 32.0235L30.1359 36.1709L30.5586 35.5513L30.9813 34.9318L24.9021 30.7844L24.4794 31.4039ZM32.5127 25.0707L31.7755 24.9332L29.8213 35.4139L30.5586 35.5513L31.2959 35.6888L33.25 25.2082L32.5127 25.0707ZM24.4794 15.7477L24.84 15.0901L19.3705 12.0907L19.0099 12.7483L18.6493 13.4059L24.1188 16.4053L24.4794 15.7477ZM19.0099 12.7483L18.6493 12.0907L13.1798 15.0901L13.5404 15.7477L13.901 16.4053L19.3705 13.4059L19.0099 12.7483ZM24.4794 15.7477L24.7648 16.4413L30.844 13.9399L30.5586 13.2464L30.2732 12.5528L24.194 15.0541L24.4794 15.7477ZM30.5586 13.2464L30.2392 13.925L35.5537 16.4263L35.8731 15.7477L36.1925 15.0691L30.878 12.5678L30.5586 13.2464ZM35.8731 15.7477L35.3997 16.3294L43.4911 22.9145L43.9645 22.3328L44.4379 21.7511L36.3465 15.166L35.8731 15.7477ZM4.13965 17.0279L2.74666 16.4715L2.53394 17.0041L2.73076 17.5427L4.13965 17.0279ZM8.24176 6.75781V5.25781H7.22567L6.84877 6.20142L8.24176 6.75781ZM17.6425 6.75781L18.2776 5.39888L17.9757 5.25781H17.6425V6.75781ZM6.70353 24.0444L5.29464 24.5592L5.41221 24.8809L5.65778 25.1197L6.70353 24.0444ZM24.4794 41.3307L23.4337 42.4061L24.4676 43.4116L25.5129 42.4179L24.4794 41.3307ZM22.7702 9.15412L24.2222 8.77773L24.045 8.09416L23.4053 7.79519L22.7702 9.15412ZM24.4794 15.7477L23.0274 16.1241L24.23 20.7633L25.8869 16.2663L24.4794 15.7477ZM26.5305 10.181L25.909 8.81581L25.3394 9.07512L25.123 9.66244L26.5305 10.181ZM34.051 6.75781L34.0512 5.25781L33.7258 5.25778L33.4296 5.39259L34.051 6.75781ZM43.9645 12.7483H45.4645V12.3354L45.2532 11.9807L43.9645 12.7483ZM40.3964 6.7584L41.6851 5.99074L41.2489 5.25847L40.3965 5.2584L40.3964 6.7584ZM43.9645 22.3328L45.0407 23.3778L45.4645 22.9413V22.3328H43.9645ZM37.9822 28.4937L39.0158 29.5809L39.0375 29.5602L39.0584 29.5387L37.9822 28.4937ZM12.5933 29.7719L11.5475 30.8473L11.5475 30.8473L12.5933 29.7719ZM18.5363 35.5513L19.5821 34.476L19.5821 34.476L18.5363 35.5513ZM30.5586 35.5513L29.5251 34.4642L29.5251 34.4642L30.5586 35.5513ZM4.13965 17.0279L5.53264 17.5843L9.63475 7.31421L8.24176 6.75781L6.84877 6.20142L2.74666 16.4715L4.13965 17.0279ZM8.24176 6.75781V8.25781H17.6425V6.75781V5.25781L8.24176 5.25781V6.75781ZM4.13965 17.0279L2.73076 17.5427L5.29464 24.5592L6.70353 24.0444L8.11241 23.5295L5.54853 16.5131L4.13965 17.0279ZM17.6425 6.75781L17.0075 8.11674L22.1351 10.5131L22.7702 9.15412L23.4053 7.79519L18.2776 5.39888L17.6425 6.75781ZM22.7702 9.15412L21.3182 9.53052L23.0274 16.1241L24.4794 15.7477L25.9314 15.3713L24.2222 8.77773L22.7702 9.15412ZM24.4794 15.7477L25.8869 16.2663L27.938 10.6996L26.5305 10.181L25.123 9.66244L23.0719 15.2291L24.4794 15.7477ZM26.5305 10.181L27.1519 11.5463L34.6725 8.12303L34.051 6.75781L33.4296 5.39259L25.909 8.81581L26.5305 10.181ZM43.9645 12.7483L45.2532 11.9807L41.6851 5.99074L40.3964 6.7584L39.1077 7.52605L42.6758 13.516L43.9645 12.7483ZM40.3964 6.7584L40.3965 5.2584L34.0512 5.25781L34.051 6.75781L34.0509 8.25781L40.3963 8.2584L40.3964 6.7584ZM43.9645 12.7483H42.4645V22.3328H43.9645H45.4645V12.7483H43.9645ZM43.9645 22.3328L42.8884 21.2879L36.9061 27.4488L37.9822 28.4937L39.0584 29.5387L45.0407 23.3778L43.9645 22.3328ZM6.70353 24.0444L5.65778 25.1197L11.5475 30.8473L12.5933 29.7719L13.639 28.6966L7.74928 22.969L6.70353 24.0444ZM12.5933 29.7719L11.5475 30.8473L17.4906 36.6267L18.5363 35.5513L19.5821 34.476L13.639 28.6966L12.5933 29.7719ZM18.5363 35.5513L17.4906 36.6267L23.4337 42.4061L24.4794 41.3307L25.5252 40.2554L19.5821 34.476L18.5363 35.5513ZM37.9822 28.4937L36.9487 27.4066L29.5251 34.4642L30.5586 35.5513L31.5921 36.6385L39.0158 29.5809L37.9822 28.4937ZM30.5586 35.5513L29.5251 34.4642L23.4459 40.2436L24.4794 41.3307L25.5129 42.4179L31.5921 36.6385L30.5586 35.5513Z" fill="#FFC7C7" mask="url(#path-2-inside-1_216_981)"/>
</svg>
