<svg width="140" height="140" viewBox="0 0 140 140" fill="none" xmlns="http://www.w3.org/2000/svg">
<g clip-path="url(#clip0_518_787)">
<rect width="140" height="140" rx="70" fill="#9999EB"/>
<path d="M30.8552 86.5115V73.216L35.0363 65.9649L41.4985 61.25L42.8289 66.5682C45.0463 70.5569 51.6096 80.6615 60.1243 89.1706C68.6389 97.6797 76.0892 101.58 78.75 102.466L74.0388 108.381L56.133 110.443L30.8552 137.035C25.5336 138.098 10.0122 121.523 2.91666 113.103L30.8552 86.5115Z" fill="#D0ABE2"/>
<path d="M71.4583 -7.29166L44.0253 58.3148C43.5267 59.4808 43.8176 62.6876 44.0253 64.1452C46.9715 69.004 54.9263 80.7621 63.1756 88.9247C71.425 97.0874 77.5457 98.1949 81.474 99.1667L154.583 78.4444C159.297 30.6346 95.519 -5.34817 71.4583 -7.29166Z" fill="#C2C2F7"/>
<path d="M35 67.0833L42.2059 79.9166L51.8137 91.5833L66.2255 103.25L75.8333 107.917" stroke="white" stroke-width="3"/>
<path d="M6.42398 109.666L31.6161 84.4732V70.7154L35.796 64.588L42.2559 58.3333M33.542 134.4L44.0405 123.901M56.8857 110.613L71.3456 109.666L75.9326 107.293L78.2261 104.921L81.6664 101.362M56.8857 110.613L51.8506 107.293M56.8857 110.613L44.0405 123.901M69.052 95.4306L65.6251 102.241L51.8506 107.293M51.8506 107.293L44.0405 100.176M51.8506 107.293L39.2363 120.342M39.2363 120.342L44.0405 123.901M39.2363 120.342L30.0622 129.832M44.0405 100.176L51.8506 91.8719L57.5844 84.7543M44.0405 100.176L40.383 95.4306L36.936 90.6856M36.936 90.6856L42.6765 78.823L49.5571 75.2643M36.936 90.6856L25.4751 103.734" stroke="white" stroke-width="3"/>
<path d="M42.1383 58.8578C42.3602 58.6452 43.0231 58.3642 44.6578 58.7701C46.2071 59.1548 48.222 60.0671 50.5842 61.5015C55.2893 64.3584 61.0769 69.1032 66.7953 75.0715C72.5136 81.0397 77.0066 87.025 79.6598 91.8479C80.9918 94.2692 81.8171 96.3213 82.1353 97.8857C82.4709 99.5363 82.1618 100.186 81.9399 100.399C81.7177 100.612 81.055 100.892 79.4212 100.486C77.8719 100.101 75.8569 99.1891 73.4948 97.7548C68.7897 94.8978 63.002 90.153 57.2837 84.1848C51.5653 78.2165 47.0723 72.2312 44.4192 67.4083C43.0871 64.987 42.2618 62.9349 41.9437 61.3705C41.6082 59.7208 41.9164 59.0708 42.1383 58.8578Z" stroke="white" stroke-width="3"/>
<mask id="path-7-inside-1_518_787" fill="white">
<ellipse cx="62.8503" cy="79.642" rx="2.58147" ry="9.66187" transform="rotate(-45.7204 62.8503 79.642)"/>
</mask>
<path d="M64.6526 77.7939L62.5581 79.9417C64.3367 81.6761 65.6808 83.3671 66.4381 84.6394C66.8283 85.2951 66.9733 85.6913 67.0077 85.8354C67.083 86.1505 66.7388 85.1966 67.6198 84.2931L69.7676 86.3876L71.9155 88.4821C73.2942 87.0682 73.0369 85.2506 72.8434 84.4408C72.609 83.4599 72.1293 82.4701 71.5939 81.5706C70.4999 79.7326 68.7888 77.6371 66.7471 75.646L64.6526 77.7939ZM69.7676 86.3876L67.6198 84.2931C68.5008 83.3896 69.4631 83.7098 69.1462 83.6424C69.0013 83.6116 68.6015 83.4767 67.9363 83.103C66.6453 82.378 64.9211 81.0768 63.1425 79.3424L61.048 81.4902L58.9535 83.638C60.9953 85.6291 63.1332 87.287 64.9981 88.3344C65.9108 88.847 66.9124 89.3017 67.8988 89.5113C68.7132 89.6844 70.5367 89.8959 71.9155 88.4821L69.7676 86.3876ZM61.048 81.4902L63.1425 79.3424C61.3639 77.608 60.0198 75.917 59.2625 74.6447C58.8722 73.989 58.7273 73.5928 58.6929 73.4487C58.6176 73.1336 58.9618 74.0875 58.0808 74.991L55.933 72.8965L53.7851 70.802C52.4064 72.2159 52.6637 74.0335 52.8572 74.8433C53.0916 75.8242 53.5713 76.814 54.1067 77.7135C55.2007 79.5515 56.9118 81.647 58.9535 83.638L61.048 81.4902ZM55.933 72.8965L58.0808 74.991C57.1998 75.8945 56.2375 75.5743 56.5544 75.6417C56.6993 75.6725 57.099 75.8074 57.7643 76.181C59.0553 76.9061 60.7795 78.2073 62.5581 79.9417L64.6526 77.7939L66.7471 75.646C64.7053 73.655 62.5674 71.9971 60.7025 70.9497C59.7898 70.4371 58.7882 69.9824 57.8018 69.7728C56.9874 69.5997 55.1638 69.3882 53.7851 70.802L55.933 72.8965Z" fill="white" mask="url(#path-7-inside-1_518_787)"/>
<circle cx="30.625" cy="109.375" r="4.375" fill="white"/>
<path d="M80.313 47.0859L85.9127 34.7664L99.3522 39.2462L104.952 51.5657L99.3522 65.0051L85.9127 60.5253L80.313 47.0859Z" fill="#B881D3"/>
<path d="M86.8357 33.4441L93.3972 35.9203L99.96 38.3971L100.367 38.5499L105.914 52.0642L105.732 52.4598L99.8718 65.2049L99.4817 66.0522L98.6097 65.7229L85.4854 60.7699L85.0782 60.6162L79.5312 47.1019L79.7134 46.7072L82.6429 40.3344L85.5736 33.9621L85.9628 33.1152L86.8357 33.4441ZM98.1857 62.9127L99.4645 55.2159L91.8685 58.3337L98.1857 62.9127ZM101.641 54.3227L101.056 57.8361L102.913 53.8006L101.641 54.3227ZM92.5499 61.2979L89.693 59.2266L88.4327 59.7439L92.5499 61.2979ZM96.9122 41.5186L101.332 52.2874L103.481 51.4053L99.0614 40.6365L96.9122 41.5186ZM86.3462 58.4384L88.4828 57.5614L85.691 50.7596L87.5412 50.0001L90.333 56.802L99.482 53.0468L95.0619 42.278L85.913 46.0332L86.1573 46.6286L84.3071 47.388L84.0628 46.7926L81.9262 47.6696L86.3462 58.4384ZM95.757 39.8308L96.8773 39.371L93.1976 37.9826L95.757 39.8308ZM82.5914 45.2346L83.699 44.78L84.2155 41.702L82.5914 45.2346ZM86.5095 40.1207L85.8772 43.886L93.5789 40.7248L90.4837 38.4895L87.1824 36.1045L86.5095 40.1207Z" fill="white"/>
</g>
<defs>
<clipPath id="clip0_518_787">
<rect width="140" height="140" rx="70" fill="white"/>
</clipPath>
</defs>
</svg>
