<svg width="140" height="140" viewBox="0 0 140 140" fill="none" xmlns="http://www.w3.org/2000/svg">
<g clip-path="url(#clip0_518_810)">
<rect width="140" height="140" rx="70" fill="#9999EB"/>
<path d="M175 26.2503L78.7499 16.042L71.4583 119.584L125.417 140.984H146.034L175 26.2503Z" fill="#C2C2F7"/>
<path d="M71.4583 36.4588C52.7916 35.2921 40.3471 40.8338 36.4583 43.7504L43.7499 59.7921L53.9583 72.9171L67.0833 81.6671V113.75L61.2499 118.125H67.0833H81.6666L74.3749 115.209V81.6671L86.0416 72.9171L97.7083 59.7921L103.542 45.2088L102.083 40.8338C99.6527 39.8615 90.1249 37.6254 71.4583 36.4588Z" fill="#D0ABE2"/>
<path d="M36.5 43.749C36.5 43.2693 36.8864 42.4327 38.5469 41.3838C40.133 40.3818 42.5283 39.424 45.6211 38.5977C51.7848 36.9509 60.3834 35.9141 69.9395 35.9141C79.4956 35.9141 88.0941 36.9508 94.2578 38.5977C97.3504 39.424 99.7449 40.3819 101.331 41.3838C102.992 42.4327 103.378 43.2693 103.378 43.749C103.378 44.2288 102.991 45.0654 101.331 46.1143C99.7449 47.1161 97.3504 48.0741 94.2578 48.9004C88.0941 50.5472 79.4956 51.584 69.9395 51.584C60.3834 51.584 51.7848 50.5472 45.6211 48.9004C42.5283 48.074 40.133 47.1162 38.5469 46.1143C36.8865 45.0654 36.5001 44.2288 36.5 43.749Z" stroke="white" stroke-width="3"/>
<path opacity="0.4" d="M92.685 37.0967L90.002 55.8778M90.002 55.8778L98.0511 58.5609M90.002 55.8778L83.2944 66.6099L87.319 71.976" stroke="white" stroke-width="3"/>
<path d="M36.3408 43.8047L43.0484 58.5613L55.122 73.3179L67.1956 81.367C67.6427 81.367 69.6103 81.367 73.9031 81.367L85.9767 73.3179L98.0503 58.5613L103.416 43.8047" stroke="white" stroke-width="3"/>
<path d="M67.5126 115.004V82.708H73.8256V115.004L84.6366 117.587L71.2215 118.929L56.4648 117.587L67.5126 115.004Z" stroke="white" stroke-width="3"/>
<path d="M52.4399 50.5117L55.1229 61.2438M55.1229 61.2438L43.0493 58.5608M55.1229 61.2438L60.489 69.2929M55.1229 61.2438L68.538 62.5853M68.538 74.6589L67.1965 81.3665M68.538 74.6589H72.5626L68.538 62.5853M68.538 74.6589L60.489 69.2929M60.489 69.2929L55.1229 73.3174M68.538 62.5853V51.8532" stroke="white" stroke-width="3"/>
<path d="M68.5374 93.4404L73.9034 94.7819M73.9034 105.514L68.5374 106.856" stroke="white" stroke-width="3"/>
<path d="M64.0794 21.6002L77.2561 16.5974L83.9085 29.7675L79.0136 42.9846L65.0154 48.8156L58.363 35.6456L64.0794 21.6002Z" fill="#B881D3"/>
<path d="M78.8707 16.3135L84.9435 29.6027L85.1239 29.9974L79.3274 44.0257L78.9207 44.1789L65.2385 49.3053L64.3658 49.6326L63.9777 48.7843L57.9057 35.4955L57.7249 35.0996L63.5213 21.0713L63.9286 20.9194L70.7696 18.3561L77.6098 15.7925L78.4835 15.4657L78.8707 16.3135ZM65.6588 46.4855L72.3634 41.6491L64.3235 38.327L65.6588 46.4855ZM74.5377 42.5475L71.2579 44.9127L75.9809 43.1438L74.5377 42.5475ZM62.797 41.3871L62.1493 37.4286L60.7178 36.8371L62.797 41.3871ZM80.4153 29.604L75.7536 40.8859L78.066 41.8413L82.7276 30.5595L80.4153 29.604ZM60.1603 34.4427L62.4609 35.3933L65.4018 28.2758L67.2502 29.0396L64.3093 36.1571L73.9052 40.1221L78.5669 28.8402L68.9709 24.8752L68.6995 25.5323L66.851 24.7685L67.1225 24.1115L64.8219 23.1609L60.1603 34.4427ZM80.7855 27.593L82.0681 28.1229L80.1947 24.0236L80.7855 27.593ZM67.009 21.9006L68.2798 22.4256L71.1899 20.3335L67.009 21.9006ZM73.747 20.96L70.4558 23.3248L78.6095 26.6939L77.9475 22.6956L77.245 18.4451L73.747 20.96Z" fill="white"/>
</g>
<defs>
<clipPath id="clip0_518_810">
<rect width="140" height="140" rx="70" fill="white"/>
</clipPath>
</defs>
</svg>
