<svg width="48" height="48" viewBox="0 0 48 48" fill="none" xmlns="http://www.w3.org/2000/svg">
<g clip-path="url(#clip0_1162_3089)">
<rect width="48" height="48" rx="24" fill="#D4B7E2"/>
<path d="M10.7764 29.6611V25.1026L12.2394 22.6165L14.5007 21L14.9663 22.8234C15.7422 24.1909 18.0388 27.6554 21.0183 30.5728C23.9978 33.4902 26.6048 34.8273 27.5359 35.1312L25.8873 37.1593L19.6217 37.8663L10.7764 46.9833C8.91421 47.3479 3.48289 41.665 1 38.778L10.7764 29.6611Z" fill="#9999EB"/>
<path d="M24.2263 -2.59685L14.8207 20.1221C14.6498 20.5259 14.7495 21.6364 14.8207 22.1412C15.8308 23.8237 18.5582 27.8955 21.3865 30.7221C24.2149 33.5488 26.3134 33.9323 27.6603 34.2688L52.7263 27.0929C54.3425 10.5367 32.4757 -1.92383 24.2263 -2.59685Z" fill="#E9D5F3"/>
<path d="M12 23L14.4706 27.4L17.7647 31.4L22.7059 35.4L26 37" stroke="white"/>
<path d="M2.20239 37.5997L10.8397 28.9623V24.2453L12.2728 22.1444L14.4876 20M11.5 46.0799L15.0995 42.4803M19.5036 37.9245L24.4612 37.5997L26.0339 36.7862L26.8203 35.9728L27.9998 34.7527M19.5036 37.9245L17.7772 36.7862M19.5036 37.9245L15.0995 42.4803M23.6749 32.7191L22.4999 35.0542L17.7772 36.7862M17.7772 36.7862L15.0995 34.3459M17.7772 36.7862L13.4523 41.2601M13.4523 41.2601L15.0995 42.4803M13.4523 41.2601L10.3069 44.5139M15.0995 34.3459L17.7772 31.4989L19.7431 29.0586M15.0995 34.3459L13.8455 32.7191L12.6637 31.0922M12.6637 31.0922L14.6318 27.025L16.9909 25.8049M12.6637 31.0922L8.73422 35.5661" stroke="white"/>
<path d="M14.4377 20.1694C14.5193 20.0912 14.7529 19.9964 15.3142 20.1357C15.8473 20.268 16.5399 20.5816 17.3503 21.0737C18.9648 22.054 20.9504 23.6821 22.9116 25.7291C24.8727 27.7759 26.4139 29.8288 27.3243 31.4837C27.7814 32.3144 28.0649 33.0197 28.1744 33.558C28.2897 34.1251 28.1856 34.3548 28.1039 34.433C28.0222 34.5112 27.7883 34.6055 27.2267 34.4661C26.6935 34.3336 26.001 34.0202 25.1906 33.5281C23.5761 32.5477 21.591 30.9201 19.6299 28.8734C17.6687 26.8264 16.127 24.773 15.2165 23.1181C14.7596 22.2874 14.4759 21.582 14.3665 21.0437C14.2513 20.477 14.356 20.2476 14.4377 20.1694Z" stroke="white"/>
<path d="M19.3886 25.1999C19.4088 25.1961 19.4547 25.1929 19.5435 25.2118C19.6967 25.2443 19.9078 25.3302 20.1662 25.4753C20.6795 25.7636 21.3221 26.2533 21.9642 26.8795C22.6064 27.5057 23.1121 28.1357 23.4132 28.6416C23.5648 28.8964 23.6559 29.1051 23.6923 29.2575C23.7134 29.3457 23.7113 29.3917 23.7081 29.412C23.6875 29.4157 23.6417 29.4181 23.5539 29.3995C23.4006 29.3669 23.189 29.2818 22.9304 29.1366C22.4172 28.8483 21.7753 28.3579 21.1331 27.7318C20.491 27.1055 19.9846 26.4762 19.6835 25.9703C19.5319 25.7156 19.4415 25.5061 19.4051 25.3537C19.3842 25.2663 19.3854 25.2204 19.3886 25.1999Z" stroke="white" stroke-width="0.579885"/>
<circle cx="10.5" cy="37.5" r="1.5" fill="white"/>
<path d="M27.5359 16.1437L29.4558 11.9199L34.0636 13.4558L35.9835 17.6797L34.0636 22.2875L29.4558 20.7515L27.5359 16.1437Z" fill="#9999EB"/>
<path fill-rule="evenodd" clip-rule="evenodd" d="M29.748 11.5305L29.5086 11.4401L29.4017 11.6726L28.397 13.8575L27.3923 16.0424L27.3424 16.1509L27.3878 16.2613L29.1763 20.6189L29.2217 20.7293L29.3334 20.7715L33.8332 22.4695L34.0727 22.5599L34.1796 22.3274L36.1889 17.9576L36.2388 17.8491L36.1935 17.7387L34.4049 13.3812L34.3596 13.2707L34.2479 13.2285L31.998 12.3795L29.748 11.5305ZM29.0263 13.8033L28.8959 14.0869L28.1827 15.6379L28.758 15.4017L29.0263 13.8033ZM27.9999 16.3065L29.5673 20.1252L30.4263 19.7726L30.1001 18.9776L29.4431 17.377L29.9511 17.1685L30.6081 18.7691L30.9343 19.5641L34.1974 18.2248L33.5252 16.5871L32.63 14.4061L29.367 15.7454L29.4767 16.0127L28.9687 16.2212L28.859 15.9539L27.9999 16.3065ZM30.1333 20.4864L32.1855 21.2608L30.7615 20.2286L30.1333 20.4864ZM34.4972 20.3223L35.4194 18.3168L34.7872 18.5762L34.4972 20.3223ZM35.5684 17.662L34.0011 13.8433L33.138 14.1976L34.0332 16.3786L34.7054 18.0163L35.5684 17.662ZM33.4012 13.4959L31.8041 12.8932L31.4988 12.7781L32.8219 13.7337L33.4012 13.4959ZM31.3589 19.9834L34.1898 18.8214L33.7134 21.6902L31.3589 19.9834ZM32.2239 13.9792L31.0632 13.1408L29.8423 12.2589L29.593 13.7442L29.356 15.1563L32.2239 13.9792Z" fill="white"/>
</g>
<defs>
<clipPath id="clip0_1162_3089">
<rect width="48" height="48" rx="24" fill="white"/>
</clipPath>
</defs>
</svg>
