<svg width="48" height="48" viewBox="0 0 48 48" fill="none" xmlns="http://www.w3.org/2000/svg">
<g clip-path="url(#clip0_1162_3091)">
<rect width="48" height="48" rx="24" fill="#D4B7E2"/>
<path d="M60 9L27 5.5L24.5 41L43 48.3372H50.069L60 9Z" fill="#E9D5F3"/>
<path d="M24.5 12.5C18.1 12.1 13.8333 14 12.5 15L15 20.5L18.5 25L23 28V39L21 40.5H23H28L25.5 39.5V28L29.5 25L33.5 20.5L35.5 15.5L35 14C34.1667 13.6667 30.9 12.9 24.5 12.5Z" fill="#9999EB"/>
<path d="M12.46 15C12.46 14.8062 12.6143 14.5047 13.1875 14.1426C13.7379 13.795 14.5645 13.4646 15.627 13.1807C17.746 12.6145 20.6997 12.2588 23.9795 12.2588C27.2591 12.2588 30.2121 12.6145 32.3311 13.1807C33.3939 13.4646 34.2211 13.7949 34.7715 14.1426C35.3446 14.5046 35.498 14.8062 35.498 15C35.4978 15.1938 35.3441 15.4947 34.7715 15.8564C34.2211 16.2041 33.3939 16.5344 32.3311 16.8184C30.2121 17.3845 27.2591 17.7402 23.9795 17.7402C20.6997 17.7402 17.746 17.3845 15.627 16.8184C14.5644 16.5344 13.7379 16.204 13.1875 15.8564C12.6147 15.4946 12.4602 15.1938 12.46 15Z" stroke="white" stroke-width="0.919893"/>
<path opacity="0.4" d="M31.7777 12.7189L30.8578 19.1582M30.8578 19.1582L33.6175 20.0781M30.8578 19.1582L28.5581 22.8378L29.9379 24.6775" stroke="white" stroke-width="0.919893"/>
<path d="M12.4597 15.0186L14.7595 20.078L18.899 25.1374L23.0385 27.8971C23.1918 27.8971 23.8664 27.8971 25.3382 27.8971L29.4777 25.1374L33.6173 20.078L35.457 15.0186" stroke="white" stroke-width="0.919893"/>
<path d="M23.1472 39.4299V28.3571H25.3116V39.4299L29.0183 40.3157L24.4188 40.7756L19.3594 40.3157L23.1472 39.4299Z" stroke="white" stroke-width="0.919893"/>
<path d="M17.9794 17.3183L18.8993 20.9979M18.8993 20.9979L14.7598 20.078M18.8993 20.9979L20.7391 23.7576M18.8993 20.9979L23.4988 21.4578M23.4988 25.5974L23.0388 27.8971M23.4988 25.5974H24.8786L23.4988 21.4578M23.4988 25.5974L20.7391 23.7576M20.7391 23.7576L18.8993 25.1374M23.4988 21.4578V17.7783" stroke="white" stroke-width="0.919893"/>
<path d="M23.4985 32.0367L25.3383 32.4966M25.3383 36.1762L23.4985 36.6361" stroke="white" stroke-width="0.919893"/>
<path d="M21.9701 7.40568L26.4879 5.69044L28.7687 10.2059L27.0904 14.7375L22.291 16.7367L20.0102 12.2212L21.9701 7.40568Z" fill="#E9D5F3"/>
<path fill-rule="evenodd" clip-rule="evenodd" d="M26.9896 5.61673L26.8788 5.37427L26.6292 5.46781L24.2837 6.34659L21.9383 7.22538L21.8218 7.26902L21.7743 7.38396L19.9008 11.9181L19.8533 12.033L19.905 12.1461L21.9871 16.7023L22.0979 16.9447L22.3475 16.8512L27.0384 15.0936L27.1549 15.05L27.2024 14.9351L29.0759 10.4009L29.1234 10.286L29.0717 10.1729L28.0306 7.89481L26.9896 5.61673ZM24.7885 6.76822L24.4844 6.88216L22.8193 7.50602L23.4179 7.75333L24.7885 6.76822ZM22.1938 7.86639L20.552 11.8398L21.4458 12.2091L21.7877 11.3819L22.4758 9.71638L23.0044 9.93479L22.3162 11.6003L21.9744 12.4275L25.3697 13.8304L26.0739 12.1263L27.0115 9.85705L23.6162 8.45412L23.5013 8.73217L22.9727 8.51376L23.0876 8.23571L22.1938 7.86639ZM20.7057 12.5221L21.6552 14.5999L21.3593 12.7922L20.7057 12.5221ZM24.0527 15.6016L26.2059 14.7948L25.548 14.5229L24.0527 15.6016ZM26.7964 14.4199L28.4382 10.4465L27.5401 10.0755L26.6025 12.3447L25.8983 14.0488L26.7964 14.4199ZM28.2495 9.74974L27.5104 8.13252L27.3692 7.82354L27.6467 9.50067L28.2495 9.74974ZM22.4701 16.038L21.9809 13.049L24.9264 14.2661L22.4701 16.038ZM26.525 6.22447L26.781 7.772L27.0245 9.24357L24.0401 8.01044L25.2513 7.13994L26.525 6.22447Z" fill="white"/>
</g>
<defs>
<clipPath id="clip0_1162_3091">
<rect width="48" height="48" rx="24" fill="white"/>
</clipPath>
</defs>
</svg>
