<svg width="140" height="140" viewBox="0 0 140 140" fill="none" xmlns="http://www.w3.org/2000/svg">
<g clip-path="url(#clip0_518_804)">
<rect width="140" height="140" rx="70" fill="#9999EB"/>
<path d="M158.958 53.9583L97.7083 29.1667L32.0833 102.083L115.208 148.75L140.201 133.183L158.958 53.9583Z" fill="#C2C2F7"/>
<path d="M89.1479 67.9081L115.215 97.8995L71.086 114.318L36.4138 104.968L27.2565 82.2154L53.6236 63.6856L89.1479 67.9081Z" fill="#D0ABE2"/>
<path d="M27.2565 82.2154L53.6236 63.6856L89.1479 67.9081L115.215 97.8995L71.086 114.318M27.2565 82.2154L36.4138 104.968M27.2565 82.2154L11.6667 82.6034M27.2565 82.2154L32.8985 82.9736M36.4138 104.968L71.086 114.318M36.4138 104.968L43.1454 96.9379M71.086 114.318L72.7055 105.671M75.3463 88.6785L32.8985 82.9736M72.7055 105.671L103.606 94.081M72.7055 105.671L43.1454 96.9379M43.1454 96.9379L32.8985 82.9736" stroke="white" stroke-width="3"/>
<path d="M68.0096 66.7284L37.9167 60.3378L57.5441 29.6202L83.3359 19.2402L99.6012 29.0372L91.9381 52.7813L68.0096 66.7284Z" fill="#D0ABE2"/>
<path d="M37.9167 60.3378L68.0096 66.7284M37.9167 60.3378L57.5441 29.6202L83.3359 19.2402L99.6012 29.0372M37.9167 60.3378L43.2399 57.7382L68.0096 63.063M68.0096 66.7284L91.9381 52.7813M68.0096 66.7284L68.0096 63.063M91.9381 52.7813L99.6012 29.0372M91.9381 52.7813L86.9033 50.2835M99.6012 29.0372L109.058 21.5311M99.6012 29.0372L94.358 31.9869M66.8607 47.4558L94.358 31.9869M68.0096 63.063L86.9033 50.2835M86.9033 50.2835L94.358 31.9869" stroke="white" stroke-width="3"/>
</g>
<defs>
<clipPath id="clip0_518_804">
<rect width="140" height="140" rx="70" fill="white"/>
</clipPath>
</defs>
</svg>
