<svg width="49" height="49" viewBox="0 0 49 49" fill="none" xmlns="http://www.w3.org/2000/svg">
<g clip-path="url(#clip0_1039_1813)">
<path d="M4.37085 17.9836L8.47296 7.71353L17.8737 7.71353L23.0014 10.1098L24.7106 16.7034L26.7617 11.1368L34.2822 7.71353L40.6276 7.71411L44.1957 13.704V23.2886L38.2134 29.4495L30.7898 36.5071L24.7106 42.2865L18.7676 36.5071L12.8245 30.7277L6.93473 25.0001L4.37085 17.9836Z" fill="#A67CEB"/>
<g filter="url(#filter0_d_1039_1813)">
<path d="M17.8738 7.71353L23.0017 10.11L24.7107 16.7038L26.7615 11.1364L34.282 7.71353L40.6277 7.71451L44.196 13.7038V23.2887L38.2136 29.4499L24.7107 42.2868L6.93433 24.9997L4.37085 17.984L8.47339 7.71353L17.8738 7.71353ZM25.4607 39.5036L28.9656 36.1706L25.4607 33.779V39.5036ZM20.5671 36.1647L23.9607 39.4645V33.7965L20.5671 36.1647ZM25.9773 32.3151L30.0779 35.1129L30.3308 34.8727L31.6404 27.8512L25.9773 32.3151ZM19.5994 35.0114L23.4734 32.3073L19.908 29.3512L19.5994 35.0114ZM14.8699 30.6247L18.1619 33.8258L18.4246 29.0163L14.8699 30.6247ZM32.1853 33.109L36.3386 29.1608L33.2791 27.2458L32.1853 33.109ZM14.5212 17.1471L14.5212 22.9352L24.7214 31.3942L32.1111 25.569L35.1667 17.0915L30.7693 15.0211L26.2419 16.8835L26.1179 17.2223L24.4617 21.7194L23.2585 17.0797L23.1619 16.7096L19.241 14.5592L14.5212 17.1471ZM13.7371 29.4909L17.8386 27.6354L14.3425 24.736L13.7371 29.4909ZM9.2771 25.1862L12.3884 28.2116L12.8894 24.2819L9.2771 25.1862ZM33.655 25.7116L37.2019 27.9313L35.8337 19.6657L33.655 25.7116ZM38.5583 26.9401L42.5037 22.8776L37.1677 18.5358L38.5583 26.9401ZM8.13843 23.9245L11.7644 23.0172L6.77905 20.2028L8.13843 23.9245ZM6.68042 18.4254L13.0212 22.0036L13.0212 17.5622L6.68042 18.4254ZM37.5955 16.9499L42.696 21.1003V15.0592L37.5955 16.9499ZM6.39722 16.9508L12.5525 16.112L9.08374 10.2272L6.39722 16.9508ZM36.6648 15.695L42.3748 13.5788L39.7742 9.21353H35.3513L36.6648 15.695ZM27.9519 12.2419L26.946 14.9713L30.8103 13.3825L35.072 15.3883L33.8875 9.54068L27.9519 12.2419ZM13.6863 15.0827L16.365 9.21353H10.2273L13.6863 15.0827ZM15.3914 14.9586L18.8806 13.0465L19.241 12.8483L19.6013 13.0465L22.6453 14.7155L21.7263 11.1696L17.9304 9.39517L15.3914 14.9586Z" fill="#C1C0D4"/>
</g>
</g>
<defs>
<filter id="filter0_d_1039_1813" x="1.37085" y="4.71353" width="45.8252" height="40.5732" filterUnits="userSpaceOnUse" color-interpolation-filters="sRGB">
<feFlood flood-opacity="0" result="BackgroundImageFix"/>
<feColorMatrix in="SourceAlpha" type="matrix" values="0 0 0 0 0 0 0 0 0 0 0 0 0 0 0 0 0 0 127 0" result="hardAlpha"/>
<feOffset/>
<feGaussianBlur stdDeviation="1.5"/>
<feComposite in2="hardAlpha" operator="out"/>
<feColorMatrix type="matrix" values="0 0 0 0 0.183922 0 0 0 0 0.0487472 0 0 0 0 0.274038 0 0 0 0.25 0"/>
<feBlend mode="normal" in2="BackgroundImageFix" result="effect1_dropShadow_1039_1813"/>
<feBlend mode="normal" in="SourceGraphic" in2="effect1_dropShadow_1039_1813" result="shape"/>
</filter>
<clipPath id="clip0_1039_1813">
<rect width="42" height="40" fill="white" transform="translate(3.2832 5)"/>
</clipPath>
</defs>
</svg>
