<svg width="48" height="49" viewBox="0 0 48 49" fill="none" xmlns="http://www.w3.org/2000/svg">
<g clip-path="url(#clip0_6_9207)">
<path d="M4.13928 17.9469L8.24139 7.67683L17.6422 7.67683L22.7698 10.0731L24.479 16.6667L26.5301 11.1001L34.0507 7.67683L40.396 7.67742L43.9641 13.6673V23.2519L37.9819 29.4128L30.5582 36.4704L24.479 42.2498L18.536 36.4704L12.5929 30.691L6.70316 24.9634L4.13928 17.9469Z" fill="#BA7BC7"/>
<g filter="url(#filter0_d_6_9207)">
<path d="M17.6422 7.67683L22.7701 10.0733L24.4791 16.6671L26.5299 11.0997L34.0504 7.67683L40.3961 7.67781L43.9645 13.6671V23.252L37.9821 29.4132L24.4791 42.2501L6.70276 24.963L4.13928 17.9473L8.24182 7.67683L17.6422 7.67683ZM25.2291 39.4669L28.734 36.1339L25.2291 33.7423V39.4669ZM20.3356 36.128L23.7291 39.4278V33.7598L20.3356 36.128ZM25.7457 32.2784L29.8463 35.0762L30.0992 34.836L31.4088 27.8145L25.7457 32.2784ZM19.3678 34.9747L23.2418 32.2706L19.6764 29.3145L19.3678 34.9747ZM14.6383 30.588L17.9303 33.7891L18.193 28.9796L14.6383 30.588ZM31.9537 33.0723L36.1071 29.1241L33.0475 27.2091L31.9537 33.0723ZM14.2897 17.1104L14.2897 22.8985L24.4899 31.3575L31.8795 25.5323L34.9352 17.0548L30.5377 14.9845L26.0104 16.8468L25.8864 17.1856L24.2301 21.6827L23.027 17.043L22.9303 16.6729L19.0094 14.5225L14.2897 17.1104ZM13.5055 29.4542L17.6071 27.5987L14.111 24.6993L13.5055 29.4542ZM9.04553 25.1495L12.1569 28.1749L12.6578 24.2452L9.04553 25.1495ZM33.4235 25.6749L36.9703 27.8946L35.6022 19.629L33.4235 25.6749ZM38.3268 26.9034L42.2721 22.8409L36.9362 18.4991L38.3268 26.9034ZM7.90686 23.8878L11.5328 22.9805L6.54749 20.1661L7.90686 23.8878ZM6.44885 18.3887L12.7897 21.9669L12.7897 17.5255L6.44885 18.3887ZM37.3639 16.9132L42.4645 21.0636V15.0225L37.3639 16.9132ZM6.16565 16.9141L12.3209 16.0753L8.85217 10.1905L6.16565 16.9141ZM36.4332 15.6583L42.1432 13.5421L39.5426 9.17683H35.1198L36.4332 15.6583ZM27.7203 12.2052L26.7145 14.9346L30.5787 13.3458L34.8405 15.3516L33.6559 9.50398L27.7203 12.2052ZM13.4547 15.046L16.1334 9.17683H9.99573L13.4547 15.046ZM15.1598 14.922L18.649 13.0098L19.0094 12.8116L19.3698 13.0098L22.4137 14.6788L21.4948 11.1329L17.6989 9.35847L15.1598 14.922Z" fill="white"/>
</g>
</g>
<defs>
<filter id="filter0_d_6_9207" x="1.13928" y="4.67683" width="45.8252" height="40.5732" filterUnits="userSpaceOnUse" color-interpolation-filters="sRGB">
<feFlood flood-opacity="0" result="BackgroundImageFix"/>
<feColorMatrix in="SourceAlpha" type="matrix" values="0 0 0 0 0 0 0 0 0 0 0 0 0 0 0 0 0 0 127 0" result="hardAlpha"/>
<feOffset/>
<feGaussianBlur stdDeviation="1.5"/>
<feComposite in2="hardAlpha" operator="out"/>
<feColorMatrix type="matrix" values="0 0 0 0 0.183922 0 0 0 0 0.0487472 0 0 0 0 0.274038 0 0 0 0.25 0"/>
<feBlend mode="normal" in2="BackgroundImageFix" result="effect1_dropShadow_6_9207"/>
<feBlend mode="normal" in="SourceGraphic" in2="effect1_dropShadow_6_9207" result="shape"/>
</filter>
<clipPath id="clip0_6_9207">
<rect width="42" height="40" fill="white" transform="translate(3.05176 4.96332)"/>
</clipPath>
</defs>
</svg>
