<svg width="48" height="48" viewBox="0 0 48 48" fill="none" xmlns="http://www.w3.org/2000/svg">
<g clip-path="url(#clip0_157_1443)">
<path d="M22.7168 9.10327L24.4258 15.6873L26.4766 10.1287L33.9971 6.70972L40.3428 6.71069L43.9111 12.6921V22.2634L37.9287 28.4167L24.4258 41.2361L6.64941 23.9734L6.64844 23.9724L4.08594 16.9656L8.18848 6.70972L17.5889 6.70972L22.7168 9.10327ZM25.4258 37.5291L28.0713 35.0164L25.4258 33.2136V37.5291ZM20.8838 35.0085L23.4258 37.4763V33.238L20.8838 35.0085ZM26.1152 31.2634L29.5557 33.6072L29.8936 33.2869L30.9873 27.4285L26.1152 31.2634ZM19.5928 33.4714L22.7754 31.2537L19.8467 28.8289L19.5928 33.4714ZM15.2686 29.5564L17.6758 31.8933L17.8682 28.3816L15.2686 29.5564ZM32.3672 30.9382L35.4268 28.032L33.1729 26.6238L32.3672 30.9382ZM14.4863 16.2791L14.4863 21.7937L24.4404 30.0369L31.6152 24.3894L34.5693 16.2048L30.4766 14.281L26.4678 15.9285L24.0928 22.3669L22.4902 16.1902L22.3613 15.697L18.9561 13.8318L14.4863 16.2791ZM13.7568 28.0447L17.084 26.5408L14.248 24.1931L13.7568 28.0447ZM33.6729 24.5769L36.5801 26.3933L35.459 19.6296L33.6729 24.5769ZM9.77637 24.2214L11.959 26.3416L12.3096 23.5886L9.77637 24.2214ZM38.3877 25.074L41.6523 21.7166L37.2363 18.1287L38.3877 25.074ZM8.25488 22.5398L10.8086 21.9021L7.29785 19.9236L8.25488 22.5398ZM7.16992 17.5554L12.4863 20.5515L12.4863 16.8328L7.16992 17.5554ZM37.8096 16.0164L41.9111 19.3494V14.4978L37.8096 16.0164ZM6.79102 15.5886L11.8604 14.8992L9.00293 10.0574L6.79102 15.5886ZM36.5674 14.3435L41.4824 12.5242L39.2061 8.70972H35.4238L36.5674 14.3435ZM28.0645 11.6033L27.4082 13.3796L30.5322 12.0974L34.4434 13.9363L33.4707 9.14526L28.0645 11.6033ZM13.373 13.5291L15.5762 8.70972H10.5293L13.373 13.5291ZM15.6475 13.363L18.9561 11.5525L21.6719 13.0388L21.0166 10.5154L17.6631 8.95093L15.6475 13.363Z" fill="#A5A4B6"/>
</g>
<defs>
<clipPath id="clip0_157_1443">
<rect width="39.9462" height="39.9462" fill="white" transform="translate(4.02539 3.99976)"/>
</clipPath>
</defs>
</svg>
