<svg width="140" height="140" viewBox="0 0 140 140" fill="none" xmlns="http://www.w3.org/2000/svg">
<g clip-path="url(#clip0_518_781)">
<rect width="140" height="140" rx="70" fill="#9999EB"/>
<path d="M144.375 59.7917L70 17.5L59.7917 115.208L110.833 142.917L138.542 132.708L144.375 59.7917Z" fill="#C2C2F7"/>
<path d="M37.9167 70.3697L70 20.4167L102.083 70.3697V96.6608L80.6944 113.75H59.3055L37.9167 96.6608V70.3697Z" fill="#D0ABE2"/>
<path d="M70 20.4167L37.9167 70.3697M70 20.4167L102.083 70.3697V96.6608M70 20.4167L52.6215 67.7406M70 20.4167L87.3785 69.0552L86.0417 83.5152L102.083 96.6608M37.9167 70.3697V96.6608M37.9167 70.3697L53.9583 88.7735M37.9167 70.3697L52.6215 67.7406M37.9167 96.6608L59.3055 113.75M37.9167 96.6608L53.9583 88.7735M59.3055 113.75H80.6944L102.083 96.6608M59.3055 113.75L64.6528 94.0317M53.9583 88.7735L64.6528 94.0317M53.9583 88.7735L52.6215 67.7406M64.6528 94.0317H74.0104L78.0208 107.177" stroke="white" stroke-width="3"/>
</g>
<defs>
<clipPath id="clip0_518_781">
<rect width="140" height="140" rx="70" fill="white"/>
</clipPath>
</defs>
</svg>
