<svg width="48" height="48" viewBox="0 0 48 48" fill="none" xmlns="http://www.w3.org/2000/svg">
<g clip-path="url(#clip0_1162_3090)">
<rect width="48" height="48" rx="24" fill="#E9D5F3"/>
<path d="M54.5 18.7458L34.4655 10L13 35.7229L40.1897 52.1856L48.3646 46.6941L54.5 18.7458Z" fill="#D4B7E2"/>
<path d="M30.5651 23.2828L39.5024 33.5656L24.3724 39.1948L12.4848 35.9889L9.34521 28.1881L18.3853 21.8351L30.5651 23.2828Z" fill="#9999EB"/>
<path d="M9.34521 28.1881L18.3853 21.8351L30.5651 23.2828L39.5024 33.5656L24.3724 39.1948M9.34521 28.1881L12.4848 35.9889M9.34521 28.1881L4.00011 28.3212M9.34521 28.1881L11.2796 28.4481M12.4848 35.9889L24.3724 39.1948M12.4848 35.9889L14.7928 33.2359M24.3724 39.1948L24.9277 36.2301M25.8331 30.4041L11.2796 28.4481M24.9277 36.2301L35.522 32.2564M24.9277 36.2301L14.7928 33.2359M14.7928 33.2359L11.2796 28.4481" stroke="white"/>
<path d="M23.3176 22.8783L13 20.6872L19.7294 10.1555L28.5723 6.59665L34.149 9.95562L31.5216 18.0964L23.3176 22.8783Z" fill="#9999EB"/>
<path d="M13 20.6872L23.3176 22.8783M13 20.6872L19.7294 10.1555L28.5723 6.59665L34.149 9.95562M13 20.6872L14.8251 19.7959L23.3176 21.6216M23.3176 22.8783L31.5216 18.0964M23.3176 22.8783L23.3176 21.6216M31.5216 18.0964L34.149 9.95562M31.5216 18.0964L29.7954 17.24M34.149 9.95562L37.3912 7.3821M34.149 9.95562L32.3513 10.9669M22.9236 16.2706L32.3513 10.9669M23.3176 21.6216L29.7954 17.24M29.7954 17.24L32.3513 10.9669" stroke="white"/>
</g>
<defs>
<clipPath id="clip0_1162_3090">
<rect width="48" height="48" rx="24" fill="white"/>
</clipPath>
</defs>
</svg>
