<svg width="61" height="62" viewBox="0 0 61 62" fill="none" xmlns="http://www.w3.org/2000/svg">
<path d="M33.4526 38.7389V42.2637M32.3325 40.8844H34.6114M38.5512 36.6699H40.0575M39.3623 35.4439V37.0531V38.3174M38.0877 21.4594V22.1874M28.8176 28.2792H29.706" stroke="white" stroke-width="0.698131" stroke-linecap="round"/>
<path d="M30.6338 23.0644H33.0772" stroke="white" stroke-width="0.698131" stroke-linecap="round"/>
<path d="M9.99338 26.1259C9.59814 25.8047 8.60877 25.4783 7.81319 26.7426C6.81871 28.3231 4.60027 33.6811 6.20673 35.4542C7.4919 36.8728 9.92962 33.6554 10.9878 31.8694C11.1153 31.4068 11.0337 30.5742 9.68736 30.9442C8.00441 31.4068 11.0643 30.8286 11.1791 30.7515C11.2938 30.6744 10.8731 34.1436 11.8293 33.3342C12.5943 32.6866 13.066 31.3426 13.2063 30.7515C13.1425 31.3811 13.2139 32.5863 14.0095 32.3705C14.8051 32.1546 15.361 30.5331 15.5395 29.7493C15.5905 33.3984 15.5242 40.8739 14.851 41.5832C14.1778 42.2925 13.474 41.6988 13.2063 41.3134C12.9258 40.7609 12.7549 39.0853 14.3155 36.8034C15.8761 34.5214 17.8727 32.1263 18.6759 31.2141M20.3588 29.094C19.9636 29.1454 19.1043 29.5488 18.8289 30.7515C18.5535 31.9542 19.1986 32.1263 19.5556 32.0621C20.0529 31.9465 21.0397 31.8771 21.0091 32.5247C20.9785 33.1723 19.7469 34.4135 19.1349 34.9531C18.7779 35.133 18.1481 35.2692 18.4846 34.3749C18.9054 33.2571 23.8778 32.0621 25.2165 26.7426C24.375 29.351 22.9445 34.93 23.9543 36.3794C24.3495 36.5592 25.6372 36.202 27.6262 33.3342M30.4566 30.9442C30.2526 30.4174 29.6228 29.7339 28.7354 31.2141C27.848 32.6943 27.9067 33.6554 28.0469 33.9509C28.1107 34.195 28.46 34.4674 29.3474 33.604C30.2348 32.7405 30.7116 31.4711 30.8391 30.9442C30.1379 32.4347 29.0796 35.2075 30.4566 34.3749C32.1778 33.3342 36.3087 24.3527 36.1175 22.541C35.9262 20.7293 30.0359 33.604 32.5985 34.3749C33.2743 34.4263 34.8935 34.0357 35.9645 32.0621M36.7294 29.094C38.1829 28.6443 41.1663 26.8197 41.4723 23.1192C41.3831 22.8366 41.0669 22.5256 40.5161 23.5433C39.8276 24.8153 37.4179 29.9806 37.0737 33.604C37.5199 31.5225 38.6036 27.7757 39.3686 29.4409C39.5981 29.4409 38.8331 32.332 39.3686 32.8331C39.797 33.2339 42.1991 30.9442 43.3465 29.7493C43.0405 29.2691 42.2373 28.7125 41.4723 30.3275C40.7073 31.9425 41.5871 32.4652 42.1226 32.5247C42.5688 32.3319 43.4842 31.507 43.576 29.7493C43.5378 30.1348 43.6296 30.7901 44.3028 30.3275C45.1442 29.7493 48.4719 26.8583 48.7779 22.9265C48.7779 22.6695 48.6937 22.3097 48.3571 22.9265C47.9364 23.6974 45.1442 28.8242 45.5267 32.2163C45.9092 35.6084 48.8161 31.5224 49.4281 29.7493C48.9181 30.88 48.1124 33.0798 48.9691 32.8331C49.8259 32.5863 50.9071 30.2376 51.3406 29.094C50.6266 30.4174 49.6423 32.9795 51.4171 32.6403C53.1918 32.3011 55.242 28.8756 56.0452 27.2052M49.4281 28.246L50.1549 29.094M21.8506 29.7493C23.0235 29.8135 25.6372 29.7724 26.7082 29.094" stroke="white" stroke-width="0.961813" stroke-linecap="round"/>
<path d="M25.144 36.3504C25.6017 40.13 27.7964 44.7907 37.9646 44.1407C33.4931 46.0129 23.353 47.3269 18.5647 37.6058" stroke="white" stroke-width="1.44272" stroke-linecap="round"/>
<path d="M17.5405 28.6834C18.7465 23.5308 24.4813 14.423 37.7727 19.2116C34.6114 18.2257 28.6005 17.9201 25.1441 27.8637" stroke="white" stroke-width="1.44272" stroke-linecap="round"/>
<path d="M32.0024 21.2912V24.8252" stroke="white" stroke-width="0.692934" stroke-linecap="round"/>
<path d="M41.186 19.7724L47.4288 13.599M43.0241 21.6452L51.8681 14.5007M35.3594 16.2348L36.5732 13.2175M36.9547 12.2811L38.4114 8.46602M38.6889 7.7377L39.5559 5.51804M31.7177 15.5065L32.2727 8.18856M32.5848 4.09607L32.3767 7.21746M21.3825 18.177L17.29 13.2175M16.631 12.2811L15.4345 10.6683L14.2379 9.05562M28.2495 15.5065L27.9027 12.7319M27.764 11.8649L27.0357 6.07295M26.8969 5.24058L26.7582 4.2348M13.9605 12.7319L20.1686 19.1134M49.3016 13.2175L46.1629 16.1655L43.0241 19.1134M44.2033 23.5181L51.8681 19.3909M55.2669 20.0845L49.5444 22.547M49.0241 26.0499L56.6542 23.9343M49.2322 34.9979L57.2785 36.3505M44.8276 38.2927L54.9201 43.6337M42.3652 45.4719L48.3305 52.2349M37.579 45.9574L40.9085 52.2349M41.3247 53.206L42.816 56.0499M40.1802 45.9574L44.8276 52.7205M36.1571 48.073L39.001 55.7725M35.0819 50.4314L37.0935 58.1656M32.342 47.5528L33.3825 54.8014M33.5212 55.7725L34.0414 58.7898M27.764 47.5528L26.7582 54.8014M26.6195 55.9459L26.238 58.7898M25.3015 48.3505L22.5963 56.7783M18.4345 56.3968L23.6368 45.9574M17.2206 49.6684L21.105 44.7089M16.527 50.4314L14.0298 53.865M7.37258 47.2869C7.9265 46.906 12.8194 43.4671 14.0298 42.5239M16.2495 40.9285L16.9431 40.3389M5.5674 43.7378L12.1917 40.6164M3.72925 38.9516L13.0934 37.1135M9.8333 35.2753L14.4807 34.7898M3.13965 27.2984L6.33041 27.8187M8.37665 28.2349L14.4807 29.1019M6.33041 18.177L14.7235 22.8244M12.5385 16.2348L18.053 20.9863M14.7235 26.5701L10.8044 25.599M8.37665 24.9747L3.93734 23.7955" stroke="white" stroke-width="0.238907" stroke-linecap="round" stroke-dasharray="0.42 0.42"/>
<path d="M38.423 17.6147L45.1514 8.35452M40.0531 18.6551L47.926 10.3661M42.3768 6.6551L37.0011 16.8517M35.5444 4.40076L34.7814 9.01348M34.6427 9.88054L33.6022 15.8806M22.1051 5.30786L25.7312 15.8806M11.3363 11.6493L17.4056 17.6147M18.0299 18.1696L19.5213 19.5915M17.4056 21.8806L12.7929 18.6551M12.0646 18.1696L8.00678 15.4644M15.4981 25.002L5.16284 20.8914M43.66 22.6436L53.163 16.0886M45.1514 25.5569L46.3306 25.002M49.6254 23.6494C49.9028 23.5939 53.8335 22.054 55.7641 21.291M46.3306 30.1002L48.2034 29.8228M45.9144 35.1638L57.0127 37.5916M43.0704 41.0945L48.2034 45.95M49.0011 46.817L51.3942 48.9673M31.8334 48.9673L32.4577 58.9211M17.6831 41.4413L9.22066 48.9673M50.3884 27.1523L57.0127 25.869M51.9838 33.1869L57.5329 33.4644M44.0069 39.8112L53.163 46.6436M41.4751 42.9326L48.2034 49.5916M39.4982 46.6436L44.5618 55.0367M36.9664 53.1639L38.3884 57.7766M29.7525 47.5107L29.3016 58.9211M24.7583 46.6436L21.5328 54.7939M21.1513 55.765L20.5617 57.291M22.1571 45.1176L16.5733 53.5107M11.6137 51.8113L19.1945 43.3374M4.23212 40.516L11.6137 38.4625M48.4462 37.7997L55.1745 40.1927M55.1745 30.5164H57.8451M2.76978 29.6841H5.82181M7.5906 29.6841L13.6253 29.8921M6.75822 33.0482L9.11661 32.8748M12.0646 34.0193L14.4577 33.8806M3.01255 35.0945C3.26226 35.0945 4.55013 34.9095 5.16284 34.817" stroke="white" stroke-width="0.716722" stroke-linecap="round"/>
<path d="M25.4863 10.0542L26.8389 15.8461" stroke="white" stroke-width="0.238907" stroke-linecap="round" stroke-dasharray="0.42 0.42"/>
<path d="M17.9263 6.93201L23.4605 16.899M16.6431 10.0534L22.0535 17.7182" stroke="white" stroke-width="0.238907" stroke-linecap="round" stroke-dasharray="0.42 0.42"/>
<line x1="29.6709" y1="4.10979" x2="29.6709" y2="15.3125" stroke="white" stroke-width="0.597269" stroke-linecap="round"/>
<path d="M55.8218 29.0168L58.1516 28.6673" stroke="white" stroke-width="0.232984" stroke-linecap="round" stroke-dasharray="0.47 0.47"/>
</svg>
