<svg width="40" height="40" viewBox="0 0 40 40" fill="none" xmlns="http://www.w3.org/2000/svg">
<path d="M29.3721 7.85791C29.8761 7.90932 30.2695 8.33541 30.2695 8.85303V25.8325C30.2693 26.103 30.1592 26.3621 29.9648 26.5503C28.952 27.5313 28.8181 28.4178 28.9385 29.106C29.0716 29.8656 29.5452 30.5257 29.9395 30.8813C30.247 31.159 30.3515 31.5983 30.2021 31.9849C30.0526 32.3712 29.6799 32.626 29.2656 32.6245C24.9415 32.6086 14.8692 32.5859 13.4014 32.6235C11.7257 32.6664 10.5652 32.0594 10.0586 31.5229V31.5239C9.38192 30.8472 8.98292 29.9439 8.93555 28.9927L8.93066 28.8013V11.7026C8.9307 10.6817 9.33669 9.70289 10.0586 8.98096C10.7805 8.25902 11.7593 7.85307 12.7803 7.85303H29.2695L29.3721 7.85791ZM12.7803 26.939C12.2897 26.939 11.8195 27.1341 11.4727 27.481C11.1258 27.8278 10.9307 28.2981 10.9307 28.7886V28.8013L10.9395 28.9839C10.9755 29.347 11.1183 29.6919 11.3496 29.9741L11.4727 30.1089L11.5156 30.1558C11.5226 30.1615 11.6587 30.2873 11.9727 30.4106C12.2826 30.5323 12.7401 30.6402 13.3506 30.6245L14.29 30.6128C16.8476 30.5946 23.1845 30.6074 27.333 30.6196C27.1707 30.2622 27.0422 29.8698 26.9688 29.4507C26.8288 28.651 26.8998 27.7945 27.2715 26.939H12.7803ZM12.7803 9.85303C12.2897 9.85307 11.8195 10.0482 11.4727 10.395C11.1258 10.7419 10.9307 11.2121 10.9307 11.7026V25.4126C11.4926 25.1046 12.1279 24.939 12.7803 24.939H28.1689L28.2695 24.9429V9.85303H12.7803Z" fill="#8284A2"/>
<path d="M27.4888 27.8165H14.7944M27.4888 28.7607H14.4209M27.4888 29.6406H14.7944" stroke="#8284A2" stroke-width="0.565066"/>
<path d="M18.4098 11.9739L20.3706 12.8615L22.3311 13.7482L22.4808 13.8162L23.9329 18.1208L23.8547 18.2647L21.8094 22.0517L21.6425 22.3605L21.3227 22.2159L17.4014 20.4416L17.252 20.3746L15.7999 16.0699L15.8778 15.9251L16.9006 14.0321L17.9231 12.1381L18.09 11.8293L18.4098 11.9739ZM21.234 21.1585L21.7233 19.0589L19.5738 19.7841L21.234 21.1585ZM22.5626 18.7758L22.4415 19.2938L22.7578 18.71L22.5626 18.7758ZM19.1347 20.398L18.7345 20.0672L18.5439 20.1315L19.1347 20.398ZM21.3959 14.7521L22.4928 18.0037L23.0359 17.8205L21.939 14.5689L21.3959 14.7521ZM17.7838 19.5923L18.3223 19.4106L17.6237 17.3397L18.3371 17.099L19.0357 19.1699L21.7793 18.2444L20.6824 14.9928L17.9388 15.9183L17.9797 16.0395L17.2663 16.2802L17.2254 16.159L16.6869 16.3406L17.7838 19.5923ZM21.0004 14.0899L21.1484 14.0399L20.686 13.8301L21.0004 14.0899ZM16.9955 15.4409L17.139 15.3925L17.2287 15.0077L16.9955 15.4409ZM18.2173 14.0919L17.9782 15.1094L20.1611 14.373L19.3545 13.7082L18.4767 12.9851L18.2173 14.0919Z" fill="#8284A2"/>
</svg>
