<svg width="40" height="40" viewBox="0 0 40 40" fill="none" xmlns="http://www.w3.org/2000/svg">
<path d="M23.25 9.96423H25.625C26.2549 9.96423 26.859 10.2218 27.3044 10.6802C27.7498 11.1386 28 11.7604 28 12.4087V29.5198C28 30.1681 27.7498 30.7898 27.3044 31.2483C26.859 31.7067 26.2549 31.9642 25.625 31.9642H11.375C10.7451 31.9642 10.141 31.7067 9.69562 31.2483C9.25022 30.7898 9 30.1681 9 29.5198V12.4087C9 11.7604 9.25022 11.1386 9.69562 10.6802C10.141 10.2218 10.7451 9.96423 11.375 9.96423H13.75" stroke="#7E7F9D" stroke-width="2" stroke-linecap="round" stroke-linejoin="round"/>
<path d="M21.875 7H15.125C14.5037 7 14 7.67157 14 8.5V11.5C14 12.3284 14.5037 13 15.125 13H21.875C22.4963 13 23 12.3284 23 11.5V8.5C23 7.67157 22.4963 7 21.875 7Z" stroke="#7E7F9D" stroke-width="2" stroke-linecap="round" stroke-linejoin="round"/>
<line x1="13" y1="16.9642" x2="25" y2="16.9642" stroke="#7A7B99" stroke-width="2"/>
<line x1="13" y1="20.9642" x2="25" y2="20.9642" stroke="#7A7B99" stroke-width="2"/>
<line x1="13" y1="24.9642" x2="25" y2="24.9642" stroke="#7A7B99" stroke-width="2"/>
<path d="M33.347 14.8971L35.524 15.2749L36.3025 16.5922L35.8095 18.5894L29.9451 23.2532L24.0339 25.236L27.1923 19.7917L33.347 14.8971Z" fill="#F5DEFF"/>
<path d="M36.4579 15.5004L36.8771 16.7978L36.9301 16.9603L36.8722 17.1212L36.2696 18.7969L36.2218 18.9298L29.8847 23.9694L29.7919 23.997L24.1329 25.6688L22.9476 26.0187L23.556 24.9434L26.4585 19.8054L26.5063 19.7212L32.8403 14.684L32.978 14.6657L34.7002 14.4402L34.8709 14.418L35.0188 14.505L36.2365 15.2236L36.4006 15.3201L36.4579 15.5004ZM26.2734 22.1661L27.2326 21.1899L26.9949 20.891L26.2734 22.1661ZM26.9612 22.893L28.0781 22.2531L27.8599 21.9787L26.9612 22.893ZM28.7078 23.0449L27.8818 23.5172L28.8555 23.2307L28.7078 23.0449ZM34.8613 18.2499L29.5385 22.4829L29.7744 22.7794L35.0972 18.5464L34.8613 18.2499ZM27.6408 20.0966L27.9764 20.5185L31.3234 17.8568L31.9458 18.6395L28.5988 21.3012L28.9161 21.7002L34.2389 17.4672L33.9216 17.0682L33.5769 17.3424L32.9545 16.5597L33.2992 16.2855L32.9637 15.8636L27.6408 20.0966ZM34.659 15.4537L33.9858 15.5424L35.6325 17.6129L35.8737 16.942L35.5655 15.988L34.659 15.4537Z" fill="#8284A2"/>
</svg>
