<svg width="40" height="40" viewBox="0 0 40 40" fill="none" xmlns="http://www.w3.org/2000/svg">
<g clip-path="url(#clip0_448_6085)">
<path d="M25.1605 29.0402C22.8786 28.3814 22.0043 24.7566 21.8083 22.9824L19.9062 24.3364C20.5649 28.0534 22.857 30.6771 23.9255 31.0398L25.1605 29.0402Z" fill="#F5DEFF"/>
<path d="M21.8083 22.9824C22.0043 24.7566 22.8786 28.3814 25.1605 29.0402L23.9255 31.0398C22.857 30.6771 20.5649 28.0534 19.9062 24.3364" stroke="#8284A2"/>
<path d="M20.4814 12.1176L20.7743 10.4409C20.9548 10.0508 21.3662 9.03561 21.568 8.0959C21.7698 7.15619 21.2178 6.82693 20.9166 6.77977L19.1961 10.0617C18.9706 11.2431 18.4723 13.6724 18.2824 13.939C18.0451 14.2721 17.6221 17.1607 17.3381 18.8227C17.111 20.1522 16.1 21.8069 15.6229 22.468L8.79866 30.5175M20.2639 12.7118L21.8165 8.60226L23.9561 3.92291C24.2199 3.93792 24.7194 4.22215 24.6075 5.23907C24.4956 6.25599 23.0809 10.152 22.3875 11.9729M22.3994 12.1296L24.9681 4.10872L25.506 2.54475C25.8681 2.58729 26.5676 2.96837 26.4684 4.15241C26.3691 5.33644 25.4454 8.782 24.996 10.3568L24.7811 12.3689L27.0215 7.28803L28.1064 4.97348C28.2981 4.73133 28.7389 4.31095 28.9684 4.56665C29.1329 4.6592 29.4274 5.00975 29.2886 5.67157C29.1497 6.33339 28.15 8.77803 27.6676 9.91762L26.6117 13.3067L26.1347 16.8744M26.0087 17.8169L26.1347 16.8744M26.1347 16.8744C26.9906 15.7548 28.8457 13.468 29.4195 13.2774C30.1414 12.9862 31.6097 12.5859 31.707 13.3138L29.8186 15.7682C29.108 16.785 27.6496 18.9529 27.5012 19.4893C27.3529 20.0258 25.1868 21.6346 24.1223 22.372C22.914 22.9451 20.3312 24.4613 19.6661 25.9403L15.6229 34.5309" stroke="#8284A2"/>
<path d="M23.04 24.3925C22.0882 22.37 18.1158 21.2612 15.9511 20.625L14.3896 22.955C19.2081 23.4903 21.181 25.3509 21.6767 26.5241L23.04 24.3925Z" fill="#F5DEFF" stroke="#8284A2"/>
<path d="M17.1904 21.2289L16.2302 22.7352" stroke="#8284A2" stroke-width="0.357272" stroke-linecap="round"/>
<path d="M18.1504 21.554L17.1902 23.0603" stroke="#8284A2" stroke-width="0.357272" stroke-linecap="round"/>
<path d="M19.1108 21.8759L18.1506 23.3822" stroke="#8284A2" stroke-width="0.357272" stroke-linecap="round"/>
<path d="M20.1553 22.2825L19.1951 23.7888" stroke="#8284A2" stroke-width="0.357272" stroke-linecap="round"/>
<path d="M21.0312 22.7352L20.0711 24.2416" stroke="#8284A2" stroke-width="0.357272" stroke-linecap="round"/>
<path d="M21.9912 23.1665L21.031 24.6729" stroke="#8284A2" stroke-width="0.357272" stroke-linecap="round"/>
<path d="M22.8345 23.704L21.8743 25.2103" stroke="#8284A2" stroke-width="0.357272" stroke-linecap="round"/>
<path d="M23.6777 24.2416L22.7175 25.7479" stroke="#8284A2" stroke-width="0.357272" stroke-linecap="round"/>
<path d="M24.4043 24.8853L23.4441 26.3916" stroke="#8284A2" stroke-width="0.357272" stroke-linecap="round"/>
<path d="M25.1968 25.7443L24.2366 27.2506" stroke="#8284A2" stroke-width="0.357272" stroke-linecap="round"/>
</g>
<defs>
<clipPath id="clip0_448_6085">
<rect width="40" height="40" fill="white"/>
</clipPath>
</defs>
</svg>
