<svg width="40" height="40" viewBox="0 0 40 40" fill="none" xmlns="http://www.w3.org/2000/svg">
<circle cx="16.4851" cy="17.0231" r="11.4392" stroke="#8284A2" stroke-width="2"/>
<path d="M32.3722 36.5876L24.2769 27.1668C23.8331 26.6503 23.8694 25.8774 24.3595 25.4048C24.8437 24.9379 25.6061 24.9236 26.1075 25.3719L35.4227 33.7016C35.802 34.0407 36.0488 34.5331 35.9272 35.0271C35.6283 36.2416 34.6513 36.8449 33.7967 37.0982C33.2692 37.2546 32.7308 37.005 32.3722 36.5876Z" fill="#8284A2"/>
<path d="M16.729 9.42468L19.019 11.5604L21.3101 13.6952L21.4233 13.8016V20.246L21.3101 20.3514L16.729 24.6219L16.4849 24.8495L16.2407 24.6219L11.6597 20.3514L11.5464 20.246V13.8016L11.6597 13.6952L13.9507 11.5604L16.2407 9.42468L16.4849 9.19812L16.729 9.42468ZM16.4819 23.6249L18.4751 20.4032H14.4888L16.4819 23.6249ZM19.3159 20.4032L18.103 22.3622L20.2056 20.4032H19.3159ZM14.8521 22.3495L13.6479 20.4032H12.7642L14.8521 22.3495ZM19.4937 14.3134V19.6884H20.7085V14.3134H19.4937ZM12.2612 19.6884H13.4702V16.3173H14.1851V19.6884H18.7788V14.3134H14.1851V14.6903H13.4702V14.3134H12.2612V19.6884ZM19.3423 13.5985H20.1577L18.5317 12.0829L18.2212 11.7928L19.3423 13.5985ZM14.438 12.0829L12.812 13.5985H13.6216L14.7339 11.8055L14.438 12.0829ZM15.4468 12.0145L14.4624 13.5985H18.5015L17.5171 12.0145L16.4819 10.3475L15.4468 12.0145Z" fill="#8284A2"/>
</svg>
