<svg width="40" height="40" viewBox="0 0 40 40" fill="none" xmlns="http://www.w3.org/2000/svg">
<g clip-path="url(#clip0_448_6105)">
<path d="M18.6093 9.60722C19.2274 8.52253 20.7726 8.52253 21.3907 9.60722L33.7825 31.3531C34.4006 32.4378 33.6279 33.7937 32.3917 33.7937H7.60827C6.37206 33.7937 5.59944 32.4378 6.21754 31.3531L18.6093 9.60722Z" stroke="#8284A2" stroke-width="2"/>
<path d="M16.4141 5.0633L19.9512 3.7937L23.3804 5.0633L25 8.19218L23.7676 18.3588L21.8983 22.5474L20.1375 23.7937L18.237 22.5474L16.2325 18.3588L15 8.19218L16.4141 5.0633Z" fill="#F5DEFF"/>
<path d="M16.2325 18.3588L15 8.19218M16.2325 18.3588L18.237 19.8052M16.2325 18.3588L18.237 22.5474L20.1375 23.7937M16.4141 5.0633L19.9512 3.7937L23.3804 5.0633M16.4141 5.0633L19.9512 6.09989M16.4141 5.0633L15 8.19218M23.3804 5.0633L19.9512 6.09989M23.3804 5.0633L25 8.19218M23.7676 18.3588L25 8.19218M23.7676 18.3588L21.8983 19.8052M23.7676 18.3588L21.8983 22.5474L20.1375 23.7937M19.9512 6.09989L17.4759 8.19218M19.9512 6.09989L22.4948 8.19218M20.1375 23.7937L18.237 19.8052M20.1375 23.7937L21.8983 19.8052M20.1375 19.8052H21.8983M25 8.19218H22.4948M15 8.19218H17.4759M17.4759 8.19218L18.237 19.8052M22.4948 8.19218L21.8983 19.8052" stroke="#8284A2" stroke-width="0.8"/>
<path d="M17 27.6782L18.2542 24.7937H21.7438L23 27.42L21.7438 29.7937H19.999H18.2542L17 27.6782Z" fill="#F5DEFF"/>
<path d="M17 27.6782L18.2542 24.7937H21.7438M17 27.6782L18.2542 29.7937M17 27.6782L19.9898 27.42M21.7438 24.7937L23 27.42L21.7438 29.7937M21.7438 24.7937L19.9898 27.42M21.7438 29.7937L19.9898 27.42M21.7438 29.7937H19.999H18.2542M18.2542 29.7937L19.9898 27.42" stroke="#8284A2" stroke-width="0.8"/>
</g>
<defs>
<clipPath id="clip0_448_6105">
<path d="M0 16C0 7.16344 7.16344 0 16 0H24C32.8366 0 40 7.16344 40 16V24C40 32.8366 32.8366 40 24 40H16C7.16344 40 0 32.8366 0 24V16Z" fill="white"/>
</clipPath>
</defs>
</svg>
