<svg width="40" height="40" viewBox="0 0 40 40" fill="none" xmlns="http://www.w3.org/2000/svg">
<g clip-path="url(#clip0_448_6058)">
<path d="M3.38574 7.9032H13.3543C15.1169 7.9032 16.8072 8.46306 18.0536 9.45963C19.2999 10.4562 20 11.8078 20 13.2172V31.8162C20 30.7591 19.4749 29.7454 18.5402 28.998C17.6054 28.2506 16.3377 27.8307 15.0157 27.8307H3.38574V7.9032Z" fill="#F5DEFF"/>
<path d="M36.6143 7.9032H26.6457C24.8832 7.9032 23.1928 8.46306 21.9465 9.45963C20.7002 10.4562 20 11.8078 20 13.2172V31.8162C20 30.7591 20.5251 29.7454 21.4599 28.998C22.3946 28.2506 23.6624 27.8307 24.9843 27.8307H36.6143V7.9032Z" fill="#F5DEFF"/>
<path d="M13.354 6.90308C15.3181 6.90311 17.235 7.5254 18.6772 8.67847C19.197 9.09409 19.6415 9.5711 19.9995 10.0916C20.3575 9.57105 20.802 9.09413 21.3218 8.67847C22.764 7.52536 24.681 6.90319 26.645 6.90308H36.6138L36.7163 6.90796C37.2204 6.95927 37.6137 7.38543 37.6138 7.90308V27.7947C37.6153 27.835 37.6123 27.8754 37.6089 27.9158C37.608 27.9262 37.6072 27.9366 37.606 27.947C37.5959 28.0341 37.5751 28.1204 37.5415 28.2039C37.5386 28.211 37.5358 28.2182 37.5327 28.2253C37.5249 28.2436 37.5154 28.2611 37.5063 28.2791C37.5003 28.291 37.4953 28.3035 37.4888 28.3152C37.4874 28.3176 37.4862 28.3206 37.4849 28.323L37.4702 28.3435C37.4577 28.3644 37.4451 28.3852 37.4312 28.405L37.4292 28.4089L37.3003 28.6179C37.1689 28.8571 37.0395 29.1813 36.9956 29.5164C36.9411 29.9334 37.0205 30.3007 37.3267 30.6121C37.6274 30.9179 37.6998 31.3816 37.5063 31.7644C37.3128 32.147 36.8966 32.3642 36.4722 32.3035L35.4946 32.1707C33.0871 31.8593 29.847 31.5514 26.9565 31.5095C25.3004 31.4855 23.7989 31.5496 22.6479 31.7371C22.0716 31.831 21.6192 31.9497 21.2935 32.0847C21.0376 32.1908 20.9155 32.2837 20.8638 32.3337L20.8335 32.3689C20.8294 32.3751 20.824 32.3804 20.8198 32.3865C20.8069 32.405 20.7939 32.4235 20.7798 32.4412C20.7711 32.452 20.7615 32.462 20.7524 32.4724C20.7442 32.4818 20.7366 32.4916 20.728 32.5007C20.7139 32.5158 20.699 32.5297 20.6841 32.5437C20.6752 32.5521 20.666 32.5601 20.6567 32.5681C20.6417 32.5813 20.6266 32.5941 20.6108 32.6062C20.6037 32.6117 20.5967 32.6174 20.5894 32.6228C20.5487 32.6525 20.5065 32.6789 20.4624 32.7019C20.4111 32.7288 20.3574 32.7516 20.3013 32.7693C20.2973 32.7705 20.2935 32.772 20.2896 32.7732C20.2668 32.7801 20.2436 32.7855 20.2202 32.7908C20.2117 32.7927 20.2033 32.7949 20.1948 32.7966C20.1797 32.7996 20.1643 32.8012 20.1489 32.8035L20.147 32.8044C20.1185 32.8087 20.0898 32.8105 20.061 32.8123C20.0435 32.8133 20.026 32.815 20.0083 32.8152H20.0073C20.0057 32.8152 20.0041 32.8152 20.0024 32.8152L19.9995 32.8162C19.989 32.8162 19.9787 32.8145 19.9683 32.8142C19.9471 32.8136 19.9259 32.8133 19.9048 32.8113C19.8949 32.8104 19.8852 32.8086 19.8755 32.8074C19.8719 32.8069 19.8684 32.8059 19.8647 32.8054C19.8582 32.8045 19.8517 32.8035 19.8452 32.8025C19.7997 32.7954 19.7542 32.7868 19.7095 32.7732C19.6756 32.7629 19.6431 32.7497 19.6108 32.7361C19.6053 32.7338 19.5997 32.7317 19.5942 32.7292C19.5757 32.721 19.5575 32.7122 19.5396 32.7029C19.527 32.6964 19.5148 32.6895 19.5024 32.6824C19.4937 32.6774 19.4846 32.673 19.4761 32.6677C19.4715 32.6649 19.467 32.6619 19.4624 32.6589C19.4574 32.6558 19.4517 32.6534 19.4468 32.6501C19.4333 32.6412 19.4206 32.6313 19.4077 32.6218C19.4017 32.6174 19.396 32.6127 19.3901 32.6082C19.3705 32.5931 19.3517 32.5775 19.3335 32.5613C19.3292 32.5574 19.325 32.5535 19.3208 32.5496C19.3036 32.5337 19.2869 32.5176 19.271 32.5007L19.2632 32.4929C19.2585 32.4878 19.2541 32.4825 19.2495 32.4773C19.2377 32.4639 19.2263 32.4502 19.2153 32.4363C19.2041 32.422 19.1936 32.4072 19.1831 32.3923C19.1771 32.3838 19.1703 32.3757 19.1646 32.3669C19.1446 32.3387 19.0391 32.223 18.7056 32.0847C18.3798 31.9497 17.9275 31.83 17.3511 31.7361C16.2 31.5487 14.6986 31.4845 13.0425 31.5085C10.152 31.5505 6.91184 31.8583 4.50439 32.1697L3.52686 32.3025C3.10243 32.3631 2.68618 32.147 2.49268 31.7644C2.29933 31.3817 2.37178 30.9179 2.67236 30.6121C2.97867 30.3006 3.05795 29.9336 3.00342 29.5164C2.95952 29.1809 2.83028 28.8563 2.69873 28.6169L2.56982 28.4089C2.45008 28.24 2.38531 28.0379 2.38525 27.8308V7.90308L2.39014 7.80054C2.44149 7.29652 2.86772 6.9032 3.38525 6.90308H13.354ZM4.90479 28.8308C4.93781 28.9693 4.96775 29.1117 4.98682 29.2576C5.02151 29.5232 5.03025 29.8053 5.00146 30.0935C7.36131 29.8095 10.322 29.5486 13.0132 29.5095C14.7163 29.4848 16.353 29.5474 17.6733 29.7625C17.769 29.778 17.8637 29.7967 17.9575 29.8142C17.9436 29.8027 17.9298 29.7904 17.9155 29.7791C17.223 29.2253 16.2641 28.8761 15.2241 28.8347L15.0151 28.8308H4.90479ZM24.9839 28.8308C23.8639 28.8309 22.8221 29.1884 22.0835 29.7791C22.069 29.7907 22.0547 29.8025 22.0405 29.8142C22.1347 29.7966 22.2296 29.7781 22.3257 29.7625C23.6459 29.5474 25.2827 29.4848 26.9858 29.5095C29.6769 29.5486 32.6377 29.8095 34.9976 30.0935C34.9688 29.8054 34.9775 29.5231 35.0122 29.2576C35.0313 29.1117 35.0602 28.9693 35.0933 28.8308H24.9839ZM4.38525 26.8308H15.0151L15.3003 26.8357C16.6518 26.8891 17.9631 27.3229 18.9995 28.0916V13.2175L18.9937 13.0173C18.9319 12.0202 18.4073 11.0238 17.4282 10.241C16.378 9.40127 14.9146 8.90311 13.354 8.90308H4.38525V26.8308ZM26.645 8.90308C25.0844 8.90319 23.621 9.40123 22.5708 10.241C21.5265 11.0761 20.9995 12.1549 20.9995 13.2175V28.0916C22.1086 27.2689 23.5328 26.8309 24.9839 26.8308H35.6138V8.90308H26.645ZM14.2925 21.8523C15.638 21.9478 16.3736 22.6082 16.6772 22.8708C16.8861 23.0515 16.9085 23.3671 16.728 23.5759C16.5474 23.7847 16.2318 23.8082 16.0229 23.6277C15.759 23.3994 15.2344 22.9252 14.231 22.8513H6.02393L5.92236 22.8416C5.69468 22.7948 5.52393 22.5928 5.52393 22.3513C5.52399 22.1099 5.69473 21.9078 5.92236 21.8611L6.02393 21.8513H14.2749L14.2925 21.8523ZM33.9692 21.8611C34.1968 21.9079 34.3676 22.1099 34.3677 22.3513C34.3677 22.5928 34.1968 22.7947 33.9692 22.8416L33.8677 22.8513H25.6606C24.6573 22.9252 24.1327 23.3993 23.8687 23.6277C23.6598 23.8082 23.3442 23.7847 23.1636 23.5759C22.983 23.3671 23.0055 23.0515 23.2144 22.8708C23.5181 22.6081 24.2538 21.9477 25.5991 21.8523L25.6167 21.8513H33.8677L33.9692 21.8611ZM14.2749 18.5271L14.2925 18.5281C15.6379 18.6235 16.3736 19.284 16.6772 19.5466C16.886 19.7272 16.9084 20.0428 16.728 20.2517C16.5474 20.4605 16.2318 20.484 16.0229 20.3035C15.7589 20.0751 15.2343 19.601 14.231 19.5271H6.02393L5.92236 19.5173C5.69468 19.4706 5.52393 19.2686 5.52393 19.0271C5.52408 18.7857 5.69479 18.5836 5.92236 18.5369L6.02393 18.5271H14.2749ZM33.9692 18.5369C34.1968 18.5836 34.3675 18.7858 34.3677 19.0271C34.3677 19.2685 34.1968 19.4705 33.9692 19.5173L33.8677 19.5271H25.6606C24.6575 19.6009 24.1327 20.075 23.8687 20.3035C23.6598 20.484 23.3442 20.4605 23.1636 20.2517C22.983 20.0429 23.0055 19.7272 23.2144 19.5466C23.5182 19.2839 24.2539 18.6235 25.5991 18.5281L25.6167 18.5271H33.8677L33.9692 18.5369ZM33.9692 15.2126C34.1968 15.2594 34.3676 15.4615 34.3677 15.7029C34.3677 15.9443 34.1968 16.1463 33.9692 16.1931L33.8677 16.2029H25.6606C24.6574 16.2767 24.1327 16.7508 23.8687 16.9792C23.6598 17.1597 23.3442 17.1363 23.1636 16.9275C22.983 16.7186 23.0055 16.403 23.2144 16.2224C23.5181 15.9597 24.2538 15.2993 25.5991 15.2039L25.6167 15.2029H33.8677L33.9692 15.2126ZM33.9692 11.8884C34.1968 11.9353 34.3677 12.1372 34.3677 12.3787C34.3676 12.6201 34.1968 12.8221 33.9692 12.8689L33.8677 12.8787H25.6606C24.6572 12.9525 24.1327 13.4267 23.8687 13.655C23.6598 13.8355 23.3442 13.812 23.1636 13.6033C22.983 13.3944 23.0055 13.0788 23.2144 12.8982C23.518 12.6355 24.2537 11.9751 25.5991 11.8796L25.6167 11.8787H33.8677L33.9692 11.8884Z" fill="#8284A2"/>
<path d="M8.49805 13.0601L9.13141 11.8673L9.76476 10.6746L10.9792 11.2335L12.1936 11.7924L13.0282 14.3082L11.7614 16.6937L9.33262 15.5759L8.49805 13.0601Z" fill="#F5DEFF"/>
<path d="M8.50146 13.0587L12.1941 11.792" stroke="#8284A2" stroke-width="0.4"/>
<path d="M11.7495 16.6826L12.2391 14.5439L11.8812 13.465L11.4132 12.0543L10.5944 11.3675L9.77547 10.6807" stroke="#8284A2" stroke-width="0.4"/>
<path d="M11.7617 16.6784L10.0982 15.2783L9.90174 14.6859L9.59519 13.7618M9.75724 10.6869L9.51481 11.7378L9.27237 12.7887L9.37383 13.0945" stroke="#8284A2" stroke-width="0.4"/>
<path d="M9.33008 15.5566L13.0227 14.2899" stroke="#8284A2" stroke-width="0.4"/>
<path d="M8.49805 13.06L9.13141 11.8672L9.76476 10.6745L10.9792 11.2334L12.1936 11.7922L13.0282 14.308L11.7614 16.6935L9.33262 15.5758L8.49805 13.06Z" stroke="#8284A2" stroke-width="0.5"/>
</g>
<defs>
<clipPath id="clip0_448_6058">
<path d="M0 16C0 7.16344 7.16344 0 16 0H24C32.8366 0 40 7.16344 40 16V24C40 32.8366 32.8366 40 24 40H16C7.16344 40 0 32.8366 0 24V16Z" fill="white"/>
</clipPath>
</defs>
</svg>
