<svg width="20" height="20" viewBox="0 0 20 20" fill="none" xmlns="http://www.w3.org/2000/svg">
<path fill-rule="evenodd" clip-rule="evenodd" d="M3.82235 6.73324C3.57417 6.99097 3.57417 7.40779 3.82235 7.66489L9.08132 13.1141C9.19724 13.2361 9.33676 13.3332 9.49139 13.3996C9.64603 13.466 9.81255 13.5002 9.98082 13.5002C10.1491 13.5002 10.3156 13.466 10.4703 13.3996C10.6249 13.3332 10.7644 13.2361 10.8803 13.1141L16.1781 7.62543C16.2965 7.50087 16.3631 7.3359 16.3642 7.16405C16.3654 6.9922 16.3012 6.82633 16.1845 6.70015C16.1269 6.63764 16.057 6.58763 15.9793 6.5532C15.9016 6.51878 15.8176 6.50067 15.7326 6.50002C15.6476 6.49936 15.5633 6.51616 15.4851 6.54939C15.4068 6.58261 15.3362 6.63154 15.2777 6.69315L10.4304 11.7167C10.3725 11.7777 10.3027 11.8263 10.2253 11.8595C10.148 11.8927 10.0647 11.9099 9.98051 11.9099C9.89633 11.9099 9.81303 11.8927 9.73569 11.8595C9.65834 11.8263 9.58856 11.7777 9.53059 11.7167L4.72155 6.73324C4.66364 6.67222 4.59391 6.62363 4.51662 6.59042C4.43932 6.55721 4.35608 6.54009 4.27195 6.54009C4.18782 6.54009 4.10458 6.55721 4.02728 6.59042C3.94999 6.62363 3.88026 6.67222 3.82235 6.73324Z" fill="#8750BF"/>
</svg>
