<svg width="20" height="21" viewBox="0 0 20 21" fill="none" xmlns="http://www.w3.org/2000/svg">
<path fill-rule="evenodd" clip-rule="evenodd" d="M3.82138 7.23324C3.57319 7.49097 3.57319 7.90779 3.82138 8.16489L9.08034 13.6141C9.19626 13.7361 9.33578 13.8332 9.49042 13.8996C9.64505 13.966 9.81157 14.0002 9.97985 14.0002C10.1481 14.0002 10.3146 13.966 10.4693 13.8996C10.6239 13.8332 10.7634 13.7361 10.8794 13.6141L16.1771 8.12543C16.2955 8.00087 16.3621 7.8359 16.3633 7.66405C16.3644 7.4922 16.3002 7.32633 16.1835 7.20015C16.1259 7.13764 16.056 7.08763 15.9783 7.0532C15.9006 7.01878 15.8166 7.00067 15.7316 7.00002C15.6466 6.99936 15.5624 7.01616 15.4841 7.04939C15.4058 7.08261 15.3352 7.13154 15.2767 7.19315L10.4294 12.2167C10.3715 12.2777 10.3017 12.3263 10.2244 12.3595C10.147 12.3927 10.0637 12.4099 9.97953 12.4099C9.89535 12.4099 9.81206 12.3927 9.73471 12.3595C9.65736 12.3263 9.58758 12.2777 9.52962 12.2167L4.72057 7.23324C4.66266 7.17222 4.59293 7.12363 4.51564 7.09042C4.43834 7.05721 4.3551 7.04009 4.27097 7.04009C4.18685 7.04009 4.1036 7.05721 4.02631 7.09042C3.94901 7.12363 3.87929 7.17222 3.82138 7.23324Z" fill="#585858"/>
</svg>
