<svg width="48" height="48" viewBox="0 0 48 48" fill="none" xmlns="http://www.w3.org/2000/svg">
<g clip-path="url(#clip0_1301_3632)">
<path fill-rule="evenodd" clip-rule="evenodd" d="M43.8335 23.9999C43.8335 34.9543 34.9532 43.8346 23.9988 43.8346C13.0444 43.8346 4.16406 34.9543 4.16406 23.9999C4.16406 13.0455 13.0444 4.16522 23.9988 4.16522C34.9532 4.16522 43.8335 13.0455 43.8335 23.9999ZM12.31 17.9398C14.0978 14.797 17.7428 12.4444 24.0352 12.5292C30.0206 12.6098 33.6505 14.6059 35.5203 17.4246C37.3621 20.2011 37.3398 23.5476 36.5085 26.0413C36.1172 27.2153 35.3057 28.4333 34.5186 29.4336C33.7191 30.4496 32.8778 31.3242 32.3451 31.8207C29.5278 34.447 25.2848 36.6601 23.3048 37.4083L21.9513 37.9199V36.4729V33.8322C15.385 32.5511 12.5492 29.6128 11.545 26.8796C10.7076 24.6 10.572 20.9948 12.31 17.9398ZM14.0483 18.9287C12.6468 21.3924 12.7541 24.371 13.4224 26.1899C14.1483 28.166 16.4287 30.9014 23.1149 32.0098L23.9513 32.1485V32.9963V34.9506C25.9802 33.9856 28.9292 32.2708 30.9814 30.3578C31.444 29.9265 32.2149 29.127 32.9469 28.1968C33.6913 27.2509 34.3305 26.2507 34.6112 25.4088C35.2981 23.348 35.2759 20.6742 33.8537 18.5302C32.4595 16.4284 29.5613 14.6038 24.0083 14.529C18.2769 14.4518 15.4 16.5528 14.0483 18.9287ZM15.7398 26.0638V20.213H17.4932V24.5757H19.3791V26.0638H15.7398ZM22.812 26.0494V20.2274H24.5396L26.079 23.0606V20.2274H27.7382V26.0494H26.079L24.5396 23.1643V26.0494H22.812ZM28.5721 26.0494V20.2274H32.2578V21.3481H29.7611V22.3374H32.2578V23.5614H29.7611V24.7183H32.2578V26.0494H28.5721ZM20.2318 20.2274V26.0494H21.9594V20.2274H20.2318Z" fill="#DCB8ED"/>
</g>
<defs>
<clipPath id="clip0_1301_3632">
<rect width="39.9981" height="39.9981" fill="white" transform="translate(3.99976 4.00089)"/>
</clipPath>
</defs>
</svg>
