<svg width="48" height="48" viewBox="0 0 48 48" fill="none" xmlns="http://www.w3.org/2000/svg">
<g clip-path="url(#clip0_1039_1830)">
<path fill-rule="evenodd" clip-rule="evenodd" d="M43.833 23.9989C43.833 34.9533 34.9527 43.8336 23.9983 43.8336C13.0439 43.8336 4.16357 34.9533 4.16357 23.9989C4.16357 13.0445 13.0439 4.16415 23.9983 4.16415C34.9527 4.16415 43.833 13.0445 43.833 23.9989ZM12.4984 18.4988C12.4984 15.1851 15.1847 12.4988 18.4984 12.4988H29.4984C32.8121 12.4988 35.4984 15.1851 35.4984 18.4988V29.4988C35.4984 32.8126 32.8121 35.4988 29.4984 35.4988H18.4984C15.1847 35.4988 12.4984 32.8126 12.4984 29.4988V18.4988ZM18.4984 14.4988C16.2892 14.4988 14.4984 16.2897 14.4984 18.4988V29.4988C14.4984 31.708 16.2892 33.4988 18.4984 33.4988H29.4984C31.7075 33.4988 33.4984 31.708 33.4984 29.4988V18.4988C33.4984 16.2897 31.7075 14.4988 29.4984 14.4988H18.4984ZM22.4195 24.8447V31.128H25.1423V24.8286C25.3709 24.8286 25.5958 24.8267 25.8177 24.8249C26.2525 24.8214 26.6757 24.8179 27.0917 24.8286C27.3334 24.8447 27.4139 24.748 27.43 24.5225C27.4623 24.1842 27.5106 23.8459 27.5589 23.5076L27.5589 23.5075C27.6073 23.0886 27.6556 22.6536 27.7039 22.1702H25.1423V20.8169C25.1423 19.6569 25.4161 19.3991 26.56 19.383H27.7845C27.7845 18.6097 27.7845 17.9008 27.7684 17.1919C27.7684 17.1113 27.5911 16.9663 27.4784 16.9663C26.8823 16.918 26.27 16.8697 25.6739 16.8697C23.9339 16.9341 22.7739 17.8847 22.5161 19.5119C22.4316 20.0436 22.4285 20.5752 22.4255 21.1069C22.4245 21.2841 22.4235 21.4613 22.4195 21.6386C22.4112 21.91 22.4072 22.0429 22.3388 22.1079C22.2731 22.1702 22.1483 22.1702 21.9039 22.1702C21.4528 22.1702 20.9856 22.1702 20.5184 22.1863C20.4217 22.1863 20.2284 22.283 20.2284 22.3475C20.2122 23.1691 20.2122 23.9747 20.2122 24.8447H22.4195Z" fill="#F9EBFF"/>
</g>
<defs>
<clipPath id="clip0_1039_1830">
<rect width="39.9981" height="39.9981" fill="white" transform="translate(3.99927 3.99982)"/>
</clipPath>
</defs>
</svg>
