<svg width="48" height="48" viewBox="0 0 48 48" fill="none" xmlns="http://www.w3.org/2000/svg">
<path fill-rule="evenodd" clip-rule="evenodd" d="M23.9983 43.8336C34.9527 43.8336 43.833 34.9533 43.833 23.9989C43.833 13.0445 34.9527 4.16415 23.9983 4.16415C13.0439 4.16415 4.16357 13.0445 4.16357 23.9989C4.16357 34.9533 13.0439 43.8336 23.9983 43.8336ZM18.4985 12.4988C15.1848 12.4988 12.4985 15.1851 12.4985 18.4988V29.4988C12.4985 32.8125 15.1848 35.4988 18.4985 35.4988H29.4985C32.8122 35.4988 35.4985 32.8125 35.4985 29.4988V18.4988C35.4985 15.1851 32.8122 12.4988 29.4985 12.4988H18.4985ZM14.4985 18.4988C14.4985 16.2897 16.2893 14.4988 18.4985 14.4988H29.4985C31.7076 14.4988 33.4985 16.2897 33.4985 18.4988V29.4988C33.4985 31.708 31.7076 33.4988 29.4985 33.4988H18.4985C16.2893 33.4988 14.4985 31.708 14.4985 29.4988V18.4988ZM23.9983 27.7033C26.0442 27.7033 27.7027 26.0447 27.7027 23.9988C27.7027 21.9529 26.0442 20.2944 23.9983 20.2944C21.9524 20.2944 20.2938 21.9529 20.2938 23.9988C20.2938 26.0447 21.9524 27.7033 23.9983 27.7033ZM23.9983 29.7033C27.1487 29.7033 29.7027 27.1493 29.7027 23.9988C29.7027 20.8484 27.1487 18.2944 23.9983 18.2944C20.8478 18.2944 18.2938 20.8484 18.2938 23.9988C18.2938 27.1493 20.8478 29.7033 23.9983 29.7033ZM30.1992 19.0756C30.863 19.0756 31.4012 18.5375 31.4012 17.8737C31.4012 17.2099 30.863 16.6717 30.1992 16.6717C29.5354 16.6717 28.9973 17.2099 28.9973 17.8737C28.9973 18.5375 29.5354 19.0756 30.1992 19.0756Z" fill="#F9EBFF"/>
</svg>
