<svg width="48" height="48" viewBox="0 0 48 48" fill="none" xmlns="http://www.w3.org/2000/svg">
<g clip-path="url(#clip0_1301_3700)">
<path fill-rule="evenodd" clip-rule="evenodd" d="M43.833 23.9999C43.833 34.9543 34.9527 43.8346 23.9983 43.8346C13.0439 43.8346 4.16357 34.9543 4.16357 23.9999C4.16357 13.0455 13.0439 4.16522 23.9983 4.16522C34.9527 4.16522 43.833 13.0455 43.833 23.9999ZM12.4984 18.4999C12.4984 15.1862 15.1847 12.4999 18.4984 12.4999H29.4984C32.8121 12.4999 35.4984 15.1862 35.4984 18.4999V29.4999C35.4984 32.8136 32.8121 35.4999 29.4984 35.4999H18.4984C15.1847 35.4999 12.4984 32.8136 12.4984 29.4999V18.4999ZM18.4984 14.4999C16.2892 14.4999 14.4984 16.2908 14.4984 18.4999V29.4999C14.4984 31.7091 16.2892 33.4999 18.4984 33.4999H29.4984C31.7075 33.4999 33.4984 31.7091 33.4984 29.4999V18.4999C33.4984 16.2908 31.7075 14.4999 29.4984 14.4999H18.4984ZM22.4195 24.8458V31.1291H25.1423V24.8296C25.3709 24.8296 25.5958 24.8278 25.8177 24.826C26.2525 24.8224 26.6757 24.819 27.0917 24.8296C27.3334 24.8458 27.4139 24.7491 27.43 24.5235C27.4623 24.1852 27.5106 23.847 27.5589 23.5087L27.5589 23.5085C27.6073 23.0896 27.6556 22.6546 27.7039 22.1713H25.1423V20.818C25.1423 19.658 25.4161 19.4002 26.56 19.3841H27.7845C27.7845 18.6107 27.7845 17.9018 27.7684 17.193C27.7684 17.1124 27.5911 16.9674 27.4784 16.9674C26.8823 16.9191 26.27 16.8707 25.6739 16.8707C23.9339 16.9352 22.7739 17.8857 22.5161 19.513C22.4316 20.0446 22.4285 20.5763 22.4255 21.108C22.4245 21.2852 22.4235 21.4624 22.4195 21.6396C22.4112 21.9111 22.4072 22.044 22.3388 22.109C22.2731 22.1713 22.1483 22.1713 21.9039 22.1713C21.4528 22.1713 20.9856 22.1713 20.5184 22.1874C20.4217 22.1874 20.2284 22.2841 20.2284 22.3485C20.2122 23.1702 20.2122 23.9757 20.2122 24.8458H22.4195Z" fill="#DCB8ED"/>
</g>
<defs>
<clipPath id="clip0_1301_3700">
<rect width="39.9981" height="39.9981" fill="white" transform="translate(3.99927 4.00089)"/>
</clipPath>
</defs>
</svg>
