<svg width="48" height="49" viewBox="0 0 48 49" fill="none" xmlns="http://www.w3.org/2000/svg">
<g id="mdi:calendar">
<path id="Vector" d="M38 38.7119H10V16.7119H38M32 2.71191V6.71191H16V2.71191H12V6.71191H10C7.78 6.71191 6 8.49191 6 10.7119V38.7119C6 39.7728 6.42143 40.7902 7.17157 41.5403C7.92172 42.2905 8.93913 42.7119 10 42.7119H38C39.0609 42.7119 40.0783 42.2905 40.8284 41.5403C41.5786 40.7902 42 39.7728 42 38.7119V10.7119C42 9.65105 41.5786 8.63363 40.8284 7.88349C40.0783 7.13334 39.0609 6.71191 38 6.71191H36V2.71191M34 24.7119H24V34.7119H34V24.7119Z" fill="#8750BF" fill-opacity="0.8"/>
</g>
</svg>
