<svg width="46" height="46" viewBox="0 0 46 46" fill="none" xmlns="http://www.w3.org/2000/svg">
<rect x="1" y="1" width="44" height="44" rx="22" fill="white"/>
<rect x="1" y="1" width="44" height="44" rx="22" stroke="black" stroke-opacity="0.2"/>
<g clip-path="url(#clip0_1422_2932)">
<path d="M34.9875 23.6246C34.9875 22.6413 34.9059 21.9238 34.7292 21.1797H23.2393V25.6177H29.9836C29.8477 26.7206 29.1134 28.3815 27.4817 29.4976L27.4588 29.6462L31.0917 32.3964L31.3434 32.4209C33.6549 30.3348 34.9875 27.2653 34.9875 23.6246Z" fill="#4285F4"/>
<path d="M23.2391 35.3172C26.5433 35.3172 29.3171 34.2542 31.3432 32.4205L27.4815 29.4972C26.4481 30.2015 25.0611 30.6931 23.2391 30.6931C20.0029 30.6931 17.2562 28.607 16.2771 25.7236L16.1336 25.7355L12.356 28.5924L12.3066 28.7266C14.3191 32.6331 18.4527 35.3172 23.2391 35.3172Z" fill="#34A853"/>
<path d="M16.2768 25.7237C16.0184 24.9796 15.8689 24.1823 15.8689 23.3585C15.8689 22.5346 16.0184 21.7374 16.2632 20.9933L16.2563 20.8348L12.4315 17.9321L12.3063 17.9903C11.4769 19.6114 11.001 21.4318 11.001 23.3585C11.001 25.2852 11.4769 27.1055 12.3063 28.7266L16.2768 25.7237Z" fill="#FBBC05"/>
<path d="M23.2391 16.0239C25.5371 16.0239 27.0871 16.9939 27.971 17.8045L31.4248 14.5092C29.3036 12.5825 26.5433 11.3999 23.2391 11.3999C18.4527 11.3999 14.3191 14.084 12.3066 17.9905L16.2635 20.9935C17.2562 18.1101 20.0029 16.0239 23.2391 16.0239Z" fill="#EB4335"/>
</g>
<defs>
<clipPath id="clip0_1422_2932">
<rect width="24" height="24" fill="white" transform="translate(11 11.3999)"/>
</clipPath>
</defs>
</svg>
