<svg width="48" height="48" viewBox="0 0 48 48" fill="none" xmlns="http://www.w3.org/2000/svg">
<path fill-rule="evenodd" clip-rule="evenodd" d="M23.9983 43.8346C34.9527 43.8346 43.833 34.9543 43.833 23.9999C43.833 13.0455 34.9527 4.16522 23.9983 4.16522C13.0439 4.16522 4.16357 13.0455 4.16357 23.9999C4.16357 34.9543 13.0439 43.8346 23.9983 43.8346ZM18.4985 12.4999C15.1848 12.4999 12.4985 15.1862 12.4985 18.4999V29.4999C12.4985 32.8136 15.1848 35.4999 18.4985 35.4999H29.4985C32.8122 35.4999 35.4985 32.8136 35.4985 29.4999V18.4999C35.4985 15.1862 32.8122 12.4999 29.4985 12.4999H18.4985ZM14.4985 18.4999C14.4985 16.2907 16.2893 14.4999 18.4985 14.4999H29.4985C31.7076 14.4999 33.4985 16.2907 33.4985 18.4999V29.4999C33.4985 31.709 31.7076 33.4999 29.4985 33.4999H18.4985C16.2893 33.4999 14.4985 31.709 14.4985 29.4999V18.4999ZM23.9983 27.7043C26.0442 27.7043 27.7027 26.0458 27.7027 23.9999C27.7027 21.954 26.0442 20.2955 23.9983 20.2955C21.9524 20.2955 20.2938 21.954 20.2938 23.9999C20.2938 26.0458 21.9524 27.7043 23.9983 27.7043ZM23.9983 29.7043C27.1487 29.7043 29.7027 27.1504 29.7027 23.9999C29.7027 20.8494 27.1487 18.2955 23.9983 18.2955C20.8478 18.2955 18.2938 20.8494 18.2938 23.9999C18.2938 27.1504 20.8478 29.7043 23.9983 29.7043ZM30.1992 19.0766C30.863 19.0766 31.4012 18.5385 31.4012 17.8747C31.4012 17.2109 30.863 16.6728 30.1992 16.6728C29.5354 16.6728 28.9973 17.2109 28.9973 17.8747C28.9973 18.5385 29.5354 19.0766 30.1992 19.0766Z" fill="#DCB8ED"/>
</svg>
