<svg width="51" height="54" viewBox="0 0 51 54" fill="none" xmlns="http://www.w3.org/2000/svg">
<g filter="url(#filter0_d_2578_4545)">
<path d="M25.752 42.5491L11.252 25.0465M25.752 42.5491L39.752 25.0465M25.752 42.5491L18.252 27.7017M25.752 42.5491L33.252 27.6001M11.252 25.0465L14.252 14.5465M11.252 25.0465L18.252 27.7017M14.252 14.5465L25.752 10.5465M14.252 14.5465L20.002 16.0465M25.752 10.5465L35.752 14.5465M25.752 10.5465L20.002 16.0465M25.752 10.5465L30.752 16.0465M35.752 14.5465L39.752 25.0465M35.752 14.5465L30.752 16.0465M39.752 25.0465L33.252 27.6001M20.002 16.0465H25.752H30.752M20.002 16.0465L18.252 27.7017M30.752 16.0465L33.252 27.6001M18.252 27.7017H25.752L33.252 27.6001" stroke="white" stroke-width="0.7" stroke-linecap="round" shape-rendering="crispEdges"/>
</g>
<defs>
<filter id="filter0_d_2578_4545" x="0.864746" y="0.172974" width="49.2856" height="52.9305" filterUnits="userSpaceOnUse" color-interpolation-filters="sRGB">
<feFlood flood-opacity="0" result="BackgroundImageFix"/>
<feColorMatrix in="SourceAlpha" type="matrix" values="0 0 0 0 0 0 0 0 0 0 0 0 0 0 0 0 0 0 127 0" result="hardAlpha"/>
<feOffset/>
<feGaussianBlur stdDeviation="5"/>
<feComposite in2="hardAlpha" operator="out"/>
<feColorMatrix type="matrix" values="0 0 0 0 0.913725 0 0 0 0 0.65098 0 0 0 0 0.627451 0 0 0 0.8 0"/>
<feBlend mode="normal" in2="BackgroundImageFix" result="effect1_dropShadow_2578_4545"/>
<feBlend mode="normal" in="SourceGraphic" in2="effect1_dropShadow_2578_4545" result="shape"/>
</filter>
</defs>
</svg>
